<?xml version="1.0" encoding="UTF-8" standalone="no"?>
<!-- Created with Inkscape (http://www.inkscape.org/) -->

<svg
   version="1.1"
   id="svg1"
   width="377.92001"
   height="377.92001"
   viewBox="0 0 377.92001 377.92001"
   xmlns="http://www.w3.org/2000/svg"
   xmlns:svg="http://www.w3.org/2000/svg">
  <defs
     id="defs1" />
  <g
     id="g1">
    <path
       style="fill:#03dac5;fill-opacity:1;stroke-width:1.14879"
       d="m 353.36202,359.79652 c -7.39057,-1.13547 -17.55023,-5.8885 -26.89742,-12.5835 -17.37425,-12.44443 -32.13071,-28.8667 -41.18543,-45.83469 -3.63264,-6.80735 -4.72942,-8.366 -8.15361,-11.58724 -6.57868,-6.18876 -19.32934,-16.34341 -26.19613,-20.86265 -7.48339,-4.92507 -15.97724,-8.41527 -25.47753,-10.46898 l -4.67576,-1.01077 -26.46807,0.0282 c -32.19871,0.0342 -38.8424,0.44351 -47.43292,2.92209 -11.24112,3.24336 -22.06575,9.97839 -37.90721,23.58569 -7.45984,6.40776 -8.62344,7.86694 -13.759799,17.25503 -5.994902,10.95732 -9.07201,15.44608 -15.894223,23.18592 -15.752037,17.87076 -36.83942,32.08646 -51.991274,35.04905 -5.695769,1.11368 -11.026361,-0.30784 -14.355858,-3.8283 -2.548424,-2.69462 -3.1640367,-4.54411 -2.921252,-8.77636 0.585583,-10.20804 9.583887,-25.47398 23.432268,-39.75366 15.503992,-15.98685 31.477903,-26.63883 46.344868,-30.90442 1.906609,-0.54704 4.253444,-1.42145 5.215197,-1.94313 2.423563,-1.3146 7.579517,-6.76105 14.008983,-14.79822 8.8573,-11.07211 13.62212,-18.82074 16.38892,-26.65187 2.75669,-7.80253 2.95227,-11.15681 2.95677,-50.70795 l 0.003,-31.95975 -1.87345,-5.16907 c -4.52928,-12.49856 -8.06637,-17.9413 -22.857701,-35.17366 l -5.875394,-6.845 -5.78418,-1.68127 C 64.349133,96.150125 53.237121,89.348193 37.752429,74.194092 24.544244,61.267882 16.36946,50.60428 12.130112,40.77103 10.155427,36.190708 9.5949106,33.576385 9.5884544,28.916383 c -0.00689,-4.579951 0.5659386,-6.331855 2.8930836,-8.856513 2.869453,-3.112987 6.725497,-4.155097 13.061761,-3.529987 8.672944,0.855635 22.040098,7.435235 33.851151,16.662266 10.617758,8.294802 25.457141,23.232808 30.150731,30.351124 3.557623,5.395498 8.443739,14.355096 9.953521,18.251634 1.174378,3.030911 1.581228,3.65113 3.687578,5.621519 2.89278,2.706051 10.79722,8.865166 17.23176,13.426934 13.87246,9.83487 21.1246,12.91978 34.60484,14.72021 11.33486,1.51388 66.4758,1.50437 73.2893,-0.0126 8.17997,-1.82125 16.97951,-5.58792 23.72063,-10.15366 10.78324,-7.30348 24.15799,-18.043789 26.06643,-20.932117 0.59316,-0.897697 2.7962,-5.023402 4.89566,-9.168228 5.96704,-11.780333 9.50261,-16.694255 19.00429,-26.413159 16.9861,-17.374425 35.19468,-29.310731 48.63605,-31.882488 3.22544,-0.61713 11.06183,-0.68746 13.11398,-0.117696 1.8449,0.512221 5.42536,3.888829 6.51885,6.147709 0.68983,1.424983 0.80611,2.245556 0.76187,5.37643 -0.0866,6.125003 -1.79582,11.340561 -6.06569,18.50857 -2.48058,4.16424 -7.63418,11.193672 -12.19925,16.639571 -4.22045,5.034785 -14.44704,15.121106 -19.13197,18.869554 -8.84771,7.079112 -18.80824,12.731533 -28.30613,16.063178 -8.1115,2.845326 -9.6043,3.899616 -19.36873,13.679226 -13.76571,13.78707 -18.91814,20.6675 -22.08947,29.49773 -1.11462,3.10354 -2.60264,9.70095 -3.27176,14.50604 -0.68061,4.88759 -0.66908,56.8759 0.0139,62.49403 0.6407,5.27059 1.70156,10.04619 3.34825,15.07245 3.61683,11.03987 7.71282,16.7428 24.81843,34.55518 l 7.23702,7.53604 6.86187,2.22047 c 15.2308,4.92862 27.95568,12.89303 41.37471,25.89614 13.18466,12.77599 23.15878,27.43388 25.60197,37.62443 0.81597,3.40342 0.94385,9.60928 0.2375,11.52515 -0.91926,2.49332 -2.66254,4.4034 -5.1255,5.61591 -2.05053,1.00947 -2.8516,1.18911 -5.82636,1.30657 -1.89692,0.0749 -4.49643,-0.0247 -5.77669,-0.22144 z M 214.89434,226.02683 c 4.67725,-0.62671 6.63224,-1.37949 8.85261,-3.40878 2.46694,-2.25465 3.95168,-5.22705 4.82046,-9.65042 0.57844,-2.94508 0.64981,-5.7919 0.64981,-25.91663 0,-24.76816 -0.12888,-26.55154 -2.26447,-31.33316 -1.61279,-3.61111 -5.70536,-6.67706 -10.22035,-7.65661 -2.634,-0.57146 -48.03693,-0.92427 -51.90761,-0.40336 -5.59397,0.75283 -9.1974,2.87358 -11.81585,6.95408 -2.34782,3.65877 -2.38638,4.0586 -2.54114,26.34861 -0.14717,21.19743 0.21883,32.17018 1.17925,35.35379 1.51825,5.03267 8.02323,9.19999 15.74195,10.08485 3.72218,0.42671 43.8916,0.11189 47.50534,-0.37237 z"
       id="path1" />
  </g>
</svg>
