<?xml version="1.0" encoding="UTF-8" standalone="no"?>
<svg width="264.583mm" height="158.75mm"
 viewBox="0 0 750 450"
 xmlns="http://www.w3.org/2000/svg" xmlns:xlink="http://www.w3.org/1999/xlink"  version="1.2" baseProfile="tiny">
<title>Qt SVG Document</title>
<desc>MATLAB, The MathWorks, Inc. Version 25.2.0.2998904 R2025b</desc>
<defs>
</defs>
<g fill="none" stroke="black" stroke-width="1" fill-rule="evenodd" stroke-linecap="square" stroke-linejoin="bevel" >

<g fill="#333333" fill-opacity="1" stroke="none" transform="matrix(0.5,0,0,0.5,0,0)"
font-family=".AppleSystemUIFont" font-size="13" font-weight="400" font-style="normal" 
>
<path vector-effect="none" fill-rule="evenodd" d="M0,0 L1501,0 L1501,901 L0,901 L0,0"/>
</g>

<g fill="#333333" fill-opacity="1" stroke="none" transform="matrix(5e-05,0,0,5e-05,0,0)"
font-family=".AppleSystemUIFont" font-size="13" font-weight="400" font-style="normal" 
>
<path vector-effect="none" fill-rule="evenodd" d="M1.95e+06,670000 L1.95e+06,7.69e+06 L1.32e+07,7.69e+06 L1.32e+07,670000 L1.95e+06,670000"/>
</g>

<g fill="#ffffff" fill-opacity="0.25098" stroke="#ffffff" stroke-opacity="0.25098" stroke-width="1" stroke-linecap="butt" stroke-linejoin="round" transform="matrix(0.5,0,0,0.5,0,0)"
font-family=".AppleSystemUIFont" font-size="13" font-weight="400" font-style="normal" 
>
<polyline fill="none" vector-effect="none" points="195,67 195,769 " />
<polyline fill="none" vector-effect="none" points="335.625,67 335.625,769 " />
<polyline fill="none" vector-effect="none" points="476.25,67 476.25,769 " />
<polyline fill="none" vector-effect="none" points="616.875,67 616.875,769 " />
<polyline fill="none" vector-effect="none" points="757.5,67 757.5,769 " />
<polyline fill="none" vector-effect="none" points="898.125,67 898.125,769 " />
<polyline fill="none" vector-effect="none" points="1038.75,67 1038.75,769 " />
<polyline fill="none" vector-effect="none" points="1179.38,67 1179.38,769 " />
<polyline fill="none" vector-effect="none" points="1320,67 1320,769 " />
<polyline fill="none" vector-effect="none" points="195,769 1320,769 " />
<polyline fill="none" vector-effect="none" points="195,681.25 1320,681.25 " />
<polyline fill="none" vector-effect="none" points="195,593.5 1320,593.5 " />
<polyline fill="none" vector-effect="none" points="195,505.75 1320,505.75 " />
<polyline fill="none" vector-effect="none" points="195,418 1320,418 " />
<polyline fill="none" vector-effect="none" points="195,330.25 1320,330.25 " />
<polyline fill="none" vector-effect="none" points="195,242.5 1320,242.5 " />
<polyline fill="none" vector-effect="none" points="195,154.75 1320,154.75 " />
<polyline fill="none" vector-effect="none" points="195,67 1320,67 " />
</g>

<g fill="#ffffff" fill-opacity="1" stroke="none" transform="matrix(0.5,0,0,0.5,355.05,438.605)"
font-family=".AppleSystemUIFont" font-size="13" font-weight="400" font-style="normal" 
>
<path vector-effect="none" fill-rule="evenodd" d="M8.85156,0.494141 C7.46224,0.494141 6.22689,0.164714 5.14551,-0.494141 C4.06413,-1.15299 3.22982,-2.04102 2.64258,-3.1582 C2.05534,-4.27539 1.76172,-5.54297 1.76172,-6.96094 C1.76172,-8.95182 2.31673,-10.9212 3.42676,-12.8691 C4.53678,-14.8171 6.01204,-16.3997 7.85254,-17.6172 C9.69303,-18.8346 11.623,-19.4434 13.6426,-19.4434 C15.1322,-19.4434 16.4427,-19.0531 17.5742,-18.2725 C18.7057,-17.4919 19.5651,-16.4535 20.1523,-15.1572 C20.7396,-13.861 21.0332,-12.4753 21.0332,-11 L21.0762,-8.05664 C22.0788,-9.44596 22.9274,-10.889 23.6221,-12.3857 C24.3167,-13.8825 24.8503,-15.4329 25.2227,-17.0371 C25.2799,-17.209 25.3945,-17.2949 25.5664,-17.2949 L26.082,-17.2949 C26.3542,-17.2949 26.4902,-17.1589 26.4902,-16.8867 C26.4902,-16.8581 26.4759,-16.8151 26.4473,-16.7578 C26.1035,-15.4115 25.6738,-14.1188 25.1582,-12.8799 C24.6426,-11.641 24.0374,-10.4414 23.3428,-9.28125 C22.6481,-8.12109 21.8926,-7.06836 21.0762,-6.12305 C21.0762,-2.48503 21.4987,-0.666016 22.3438,-0.666016 C22.888,-0.666016 23.3356,-0.827148 23.6865,-1.14941 C24.0374,-1.47168 24.3454,-1.86914 24.6104,-2.3418 C24.8753,-2.81445 25.0436,-3.05794 25.1152,-3.07227 L25.6523,-3.07227 C25.8815,-3.07227 25.9961,-2.92904 25.9961,-2.64258 C25.9961,-1.91211 25.5771,-1.20671 24.7393,-0.526367 C23.9014,0.153971 23.0742,0.494141 22.2578,0.494141 C21.1979,0.494141 20.3171,0.150391 19.6152,-0.537109 C18.9134,-1.22461 18.4336,-2.11979 18.1758,-3.22266 C16.8008,-2.04818 15.3112,-1.13509 13.707,-0.483398 C12.1029,0.168294 10.4844,0.494141 8.85156,0.494141 M8.9375,-0.666016 C12.0742,-0.666016 15.082,-1.95508 17.9609,-4.5332 C17.9466,-4.70508 17.9251,-4.91634 17.8965,-5.16699 C17.8678,-5.41764 17.8535,-5.55729 17.8535,-5.58594 L17.8535,-10.334 C17.8535,-15.6478 16.4212,-18.3047 13.5566,-18.3047 C11.8379,-18.3047 10.334,-17.5706 9.04492,-16.1025 C7.75586,-14.6344 6.78548,-12.8799 6.13379,-10.8389 C5.4821,-8.79785 5.15625,-6.93229 5.15625,-5.24219 C5.15625,-3.96745 5.4821,-2.88607 6.13379,-1.99805 C6.78548,-1.11003 7.72005,-0.666016 8.9375,-0.666016 "/>
</g>

<g fill="#ffffff" fill-opacity="1" stroke="none" transform="matrix(0.5,0,0,0.5,376.539,438.605)"
font-family=".AppleSystemUIFont" font-size="13" font-weight="400" font-style="normal" 
>
<path vector-effect="none" fill-rule="evenodd" d="M13.6426,10.9141 C12.0098,9.625 10.6025,8.14616 9.4209,6.47754 C8.23926,4.80892 7.27246,3.0293 6.52051,1.13867 C5.76855,-0.751953 5.20638,-2.72852 4.83398,-4.79102 C4.46159,-6.85352 4.27539,-8.92318 4.27539,-11 C4.27539,-13.1055 4.46159,-15.1895 4.83398,-17.252 C5.20638,-19.3145 5.77572,-21.2982 6.54199,-23.2031 C7.30827,-25.1081 8.28581,-26.8913 9.47461,-28.5527 C10.6634,-30.2142 12.0527,-31.668 13.6426,-32.9141 C13.6426,-32.9714 13.7142,-33 13.8574,-33 L14.2656,-33 C14.3516,-33 14.4303,-32.9606 14.502,-32.8818 C14.5736,-32.8031 14.6094,-32.7135 14.6094,-32.6133 C14.6094,-32.4844 14.5807,-32.3913 14.5234,-32.334 C13.0911,-30.9303 11.8988,-29.4264 10.9463,-27.8223 C9.99382,-26.2181 9.22754,-24.5101 8.64746,-22.6982 C8.06738,-20.8864 7.64844,-19.0101 7.39063,-17.0693 C7.13281,-15.1286 7.00391,-13.1055 7.00391,-11 C7.00391,-1.67578 9.49609,5.4069 14.4805,10.248 C14.5664,10.334 14.6094,10.4557 14.6094,10.6133 C14.6094,10.6849 14.57,10.7673 14.4912,10.8604 C14.4124,10.9535 14.3372,11 14.2656,11 L13.8574,11 C13.7142,11 13.6426,10.9714 13.6426,10.9141 "/>
</g>

<g fill="#ffffff" fill-opacity="1" stroke="none" transform="matrix(0.5,0,0,0.5,385.094,430.621)"
font-family=".AppleSystemUIFont" font-size="13" font-weight="400" font-style="normal" 
>
<path vector-effect="none" fill-rule="evenodd" d="M7.5,-1.68457 C6.46484,-1.68457 5.50049,-1.9458 4.60693,-2.46826 C3.71338,-2.99072 3.00293,-3.70605 2.47559,-4.61426 C1.94824,-5.52246 1.68457,-6.48438 1.68457,-7.5 C1.68457,-8.51563 1.94824,-9.47754 2.47559,-10.3857 C3.00293,-11.2939 3.71338,-12.0093 4.60693,-12.5317 C5.50049,-13.0542 6.46484,-13.3154 7.5,-13.3154 C8.53516,-13.3154 9.49707,-13.0518 10.3857,-12.5244 C11.2744,-11.9971 11.98,-11.2817 12.5024,-10.3784 C13.0249,-9.4751 13.2861,-8.51563 13.2861,-7.5 C13.2861,-6.48438 13.0249,-5.5249 12.5024,-4.62158 C11.98,-3.71826 11.2744,-3.00293 10.3857,-2.47559 C9.49707,-1.94824 8.53516,-1.68457 7.5,-1.68457 M7.5,-2.88574 C8.75,-2.88574 9.82666,-3.34229 10.73,-4.25537 C11.6333,-5.16846 12.085,-6.25 12.085,-7.5 C12.085,-8.30078 11.8774,-9.06006 11.4624,-9.77783 C11.0474,-10.4956 10.4883,-11.0645 9.78516,-11.4844 C9.08203,-11.9043 8.32031,-12.1143 7.5,-12.1143 C6.88477,-12.1143 6.29883,-11.9946 5.74219,-11.7554 C5.18555,-11.5161 4.6875,-11.1768 4.24805,-10.7373 C3.80859,-10.2979 3.47168,-9.80225 3.2373,-9.25049 C3.00293,-8.69873 2.88574,-8.11523 2.88574,-7.5 C2.88574,-6.25 3.3374,-5.16846 4.24072,-4.25537 C5.14404,-3.34229 6.23047,-2.88574 7.5,-2.88574 "/>
</g>

<g fill="#ffffff" fill-opacity="1" stroke="none" transform="matrix(0.5,0,0,0.5,393.894,438.605)"
font-family=".AppleSystemUIFont" font-size="13" font-weight="400" font-style="normal" 
>
<path vector-effect="none" fill-rule="evenodd" d="M2.85742,11 C2.59961,11 2.4707,10.8711 2.4707,10.6133 C2.4707,10.4844 2.49935,10.3913 2.55664,10.334 C7.56966,5.43555 10.0762,-1.67578 10.0762,-11 C10.0762,-20.3242 7.59831,-27.4069 2.64258,-32.248 C2.52799,-32.3197 2.4707,-32.4414 2.4707,-32.6133 C2.4707,-32.7135 2.51009,-32.8031 2.58887,-32.8818 C2.66764,-32.9606 2.75716,-33 2.85742,-33 L3.26563,-33 C3.35156,-33 3.42318,-32.9714 3.48047,-32.9141 C5.58594,-31.2526 7.34049,-29.2331 8.74414,-26.8555 C10.1478,-24.4779 11.1755,-21.9427 11.8271,-19.25 C12.4788,-16.5573 12.8047,-13.8073 12.8047,-11 C12.8047,-8.92318 12.6292,-6.87858 12.2783,-4.86621 C11.9274,-2.85384 11.3688,-0.870117 10.6025,1.08496 C9.83626,3.04004 8.86589,4.84473 7.69141,6.49902 C6.51693,8.15332 5.11328,9.625 3.48047,10.9141 C3.42318,10.9714 3.35156,11 3.26563,11 L2.85742,11"/>
</g>

<g fill="#ffffff" fill-opacity="1" stroke="#ffffff" stroke-opacity="1" stroke-width="1" stroke-linecap="square" stroke-linejoin="round" transform="matrix(0.5,0,0,0.5,0,0)"
font-family=".AppleSystemUIFont" font-size="13" font-weight="400" font-style="normal" 
>
<polyline fill="none" vector-effect="none" points="195,769 1320,769 " />
<polyline fill="none" vector-effect="none" points="195,67 1320,67 " />
<polyline fill="none" vector-effect="none" points="195,780.25 195,769 " />
<polyline fill="none" vector-effect="none" points="195,67 195,55.75 " />
<polyline fill="none" vector-effect="none" points="335.625,780.25 335.625,769 " />
<polyline fill="none" vector-effect="none" points="335.625,67 335.625,55.75 " />
<polyline fill="none" vector-effect="none" points="476.25,780.25 476.25,769 " />
<polyline fill="none" vector-effect="none" points="476.25,67 476.25,55.75 " />
<polyline fill="none" vector-effect="none" points="616.875,780.25 616.875,769 " />
<polyline fill="none" vector-effect="none" points="616.875,67 616.875,55.75 " />
<polyline fill="none" vector-effect="none" points="757.5,780.25 757.5,769 " />
<polyline fill="none" vector-effect="none" points="757.5,67 757.5,55.75 " />
<polyline fill="none" vector-effect="none" points="898.125,780.25 898.125,769 " />
<polyline fill="none" vector-effect="none" points="898.125,67 898.125,55.75 " />
<polyline fill="none" vector-effect="none" points="1038.75,780.25 1038.75,769 " />
<polyline fill="none" vector-effect="none" points="1038.75,67 1038.75,55.75 " />
<polyline fill="none" vector-effect="none" points="1179.38,780.25 1179.38,769 " />
<polyline fill="none" vector-effect="none" points="1179.38,67 1179.38,55.75 " />
<polyline fill="none" vector-effect="none" points="1320,780.25 1320,769 " />
<polyline fill="none" vector-effect="none" points="1320,67 1320,55.75 " />
</g>

<g fill="#ffffff" fill-opacity="1" stroke="none" transform="matrix(0.5,0,0,0.5,83,411.625)"
font-family=".AppleSystemUIFont" font-size="13" font-weight="400" font-style="normal" 
>
<path vector-effect="none" fill-rule="evenodd" d="M1.66016,-12.9492 L11.4648,-12.9492 L11.4648,-9.33594 L1.66016,-9.33594 L1.66016,-12.9492 M17.1406,-19.8047 L17.1406,-22.5 C19.6797,-22.7474 21.4505,-23.1608 22.4531,-23.7402 C23.4557,-24.3197 24.2044,-25.6901 24.6992,-27.8516 L27.4727,-27.8516 L27.4727,0 L23.7227,0 L23.7227,-19.8047 L17.1406,-19.8047 M46.3672,-27.9688 C49.987,-27.9688 52.6042,-26.4779 54.2188,-23.4961 C55.4688,-21.1914 56.0938,-18.0339 56.0938,-14.0234 C56.0938,-10.2214 55.5273,-7.07682 54.3945,-4.58984 C52.7539,-1.02214 50.0716,0.761719 46.3477,0.761719 C42.9883,0.761719 40.4883,-0.696615 38.8477,-3.61328 C37.4805,-6.04818 36.7969,-9.31641 36.7969,-13.418 C36.7969,-16.5951 37.207,-19.3229 38.0273,-21.6016 C39.5638,-25.8464 42.3438,-27.9688 46.3672,-27.9688 M46.3281,-2.44141 C48.151,-2.44141 49.6029,-3.2487 50.6836,-4.86328 C51.7643,-6.47786 52.3047,-9.48568 52.3047,-13.8867 C52.3047,-17.0638 51.9141,-19.6777 51.1328,-21.7285 C50.3516,-23.7793 48.8346,-24.8047 46.582,-24.8047 C44.5117,-24.8047 42.998,-23.8314 42.041,-21.8848 C41.084,-19.9382 40.6055,-17.0703 40.6055,-13.2813 C40.6055,-10.4297 40.9115,-8.13802 41.5234,-6.40625 C42.4609,-3.76302 44.0625,-2.44141 46.3281,-2.44141 "/>
</g>

<g fill="#ffffff" fill-opacity="1" stroke="none" transform="matrix(0.5,0,0,0.5,158.813,411.625)"
font-family=".AppleSystemUIFont" font-size="13" font-weight="400" font-style="normal" 
>
<path vector-effect="none" fill-rule="evenodd" d="M1.66016,-12.9492 L11.4648,-12.9492 L11.4648,-9.33594 L1.66016,-9.33594 L1.66016,-12.9492 M18.2539,-7.12891 C18.4883,-5.1237 19.4193,-3.73698 21.0469,-2.96875 C21.8802,-2.57813 22.8438,-2.38281 23.9375,-2.38281 C26.0208,-2.38281 27.5638,-3.04688 28.5664,-4.375 C29.569,-5.70313 30.0703,-7.17448 30.0703,-8.78906 C30.0703,-10.7422 29.4746,-12.2526 28.2832,-13.3203 C27.0918,-14.388 25.6628,-14.9219 23.9961,-14.9219 C22.7852,-14.9219 21.7467,-14.6875 20.8809,-14.2188 C20.015,-13.75 19.276,-13.099 18.6641,-12.2656 L15.6172,-12.4414 L17.7461,-27.5 L32.2773,-27.5 L32.2773,-24.1016 L20.3828,-24.1016 L19.1914,-16.3281 C19.8424,-16.8229 20.4609,-17.194 21.0469,-17.4414 C22.0885,-17.8711 23.293,-18.0859 24.6602,-18.0859 C27.2253,-18.0859 29.3997,-17.2591 31.1836,-15.6055 C32.9674,-13.9518 33.8594,-11.8555 33.8594,-9.31641 C33.8594,-6.67318 33.0423,-4.34245 31.4082,-2.32422 C29.7741,-0.30599 27.1667,0.703125 23.5859,0.703125 C21.3073,0.703125 19.2923,0.061849 17.541,-1.2207 C15.7897,-2.50326 14.8099,-4.47266 14.6016,-7.12891 L18.2539,-7.12891"/>
</g>

<g fill="#ffffff" fill-opacity="1" stroke="none" transform="matrix(0.5,0,0,0.5,232.625,411.625)"
font-family=".AppleSystemUIFont" font-size="13" font-weight="400" font-style="normal" 
>
<path vector-effect="none" fill-rule="evenodd" d="M10.8203,-27.9688 C14.4401,-27.9688 17.0573,-26.4779 18.6719,-23.4961 C19.9219,-21.1914 20.5469,-18.0339 20.5469,-14.0234 C20.5469,-10.2214 19.9805,-7.07682 18.8477,-4.58984 C17.207,-1.02214 14.5247,0.761719 10.8008,0.761719 C7.44141,0.761719 4.94141,-0.696615 3.30078,-3.61328 C1.93359,-6.04818 1.25,-9.31641 1.25,-13.418 C1.25,-16.5951 1.66016,-19.3229 2.48047,-21.6016 C4.01693,-25.8464 6.79688,-27.9688 10.8203,-27.9688 M10.7813,-2.44141 C12.6042,-2.44141 14.056,-3.2487 15.1367,-4.86328 C16.2174,-6.47786 16.7578,-9.48568 16.7578,-13.8867 C16.7578,-17.0638 16.3672,-19.6777 15.5859,-21.7285 C14.8047,-23.7793 13.2878,-24.8047 11.0352,-24.8047 C8.96484,-24.8047 7.45117,-23.8314 6.49414,-21.8848 C5.53711,-19.9382 5.05859,-17.0703 5.05859,-13.2813 C5.05859,-10.4297 5.36458,-8.13802 5.97656,-6.40625 C6.91406,-3.76302 8.51563,-2.44141 10.7813,-2.44141 "/>
</g>

<g fill="#ffffff" fill-opacity="1" stroke="none" transform="matrix(0.5,0,0,0.5,302.938,411.625)"
font-family=".AppleSystemUIFont" font-size="13" font-weight="400" font-style="normal" 
>
<path vector-effect="none" fill-rule="evenodd" d="M4.94141,-7.12891 C5.17578,-5.1237 6.10677,-3.73698 7.73438,-2.96875 C8.56771,-2.57813 9.53125,-2.38281 10.625,-2.38281 C12.7083,-2.38281 14.2513,-3.04688 15.2539,-4.375 C16.2565,-5.70313 16.7578,-7.17448 16.7578,-8.78906 C16.7578,-10.7422 16.1621,-12.2526 14.9707,-13.3203 C13.7793,-14.388 12.3503,-14.9219 10.6836,-14.9219 C9.47266,-14.9219 8.43424,-14.6875 7.56836,-14.2188 C6.70247,-13.75 5.96354,-13.099 5.35156,-12.2656 L2.30469,-12.4414 L4.43359,-27.5 L18.9648,-27.5 L18.9648,-24.1016 L7.07031,-24.1016 L5.87891,-16.3281 C6.52995,-16.8229 7.14844,-17.194 7.73438,-17.4414 C8.77604,-17.8711 9.98047,-18.0859 11.3477,-18.0859 C13.9128,-18.0859 16.0872,-17.2591 17.8711,-15.6055 C19.6549,-13.9518 20.5469,-11.8555 20.5469,-9.31641 C20.5469,-6.67318 19.7298,-4.34245 18.0957,-2.32422 C16.4616,-0.30599 13.8542,0.703125 10.2734,0.703125 C7.99479,0.703125 5.97982,0.061849 4.22852,-1.2207 C2.47721,-2.50326 1.4974,-4.47266 1.28906,-7.12891 L4.94141,-7.12891"/>
</g>

<g fill="#ffffff" fill-opacity="1" stroke="none" transform="matrix(0.5,0,0,0.5,367.75,411.625)"
font-family=".AppleSystemUIFont" font-size="13" font-weight="400" font-style="normal" 
>
<path vector-effect="none" fill-rule="evenodd" d="M3.82813,-19.8047 L3.82813,-22.5 C6.36719,-22.7474 8.13802,-23.1608 9.14063,-23.7402 C10.1432,-24.3197 10.8919,-25.6901 11.3867,-27.8516 L14.1602,-27.8516 L14.1602,0 L10.4102,0 L10.4102,-19.8047 L3.82813,-19.8047 M33.0547,-27.9688 C36.6745,-27.9688 39.2917,-26.4779 40.9063,-23.4961 C42.1563,-21.1914 42.7813,-18.0339 42.7813,-14.0234 C42.7813,-10.2214 42.2148,-7.07682 41.082,-4.58984 C39.4414,-1.02214 36.7591,0.761719 33.0352,0.761719 C29.6758,0.761719 27.1758,-0.696615 25.5352,-3.61328 C24.168,-6.04818 23.4844,-9.31641 23.4844,-13.418 C23.4844,-16.5951 23.8945,-19.3229 24.7148,-21.6016 C26.2513,-25.8464 29.0313,-27.9688 33.0547,-27.9688 M33.0156,-2.44141 C34.8385,-2.44141 36.2904,-3.2487 37.3711,-4.86328 C38.4518,-6.47786 38.9922,-9.48568 38.9922,-13.8867 C38.9922,-17.0638 38.6016,-19.6777 37.8203,-21.7285 C37.0391,-23.7793 35.5221,-24.8047 33.2695,-24.8047 C31.1992,-24.8047 29.6855,-23.8314 28.7285,-21.8848 C27.7715,-19.9382 27.293,-17.0703 27.293,-13.2813 C27.293,-10.4297 27.599,-8.13802 28.2109,-6.40625 C29.1484,-3.76302 30.75,-2.44141 33.0156,-2.44141 "/>
</g>

<g fill="#ffffff" fill-opacity="1" stroke="none" transform="matrix(0.5,0,0,0.5,438.063,411.625)"
font-family=".AppleSystemUIFont" font-size="13" font-weight="400" font-style="normal" 
>
<path vector-effect="none" fill-rule="evenodd" d="M3.82813,-19.8047 L3.82813,-22.5 C6.36719,-22.7474 8.13802,-23.1608 9.14063,-23.7402 C10.1432,-24.3197 10.8919,-25.6901 11.3867,-27.8516 L14.1602,-27.8516 L14.1602,0 L10.4102,0 L10.4102,-19.8047 L3.82813,-19.8047 M27.1758,-7.12891 C27.4102,-5.1237 28.3411,-3.73698 29.9688,-2.96875 C30.8021,-2.57813 31.7656,-2.38281 32.8594,-2.38281 C34.9427,-2.38281 36.4857,-3.04688 37.4883,-4.375 C38.4909,-5.70313 38.9922,-7.17448 38.9922,-8.78906 C38.9922,-10.7422 38.3965,-12.2526 37.2051,-13.3203 C36.0137,-14.388 34.5846,-14.9219 32.918,-14.9219 C31.707,-14.9219 30.6686,-14.6875 29.8027,-14.2188 C28.9368,-13.75 28.1979,-13.099 27.5859,-12.2656 L24.5391,-12.4414 L26.668,-27.5 L41.1992,-27.5 L41.1992,-24.1016 L29.3047,-24.1016 L28.1133,-16.3281 C28.7643,-16.8229 29.3828,-17.194 29.9688,-17.4414 C31.0104,-17.8711 32.2148,-18.0859 33.582,-18.0859 C36.1471,-18.0859 38.3216,-17.2591 40.1055,-15.6055 C41.8893,-13.9518 42.7813,-11.8555 42.7813,-9.31641 C42.7813,-6.67318 41.9642,-4.34245 40.3301,-2.32422 C38.696,-0.30599 36.0885,0.703125 32.5078,0.703125 C30.2292,0.703125 28.2142,0.061849 26.4629,-1.2207 C24.7116,-2.50326 23.7318,-4.47266 23.5234,-7.12891 L27.1758,-7.12891"/>
</g>

<g fill="#ffffff" fill-opacity="1" stroke="none" transform="matrix(0.5,0,0,0.5,508.375,411.625)"
font-family=".AppleSystemUIFont" font-size="13" font-weight="400" font-style="normal" 
>
<path vector-effect="none" fill-rule="evenodd" d="M1.25,0 C1.38021,-2.40885 1.87826,-4.50521 2.74414,-6.28906 C3.61003,-8.07292 5.29948,-9.69401 7.8125,-11.1523 L11.5625,-13.3203 C13.2422,-14.2969 14.4206,-15.1302 15.0977,-15.8203 C16.1654,-16.901 16.6992,-18.138 16.6992,-19.5313 C16.6992,-21.1589 16.2109,-22.4512 15.2344,-23.4082 C14.2578,-24.3652 12.9557,-24.8438 11.3281,-24.8438 C8.91927,-24.8438 7.2526,-23.9323 6.32813,-22.1094 C5.83333,-21.1328 5.5599,-19.7786 5.50781,-18.0469 L1.93359,-18.0469 C1.97266,-20.4818 2.42188,-22.4674 3.28125,-24.0039 C4.80469,-26.7122 7.49349,-28.0664 11.3477,-28.0664 C14.5508,-28.0664 16.8913,-27.2005 18.3691,-25.4688 C19.847,-23.737 20.5859,-21.8099 20.5859,-19.6875 C20.5859,-17.4479 19.7982,-15.5339 18.2227,-13.9453 C17.3112,-13.0208 15.6771,-11.901 13.3203,-10.5859 L10.6445,-9.10156 C9.36849,-8.39844 8.36589,-7.72786 7.63672,-7.08984 C6.33464,-5.95703 5.51432,-4.70052 5.17578,-3.32031 L20.4492,-3.32031 L20.4492,0 L1.25,0 M33.0547,-27.9688 C36.6745,-27.9688 39.2917,-26.4779 40.9063,-23.4961 C42.1563,-21.1914 42.7813,-18.0339 42.7813,-14.0234 C42.7813,-10.2214 42.2148,-7.07682 41.082,-4.58984 C39.4414,-1.02214 36.7591,0.761719 33.0352,0.761719 C29.6758,0.761719 27.1758,-0.696615 25.5352,-3.61328 C24.168,-6.04818 23.4844,-9.31641 23.4844,-13.418 C23.4844,-16.5951 23.8945,-19.3229 24.7148,-21.6016 C26.2513,-25.8464 29.0313,-27.9688 33.0547,-27.9688 M33.0156,-2.44141 C34.8385,-2.44141 36.2904,-3.2487 37.3711,-4.86328 C38.4518,-6.47786 38.9922,-9.48568 38.9922,-13.8867 C38.9922,-17.0638 38.6016,-19.6777 37.8203,-21.7285 C37.0391,-23.7793 35.5221,-24.8047 33.2695,-24.8047 C31.1992,-24.8047 29.6855,-23.8314 28.7285,-21.8848 C27.7715,-19.9382 27.293,-17.0703 27.293,-13.2813 C27.293,-10.4297 27.599,-8.13802 28.2109,-6.40625 C29.1484,-3.76302 30.75,-2.44141 33.0156,-2.44141 "/>
</g>

<g fill="#ffffff" fill-opacity="1" stroke="none" transform="matrix(0.5,0,0,0.5,578.688,411.625)"
font-family=".AppleSystemUIFont" font-size="13" font-weight="400" font-style="normal" 
>
<path vector-effect="none" fill-rule="evenodd" d="M1.25,0 C1.38021,-2.40885 1.87826,-4.50521 2.74414,-6.28906 C3.61003,-8.07292 5.29948,-9.69401 7.8125,-11.1523 L11.5625,-13.3203 C13.2422,-14.2969 14.4206,-15.1302 15.0977,-15.8203 C16.1654,-16.901 16.6992,-18.138 16.6992,-19.5313 C16.6992,-21.1589 16.2109,-22.4512 15.2344,-23.4082 C14.2578,-24.3652 12.9557,-24.8438 11.3281,-24.8438 C8.91927,-24.8438 7.2526,-23.9323 6.32813,-22.1094 C5.83333,-21.1328 5.5599,-19.7786 5.50781,-18.0469 L1.93359,-18.0469 C1.97266,-20.4818 2.42188,-22.4674 3.28125,-24.0039 C4.80469,-26.7122 7.49349,-28.0664 11.3477,-28.0664 C14.5508,-28.0664 16.8913,-27.2005 18.3691,-25.4688 C19.847,-23.737 20.5859,-21.8099 20.5859,-19.6875 C20.5859,-17.4479 19.7982,-15.5339 18.2227,-13.9453 C17.3112,-13.0208 15.6771,-11.901 13.3203,-10.5859 L10.6445,-9.10156 C9.36849,-8.39844 8.36589,-7.72786 7.63672,-7.08984 C6.33464,-5.95703 5.51432,-4.70052 5.17578,-3.32031 L20.4492,-3.32031 L20.4492,0 L1.25,0 M27.1758,-7.12891 C27.4102,-5.1237 28.3411,-3.73698 29.9688,-2.96875 C30.8021,-2.57813 31.7656,-2.38281 32.8594,-2.38281 C34.9427,-2.38281 36.4857,-3.04688 37.4883,-4.375 C38.4909,-5.70313 38.9922,-7.17448 38.9922,-8.78906 C38.9922,-10.7422 38.3965,-12.2526 37.2051,-13.3203 C36.0137,-14.388 34.5846,-14.9219 32.918,-14.9219 C31.707,-14.9219 30.6686,-14.6875 29.8027,-14.2188 C28.9368,-13.75 28.1979,-13.099 27.5859,-12.2656 L24.5391,-12.4414 L26.668,-27.5 L41.1992,-27.5 L41.1992,-24.1016 L29.3047,-24.1016 L28.1133,-16.3281 C28.7643,-16.8229 29.3828,-17.194 29.9688,-17.4414 C31.0104,-17.8711 32.2148,-18.0859 33.582,-18.0859 C36.1471,-18.0859 38.3216,-17.2591 40.1055,-15.6055 C41.8893,-13.9518 42.7813,-11.8555 42.7813,-9.31641 C42.7813,-6.67318 41.9642,-4.34245 40.3301,-2.32422 C38.696,-0.30599 36.0885,0.703125 32.5078,0.703125 C30.2292,0.703125 28.2142,0.061849 26.4629,-1.2207 C24.7116,-2.50326 23.7318,-4.47266 23.5234,-7.12891 L27.1758,-7.12891"/>
</g>

<g fill="#ffffff" fill-opacity="1" stroke="none" transform="matrix(0.5,0,0,0.5,649,411.625)"
font-family=".AppleSystemUIFont" font-size="13" font-weight="400" font-style="normal" 
>
<path vector-effect="none" fill-rule="evenodd" d="M10.3906,0.761719 C7.08333,0.761719 4.68424,-0.146484 3.19336,-1.96289 C1.70247,-3.7793 0.957031,-5.98958 0.957031,-8.59375 L4.62891,-8.59375 C4.78516,-6.78385 5.1237,-5.46875 5.64453,-4.64844 C6.55599,-3.17708 8.20313,-2.44141 10.5859,-2.44141 C12.4349,-2.44141 13.9193,-2.9362 15.0391,-3.92578 C16.1589,-4.91536 16.7188,-6.19141 16.7188,-7.75391 C16.7188,-9.68099 16.1296,-11.0286 14.9512,-11.7969 C13.7728,-12.5651 12.1354,-12.9492 10.0391,-12.9492 C9.80469,-12.9492 9.56706,-12.946 9.32617,-12.9395 C9.08529,-12.9329 8.84115,-12.9232 8.59375,-12.9102 L8.59375,-16.0156 C8.95833,-15.9766 9.26432,-15.9505 9.51172,-15.9375 C9.75911,-15.9245 10.026,-15.918 10.3125,-15.918 C11.6276,-15.918 12.7083,-16.1263 13.5547,-16.543 C15.0391,-17.2721 15.7813,-18.5742 15.7813,-20.4492 C15.7813,-21.8424 15.2865,-22.9167 14.2969,-23.6719 C13.3073,-24.4271 12.1549,-24.8047 10.8398,-24.8047 C8.49609,-24.8047 6.875,-24.0234 5.97656,-22.4609 C5.48177,-21.6016 5.20182,-20.3776 5.13672,-18.7891 L1.66016,-18.7891 C1.66016,-20.8724 2.07682,-22.6432 2.91016,-24.1016 C4.34245,-26.7057 6.86198,-28.0078 10.4688,-28.0078 C13.3203,-28.0078 15.5273,-27.373 17.0898,-26.1035 C18.6523,-24.834 19.4336,-22.9948 19.4336,-20.5859 C19.4336,-18.8672 18.9714,-17.474 18.0469,-16.4063 C17.474,-15.7422 16.7318,-15.2214 15.8203,-14.8438 C17.2917,-14.4401 18.4408,-13.6621 19.2676,-12.5098 C20.0944,-11.3574 20.5078,-9.94792 20.5078,-8.28125 C20.5078,-5.61198 19.6289,-3.4375 17.8711,-1.75781 C16.1133,-0.078125 13.6198,0.761719 10.3906,0.761719 M33.0547,-27.9688 C36.6745,-27.9688 39.2917,-26.4779 40.9063,-23.4961 C42.1563,-21.1914 42.7813,-18.0339 42.7813,-14.0234 C42.7813,-10.2214 42.2148,-7.07682 41.082,-4.58984 C39.4414,-1.02214 36.7591,0.761719 33.0352,0.761719 C29.6758,0.761719 27.1758,-0.696615 25.5352,-3.61328 C24.168,-6.04818 23.4844,-9.31641 23.4844,-13.418 C23.4844,-16.5951 23.8945,-19.3229 24.7148,-21.6016 C26.2513,-25.8464 29.0313,-27.9688 33.0547,-27.9688 M33.0156,-2.44141 C34.8385,-2.44141 36.2904,-3.2487 37.3711,-4.86328 C38.4518,-6.47786 38.9922,-9.48568 38.9922,-13.8867 C38.9922,-17.0638 38.6016,-19.6777 37.8203,-21.7285 C37.0391,-23.7793 35.5221,-24.8047 33.2695,-24.8047 C31.1992,-24.8047 29.6855,-23.8314 28.7285,-21.8848 C27.7715,-19.9382 27.293,-17.0703 27.293,-13.2813 C27.293,-10.4297 27.599,-8.13802 28.2109,-6.40625 C29.1484,-3.76302 30.75,-2.44141 33.0156,-2.44141 "/>
</g>

<g fill="#03dac5" fill-opacity="1" stroke="#03dac5" stroke-opacity="1" stroke-width="1" stroke-linecap="square" stroke-linejoin="round" transform="matrix(0.5,0,0,0.5,0,0)"
font-family=".AppleSystemUIFont" font-size="13" font-weight="400" font-style="normal" 
>
<polyline fill="none" vector-effect="none" points="195,769 195,67 " />
<polyline fill="none" vector-effect="none" points="195,769 183.75,769 " />
<polyline fill="none" vector-effect="none" points="195,681.25 183.75,681.25 " />
<polyline fill="none" vector-effect="none" points="195,593.5 183.75,593.5 " />
<polyline fill="none" vector-effect="none" points="195,505.75 183.75,505.75 " />
<polyline fill="none" vector-effect="none" points="195,418 183.75,418 " />
<polyline fill="none" vector-effect="none" points="195,330.25 183.75,330.25 " />
<polyline fill="none" vector-effect="none" points="195,242.5 183.75,242.5 " />
<polyline fill="none" vector-effect="none" points="195,154.75 183.75,154.75 " />
<polyline fill="none" vector-effect="none" points="195,67 183.75,67 " />
</g>

<g fill="#03dac5" fill-opacity="1" stroke="none" transform="matrix(0.5,0,0,0.5,40.375,390)"
font-family=".AppleSystemUIFont" font-size="13" font-weight="400" font-style="normal" 
>
<path vector-effect="none" fill-rule="evenodd" d="M1.66016,-12.9492 L11.4648,-12.9492 L11.4648,-9.33594 L1.66016,-9.33594 L1.66016,-12.9492 M24.1328,-27.9688 C27.7526,-27.9688 30.3698,-26.4779 31.9844,-23.4961 C33.2344,-21.1914 33.8594,-18.0339 33.8594,-14.0234 C33.8594,-10.2214 33.293,-7.07682 32.1602,-4.58984 C30.5195,-1.02214 27.8372,0.761719 24.1133,0.761719 C20.7539,0.761719 18.2539,-0.696615 16.6133,-3.61328 C15.2461,-6.04818 14.5625,-9.31641 14.5625,-13.418 C14.5625,-16.5951 14.9727,-19.3229 15.793,-21.6016 C17.3294,-25.8464 20.1094,-27.9688 24.1328,-27.9688 M24.0938,-2.44141 C25.9167,-2.44141 27.3685,-3.2487 28.4492,-4.86328 C29.5299,-6.47786 30.0703,-9.48568 30.0703,-13.8867 C30.0703,-17.0638 29.6797,-19.6777 28.8984,-21.7285 C28.1172,-23.7793 26.6003,-24.8047 24.3477,-24.8047 C22.2773,-24.8047 20.7637,-23.8314 19.8066,-21.8848 C18.8496,-19.9382 18.3711,-17.0703 18.3711,-13.2813 C18.3711,-10.4297 18.6771,-8.13802 19.2891,-6.40625 C20.2266,-3.76302 21.8281,-2.44141 24.0938,-2.44141 M38.9648,-4.25781 L43.0469,-4.25781 L43.0469,0 L38.9648,0 L38.9648,-4.25781 M47.9063,0 C48.0365,-2.40885 48.5345,-4.50521 49.4004,-6.28906 C50.2663,-8.07292 51.9557,-9.69401 54.4688,-11.1523 L58.2188,-13.3203 C59.8984,-14.2969 61.0768,-15.1302 61.7539,-15.8203 C62.8216,-16.901 63.3555,-18.138 63.3555,-19.5313 C63.3555,-21.1589 62.8672,-22.4512 61.8906,-23.4082 C60.9141,-24.3652 59.612,-24.8438 57.9844,-24.8438 C55.5755,-24.8438 53.9089,-23.9323 52.9844,-22.1094 C52.4896,-21.1328 52.2161,-19.7786 52.1641,-18.0469 L48.5898,-18.0469 C48.6289,-20.4818 49.0781,-22.4674 49.9375,-24.0039 C51.4609,-26.7122 54.1497,-28.0664 58.0039,-28.0664 C61.207,-28.0664 63.5475,-27.2005 65.0254,-25.4688 C66.5033,-23.737 67.2422,-21.8099 67.2422,-19.6875 C67.2422,-17.4479 66.4544,-15.5339 64.8789,-13.9453 C63.9674,-13.0208 62.3333,-11.901 59.9766,-10.5859 L57.3008,-9.10156 C56.0247,-8.39844 55.0221,-7.72786 54.293,-7.08984 C52.9909,-5.95703 52.1706,-4.70052 51.832,-3.32031 L67.1055,-3.32031 L67.1055,0 L47.9063,0 M73.832,-7.12891 C74.0664,-5.1237 74.9974,-3.73698 76.625,-2.96875 C77.4583,-2.57813 78.4219,-2.38281 79.5156,-2.38281 C81.599,-2.38281 83.1419,-3.04688 84.1445,-4.375 C85.1471,-5.70313 85.6484,-7.17448 85.6484,-8.78906 C85.6484,-10.7422 85.0527,-12.2526 83.8613,-13.3203 C82.6699,-14.388 81.2409,-14.9219 79.5742,-14.9219 C78.3633,-14.9219 77.3249,-14.6875 76.459,-14.2188 C75.5931,-13.75 74.8542,-13.099 74.2422,-12.2656 L71.1953,-12.4414 L73.3242,-27.5 L87.8555,-27.5 L87.8555,-24.1016 L75.9609,-24.1016 L74.7695,-16.3281 C75.4206,-16.8229 76.0391,-17.194 76.625,-17.4414 C77.6667,-17.8711 78.8711,-18.0859 80.2383,-18.0859 C82.8034,-18.0859 84.9779,-17.2591 86.7617,-15.6055 C88.5456,-13.9518 89.4375,-11.8555 89.4375,-9.31641 C89.4375,-6.67318 88.6204,-4.34245 86.9863,-2.32422 C85.3522,-0.30599 82.7448,0.703125 79.1641,0.703125 C76.8854,0.703125 74.8704,0.061849 73.1191,-1.2207 C71.3678,-2.50326 70.388,-4.47266 70.1797,-7.12891 L73.832,-7.12891"/>
</g>

<g fill="#03dac5" fill-opacity="1" stroke="none" transform="matrix(0.5,0,0,0.5,46.875,346.125)"
font-family=".AppleSystemUIFont" font-size="13" font-weight="400" font-style="normal" 
>
<path vector-effect="none" fill-rule="evenodd" d="M10.8203,-27.9688 C14.4401,-27.9688 17.0573,-26.4779 18.6719,-23.4961 C19.9219,-21.1914 20.5469,-18.0339 20.5469,-14.0234 C20.5469,-10.2214 19.9805,-7.07682 18.8477,-4.58984 C17.207,-1.02214 14.5247,0.761719 10.8008,0.761719 C7.44141,0.761719 4.94141,-0.696615 3.30078,-3.61328 C1.93359,-6.04818 1.25,-9.31641 1.25,-13.418 C1.25,-16.5951 1.66016,-19.3229 2.48047,-21.6016 C4.01693,-25.8464 6.79688,-27.9688 10.8203,-27.9688 M10.7813,-2.44141 C12.6042,-2.44141 14.056,-3.2487 15.1367,-4.86328 C16.2174,-6.47786 16.7578,-9.48568 16.7578,-13.8867 C16.7578,-17.0638 16.3672,-19.6777 15.5859,-21.7285 C14.8047,-23.7793 13.2878,-24.8047 11.0352,-24.8047 C8.96484,-24.8047 7.45117,-23.8314 6.49414,-21.8848 C5.53711,-19.9382 5.05859,-17.0703 5.05859,-13.2813 C5.05859,-10.4297 5.36458,-8.13802 5.97656,-6.40625 C6.91406,-3.76302 8.51563,-2.44141 10.7813,-2.44141 M25.6523,-4.25781 L29.7344,-4.25781 L29.7344,0 L25.6523,0 L25.6523,-4.25781 M44.1641,-27.9688 C47.7839,-27.9688 50.401,-26.4779 52.0156,-23.4961 C53.2656,-21.1914 53.8906,-18.0339 53.8906,-14.0234 C53.8906,-10.2214 53.3242,-7.07682 52.1914,-4.58984 C50.5508,-1.02214 47.8685,0.761719 44.1445,0.761719 C40.7852,0.761719 38.2852,-0.696615 36.6445,-3.61328 C35.2773,-6.04818 34.5938,-9.31641 34.5938,-13.418 C34.5938,-16.5951 35.0039,-19.3229 35.8242,-21.6016 C37.3607,-25.8464 40.1406,-27.9688 44.1641,-27.9688 M44.125,-2.44141 C45.9479,-2.44141 47.3997,-3.2487 48.4805,-4.86328 C49.5612,-6.47786 50.1016,-9.48568 50.1016,-13.8867 C50.1016,-17.0638 49.7109,-19.6777 48.9297,-21.7285 C48.1484,-23.7793 46.6315,-24.8047 44.3789,-24.8047 C42.3086,-24.8047 40.7949,-23.8314 39.8379,-21.8848 C38.8809,-19.9382 38.4023,-17.0703 38.4023,-13.2813 C38.4023,-10.4297 38.7083,-8.13802 39.3203,-6.40625 C40.2578,-3.76302 41.8594,-2.44141 44.125,-2.44141 M66.3984,-27.9688 C70.0182,-27.9688 72.6354,-26.4779 74.25,-23.4961 C75.5,-21.1914 76.125,-18.0339 76.125,-14.0234 C76.125,-10.2214 75.5586,-7.07682 74.4258,-4.58984 C72.7852,-1.02214 70.1029,0.761719 66.3789,0.761719 C63.0195,0.761719 60.5195,-0.696615 58.8789,-3.61328 C57.5117,-6.04818 56.8281,-9.31641 56.8281,-13.418 C56.8281,-16.5951 57.2383,-19.3229 58.0586,-21.6016 C59.5951,-25.8464 62.375,-27.9688 66.3984,-27.9688 M66.3594,-2.44141 C68.1823,-2.44141 69.6341,-3.2487 70.7148,-4.86328 C71.7956,-6.47786 72.3359,-9.48568 72.3359,-13.8867 C72.3359,-17.0638 71.9453,-19.6777 71.1641,-21.7285 C70.3828,-23.7793 68.8659,-24.8047 66.6133,-24.8047 C64.543,-24.8047 63.0293,-23.8314 62.0723,-21.8848 C61.1152,-19.9382 60.6367,-17.0703 60.6367,-13.2813 C60.6367,-10.4297 60.9427,-8.13802 61.5547,-6.40625 C62.4922,-3.76302 64.0938,-2.44141 66.3594,-2.44141 "/>
</g>

<g fill="#03dac5" fill-opacity="1" stroke="none" transform="matrix(0.5,0,0,0.5,46.875,302.25)"
font-family=".AppleSystemUIFont" font-size="13" font-weight="400" font-style="normal" 
>
<path vector-effect="none" fill-rule="evenodd" d="M10.8203,-27.9688 C14.4401,-27.9688 17.0573,-26.4779 18.6719,-23.4961 C19.9219,-21.1914 20.5469,-18.0339 20.5469,-14.0234 C20.5469,-10.2214 19.9805,-7.07682 18.8477,-4.58984 C17.207,-1.02214 14.5247,0.761719 10.8008,0.761719 C7.44141,0.761719 4.94141,-0.696615 3.30078,-3.61328 C1.93359,-6.04818 1.25,-9.31641 1.25,-13.418 C1.25,-16.5951 1.66016,-19.3229 2.48047,-21.6016 C4.01693,-25.8464 6.79688,-27.9688 10.8203,-27.9688 M10.7813,-2.44141 C12.6042,-2.44141 14.056,-3.2487 15.1367,-4.86328 C16.2174,-6.47786 16.7578,-9.48568 16.7578,-13.8867 C16.7578,-17.0638 16.3672,-19.6777 15.5859,-21.7285 C14.8047,-23.7793 13.2878,-24.8047 11.0352,-24.8047 C8.96484,-24.8047 7.45117,-23.8314 6.49414,-21.8848 C5.53711,-19.9382 5.05859,-17.0703 5.05859,-13.2813 C5.05859,-10.4297 5.36458,-8.13802 5.97656,-6.40625 C6.91406,-3.76302 8.51563,-2.44141 10.7813,-2.44141 M25.6523,-4.25781 L29.7344,-4.25781 L29.7344,0 L25.6523,0 L25.6523,-4.25781 M34.5938,0 C34.724,-2.40885 35.222,-4.50521 36.0879,-6.28906 C36.9538,-8.07292 38.6432,-9.69401 41.1563,-11.1523 L44.9063,-13.3203 C46.5859,-14.2969 47.7643,-15.1302 48.4414,-15.8203 C49.5091,-16.901 50.043,-18.138 50.043,-19.5313 C50.043,-21.1589 49.5547,-22.4512 48.5781,-23.4082 C47.6016,-24.3652 46.2995,-24.8438 44.6719,-24.8438 C42.263,-24.8438 40.5964,-23.9323 39.6719,-22.1094 C39.1771,-21.1328 38.9036,-19.7786 38.8516,-18.0469 L35.2773,-18.0469 C35.3164,-20.4818 35.7656,-22.4674 36.625,-24.0039 C38.1484,-26.7122 40.8372,-28.0664 44.6914,-28.0664 C47.8945,-28.0664 50.235,-27.2005 51.7129,-25.4688 C53.1908,-23.737 53.9297,-21.8099 53.9297,-19.6875 C53.9297,-17.4479 53.1419,-15.5339 51.5664,-13.9453 C50.6549,-13.0208 49.0208,-11.901 46.6641,-10.5859 L43.9883,-9.10156 C42.7122,-8.39844 41.7096,-7.72786 40.9805,-7.08984 C39.6784,-5.95703 38.8581,-4.70052 38.5195,-3.32031 L53.793,-3.32031 L53.793,0 L34.5938,0 M60.5195,-7.12891 C60.7539,-5.1237 61.6849,-3.73698 63.3125,-2.96875 C64.1458,-2.57813 65.1094,-2.38281 66.2031,-2.38281 C68.2865,-2.38281 69.8294,-3.04688 70.832,-4.375 C71.8346,-5.70313 72.3359,-7.17448 72.3359,-8.78906 C72.3359,-10.7422 71.7402,-12.2526 70.5488,-13.3203 C69.3574,-14.388 67.9284,-14.9219 66.2617,-14.9219 C65.0508,-14.9219 64.0124,-14.6875 63.1465,-14.2188 C62.2806,-13.75 61.5417,-13.099 60.9297,-12.2656 L57.8828,-12.4414 L60.0117,-27.5 L74.543,-27.5 L74.543,-24.1016 L62.6484,-24.1016 L61.457,-16.3281 C62.1081,-16.8229 62.7266,-17.194 63.3125,-17.4414 C64.3542,-17.8711 65.5586,-18.0859 66.9258,-18.0859 C69.4909,-18.0859 71.6654,-17.2591 73.4492,-15.6055 C75.2331,-13.9518 76.125,-11.8555 76.125,-9.31641 C76.125,-6.67318 75.3079,-4.34245 73.6738,-2.32422 C72.0397,-0.30599 69.4323,0.703125 65.8516,0.703125 C63.5729,0.703125 61.5579,0.061849 59.8066,-1.2207 C58.0553,-2.50326 57.0755,-4.47266 56.8672,-7.12891 L60.5195,-7.12891"/>
</g>

<g fill="#03dac5" fill-opacity="1" stroke="none" transform="matrix(0.5,0,0,0.5,46.875,258.375)"
font-family=".AppleSystemUIFont" font-size="13" font-weight="400" font-style="normal" 
>
<path vector-effect="none" fill-rule="evenodd" d="M10.8203,-27.9688 C14.4401,-27.9688 17.0573,-26.4779 18.6719,-23.4961 C19.9219,-21.1914 20.5469,-18.0339 20.5469,-14.0234 C20.5469,-10.2214 19.9805,-7.07682 18.8477,-4.58984 C17.207,-1.02214 14.5247,0.761719 10.8008,0.761719 C7.44141,0.761719 4.94141,-0.696615 3.30078,-3.61328 C1.93359,-6.04818 1.25,-9.31641 1.25,-13.418 C1.25,-16.5951 1.66016,-19.3229 2.48047,-21.6016 C4.01693,-25.8464 6.79688,-27.9688 10.8203,-27.9688 M10.7813,-2.44141 C12.6042,-2.44141 14.056,-3.2487 15.1367,-4.86328 C16.2174,-6.47786 16.7578,-9.48568 16.7578,-13.8867 C16.7578,-17.0638 16.3672,-19.6777 15.5859,-21.7285 C14.8047,-23.7793 13.2878,-24.8047 11.0352,-24.8047 C8.96484,-24.8047 7.45117,-23.8314 6.49414,-21.8848 C5.53711,-19.9382 5.05859,-17.0703 5.05859,-13.2813 C5.05859,-10.4297 5.36458,-8.13802 5.97656,-6.40625 C6.91406,-3.76302 8.51563,-2.44141 10.7813,-2.44141 M25.6523,-4.25781 L29.7344,-4.25781 L29.7344,0 L25.6523,0 L25.6523,-4.25781 M38.2852,-7.12891 C38.5195,-5.1237 39.4505,-3.73698 41.0781,-2.96875 C41.9115,-2.57813 42.875,-2.38281 43.9688,-2.38281 C46.0521,-2.38281 47.5951,-3.04688 48.5977,-4.375 C49.6003,-5.70313 50.1016,-7.17448 50.1016,-8.78906 C50.1016,-10.7422 49.5059,-12.2526 48.3145,-13.3203 C47.123,-14.388 45.694,-14.9219 44.0273,-14.9219 C42.8164,-14.9219 41.778,-14.6875 40.9121,-14.2188 C40.0462,-13.75 39.3073,-13.099 38.6953,-12.2656 L35.6484,-12.4414 L37.7773,-27.5 L52.3086,-27.5 L52.3086,-24.1016 L40.4141,-24.1016 L39.2227,-16.3281 C39.8737,-16.8229 40.4922,-17.194 41.0781,-17.4414 C42.1198,-17.8711 43.3242,-18.0859 44.6914,-18.0859 C47.2565,-18.0859 49.431,-17.2591 51.2148,-15.6055 C52.9987,-13.9518 53.8906,-11.8555 53.8906,-9.31641 C53.8906,-6.67318 53.0736,-4.34245 51.4395,-2.32422 C49.8053,-0.30599 47.1979,0.703125 43.6172,0.703125 C41.3385,0.703125 39.3236,0.061849 37.5723,-1.2207 C35.821,-2.50326 34.8411,-4.47266 34.6328,-7.12891 L38.2852,-7.12891 M66.3984,-27.9688 C70.0182,-27.9688 72.6354,-26.4779 74.25,-23.4961 C75.5,-21.1914 76.125,-18.0339 76.125,-14.0234 C76.125,-10.2214 75.5586,-7.07682 74.4258,-4.58984 C72.7852,-1.02214 70.1029,0.761719 66.3789,0.761719 C63.0195,0.761719 60.5195,-0.696615 58.8789,-3.61328 C57.5117,-6.04818 56.8281,-9.31641 56.8281,-13.418 C56.8281,-16.5951 57.2383,-19.3229 58.0586,-21.6016 C59.5951,-25.8464 62.375,-27.9688 66.3984,-27.9688 M66.3594,-2.44141 C68.1823,-2.44141 69.6341,-3.2487 70.7148,-4.86328 C71.7956,-6.47786 72.3359,-9.48568 72.3359,-13.8867 C72.3359,-17.0638 71.9453,-19.6777 71.1641,-21.7285 C70.3828,-23.7793 68.8659,-24.8047 66.6133,-24.8047 C64.543,-24.8047 63.0293,-23.8314 62.0723,-21.8848 C61.1152,-19.9382 60.6367,-17.0703 60.6367,-13.2813 C60.6367,-10.4297 60.9427,-8.13802 61.5547,-6.40625 C62.4922,-3.76302 64.0938,-2.44141 66.3594,-2.44141 "/>
</g>

<g fill="#03dac5" fill-opacity="1" stroke="none" transform="matrix(0.5,0,0,0.5,46.875,214.5)"
font-family=".AppleSystemUIFont" font-size="13" font-weight="400" font-style="normal" 
>
<path vector-effect="none" fill-rule="evenodd" d="M10.8203,-27.9688 C14.4401,-27.9688 17.0573,-26.4779 18.6719,-23.4961 C19.9219,-21.1914 20.5469,-18.0339 20.5469,-14.0234 C20.5469,-10.2214 19.9805,-7.07682 18.8477,-4.58984 C17.207,-1.02214 14.5247,0.761719 10.8008,0.761719 C7.44141,0.761719 4.94141,-0.696615 3.30078,-3.61328 C1.93359,-6.04818 1.25,-9.31641 1.25,-13.418 C1.25,-16.5951 1.66016,-19.3229 2.48047,-21.6016 C4.01693,-25.8464 6.79688,-27.9688 10.8203,-27.9688 M10.7813,-2.44141 C12.6042,-2.44141 14.056,-3.2487 15.1367,-4.86328 C16.2174,-6.47786 16.7578,-9.48568 16.7578,-13.8867 C16.7578,-17.0638 16.3672,-19.6777 15.5859,-21.7285 C14.8047,-23.7793 13.2878,-24.8047 11.0352,-24.8047 C8.96484,-24.8047 7.45117,-23.8314 6.49414,-21.8848 C5.53711,-19.9382 5.05859,-17.0703 5.05859,-13.2813 C5.05859,-10.4297 5.36458,-8.13802 5.97656,-6.40625 C6.91406,-3.76302 8.51563,-2.44141 10.7813,-2.44141 M25.6523,-4.25781 L29.7344,-4.25781 L29.7344,0 L25.6523,0 L25.6523,-4.25781 M54.2617,-27.5 L54.2617,-24.4336 C53.3633,-23.5612 52.1686,-22.0443 50.6777,-19.8828 C49.1868,-17.7214 47.8685,-15.3906 46.7227,-12.8906 C45.5898,-10.4557 44.7305,-8.23568 44.1445,-6.23047 C43.7669,-4.94141 43.2786,-2.86458 42.6797,0 L38.793,0 C39.6784,-5.33854 41.6315,-10.651 44.6523,-15.9375 C46.4362,-19.0365 48.3112,-21.7122 50.2773,-23.9648 L34.8086,-23.9648 L34.8086,-27.5 L54.2617,-27.5 M60.5195,-7.12891 C60.7539,-5.1237 61.6849,-3.73698 63.3125,-2.96875 C64.1458,-2.57813 65.1094,-2.38281 66.2031,-2.38281 C68.2865,-2.38281 69.8294,-3.04688 70.832,-4.375 C71.8346,-5.70313 72.3359,-7.17448 72.3359,-8.78906 C72.3359,-10.7422 71.7402,-12.2526 70.5488,-13.3203 C69.3574,-14.388 67.9284,-14.9219 66.2617,-14.9219 C65.0508,-14.9219 64.0124,-14.6875 63.1465,-14.2188 C62.2806,-13.75 61.5417,-13.099 60.9297,-12.2656 L57.8828,-12.4414 L60.0117,-27.5 L74.543,-27.5 L74.543,-24.1016 L62.6484,-24.1016 L61.457,-16.3281 C62.1081,-16.8229 62.7266,-17.194 63.3125,-17.4414 C64.3542,-17.8711 65.5586,-18.0859 66.9258,-18.0859 C69.4909,-18.0859 71.6654,-17.2591 73.4492,-15.6055 C75.2331,-13.9518 76.125,-11.8555 76.125,-9.31641 C76.125,-6.67318 75.3079,-4.34245 73.6738,-2.32422 C72.0397,-0.30599 69.4323,0.703125 65.8516,0.703125 C63.5729,0.703125 61.5579,0.061849 59.8066,-1.2207 C58.0553,-2.50326 57.0755,-4.47266 56.8672,-7.12891 L60.5195,-7.12891"/>
</g>

<g fill="#03dac5" fill-opacity="1" stroke="none" transform="matrix(0.5,0,0,0.5,46.875,170.625)"
font-family=".AppleSystemUIFont" font-size="13" font-weight="400" font-style="normal" 
>
<path vector-effect="none" fill-rule="evenodd" d="M3.82813,-19.8047 L3.82813,-22.5 C6.36719,-22.7474 8.13802,-23.1608 9.14063,-23.7402 C10.1432,-24.3197 10.8919,-25.6901 11.3867,-27.8516 L14.1602,-27.8516 L14.1602,0 L10.4102,0 L10.4102,-19.8047 L3.82813,-19.8047 M25.6523,-4.25781 L29.7344,-4.25781 L29.7344,0 L25.6523,0 L25.6523,-4.25781 M44.1641,-27.9688 C47.7839,-27.9688 50.401,-26.4779 52.0156,-23.4961 C53.2656,-21.1914 53.8906,-18.0339 53.8906,-14.0234 C53.8906,-10.2214 53.3242,-7.07682 52.1914,-4.58984 C50.5508,-1.02214 47.8685,0.761719 44.1445,0.761719 C40.7852,0.761719 38.2852,-0.696615 36.6445,-3.61328 C35.2773,-6.04818 34.5938,-9.31641 34.5938,-13.418 C34.5938,-16.5951 35.0039,-19.3229 35.8242,-21.6016 C37.3607,-25.8464 40.1406,-27.9688 44.1641,-27.9688 M44.125,-2.44141 C45.9479,-2.44141 47.3997,-3.2487 48.4805,-4.86328 C49.5612,-6.47786 50.1016,-9.48568 50.1016,-13.8867 C50.1016,-17.0638 49.7109,-19.6777 48.9297,-21.7285 C48.1484,-23.7793 46.6315,-24.8047 44.3789,-24.8047 C42.3086,-24.8047 40.7949,-23.8314 39.8379,-21.8848 C38.8809,-19.9382 38.4023,-17.0703 38.4023,-13.2813 C38.4023,-10.4297 38.7083,-8.13802 39.3203,-6.40625 C40.2578,-3.76302 41.8594,-2.44141 44.125,-2.44141 M66.3984,-27.9688 C70.0182,-27.9688 72.6354,-26.4779 74.25,-23.4961 C75.5,-21.1914 76.125,-18.0339 76.125,-14.0234 C76.125,-10.2214 75.5586,-7.07682 74.4258,-4.58984 C72.7852,-1.02214 70.1029,0.761719 66.3789,0.761719 C63.0195,0.761719 60.5195,-0.696615 58.8789,-3.61328 C57.5117,-6.04818 56.8281,-9.31641 56.8281,-13.418 C56.8281,-16.5951 57.2383,-19.3229 58.0586,-21.6016 C59.5951,-25.8464 62.375,-27.9688 66.3984,-27.9688 M66.3594,-2.44141 C68.1823,-2.44141 69.6341,-3.2487 70.7148,-4.86328 C71.7956,-6.47786 72.3359,-9.48568 72.3359,-13.8867 C72.3359,-17.0638 71.9453,-19.6777 71.1641,-21.7285 C70.3828,-23.7793 68.8659,-24.8047 66.6133,-24.8047 C64.543,-24.8047 63.0293,-23.8314 62.0723,-21.8848 C61.1152,-19.9382 60.6367,-17.0703 60.6367,-13.2813 C60.6367,-10.4297 60.9427,-8.13802 61.5547,-6.40625 C62.4922,-3.76302 64.0938,-2.44141 66.3594,-2.44141 "/>
</g>

<g fill="#03dac5" fill-opacity="1" stroke="none" transform="matrix(0.5,0,0,0.5,46.875,126.75)"
font-family=".AppleSystemUIFont" font-size="13" font-weight="400" font-style="normal" 
>
<path vector-effect="none" fill-rule="evenodd" d="M3.82813,-19.8047 L3.82813,-22.5 C6.36719,-22.7474 8.13802,-23.1608 9.14063,-23.7402 C10.1432,-24.3197 10.8919,-25.6901 11.3867,-27.8516 L14.1602,-27.8516 L14.1602,0 L10.4102,0 L10.4102,-19.8047 L3.82813,-19.8047 M25.6523,-4.25781 L29.7344,-4.25781 L29.7344,0 L25.6523,0 L25.6523,-4.25781 M34.5938,0 C34.724,-2.40885 35.222,-4.50521 36.0879,-6.28906 C36.9538,-8.07292 38.6432,-9.69401 41.1563,-11.1523 L44.9063,-13.3203 C46.5859,-14.2969 47.7643,-15.1302 48.4414,-15.8203 C49.5091,-16.901 50.043,-18.138 50.043,-19.5313 C50.043,-21.1589 49.5547,-22.4512 48.5781,-23.4082 C47.6016,-24.3652 46.2995,-24.8438 44.6719,-24.8438 C42.263,-24.8438 40.5964,-23.9323 39.6719,-22.1094 C39.1771,-21.1328 38.9036,-19.7786 38.8516,-18.0469 L35.2773,-18.0469 C35.3164,-20.4818 35.7656,-22.4674 36.625,-24.0039 C38.1484,-26.7122 40.8372,-28.0664 44.6914,-28.0664 C47.8945,-28.0664 50.235,-27.2005 51.7129,-25.4688 C53.1908,-23.737 53.9297,-21.8099 53.9297,-19.6875 C53.9297,-17.4479 53.1419,-15.5339 51.5664,-13.9453 C50.6549,-13.0208 49.0208,-11.901 46.6641,-10.5859 L43.9883,-9.10156 C42.7122,-8.39844 41.7096,-7.72786 40.9805,-7.08984 C39.6784,-5.95703 38.8581,-4.70052 38.5195,-3.32031 L53.793,-3.32031 L53.793,0 L34.5938,0 M60.5195,-7.12891 C60.7539,-5.1237 61.6849,-3.73698 63.3125,-2.96875 C64.1458,-2.57813 65.1094,-2.38281 66.2031,-2.38281 C68.2865,-2.38281 69.8294,-3.04688 70.832,-4.375 C71.8346,-5.70313 72.3359,-7.17448 72.3359,-8.78906 C72.3359,-10.7422 71.7402,-12.2526 70.5488,-13.3203 C69.3574,-14.388 67.9284,-14.9219 66.2617,-14.9219 C65.0508,-14.9219 64.0124,-14.6875 63.1465,-14.2188 C62.2806,-13.75 61.5417,-13.099 60.9297,-12.2656 L57.8828,-12.4414 L60.0117,-27.5 L74.543,-27.5 L74.543,-24.1016 L62.6484,-24.1016 L61.457,-16.3281 C62.1081,-16.8229 62.7266,-17.194 63.3125,-17.4414 C64.3542,-17.8711 65.5586,-18.0859 66.9258,-18.0859 C69.4909,-18.0859 71.6654,-17.2591 73.4492,-15.6055 C75.2331,-13.9518 76.125,-11.8555 76.125,-9.31641 C76.125,-6.67318 75.3079,-4.34245 73.6738,-2.32422 C72.0397,-0.30599 69.4323,0.703125 65.8516,0.703125 C63.5729,0.703125 61.5579,0.061849 59.8066,-1.2207 C58.0553,-2.50326 57.0755,-4.47266 56.8672,-7.12891 L60.5195,-7.12891"/>
</g>

<g fill="#03dac5" fill-opacity="1" stroke="none" transform="matrix(0.5,0,0,0.5,46.875,82.875)"
font-family=".AppleSystemUIFont" font-size="13" font-weight="400" font-style="normal" 
>
<path vector-effect="none" fill-rule="evenodd" d="M3.82813,-19.8047 L3.82813,-22.5 C6.36719,-22.7474 8.13802,-23.1608 9.14063,-23.7402 C10.1432,-24.3197 10.8919,-25.6901 11.3867,-27.8516 L14.1602,-27.8516 L14.1602,0 L10.4102,0 L10.4102,-19.8047 L3.82813,-19.8047 M25.6523,-4.25781 L29.7344,-4.25781 L29.7344,0 L25.6523,0 L25.6523,-4.25781 M38.2852,-7.12891 C38.5195,-5.1237 39.4505,-3.73698 41.0781,-2.96875 C41.9115,-2.57813 42.875,-2.38281 43.9688,-2.38281 C46.0521,-2.38281 47.5951,-3.04688 48.5977,-4.375 C49.6003,-5.70313 50.1016,-7.17448 50.1016,-8.78906 C50.1016,-10.7422 49.5059,-12.2526 48.3145,-13.3203 C47.123,-14.388 45.694,-14.9219 44.0273,-14.9219 C42.8164,-14.9219 41.778,-14.6875 40.9121,-14.2188 C40.0462,-13.75 39.3073,-13.099 38.6953,-12.2656 L35.6484,-12.4414 L37.7773,-27.5 L52.3086,-27.5 L52.3086,-24.1016 L40.4141,-24.1016 L39.2227,-16.3281 C39.8737,-16.8229 40.4922,-17.194 41.0781,-17.4414 C42.1198,-17.8711 43.3242,-18.0859 44.6914,-18.0859 C47.2565,-18.0859 49.431,-17.2591 51.2148,-15.6055 C52.9987,-13.9518 53.8906,-11.8555 53.8906,-9.31641 C53.8906,-6.67318 53.0736,-4.34245 51.4395,-2.32422 C49.8053,-0.30599 47.1979,0.703125 43.6172,0.703125 C41.3385,0.703125 39.3236,0.061849 37.5723,-1.2207 C35.821,-2.50326 34.8411,-4.47266 34.6328,-7.12891 L38.2852,-7.12891 M66.3984,-27.9688 C70.0182,-27.9688 72.6354,-26.4779 74.25,-23.4961 C75.5,-21.1914 76.125,-18.0339 76.125,-14.0234 C76.125,-10.2214 75.5586,-7.07682 74.4258,-4.58984 C72.7852,-1.02214 70.1029,0.761719 66.3789,0.761719 C63.0195,0.761719 60.5195,-0.696615 58.8789,-3.61328 C57.5117,-6.04818 56.8281,-9.31641 56.8281,-13.418 C56.8281,-16.5951 57.2383,-19.3229 58.0586,-21.6016 C59.5951,-25.8464 62.375,-27.9688 66.3984,-27.9688 M66.3594,-2.44141 C68.1823,-2.44141 69.6341,-3.2487 70.7148,-4.86328 C71.7956,-6.47786 72.3359,-9.48568 72.3359,-13.8867 C72.3359,-17.0638 71.9453,-19.6777 71.1641,-21.7285 C70.3828,-23.7793 68.8659,-24.8047 66.6133,-24.8047 C64.543,-24.8047 63.0293,-23.8314 62.0723,-21.8848 C61.1152,-19.9382 60.6367,-17.0703 60.6367,-13.2813 C60.6367,-10.4297 60.9427,-8.13802 61.5547,-6.40625 C62.4922,-3.76302 64.0938,-2.44141 66.3594,-2.44141 "/>
</g>

<g fill="#03dac5" fill-opacity="1" stroke="none" transform="matrix(0.5,0,0,0.5,46.875,39)"
font-family=".AppleSystemUIFont" font-size="13" font-weight="400" font-style="normal" 
>
<path vector-effect="none" fill-rule="evenodd" d="M3.82813,-19.8047 L3.82813,-22.5 C6.36719,-22.7474 8.13802,-23.1608 9.14063,-23.7402 C10.1432,-24.3197 10.8919,-25.6901 11.3867,-27.8516 L14.1602,-27.8516 L14.1602,0 L10.4102,0 L10.4102,-19.8047 L3.82813,-19.8047 M25.6523,-4.25781 L29.7344,-4.25781 L29.7344,0 L25.6523,0 L25.6523,-4.25781 M54.2617,-27.5 L54.2617,-24.4336 C53.3633,-23.5612 52.1686,-22.0443 50.6777,-19.8828 C49.1868,-17.7214 47.8685,-15.3906 46.7227,-12.8906 C45.5898,-10.4557 44.7305,-8.23568 44.1445,-6.23047 C43.7669,-4.94141 43.2786,-2.86458 42.6797,0 L38.793,0 C39.6784,-5.33854 41.6315,-10.651 44.6523,-15.9375 C46.4362,-19.0365 48.3112,-21.7122 50.2773,-23.9648 L34.8086,-23.9648 L34.8086,-27.5 L54.2617,-27.5 M60.5195,-7.12891 C60.7539,-5.1237 61.6849,-3.73698 63.3125,-2.96875 C64.1458,-2.57813 65.1094,-2.38281 66.2031,-2.38281 C68.2865,-2.38281 69.8294,-3.04688 70.832,-4.375 C71.8346,-5.70313 72.3359,-7.17448 72.3359,-8.78906 C72.3359,-10.7422 71.7402,-12.2526 70.5488,-13.3203 C69.3574,-14.388 67.9284,-14.9219 66.2617,-14.9219 C65.0508,-14.9219 64.0124,-14.6875 63.1465,-14.2188 C62.2806,-13.75 61.5417,-13.099 60.9297,-12.2656 L57.8828,-12.4414 L60.0117,-27.5 L74.543,-27.5 L74.543,-24.1016 L62.6484,-24.1016 L61.457,-16.3281 C62.1081,-16.8229 62.7266,-17.194 63.3125,-17.4414 C64.3542,-17.8711 65.5586,-18.0859 66.9258,-18.0859 C69.4909,-18.0859 71.6654,-17.2591 73.4492,-15.6055 C75.2331,-13.9518 76.125,-11.8555 76.125,-9.31641 C76.125,-6.67318 75.3079,-4.34245 73.6738,-2.32422 C72.0397,-0.30599 69.4323,0.703125 65.8516,0.703125 C63.5729,0.703125 61.5579,0.061849 59.8066,-1.2207 C58.0553,-2.50326 57.0755,-4.47266 56.8672,-7.12891 L60.5195,-7.12891"/>
</g>

<g fill="#03dac5" fill-opacity="1" stroke="none" transform="matrix(0,-0.5,0.5,0,28.9549,219.861)"
font-family=".AppleSystemUIFont" font-size="13" font-weight="400" font-style="normal" 
>
<path vector-effect="none" fill-rule="evenodd" d="M6.42383,-9.49609 C6.42383,-7.73438 6.764,-6.18392 7.44434,-4.84473 C8.12467,-3.50553 9.11296,-2.45996 10.4092,-1.70801 C11.7054,-0.956055 13.2344,-0.580078 14.9961,-0.580078 C16.8438,-0.580078 18.6234,-1.05273 20.335,-1.99805 C22.0465,-2.94336 23.5075,-4.20736 24.7178,-5.79004 C25.9281,-7.37272 26.7552,-9.05208 27.1992,-10.8281 C27.2565,-11 27.3711,-11.0859 27.543,-11.0859 L28.0801,-11.0859 C28.1947,-11.0859 28.2878,-11.0465 28.3594,-10.9678 C28.431,-10.889 28.4668,-10.7995 28.4668,-10.6992 C28.4668,-10.6706 28.4525,-10.6276 28.4238,-10.5703 C27.9225,-8.53646 26.9521,-6.62793 25.5127,-4.84473 C24.0732,-3.06152 22.3509,-1.64714 20.3457,-0.601563 C18.3405,0.44401 16.278,0.966797 14.1582,0.966797 C11.8665,0.966797 9.8112,0.451172 7.99219,-0.580078 C6.17318,-1.61133 4.75879,-3.04362 3.74902,-4.87695 C2.73926,-6.71029 2.23438,-8.77995 2.23438,-11.0859 C2.23438,-13.5495 2.78581,-15.988 3.88867,-18.4014 C4.99154,-20.8148 6.47396,-22.9632 8.33594,-24.8467 C10.1979,-26.7301 12.3213,-28.2305 14.7061,-29.3477 C17.0908,-30.4648 19.5078,-31.0234 21.957,-31.0234 C22.931,-31.0234 23.862,-30.8766 24.75,-30.583 C25.638,-30.2894 26.4616,-29.8418 27.2207,-29.2402 C27.9798,-28.6387 28.6029,-27.944 29.0898,-27.1563 L32.5703,-30.9375 C32.5703,-30.9948 32.6419,-31.0234 32.7852,-31.0234 L33.043,-31.0234 C33.1576,-31.0234 33.2507,-30.9733 33.3223,-30.873 C33.3939,-30.7728 33.4297,-30.6725 33.4297,-30.5723 L30.4434,-18.6914 C30.4434,-18.4909 30.3288,-18.3906 30.0996,-18.3906 L29.3047,-18.3906 C29.0755,-18.3906 28.9609,-18.5553 28.9609,-18.8848 C29.0755,-19.5293 29.1328,-20.3027 29.1328,-21.2051 C29.1328,-22.6374 28.8893,-23.9873 28.4023,-25.2549 C27.9154,-26.5225 27.1598,-27.543 26.1357,-28.3164 C25.1117,-29.0898 23.862,-29.4766 22.3867,-29.4766 C19.9948,-29.4766 17.8034,-28.875 15.8125,-27.6719 C13.8216,-26.4688 12.1351,-24.8896 10.7529,-22.9346 C9.37077,-20.9795 8.30371,-18.8096 7.55176,-16.4248 C6.7998,-14.04 6.42383,-11.7305 6.42383,-9.49609 "/>
</g>

<g fill="#03dac5" fill-opacity="1" stroke="none" transform="matrix(0,-0.5,0.5,0,32.2549,204.137)"
font-family=".AppleSystemUIFont" font-size="13" font-weight="400" font-style="normal" 
>
<path vector-effect="none" fill-rule="evenodd" d="M1.31836,-2.43164 C1.31836,-2.49023 1.32568,-2.57813 1.34033,-2.69531 C1.35498,-2.8125 1.36963,-2.92725 1.38428,-3.03955 C1.39893,-3.15186 1.40625,-3.2373 1.40625,-3.2959 L5.12695,-18.1494 C5.20508,-18.4912 5.25391,-18.7598 5.27344,-18.9551 C5.27344,-19.2773 4.62402,-19.4385 3.3252,-19.4385 C3.12988,-19.4385 3.03223,-19.5703 3.03223,-19.834 C3.04199,-19.8828 3.06396,-19.9707 3.09814,-20.0977 C3.13232,-20.2246 3.17627,-20.3223 3.22998,-20.3906 C3.28369,-20.459 3.35938,-20.4932 3.45703,-20.4932 L7.5,-20.8154 C7.74414,-20.8154 7.86621,-20.6885 7.86621,-20.4346 L3.54492,-3.17871 C3.39844,-2.85645 3.3252,-2.37793 3.3252,-1.74316 C3.3252,-0.883789 3.61816,-0.454102 4.2041,-0.454102 C4.81934,-0.454102 5.28076,-0.837402 5.58838,-1.604 C5.896,-2.37061 6.17188,-3.30566 6.41602,-4.40918 C6.45508,-4.52637 6.53809,-4.58496 6.66504,-4.58496 L7.0166,-4.58496 C7.09473,-4.58496 7.16064,-4.55322 7.21436,-4.48975 C7.26807,-4.42627 7.29492,-4.36035 7.29492,-4.29199 C7.06055,-3.3252 6.84814,-2.56104 6.65771,-1.99951 C6.46729,-1.43799 6.16211,-0.908203 5.74219,-0.410156 C5.32227,0.0878906 4.79004,0.336914 4.14551,0.336914 C3.34473,0.336914 2.67334,0.078125 2.13135,-0.439453 C1.58936,-0.957031 1.31836,-1.62109 1.31836,-2.43164 "/>
</g>

<g fill="#bb86fc" fill-opacity="1" stroke="#bb86fc" stroke-opacity="1" stroke-width="1" stroke-linecap="square" stroke-linejoin="round" transform="matrix(0.5,0,0,0.5,0,0)"
font-family=".AppleSystemUIFont" font-size="13" font-weight="400" font-style="normal" 
>
<polyline fill="none" vector-effect="none" points="1320,769 1320,67 " />
<polyline fill="none" vector-effect="none" points="1320,769 1331.25,769 " />
<polyline fill="none" vector-effect="none" points="1320,681.25 1331.25,681.25 " />
<polyline fill="none" vector-effect="none" points="1320,593.5 1331.25,593.5 " />
<polyline fill="none" vector-effect="none" points="1320,505.75 1331.25,505.75 " />
<polyline fill="none" vector-effect="none" points="1320,418 1331.25,418 " />
<polyline fill="none" vector-effect="none" points="1320,330.25 1331.25,330.25 " />
<polyline fill="none" vector-effect="none" points="1320,242.5 1331.25,242.5 " />
<polyline fill="none" vector-effect="none" points="1320,154.75 1331.25,154.75 " />
<polyline fill="none" vector-effect="none" points="1320,67 1331.25,67 " />
</g>

<g fill="#bb86fc" fill-opacity="1" stroke="none" transform="matrix(0.5,0,0,0.5,671.625,390)"
font-family=".AppleSystemUIFont" font-size="13" font-weight="400" font-style="normal" 
>
<path vector-effect="none" fill-rule="evenodd" d="M1.66016,-12.9492 L11.4648,-12.9492 L11.4648,-9.33594 L1.66016,-9.33594 L1.66016,-12.9492 M24.1328,-27.9688 C27.7526,-27.9688 30.3698,-26.4779 31.9844,-23.4961 C33.2344,-21.1914 33.8594,-18.0339 33.8594,-14.0234 C33.8594,-10.2214 33.293,-7.07682 32.1602,-4.58984 C30.5195,-1.02214 27.8372,0.761719 24.1133,0.761719 C20.7539,0.761719 18.2539,-0.696615 16.6133,-3.61328 C15.2461,-6.04818 14.5625,-9.31641 14.5625,-13.418 C14.5625,-16.5951 14.9727,-19.3229 15.793,-21.6016 C17.3294,-25.8464 20.1094,-27.9688 24.1328,-27.9688 M24.0938,-2.44141 C25.9167,-2.44141 27.3685,-3.2487 28.4492,-4.86328 C29.5299,-6.47786 30.0703,-9.48568 30.0703,-13.8867 C30.0703,-17.0638 29.6797,-19.6777 28.8984,-21.7285 C28.1172,-23.7793 26.6003,-24.8047 24.3477,-24.8047 C22.2773,-24.8047 20.7637,-23.8314 19.8066,-21.8848 C18.8496,-19.9382 18.3711,-17.0703 18.3711,-13.2813 C18.3711,-10.4297 18.6771,-8.13802 19.2891,-6.40625 C20.2266,-3.76302 21.8281,-2.44141 24.0938,-2.44141 M38.9648,-4.25781 L43.0469,-4.25781 L43.0469,0 L38.9648,0 L38.9648,-4.25781 M57.4766,-27.9688 C61.0964,-27.9688 63.7135,-26.4779 65.3281,-23.4961 C66.5781,-21.1914 67.2031,-18.0339 67.2031,-14.0234 C67.2031,-10.2214 66.6367,-7.07682 65.5039,-4.58984 C63.8633,-1.02214 61.181,0.761719 57.457,0.761719 C54.0977,0.761719 51.5977,-0.696615 49.957,-3.61328 C48.5898,-6.04818 47.9063,-9.31641 47.9063,-13.418 C47.9063,-16.5951 48.3164,-19.3229 49.1367,-21.6016 C50.6732,-25.8464 53.4531,-27.9688 57.4766,-27.9688 M57.4375,-2.44141 C59.2604,-2.44141 60.7122,-3.2487 61.793,-4.86328 C62.8737,-6.47786 63.4141,-9.48568 63.4141,-13.8867 C63.4141,-17.0638 63.0234,-19.6777 62.2422,-21.7285 C61.4609,-23.7793 59.944,-24.8047 57.6914,-24.8047 C55.6211,-24.8047 54.1074,-23.8314 53.1504,-21.8848 C52.1934,-19.9382 51.7148,-17.0703 51.7148,-13.2813 C51.7148,-10.4297 52.0208,-8.13802 52.6328,-6.40625 C53.5703,-3.76302 55.1719,-2.44141 57.4375,-2.44141 M73.832,-7.12891 C74.0664,-5.1237 74.9974,-3.73698 76.625,-2.96875 C77.4583,-2.57813 78.4219,-2.38281 79.5156,-2.38281 C81.599,-2.38281 83.1419,-3.04688 84.1445,-4.375 C85.1471,-5.70313 85.6484,-7.17448 85.6484,-8.78906 C85.6484,-10.7422 85.0527,-12.2526 83.8613,-13.3203 C82.6699,-14.388 81.2409,-14.9219 79.5742,-14.9219 C78.3633,-14.9219 77.3249,-14.6875 76.459,-14.2188 C75.5931,-13.75 74.8542,-13.099 74.2422,-12.2656 L71.1953,-12.4414 L73.3242,-27.5 L87.8555,-27.5 L87.8555,-24.1016 L75.9609,-24.1016 L74.7695,-16.3281 C75.4206,-16.8229 76.0391,-17.194 76.625,-17.4414 C77.6667,-17.8711 78.8711,-18.0859 80.2383,-18.0859 C82.8034,-18.0859 84.9779,-17.2591 86.7617,-15.6055 C88.5456,-13.9518 89.4375,-11.8555 89.4375,-9.31641 C89.4375,-6.67318 88.6204,-4.34245 86.9863,-2.32422 C85.3522,-0.30599 82.7448,0.703125 79.1641,0.703125 C76.8854,0.703125 74.8704,0.061849 73.1191,-1.2207 C71.3678,-2.50326 70.388,-4.47266 70.1797,-7.12891 L73.832,-7.12891"/>
</g>

<g fill="#bb86fc" fill-opacity="1" stroke="none" transform="matrix(0.5,0,0,0.5,671.625,346.125)"
font-family=".AppleSystemUIFont" font-size="13" font-weight="400" font-style="normal" 
>
<path vector-effect="none" fill-rule="evenodd" d="M10.8203,-27.9688 C14.4401,-27.9688 17.0573,-26.4779 18.6719,-23.4961 C19.9219,-21.1914 20.5469,-18.0339 20.5469,-14.0234 C20.5469,-10.2214 19.9805,-7.07682 18.8477,-4.58984 C17.207,-1.02214 14.5247,0.761719 10.8008,0.761719 C7.44141,0.761719 4.94141,-0.696615 3.30078,-3.61328 C1.93359,-6.04818 1.25,-9.31641 1.25,-13.418 C1.25,-16.5951 1.66016,-19.3229 2.48047,-21.6016 C4.01693,-25.8464 6.79688,-27.9688 10.8203,-27.9688 M10.7813,-2.44141 C12.6042,-2.44141 14.056,-3.2487 15.1367,-4.86328 C16.2174,-6.47786 16.7578,-9.48568 16.7578,-13.8867 C16.7578,-17.0638 16.3672,-19.6777 15.5859,-21.7285 C14.8047,-23.7793 13.2878,-24.8047 11.0352,-24.8047 C8.96484,-24.8047 7.45117,-23.8314 6.49414,-21.8848 C5.53711,-19.9382 5.05859,-17.0703 5.05859,-13.2813 C5.05859,-10.4297 5.36458,-8.13802 5.97656,-6.40625 C6.91406,-3.76302 8.51563,-2.44141 10.7813,-2.44141 M25.6523,-4.25781 L29.7344,-4.25781 L29.7344,0 L25.6523,0 L25.6523,-4.25781 M44.1641,-27.9688 C47.7839,-27.9688 50.401,-26.4779 52.0156,-23.4961 C53.2656,-21.1914 53.8906,-18.0339 53.8906,-14.0234 C53.8906,-10.2214 53.3242,-7.07682 52.1914,-4.58984 C50.5508,-1.02214 47.8685,0.761719 44.1445,0.761719 C40.7852,0.761719 38.2852,-0.696615 36.6445,-3.61328 C35.2773,-6.04818 34.5938,-9.31641 34.5938,-13.418 C34.5938,-16.5951 35.0039,-19.3229 35.8242,-21.6016 C37.3607,-25.8464 40.1406,-27.9688 44.1641,-27.9688 M44.125,-2.44141 C45.9479,-2.44141 47.3997,-3.2487 48.4805,-4.86328 C49.5612,-6.47786 50.1016,-9.48568 50.1016,-13.8867 C50.1016,-17.0638 49.7109,-19.6777 48.9297,-21.7285 C48.1484,-23.7793 46.6315,-24.8047 44.3789,-24.8047 C42.3086,-24.8047 40.7949,-23.8314 39.8379,-21.8848 C38.8809,-19.9382 38.4023,-17.0703 38.4023,-13.2813 C38.4023,-10.4297 38.7083,-8.13802 39.3203,-6.40625 C40.2578,-3.76302 41.8594,-2.44141 44.125,-2.44141 M66.3984,-27.9688 C70.0182,-27.9688 72.6354,-26.4779 74.25,-23.4961 C75.5,-21.1914 76.125,-18.0339 76.125,-14.0234 C76.125,-10.2214 75.5586,-7.07682 74.4258,-4.58984 C72.7852,-1.02214 70.1029,0.761719 66.3789,0.761719 C63.0195,0.761719 60.5195,-0.696615 58.8789,-3.61328 C57.5117,-6.04818 56.8281,-9.31641 56.8281,-13.418 C56.8281,-16.5951 57.2383,-19.3229 58.0586,-21.6016 C59.5951,-25.8464 62.375,-27.9688 66.3984,-27.9688 M66.3594,-2.44141 C68.1823,-2.44141 69.6341,-3.2487 70.7148,-4.86328 C71.7956,-6.47786 72.3359,-9.48568 72.3359,-13.8867 C72.3359,-17.0638 71.9453,-19.6777 71.1641,-21.7285 C70.3828,-23.7793 68.8659,-24.8047 66.6133,-24.8047 C64.543,-24.8047 63.0293,-23.8314 62.0723,-21.8848 C61.1152,-19.9382 60.6367,-17.0703 60.6367,-13.2813 C60.6367,-10.4297 60.9427,-8.13802 61.5547,-6.40625 C62.4922,-3.76302 64.0938,-2.44141 66.3594,-2.44141 "/>
</g>

<g fill="#bb86fc" fill-opacity="1" stroke="none" transform="matrix(0.5,0,0,0.5,671.625,302.25)"
font-family=".AppleSystemUIFont" font-size="13" font-weight="400" font-style="normal" 
>
<path vector-effect="none" fill-rule="evenodd" d="M10.8203,-27.9688 C14.4401,-27.9688 17.0573,-26.4779 18.6719,-23.4961 C19.9219,-21.1914 20.5469,-18.0339 20.5469,-14.0234 C20.5469,-10.2214 19.9805,-7.07682 18.8477,-4.58984 C17.207,-1.02214 14.5247,0.761719 10.8008,0.761719 C7.44141,0.761719 4.94141,-0.696615 3.30078,-3.61328 C1.93359,-6.04818 1.25,-9.31641 1.25,-13.418 C1.25,-16.5951 1.66016,-19.3229 2.48047,-21.6016 C4.01693,-25.8464 6.79688,-27.9688 10.8203,-27.9688 M10.7813,-2.44141 C12.6042,-2.44141 14.056,-3.2487 15.1367,-4.86328 C16.2174,-6.47786 16.7578,-9.48568 16.7578,-13.8867 C16.7578,-17.0638 16.3672,-19.6777 15.5859,-21.7285 C14.8047,-23.7793 13.2878,-24.8047 11.0352,-24.8047 C8.96484,-24.8047 7.45117,-23.8314 6.49414,-21.8848 C5.53711,-19.9382 5.05859,-17.0703 5.05859,-13.2813 C5.05859,-10.4297 5.36458,-8.13802 5.97656,-6.40625 C6.91406,-3.76302 8.51563,-2.44141 10.7813,-2.44141 M25.6523,-4.25781 L29.7344,-4.25781 L29.7344,0 L25.6523,0 L25.6523,-4.25781 M44.1641,-27.9688 C47.7839,-27.9688 50.401,-26.4779 52.0156,-23.4961 C53.2656,-21.1914 53.8906,-18.0339 53.8906,-14.0234 C53.8906,-10.2214 53.3242,-7.07682 52.1914,-4.58984 C50.5508,-1.02214 47.8685,0.761719 44.1445,0.761719 C40.7852,0.761719 38.2852,-0.696615 36.6445,-3.61328 C35.2773,-6.04818 34.5938,-9.31641 34.5938,-13.418 C34.5938,-16.5951 35.0039,-19.3229 35.8242,-21.6016 C37.3607,-25.8464 40.1406,-27.9688 44.1641,-27.9688 M44.125,-2.44141 C45.9479,-2.44141 47.3997,-3.2487 48.4805,-4.86328 C49.5612,-6.47786 50.1016,-9.48568 50.1016,-13.8867 C50.1016,-17.0638 49.7109,-19.6777 48.9297,-21.7285 C48.1484,-23.7793 46.6315,-24.8047 44.3789,-24.8047 C42.3086,-24.8047 40.7949,-23.8314 39.8379,-21.8848 C38.8809,-19.9382 38.4023,-17.0703 38.4023,-13.2813 C38.4023,-10.4297 38.7083,-8.13802 39.3203,-6.40625 C40.2578,-3.76302 41.8594,-2.44141 44.125,-2.44141 M60.5195,-7.12891 C60.7539,-5.1237 61.6849,-3.73698 63.3125,-2.96875 C64.1458,-2.57813 65.1094,-2.38281 66.2031,-2.38281 C68.2865,-2.38281 69.8294,-3.04688 70.832,-4.375 C71.8346,-5.70313 72.3359,-7.17448 72.3359,-8.78906 C72.3359,-10.7422 71.7402,-12.2526 70.5488,-13.3203 C69.3574,-14.388 67.9284,-14.9219 66.2617,-14.9219 C65.0508,-14.9219 64.0124,-14.6875 63.1465,-14.2188 C62.2806,-13.75 61.5417,-13.099 60.9297,-12.2656 L57.8828,-12.4414 L60.0117,-27.5 L74.543,-27.5 L74.543,-24.1016 L62.6484,-24.1016 L61.457,-16.3281 C62.1081,-16.8229 62.7266,-17.194 63.3125,-17.4414 C64.3542,-17.8711 65.5586,-18.0859 66.9258,-18.0859 C69.4909,-18.0859 71.6654,-17.2591 73.4492,-15.6055 C75.2331,-13.9518 76.125,-11.8555 76.125,-9.31641 C76.125,-6.67318 75.3079,-4.34245 73.6738,-2.32422 C72.0397,-0.30599 69.4323,0.703125 65.8516,0.703125 C63.5729,0.703125 61.5579,0.061849 59.8066,-1.2207 C58.0553,-2.50326 57.0755,-4.47266 56.8672,-7.12891 L60.5195,-7.12891"/>
</g>

<g fill="#bb86fc" fill-opacity="1" stroke="none" transform="matrix(0.5,0,0,0.5,671.625,258.375)"
font-family=".AppleSystemUIFont" font-size="13" font-weight="400" font-style="normal" 
>
<path vector-effect="none" fill-rule="evenodd" d="M10.8203,-27.9688 C14.4401,-27.9688 17.0573,-26.4779 18.6719,-23.4961 C19.9219,-21.1914 20.5469,-18.0339 20.5469,-14.0234 C20.5469,-10.2214 19.9805,-7.07682 18.8477,-4.58984 C17.207,-1.02214 14.5247,0.761719 10.8008,0.761719 C7.44141,0.761719 4.94141,-0.696615 3.30078,-3.61328 C1.93359,-6.04818 1.25,-9.31641 1.25,-13.418 C1.25,-16.5951 1.66016,-19.3229 2.48047,-21.6016 C4.01693,-25.8464 6.79688,-27.9688 10.8203,-27.9688 M10.7813,-2.44141 C12.6042,-2.44141 14.056,-3.2487 15.1367,-4.86328 C16.2174,-6.47786 16.7578,-9.48568 16.7578,-13.8867 C16.7578,-17.0638 16.3672,-19.6777 15.5859,-21.7285 C14.8047,-23.7793 13.2878,-24.8047 11.0352,-24.8047 C8.96484,-24.8047 7.45117,-23.8314 6.49414,-21.8848 C5.53711,-19.9382 5.05859,-17.0703 5.05859,-13.2813 C5.05859,-10.4297 5.36458,-8.13802 5.97656,-6.40625 C6.91406,-3.76302 8.51563,-2.44141 10.7813,-2.44141 M25.6523,-4.25781 L29.7344,-4.25781 L29.7344,0 L25.6523,0 L25.6523,-4.25781 M37.1719,-19.8047 L37.1719,-22.5 C39.7109,-22.7474 41.4818,-23.1608 42.4844,-23.7402 C43.487,-24.3197 44.2357,-25.6901 44.7305,-27.8516 L47.5039,-27.8516 L47.5039,0 L43.7539,0 L43.7539,-19.8047 L37.1719,-19.8047 M66.3984,-27.9688 C70.0182,-27.9688 72.6354,-26.4779 74.25,-23.4961 C75.5,-21.1914 76.125,-18.0339 76.125,-14.0234 C76.125,-10.2214 75.5586,-7.07682 74.4258,-4.58984 C72.7852,-1.02214 70.1029,0.761719 66.3789,0.761719 C63.0195,0.761719 60.5195,-0.696615 58.8789,-3.61328 C57.5117,-6.04818 56.8281,-9.31641 56.8281,-13.418 C56.8281,-16.5951 57.2383,-19.3229 58.0586,-21.6016 C59.5951,-25.8464 62.375,-27.9688 66.3984,-27.9688 M66.3594,-2.44141 C68.1823,-2.44141 69.6341,-3.2487 70.7148,-4.86328 C71.7956,-6.47786 72.3359,-9.48568 72.3359,-13.8867 C72.3359,-17.0638 71.9453,-19.6777 71.1641,-21.7285 C70.3828,-23.7793 68.8659,-24.8047 66.6133,-24.8047 C64.543,-24.8047 63.0293,-23.8314 62.0723,-21.8848 C61.1152,-19.9382 60.6367,-17.0703 60.6367,-13.2813 C60.6367,-10.4297 60.9427,-8.13802 61.5547,-6.40625 C62.4922,-3.76302 64.0938,-2.44141 66.3594,-2.44141 "/>
</g>

<g fill="#bb86fc" fill-opacity="1" stroke="none" transform="matrix(0.5,0,0,0.5,671.625,214.5)"
font-family=".AppleSystemUIFont" font-size="13" font-weight="400" font-style="normal" 
>
<path vector-effect="none" fill-rule="evenodd" d="M10.8203,-27.9688 C14.4401,-27.9688 17.0573,-26.4779 18.6719,-23.4961 C19.9219,-21.1914 20.5469,-18.0339 20.5469,-14.0234 C20.5469,-10.2214 19.9805,-7.07682 18.8477,-4.58984 C17.207,-1.02214 14.5247,0.761719 10.8008,0.761719 C7.44141,0.761719 4.94141,-0.696615 3.30078,-3.61328 C1.93359,-6.04818 1.25,-9.31641 1.25,-13.418 C1.25,-16.5951 1.66016,-19.3229 2.48047,-21.6016 C4.01693,-25.8464 6.79688,-27.9688 10.8203,-27.9688 M10.7813,-2.44141 C12.6042,-2.44141 14.056,-3.2487 15.1367,-4.86328 C16.2174,-6.47786 16.7578,-9.48568 16.7578,-13.8867 C16.7578,-17.0638 16.3672,-19.6777 15.5859,-21.7285 C14.8047,-23.7793 13.2878,-24.8047 11.0352,-24.8047 C8.96484,-24.8047 7.45117,-23.8314 6.49414,-21.8848 C5.53711,-19.9382 5.05859,-17.0703 5.05859,-13.2813 C5.05859,-10.4297 5.36458,-8.13802 5.97656,-6.40625 C6.91406,-3.76302 8.51563,-2.44141 10.7813,-2.44141 M25.6523,-4.25781 L29.7344,-4.25781 L29.7344,0 L25.6523,0 L25.6523,-4.25781 M37.1719,-19.8047 L37.1719,-22.5 C39.7109,-22.7474 41.4818,-23.1608 42.4844,-23.7402 C43.487,-24.3197 44.2357,-25.6901 44.7305,-27.8516 L47.5039,-27.8516 L47.5039,0 L43.7539,0 L43.7539,-19.8047 L37.1719,-19.8047 M60.5195,-7.12891 C60.7539,-5.1237 61.6849,-3.73698 63.3125,-2.96875 C64.1458,-2.57813 65.1094,-2.38281 66.2031,-2.38281 C68.2865,-2.38281 69.8294,-3.04688 70.832,-4.375 C71.8346,-5.70313 72.3359,-7.17448 72.3359,-8.78906 C72.3359,-10.7422 71.7402,-12.2526 70.5488,-13.3203 C69.3574,-14.388 67.9284,-14.9219 66.2617,-14.9219 C65.0508,-14.9219 64.0124,-14.6875 63.1465,-14.2188 C62.2806,-13.75 61.5417,-13.099 60.9297,-12.2656 L57.8828,-12.4414 L60.0117,-27.5 L74.543,-27.5 L74.543,-24.1016 L62.6484,-24.1016 L61.457,-16.3281 C62.1081,-16.8229 62.7266,-17.194 63.3125,-17.4414 C64.3542,-17.8711 65.5586,-18.0859 66.9258,-18.0859 C69.4909,-18.0859 71.6654,-17.2591 73.4492,-15.6055 C75.2331,-13.9518 76.125,-11.8555 76.125,-9.31641 C76.125,-6.67318 75.3079,-4.34245 73.6738,-2.32422 C72.0397,-0.30599 69.4323,0.703125 65.8516,0.703125 C63.5729,0.703125 61.5579,0.061849 59.8066,-1.2207 C58.0553,-2.50326 57.0755,-4.47266 56.8672,-7.12891 L60.5195,-7.12891"/>
</g>

<g fill="#bb86fc" fill-opacity="1" stroke="none" transform="matrix(0.5,0,0,0.5,671.625,170.625)"
font-family=".AppleSystemUIFont" font-size="13" font-weight="400" font-style="normal" 
>
<path vector-effect="none" fill-rule="evenodd" d="M10.8203,-27.9688 C14.4401,-27.9688 17.0573,-26.4779 18.6719,-23.4961 C19.9219,-21.1914 20.5469,-18.0339 20.5469,-14.0234 C20.5469,-10.2214 19.9805,-7.07682 18.8477,-4.58984 C17.207,-1.02214 14.5247,0.761719 10.8008,0.761719 C7.44141,0.761719 4.94141,-0.696615 3.30078,-3.61328 C1.93359,-6.04818 1.25,-9.31641 1.25,-13.418 C1.25,-16.5951 1.66016,-19.3229 2.48047,-21.6016 C4.01693,-25.8464 6.79688,-27.9688 10.8203,-27.9688 M10.7813,-2.44141 C12.6042,-2.44141 14.056,-3.2487 15.1367,-4.86328 C16.2174,-6.47786 16.7578,-9.48568 16.7578,-13.8867 C16.7578,-17.0638 16.3672,-19.6777 15.5859,-21.7285 C14.8047,-23.7793 13.2878,-24.8047 11.0352,-24.8047 C8.96484,-24.8047 7.45117,-23.8314 6.49414,-21.8848 C5.53711,-19.9382 5.05859,-17.0703 5.05859,-13.2813 C5.05859,-10.4297 5.36458,-8.13802 5.97656,-6.40625 C6.91406,-3.76302 8.51563,-2.44141 10.7813,-2.44141 M25.6523,-4.25781 L29.7344,-4.25781 L29.7344,0 L25.6523,0 L25.6523,-4.25781 M34.5938,0 C34.724,-2.40885 35.222,-4.50521 36.0879,-6.28906 C36.9538,-8.07292 38.6432,-9.69401 41.1563,-11.1523 L44.9063,-13.3203 C46.5859,-14.2969 47.7643,-15.1302 48.4414,-15.8203 C49.5091,-16.901 50.043,-18.138 50.043,-19.5313 C50.043,-21.1589 49.5547,-22.4512 48.5781,-23.4082 C47.6016,-24.3652 46.2995,-24.8438 44.6719,-24.8438 C42.263,-24.8438 40.5964,-23.9323 39.6719,-22.1094 C39.1771,-21.1328 38.9036,-19.7786 38.8516,-18.0469 L35.2773,-18.0469 C35.3164,-20.4818 35.7656,-22.4674 36.625,-24.0039 C38.1484,-26.7122 40.8372,-28.0664 44.6914,-28.0664 C47.8945,-28.0664 50.235,-27.2005 51.7129,-25.4688 C53.1908,-23.737 53.9297,-21.8099 53.9297,-19.6875 C53.9297,-17.4479 53.1419,-15.5339 51.5664,-13.9453 C50.6549,-13.0208 49.0208,-11.901 46.6641,-10.5859 L43.9883,-9.10156 C42.7122,-8.39844 41.7096,-7.72786 40.9805,-7.08984 C39.6784,-5.95703 38.8581,-4.70052 38.5195,-3.32031 L53.793,-3.32031 L53.793,0 L34.5938,0 M66.3984,-27.9688 C70.0182,-27.9688 72.6354,-26.4779 74.25,-23.4961 C75.5,-21.1914 76.125,-18.0339 76.125,-14.0234 C76.125,-10.2214 75.5586,-7.07682 74.4258,-4.58984 C72.7852,-1.02214 70.1029,0.761719 66.3789,0.761719 C63.0195,0.761719 60.5195,-0.696615 58.8789,-3.61328 C57.5117,-6.04818 56.8281,-9.31641 56.8281,-13.418 C56.8281,-16.5951 57.2383,-19.3229 58.0586,-21.6016 C59.5951,-25.8464 62.375,-27.9688 66.3984,-27.9688 M66.3594,-2.44141 C68.1823,-2.44141 69.6341,-3.2487 70.7148,-4.86328 C71.7956,-6.47786 72.3359,-9.48568 72.3359,-13.8867 C72.3359,-17.0638 71.9453,-19.6777 71.1641,-21.7285 C70.3828,-23.7793 68.8659,-24.8047 66.6133,-24.8047 C64.543,-24.8047 63.0293,-23.8314 62.0723,-21.8848 C61.1152,-19.9382 60.6367,-17.0703 60.6367,-13.2813 C60.6367,-10.4297 60.9427,-8.13802 61.5547,-6.40625 C62.4922,-3.76302 64.0938,-2.44141 66.3594,-2.44141 "/>
</g>

<g fill="#bb86fc" fill-opacity="1" stroke="none" transform="matrix(0.5,0,0,0.5,671.625,126.75)"
font-family=".AppleSystemUIFont" font-size="13" font-weight="400" font-style="normal" 
>
<path vector-effect="none" fill-rule="evenodd" d="M10.8203,-27.9688 C14.4401,-27.9688 17.0573,-26.4779 18.6719,-23.4961 C19.9219,-21.1914 20.5469,-18.0339 20.5469,-14.0234 C20.5469,-10.2214 19.9805,-7.07682 18.8477,-4.58984 C17.207,-1.02214 14.5247,0.761719 10.8008,0.761719 C7.44141,0.761719 4.94141,-0.696615 3.30078,-3.61328 C1.93359,-6.04818 1.25,-9.31641 1.25,-13.418 C1.25,-16.5951 1.66016,-19.3229 2.48047,-21.6016 C4.01693,-25.8464 6.79688,-27.9688 10.8203,-27.9688 M10.7813,-2.44141 C12.6042,-2.44141 14.056,-3.2487 15.1367,-4.86328 C16.2174,-6.47786 16.7578,-9.48568 16.7578,-13.8867 C16.7578,-17.0638 16.3672,-19.6777 15.5859,-21.7285 C14.8047,-23.7793 13.2878,-24.8047 11.0352,-24.8047 C8.96484,-24.8047 7.45117,-23.8314 6.49414,-21.8848 C5.53711,-19.9382 5.05859,-17.0703 5.05859,-13.2813 C5.05859,-10.4297 5.36458,-8.13802 5.97656,-6.40625 C6.91406,-3.76302 8.51563,-2.44141 10.7813,-2.44141 M25.6523,-4.25781 L29.7344,-4.25781 L29.7344,0 L25.6523,0 L25.6523,-4.25781 M34.5938,0 C34.724,-2.40885 35.222,-4.50521 36.0879,-6.28906 C36.9538,-8.07292 38.6432,-9.69401 41.1563,-11.1523 L44.9063,-13.3203 C46.5859,-14.2969 47.7643,-15.1302 48.4414,-15.8203 C49.5091,-16.901 50.043,-18.138 50.043,-19.5313 C50.043,-21.1589 49.5547,-22.4512 48.5781,-23.4082 C47.6016,-24.3652 46.2995,-24.8438 44.6719,-24.8438 C42.263,-24.8438 40.5964,-23.9323 39.6719,-22.1094 C39.1771,-21.1328 38.9036,-19.7786 38.8516,-18.0469 L35.2773,-18.0469 C35.3164,-20.4818 35.7656,-22.4674 36.625,-24.0039 C38.1484,-26.7122 40.8372,-28.0664 44.6914,-28.0664 C47.8945,-28.0664 50.235,-27.2005 51.7129,-25.4688 C53.1908,-23.737 53.9297,-21.8099 53.9297,-19.6875 C53.9297,-17.4479 53.1419,-15.5339 51.5664,-13.9453 C50.6549,-13.0208 49.0208,-11.901 46.6641,-10.5859 L43.9883,-9.10156 C42.7122,-8.39844 41.7096,-7.72786 40.9805,-7.08984 C39.6784,-5.95703 38.8581,-4.70052 38.5195,-3.32031 L53.793,-3.32031 L53.793,0 L34.5938,0 M60.5195,-7.12891 C60.7539,-5.1237 61.6849,-3.73698 63.3125,-2.96875 C64.1458,-2.57813 65.1094,-2.38281 66.2031,-2.38281 C68.2865,-2.38281 69.8294,-3.04688 70.832,-4.375 C71.8346,-5.70313 72.3359,-7.17448 72.3359,-8.78906 C72.3359,-10.7422 71.7402,-12.2526 70.5488,-13.3203 C69.3574,-14.388 67.9284,-14.9219 66.2617,-14.9219 C65.0508,-14.9219 64.0124,-14.6875 63.1465,-14.2188 C62.2806,-13.75 61.5417,-13.099 60.9297,-12.2656 L57.8828,-12.4414 L60.0117,-27.5 L74.543,-27.5 L74.543,-24.1016 L62.6484,-24.1016 L61.457,-16.3281 C62.1081,-16.8229 62.7266,-17.194 63.3125,-17.4414 C64.3542,-17.8711 65.5586,-18.0859 66.9258,-18.0859 C69.4909,-18.0859 71.6654,-17.2591 73.4492,-15.6055 C75.2331,-13.9518 76.125,-11.8555 76.125,-9.31641 C76.125,-6.67318 75.3079,-4.34245 73.6738,-2.32422 C72.0397,-0.30599 69.4323,0.703125 65.8516,0.703125 C63.5729,0.703125 61.5579,0.061849 59.8066,-1.2207 C58.0553,-2.50326 57.0755,-4.47266 56.8672,-7.12891 L60.5195,-7.12891"/>
</g>

<g fill="#bb86fc" fill-opacity="1" stroke="none" transform="matrix(0.5,0,0,0.5,671.625,82.875)"
font-family=".AppleSystemUIFont" font-size="13" font-weight="400" font-style="normal" 
>
<path vector-effect="none" fill-rule="evenodd" d="M10.8203,-27.9688 C14.4401,-27.9688 17.0573,-26.4779 18.6719,-23.4961 C19.9219,-21.1914 20.5469,-18.0339 20.5469,-14.0234 C20.5469,-10.2214 19.9805,-7.07682 18.8477,-4.58984 C17.207,-1.02214 14.5247,0.761719 10.8008,0.761719 C7.44141,0.761719 4.94141,-0.696615 3.30078,-3.61328 C1.93359,-6.04818 1.25,-9.31641 1.25,-13.418 C1.25,-16.5951 1.66016,-19.3229 2.48047,-21.6016 C4.01693,-25.8464 6.79688,-27.9688 10.8203,-27.9688 M10.7813,-2.44141 C12.6042,-2.44141 14.056,-3.2487 15.1367,-4.86328 C16.2174,-6.47786 16.7578,-9.48568 16.7578,-13.8867 C16.7578,-17.0638 16.3672,-19.6777 15.5859,-21.7285 C14.8047,-23.7793 13.2878,-24.8047 11.0352,-24.8047 C8.96484,-24.8047 7.45117,-23.8314 6.49414,-21.8848 C5.53711,-19.9382 5.05859,-17.0703 5.05859,-13.2813 C5.05859,-10.4297 5.36458,-8.13802 5.97656,-6.40625 C6.91406,-3.76302 8.51563,-2.44141 10.7813,-2.44141 M25.6523,-4.25781 L29.7344,-4.25781 L29.7344,0 L25.6523,0 L25.6523,-4.25781 M43.7344,0.761719 C40.4271,0.761719 38.028,-0.146484 36.5371,-1.96289 C35.0462,-3.7793 34.3008,-5.98958 34.3008,-8.59375 L37.9727,-8.59375 C38.1289,-6.78385 38.4674,-5.46875 38.9883,-4.64844 C39.8997,-3.17708 41.5469,-2.44141 43.9297,-2.44141 C45.7786,-2.44141 47.263,-2.9362 48.3828,-3.92578 C49.5026,-4.91536 50.0625,-6.19141 50.0625,-7.75391 C50.0625,-9.68099 49.4733,-11.0286 48.2949,-11.7969 C47.1165,-12.5651 45.4792,-12.9492 43.3828,-12.9492 C43.1484,-12.9492 42.9108,-12.946 42.6699,-12.9395 C42.429,-12.9329 42.1849,-12.9232 41.9375,-12.9102 L41.9375,-16.0156 C42.3021,-15.9766 42.6081,-15.9505 42.8555,-15.9375 C43.1029,-15.9245 43.3698,-15.918 43.6563,-15.918 C44.9714,-15.918 46.0521,-16.1263 46.8984,-16.543 C48.3828,-17.2721 49.125,-18.5742 49.125,-20.4492 C49.125,-21.8424 48.6302,-22.9167 47.6406,-23.6719 C46.651,-24.4271 45.4987,-24.8047 44.1836,-24.8047 C41.8398,-24.8047 40.2188,-24.0234 39.3203,-22.4609 C38.8255,-21.6016 38.5456,-20.3776 38.4805,-18.7891 L35.0039,-18.7891 C35.0039,-20.8724 35.4206,-22.6432 36.2539,-24.1016 C37.6862,-26.7057 40.2057,-28.0078 43.8125,-28.0078 C46.6641,-28.0078 48.8711,-27.373 50.4336,-26.1035 C51.9961,-24.834 52.7773,-22.9948 52.7773,-20.5859 C52.7773,-18.8672 52.3151,-17.474 51.3906,-16.4063 C50.8177,-15.7422 50.0755,-15.2214 49.1641,-14.8438 C50.6354,-14.4401 51.7845,-13.6621 52.6113,-12.5098 C53.4382,-11.3574 53.8516,-9.94792 53.8516,-8.28125 C53.8516,-5.61198 52.9727,-3.4375 51.2148,-1.75781 C49.457,-0.078125 46.9635,0.761719 43.7344,0.761719 M66.3984,-27.9688 C70.0182,-27.9688 72.6354,-26.4779 74.25,-23.4961 C75.5,-21.1914 76.125,-18.0339 76.125,-14.0234 C76.125,-10.2214 75.5586,-7.07682 74.4258,-4.58984 C72.7852,-1.02214 70.1029,0.761719 66.3789,0.761719 C63.0195,0.761719 60.5195,-0.696615 58.8789,-3.61328 C57.5117,-6.04818 56.8281,-9.31641 56.8281,-13.418 C56.8281,-16.5951 57.2383,-19.3229 58.0586,-21.6016 C59.5951,-25.8464 62.375,-27.9688 66.3984,-27.9688 M66.3594,-2.44141 C68.1823,-2.44141 69.6341,-3.2487 70.7148,-4.86328 C71.7956,-6.47786 72.3359,-9.48568 72.3359,-13.8867 C72.3359,-17.0638 71.9453,-19.6777 71.1641,-21.7285 C70.3828,-23.7793 68.8659,-24.8047 66.6133,-24.8047 C64.543,-24.8047 63.0293,-23.8314 62.0723,-21.8848 C61.1152,-19.9382 60.6367,-17.0703 60.6367,-13.2813 C60.6367,-10.4297 60.9427,-8.13802 61.5547,-6.40625 C62.4922,-3.76302 64.0938,-2.44141 66.3594,-2.44141 "/>
</g>

<g fill="#bb86fc" fill-opacity="1" stroke="none" transform="matrix(0.5,0,0,0.5,671.625,39)"
font-family=".AppleSystemUIFont" font-size="13" font-weight="400" font-style="normal" 
>
<path vector-effect="none" fill-rule="evenodd" d="M10.8203,-27.9688 C14.4401,-27.9688 17.0573,-26.4779 18.6719,-23.4961 C19.9219,-21.1914 20.5469,-18.0339 20.5469,-14.0234 C20.5469,-10.2214 19.9805,-7.07682 18.8477,-4.58984 C17.207,-1.02214 14.5247,0.761719 10.8008,0.761719 C7.44141,0.761719 4.94141,-0.696615 3.30078,-3.61328 C1.93359,-6.04818 1.25,-9.31641 1.25,-13.418 C1.25,-16.5951 1.66016,-19.3229 2.48047,-21.6016 C4.01693,-25.8464 6.79688,-27.9688 10.8203,-27.9688 M10.7813,-2.44141 C12.6042,-2.44141 14.056,-3.2487 15.1367,-4.86328 C16.2174,-6.47786 16.7578,-9.48568 16.7578,-13.8867 C16.7578,-17.0638 16.3672,-19.6777 15.5859,-21.7285 C14.8047,-23.7793 13.2878,-24.8047 11.0352,-24.8047 C8.96484,-24.8047 7.45117,-23.8314 6.49414,-21.8848 C5.53711,-19.9382 5.05859,-17.0703 5.05859,-13.2813 C5.05859,-10.4297 5.36458,-8.13802 5.97656,-6.40625 C6.91406,-3.76302 8.51563,-2.44141 10.7813,-2.44141 M25.6523,-4.25781 L29.7344,-4.25781 L29.7344,0 L25.6523,0 L25.6523,-4.25781 M43.7344,0.761719 C40.4271,0.761719 38.028,-0.146484 36.5371,-1.96289 C35.0462,-3.7793 34.3008,-5.98958 34.3008,-8.59375 L37.9727,-8.59375 C38.1289,-6.78385 38.4674,-5.46875 38.9883,-4.64844 C39.8997,-3.17708 41.5469,-2.44141 43.9297,-2.44141 C45.7786,-2.44141 47.263,-2.9362 48.3828,-3.92578 C49.5026,-4.91536 50.0625,-6.19141 50.0625,-7.75391 C50.0625,-9.68099 49.4733,-11.0286 48.2949,-11.7969 C47.1165,-12.5651 45.4792,-12.9492 43.3828,-12.9492 C43.1484,-12.9492 42.9108,-12.946 42.6699,-12.9395 C42.429,-12.9329 42.1849,-12.9232 41.9375,-12.9102 L41.9375,-16.0156 C42.3021,-15.9766 42.6081,-15.9505 42.8555,-15.9375 C43.1029,-15.9245 43.3698,-15.918 43.6563,-15.918 C44.9714,-15.918 46.0521,-16.1263 46.8984,-16.543 C48.3828,-17.2721 49.125,-18.5742 49.125,-20.4492 C49.125,-21.8424 48.6302,-22.9167 47.6406,-23.6719 C46.651,-24.4271 45.4987,-24.8047 44.1836,-24.8047 C41.8398,-24.8047 40.2188,-24.0234 39.3203,-22.4609 C38.8255,-21.6016 38.5456,-20.3776 38.4805,-18.7891 L35.0039,-18.7891 C35.0039,-20.8724 35.4206,-22.6432 36.2539,-24.1016 C37.6862,-26.7057 40.2057,-28.0078 43.8125,-28.0078 C46.6641,-28.0078 48.8711,-27.373 50.4336,-26.1035 C51.9961,-24.834 52.7773,-22.9948 52.7773,-20.5859 C52.7773,-18.8672 52.3151,-17.474 51.3906,-16.4063 C50.8177,-15.7422 50.0755,-15.2214 49.1641,-14.8438 C50.6354,-14.4401 51.7845,-13.6621 52.6113,-12.5098 C53.4382,-11.3574 53.8516,-9.94792 53.8516,-8.28125 C53.8516,-5.61198 52.9727,-3.4375 51.2148,-1.75781 C49.457,-0.078125 46.9635,0.761719 43.7344,0.761719 M60.5195,-7.12891 C60.7539,-5.1237 61.6849,-3.73698 63.3125,-2.96875 C64.1458,-2.57813 65.1094,-2.38281 66.2031,-2.38281 C68.2865,-2.38281 69.8294,-3.04688 70.832,-4.375 C71.8346,-5.70313 72.3359,-7.17448 72.3359,-8.78906 C72.3359,-10.7422 71.7402,-12.2526 70.5488,-13.3203 C69.3574,-14.388 67.9284,-14.9219 66.2617,-14.9219 C65.0508,-14.9219 64.0124,-14.6875 63.1465,-14.2188 C62.2806,-13.75 61.5417,-13.099 60.9297,-12.2656 L57.8828,-12.4414 L60.0117,-27.5 L74.543,-27.5 L74.543,-24.1016 L62.6484,-24.1016 L61.457,-16.3281 C62.1081,-16.8229 62.7266,-17.194 63.3125,-17.4414 C64.3542,-17.8711 65.5586,-18.0859 66.9258,-18.0859 C69.4909,-18.0859 71.6654,-17.2591 73.4492,-15.6055 C75.2331,-13.9518 76.125,-11.8555 76.125,-9.31641 C76.125,-6.67318 75.3079,-4.34245 73.6738,-2.32422 C72.0397,-0.30599 69.4323,0.703125 65.8516,0.703125 C63.5729,0.703125 61.5579,0.061849 59.8066,-1.2207 C58.0553,-2.50326 57.0755,-4.47266 56.8672,-7.12891 L60.5195,-7.12891"/>
</g>

<g fill="#bb86fc" fill-opacity="1" stroke="none" transform="matrix(0,-0.5,0.5,0,739.105,221.42)"
font-family=".AppleSystemUIFont" font-size="13" font-weight="400" font-style="normal" 
>
<path vector-effect="none" fill-rule="evenodd" d="M6.42383,-9.49609 C6.42383,-7.73438 6.764,-6.18392 7.44434,-4.84473 C8.12467,-3.50553 9.11296,-2.45996 10.4092,-1.70801 C11.7054,-0.956055 13.2344,-0.580078 14.9961,-0.580078 C16.8438,-0.580078 18.6234,-1.05273 20.335,-1.99805 C22.0465,-2.94336 23.5075,-4.20736 24.7178,-5.79004 C25.9281,-7.37272 26.7552,-9.05208 27.1992,-10.8281 C27.2565,-11 27.3711,-11.0859 27.543,-11.0859 L28.0801,-11.0859 C28.1947,-11.0859 28.2878,-11.0465 28.3594,-10.9678 C28.431,-10.889 28.4668,-10.7995 28.4668,-10.6992 C28.4668,-10.6706 28.4525,-10.6276 28.4238,-10.5703 C27.9225,-8.53646 26.9521,-6.62793 25.5127,-4.84473 C24.0732,-3.06152 22.3509,-1.64714 20.3457,-0.601563 C18.3405,0.44401 16.278,0.966797 14.1582,0.966797 C11.8665,0.966797 9.8112,0.451172 7.99219,-0.580078 C6.17318,-1.61133 4.75879,-3.04362 3.74902,-4.87695 C2.73926,-6.71029 2.23438,-8.77995 2.23438,-11.0859 C2.23438,-13.5495 2.78581,-15.988 3.88867,-18.4014 C4.99154,-20.8148 6.47396,-22.9632 8.33594,-24.8467 C10.1979,-26.7301 12.3213,-28.2305 14.7061,-29.3477 C17.0908,-30.4648 19.5078,-31.0234 21.957,-31.0234 C22.931,-31.0234 23.862,-30.8766 24.75,-30.583 C25.638,-30.2894 26.4616,-29.8418 27.2207,-29.2402 C27.9798,-28.6387 28.6029,-27.944 29.0898,-27.1563 L32.5703,-30.9375 C32.5703,-30.9948 32.6419,-31.0234 32.7852,-31.0234 L33.043,-31.0234 C33.1576,-31.0234 33.2507,-30.9733 33.3223,-30.873 C33.3939,-30.7728 33.4297,-30.6725 33.4297,-30.5723 L30.4434,-18.6914 C30.4434,-18.4909 30.3288,-18.3906 30.0996,-18.3906 L29.3047,-18.3906 C29.0755,-18.3906 28.9609,-18.5553 28.9609,-18.8848 C29.0755,-19.5293 29.1328,-20.3027 29.1328,-21.2051 C29.1328,-22.6374 28.8893,-23.9873 28.4023,-25.2549 C27.9154,-26.5225 27.1598,-27.543 26.1357,-28.3164 C25.1117,-29.0898 23.862,-29.4766 22.3867,-29.4766 C19.9948,-29.4766 17.8034,-28.875 15.8125,-27.6719 C13.8216,-26.4688 12.1351,-24.8896 10.7529,-22.9346 C9.37077,-20.9795 8.30371,-18.8096 7.55176,-16.4248 C6.7998,-14.04 6.42383,-11.7305 6.42383,-9.49609 "/>
</g>

<g fill="#bb86fc" fill-opacity="1" stroke="none" transform="matrix(0,-0.5,0.5,0,742.405,205.696)"
font-family=".AppleSystemUIFont" font-size="13" font-weight="400" font-style="normal" 
>
<path vector-effect="none" fill-rule="evenodd" d="M5.21484,0.336914 C3.95508,0.336914 2.96143,-0.13916 2.23389,-1.09131 C1.50635,-2.04346 1.14258,-3.16895 1.14258,-4.46777 C1.14258,-5.74707 1.47461,-7.0752 2.13867,-8.45215 C2.80273,-9.8291 3.69873,-10.9741 4.82666,-11.8872 C5.95459,-12.8003 7.16797,-13.2568 8.4668,-13.2568 C9.05273,-13.2568 9.58252,-13.0933 10.0562,-12.7661 C10.5298,-12.439 10.8984,-12.002 11.1621,-11.4551 L12.8467,-18.1494 C12.9248,-18.4912 12.9736,-18.7598 12.9932,-18.9551 C12.9932,-19.2773 12.3438,-19.4385 11.0449,-19.4385 C10.8398,-19.4385 10.7373,-19.5703 10.7373,-19.834 C10.7471,-19.8828 10.769,-19.9707 10.8032,-20.0977 C10.8374,-20.2246 10.8813,-20.3223 10.9351,-20.3906 C10.9888,-20.459 11.0645,-20.4932 11.1621,-20.4932 L15.2051,-20.8154 C15.4492,-20.8154 15.5713,-20.6885 15.5713,-20.4346 L11.25,-3.17871 C11.1133,-2.84668 11.0449,-2.36816 11.0449,-1.74316 C11.0449,-0.883789 11.333,-0.454102 11.9092,-0.454102 C12.5342,-0.454102 13.0103,-0.852051 13.3374,-1.64795 C13.6646,-2.44385 13.9404,-3.36426 14.165,-4.40918 C14.2041,-4.52637 14.2822,-4.58496 14.3994,-4.58496 L14.7656,-4.58496 C14.8438,-4.58496 14.9072,-4.55078 14.9561,-4.48242 C15.0049,-4.41406 15.0293,-4.35059 15.0293,-4.29199 C14.6777,-2.89551 14.2944,-1.7749 13.8794,-0.930176 C13.4644,-0.0854492 12.7881,0.336914 11.8506,0.336914 C11.1768,0.336914 10.5811,0.13916 10.0635,-0.256348 C9.5459,-0.651855 9.22363,-1.17676 9.09668,-1.83105 C7.80762,-0.385742 6.51367,0.336914 5.21484,0.336914 M5.24414,-0.454102 C5.9668,-0.454102 6.66748,-0.725098 7.34619,-1.26709 C8.0249,-1.80908 8.6084,-2.44629 9.09668,-3.17871 C9.11621,-3.19824 9.12598,-3.2373 9.12598,-3.2959 L10.7666,-9.90234 C10.6494,-10.6055 10.3906,-11.2109 9.99023,-11.7188 C9.58984,-12.2266 9.05762,-12.4805 8.39355,-12.4805 C7.71973,-12.4805 7.09229,-12.2046 6.51123,-11.6528 C5.93018,-11.1011 5.43945,-10.4492 5.03906,-9.69727 C4.64844,-8.89648 4.2749,-7.79785 3.91846,-6.40137 C3.56201,-5.00488 3.38379,-3.9209 3.38379,-3.14941 C3.38379,-2.45605 3.53271,-1.8335 3.83057,-1.28174 C4.12842,-0.72998 4.59961,-0.454102 5.24414,-0.454102 "/>
</g>

<g fill="none" stroke="#03dac5" stroke-opacity="1" stroke-width="3" stroke-linecap="butt" stroke-linejoin="round" transform="matrix(0.5,0,0,0.5,0,0)"
font-family=".AppleSystemUIFont" font-size="13" font-weight="400" font-style="normal" 
>
<polyline fill="none" vector-effect="none" points="235.179,769 237.188,767.245 240,764.788 242.813,762.331 245.625,759.874 248.437,757.417 251.25,754.96 254.063,752.503 256.875,750.046 259.688,747.589 262.5,745.132 265.313,742.675 268.125,740.218 270.938,737.761 273.75,735.304 276.563,732.847 279.375,730.39 282.188,727.933 285,725.476 287.813,723.019 290.625,720.562 293.438,718.105 296.25,715.648 299.063,713.191 301.875,710.734 304.688,708.277 307.5,705.82 310.313,703.363 313.125,700.906 315.938,698.449 318.75,695.992 321.563,693.535 324.375,691.078 327.188,688.621 330,686.164 332.813,683.707 335.625,681.25 338.438,678.793 341.25,676.336 344.063,673.879 346.875,671.422 349.688,668.965 352.5,666.508 355.313,664.051 358.125,661.594 360.938,659.137 363.75,656.68 366.563,654.223 369.375,651.766 372.188,649.309 375,646.852 377.813,644.395 380.625,641.938 383.438,639.481 386.25,637.024 389.063,634.567 391.875,632.11 394.688,629.653 397.5,627.196 400.313,624.739 403.125,622.282 405.938,619.825 408.75,617.368 411.563,614.911 414.375,612.454 417.188,609.997 420,607.54 422.813,605.083 425.625,602.626 428.438,600.169 431.25,597.712 434.063,595.255 436.875,592.798 439.688,590.341 442.5,587.884 445.313,585.427 448.125,582.97 450.938,580.513 453.75,578.056 456.563,575.599 459.375,573.142 462.188,570.685 465,568.228 467.813,565.771 470.625,563.314 473.438,560.857 476.25,558.4 479.063,555.943 481.875,553.486 484.688,551.029 487.5,548.572 490.313,546.115 493.125,543.658 495.938,541.201 498.75,538.744 501.563,536.287 504.375,533.83 507.188,531.373 510,528.916 512.813,526.459 515.625,524.002 518.438,521.545 521.25,519.088 524.063,516.631 526.875,514.174 529.688,511.717 532.5,509.26 535.313,506.803 538.125,504.346 540.938,501.889 543.75,499.432 546.563,496.975 549.375,494.518 552.188,492.061 555,489.604 557.813,487.147 560.625,484.69 563.438,482.233 566.25,479.776 569.063,477.319 571.875,474.862 574.688,472.405 577.5,469.948 580.313,467.491 583.125,465.034 585.938,462.577 588.75,460.12 591.563,457.663 594.375,455.206 597.188,452.749 600,450.292 602.813,447.835 605.625,445.378 608.438,442.921 611.25,440.464 614.063,438.007 616.875,435.55 619.688,433.093 622.5,430.636 625.313,428.179 628.125,425.722 630.938,423.265 633.75,420.808 636.563,418.351 639.375,415.894 642.188,413.437 645,410.98 647.813,408.523 650.625,406.066 653.438,403.609 656.25,401.152 659.063,398.695 661.875,396.238 664.688,393.781 667.5,391.324 670.313,388.867 673.125,386.41 675.938,383.953 678.75,381.496 681.563,379.039 684.375,376.582 687.188,374.125 690,371.668 692.813,369.211 695.625,366.754 698.438,364.297 701.25,361.84 704.063,359.383 706.875,356.926 709.688,354.469 712.5,352.012 715.313,349.555 718.125,347.098 720.938,344.641 723.75,342.184 726.563,339.727 729.375,337.27 732.188,334.813 735,332.356 737.813,329.899 740.625,327.442 743.438,324.985 746.25,322.528 749.063,320.071 751.875,317.614 754.688,315.157 757.5,312.7 760.313,310.243 763.125,307.786 765.938,305.329 768.75,302.872 771.563,300.415 774.375,297.958 777.188,295.501 780,293.044 782.813,290.587 785.625,288.13 788.438,285.673 791.25,283.216 794.063,280.759 796.875,278.302 799.688,275.845 802.5,273.388 805.313,270.931 808.125,268.474 810.938,266.017 813.75,263.56 816.563,261.103 819.375,258.646 822.188,256.189 825,253.732 827.813,251.275 830.625,248.818 833.438,246.361 836.25,243.904 839.063,241.447 841.875,238.99 844.688,236.533 847.5,234.076 850.313,231.619 853.125,229.162 855.938,226.705 858.75,224.248 861.563,221.791 864.375,219.334 867.188,216.877 870,214.42 872.813,211.963 875.625,209.506 878.438,207.049 881.25,204.592 884.063,202.135 886.875,199.678 889.688,197.221 892.5,194.764 895.313,192.307 898.125,189.85 900.938,187.911 903.75,186.012 906.563,184.156 909.375,182.343 912.188,180.574 915,178.85 917.813,177.17 920.625,175.537 923.438,173.951 926.25,172.412 929.063,170.922 931.875,169.48 934.688,168.088 937.5,166.746 940.313,165.455 943.125,164.215 945.938,163.026 948.75,161.89 951.563,160.807 954.375,159.776 957.188,158.799 960,157.877 962.813,157.008 965.625,156.194 968.438,155.435 971.25,154.732 974.063,154.084 976.875,153.492 979.688,152.955 982.5,152.475 985.313,152.052 988.125,151.685 990.938,151.374 993.75,151.12 996.563,150.923 999.375,150.783 1002.19,150.7 1005,150.673 1007.81,150.704 1010.63,150.791 1013.44,150.934 1016.25,151.135 1019.06,151.391 1021.88,151.704 1024.69,152.073 1027.5,152.498 1030.31,152.978 1033.13,153.514 1035.94,154.104 1038.75,154.75 1041.56,155.45 1044.38,156.204 1047.19,157.011 1050,157.872 1052.81,158.786 1055.63,159.752 1058.44,160.769 1061.25,161.839 1064.06,162.958 1066.88,164.129 1069.69,165.348 1072.5,166.617 1075.31,167.934 1078.13,169.299 1080.94,170.711 1083.75,172.169 1086.56,173.673 1089.38,175.221 1092.19,176.814 1095,178.449 1097.81,180.127 1100.63,181.847 1103.44,183.607 1106.25,185.406 1109.06,187.245 1111.88,189.121 1114.69,191.034 1117.5,192.982 1120.31,194.965 1123.13,196.982 1125.94,199.031 1128.75,201.112 1131.56,203.223 1134.38,205.363 1137.19,207.531 1140,209.725 1142.81,211.945 1145.63,214.189 1148.44,216.456 1151.25,218.744 1154.06,221.053 1156.88,223.38 1159.69,225.724 1162.5,228.085 1165.31,230.46 1168.13,232.848 1170.94,235.247 1173.75,237.657 1176.56,240.075 1179.38,242.5 1182.19,244.93 1185,247.364 1187.81,249.799 1190.63,252.235 1193.44,254.67 1196.25,257.102 1199.06,259.528 1201.88,261.948 1204.69,264.36 1207.5,266.761 1210.31,269.15 1213.13,271.525 1215.94,273.884 1218.75,276.225 1221.56,278.547 1224.38,280.846 1227.19,283.122 1230,285.372 1232.81,287.594 1235.63,289.786 1238.44,291.947 1241.25,294.072 1244.06,296.162 1246.88,298.213 1249.69,300.223 1252.5,302.19 1255.31,304.112 1258.13,305.986 1260.94,307.811 1263.75,309.583 1266.56,311.301 1269.38,312.961 1272.19,314.563 1275,316.103 1277.81,317.578 1280.63,318.987 1283.44,320.326 1286.25,321.594 1289.06,322.787 1291.88,323.904 1294.69,324.941 1297.5,325.895 1300.31,326.765 1303.13,327.547 1305.94,328.24 1308.75,328.839 1311.56,329.342 1314.38,329.747 1317.19,330.05 1320,330.25 " />
</g>

<g fill="none" stroke="#bb86fc" stroke-opacity="1" stroke-width="3" stroke-linecap="butt" stroke-linejoin="round" transform="matrix(0.5,0,0,0.5,0,0)"
font-family=".AppleSystemUIFont" font-size="13" font-weight="400" font-style="normal" 
>
<polyline fill="none" vector-effect="none" points="195,647.636 197.813,648.12 200.625,648.593 203.438,649.054 206.25,649.504 209.063,649.943 211.875,650.372 214.688,650.789 217.5,651.195 220.312,651.591 223.125,651.976 225.938,652.35 228.75,652.714 231.563,653.067 234.375,653.41 237.188,653.743 240,654.065 242.813,654.377 245.625,654.678 248.437,654.97 251.25,655.251 254.063,655.523 256.875,655.784 259.688,656.036 262.5,656.278 265.313,656.51 268.125,656.732 270.938,656.944 273.75,657.147 276.563,657.34 279.375,657.524 282.188,657.698 285,657.863 287.813,658.018 290.625,658.164 293.438,658.3 296.25,658.427 299.063,658.545 301.875,658.654 304.688,658.754 307.5,658.844 310.313,658.926 313.125,658.998 315.938,659.061 318.75,659.116 321.563,659.161 324.375,659.197 327.188,659.225 330,659.244 332.813,659.254 335.625,659.255 338.438,659.247 341.25,659.23 344.063,659.205 346.875,659.171 349.688,659.129 352.5,659.077 355.313,659.017 358.125,658.949 360.938,658.872 363.75,658.786 366.563,658.692 369.375,658.589 372.188,658.478 375,658.358 377.813,658.229 380.625,658.093 383.438,657.947 386.25,657.793 389.063,657.631 391.875,657.461 394.688,657.281 397.5,657.094 400.313,656.898 403.125,656.693 405.938,656.481 408.75,656.259 411.563,656.03 414.375,655.792 417.188,655.545 420,655.29 422.813,655.027 425.625,654.755 428.438,654.475 431.25,654.186 434.063,653.889 436.875,653.584 439.688,653.27 442.5,652.947 445.313,652.616 448.125,652.277 450.938,651.929 453.75,651.573 456.563,651.208 459.375,650.835 462.188,650.453 465,650.062 467.813,649.663 470.625,649.255 473.438,648.839 476.25,648.414 479.063,647.98 481.875,647.538 484.688,647.086 487.5,646.627 490.313,646.158 493.125,645.681 495.938,645.194 498.75,644.699 501.563,644.195 504.375,643.682 507.188,643.161 510,642.63 512.813,642.09 515.625,641.541 518.438,640.983 521.25,640.416 524.063,639.84 526.875,639.255 529.688,638.66 532.5,638.056 535.313,637.443 538.125,636.82 540.938,636.188 543.75,635.547 546.563,634.896 549.375,634.236 552.188,633.565 555,632.886 557.813,632.197 560.625,631.497 563.438,630.789 566.25,630.07 569.063,629.341 571.875,628.603 574.688,627.854 577.5,627.096 580.313,626.327 583.125,625.548 585.938,624.759 588.75,623.96 591.563,623.15 594.375,622.33 597.188,621.499 600,620.658 602.813,619.807 605.625,618.944 608.438,618.071 611.25,617.187 614.063,616.292 616.875,615.386 619.688,614.47 622.5,613.542 625.313,612.603 628.125,611.652 630.938,610.691 633.75,609.718 636.563,608.733 639.375,607.737 642.188,606.73 645,605.711 647.813,604.68 650.625,603.637 653.438,602.582 656.25,601.515 659.063,600.436 661.875,599.345 664.688,598.241 667.5,597.125 670.313,595.997 673.125,594.856 675.938,593.702 678.75,592.536 681.563,591.357 684.375,590.165 687.188,588.96 690,587.742 692.813,586.511 695.625,585.266 698.438,584.008 701.25,582.737 704.063,581.451 706.875,580.153 709.688,578.84 712.5,577.513 715.313,576.173 718.125,574.818 720.938,573.449 723.75,572.066 726.563,570.668 729.375,569.256 732.188,567.829 735,566.388 737.813,564.931 740.625,563.46 743.438,561.973 746.25,560.471 749.063,558.954 751.875,557.421 754.688,555.873 757.5,554.309 760.313,552.729 763.125,551.134 765.938,549.522 768.75,547.894 771.563,546.25 774.375,544.589 777.188,542.912 780,541.218 782.813,539.507 785.625,537.78 788.438,536.035 791.25,534.273 794.063,532.494 796.875,530.697 799.688,528.883 802.5,527.051 805.313,525.201 808.125,523.333 810.938,521.447 813.75,519.542 816.563,517.62 819.375,515.678 822.188,513.718 825,511.739 827.813,509.741 830.625,507.724 833.438,505.688 836.25,503.632 839.063,501.557 841.875,499.462 844.688,497.347 847.5,495.212 850.313,493.057 853.125,490.882 855.938,488.686 858.75,486.469 861.563,484.232 864.375,481.974 867.188,479.694 870,477.393 872.813,475.071 875.625,472.728 878.438,470.362 881.25,467.975 884.063,465.566 886.875,463.134 889.688,460.68 892.5,458.203 895.313,455.704 898.125,453.182 900.938,450.637 903.75,448.068 906.563,445.476 909.375,442.861 912.188,440.221 915,437.558 917.813,434.871 920.625,432.159 923.438,429.423 926.25,426.662 929.063,423.877 931.875,421.066 934.688,418.231 937.5,415.37 940.313,412.483 943.125,409.571 945.938,406.633 948.75,403.668 951.563,400.678 954.375,397.661 957.188,394.617 960,391.546 962.813,388.449 965.625,385.324 968.438,382.172 971.25,378.992 974.063,375.784 976.875,372.548 979.688,369.284 982.5,365.992 985.313,362.671 988.125,359.321 990.938,355.943 993.75,352.535 996.563,349.097 999.375,345.631 1002.19,342.134 1005,338.607 1007.81,335.05 1010.63,331.463 1013.44,327.845 1016.25,324.196 1019.06,320.516 1021.88,316.804 1024.69,313.062 1027.5,309.287 1030.31,305.481 1033.13,301.642 1035.94,297.772 1038.75,293.868 1041.56,289.932 1044.38,285.963 1047.19,281.961 1050,277.925 1052.81,273.855 1055.63,269.752 1058.44,265.615 1061.25,261.443 1064.06,257.236 1066.88,252.995 1069.69,248.719 1072.5,244.408 1075.31,240.061 1078.13,235.678 1080.94,231.26 1083.75,226.805 1086.56,222.314 1089.38,217.786 1092.19,213.222 1095,208.62 1097.81,203.981 1100.63,199.304 1103.44,194.59 1106.25,189.837 1109.06,185.046 1111.88,180.217 1114.69,175.348 1117.5,170.441 1120.31,165.495 1123.13,160.509 1125.94,155.483 1128.75,150.417 1131.56,145.311 1134.38,140.164 1137.19,134.976 1140,129.748 1142.81,124.478 1145.63,119.167 1148.44,113.813 1151.25,108.418 1154.06,102.981 1156.88,97.5005 1159.69,91.9776 1162.5,86.4116 1165.31,80.8022 1168.13,75.1491 1170.94,69.4523 1172.14,67 " />
</g>
</g>
</svg>
