<?xml version="1.0" encoding="UTF-8" standalone="no"?>
<svg width="264.583mm" height="158.75mm"
 viewBox="0 0 750 450"
 xmlns="http://www.w3.org/2000/svg" xmlns:xlink="http://www.w3.org/1999/xlink"  version="1.2" baseProfile="tiny">
<title>Qt SVG Document</title>
<desc>MATLAB, The MathWorks, Inc. Version 25.2.0.2998904 R2025b</desc>
<defs>
</defs>
<g fill="none" stroke="black" stroke-width="1" fill-rule="evenodd" stroke-linecap="square" stroke-linejoin="bevel" >

<g fill="#333333" fill-opacity="1" stroke="none" transform="matrix(0.5,0,0,0.5,0,0)"
font-family=".AppleSystemUIFont" font-size="13" font-weight="400" font-style="normal" 
>
<path vector-effect="none" fill-rule="evenodd" d="M0,0 L1501,0 L1501,901 L0,901 L0,0"/>
</g>

<g fill="#333333" fill-opacity="1" stroke="none" transform="matrix(5e-05,0,0,5e-05,0,0)"
font-family=".AppleSystemUIFont" font-size="13" font-weight="400" font-style="normal" 
>
<path vector-effect="none" fill-rule="evenodd" d="M1.95e+06,670000 L1.95e+06,7.57e+06 L1.358e+07,7.57e+06 L1.358e+07,670000 L1.95e+06,670000"/>
</g>

<g fill="#ffffff" fill-opacity="0.25098" stroke="#ffffff" stroke-opacity="0.25098" stroke-dasharray="1,3" stroke-dashoffset="0" stroke-width="1" stroke-linecap="butt" stroke-linejoin="round" transform="matrix(0.5,0,0,0.5,0,0)"
font-family=".AppleSystemUIFont" font-size="13" font-weight="400" font-style="normal" 
>
<polyline fill="none" vector-effect="none" points="282.524,757 282.524,67 " />
<polyline fill="none" vector-effect="none" points="333.723,757 333.723,67 " />
<polyline fill="none" vector-effect="none" points="370.049,757 370.049,67 " />
<polyline fill="none" vector-effect="none" points="398.226,757 398.226,67 " />
<polyline fill="none" vector-effect="none" points="421.247,757 421.247,67 " />
<polyline fill="none" vector-effect="none" points="440.712,757 440.712,67 " />
<polyline fill="none" vector-effect="none" points="457.573,757 457.573,67 " />
<polyline fill="none" vector-effect="none" points="472.446,757 472.446,67 " />
<polyline fill="none" vector-effect="none" points="573.274,757 573.274,67 " />
<polyline fill="none" vector-effect="none" points="624.473,757 624.473,67 " />
<polyline fill="none" vector-effect="none" points="660.799,757 660.799,67 " />
<polyline fill="none" vector-effect="none" points="688.976,757 688.976,67 " />
<polyline fill="none" vector-effect="none" points="711.997,757 711.997,67 " />
<polyline fill="none" vector-effect="none" points="731.462,757 731.462,67 " />
<polyline fill="none" vector-effect="none" points="748.323,757 748.323,67 " />
<polyline fill="none" vector-effect="none" points="763.196,757 763.196,67 " />
<polyline fill="none" vector-effect="none" points="864.024,757 864.024,67 " />
<polyline fill="none" vector-effect="none" points="915.223,757 915.223,67 " />
<polyline fill="none" vector-effect="none" points="951.549,757 951.549,67 " />
<polyline fill="none" vector-effect="none" points="979.726,757 979.726,67 " />
<polyline fill="none" vector-effect="none" points="1002.75,757 1002.75,67 " />
<polyline fill="none" vector-effect="none" points="1022.21,757 1022.21,67 " />
<polyline fill="none" vector-effect="none" points="1039.07,757 1039.07,67 " />
<polyline fill="none" vector-effect="none" points="1053.95,757 1053.95,67 " />
<polyline fill="none" vector-effect="none" points="1154.77,757 1154.77,67 " />
<polyline fill="none" vector-effect="none" points="1205.97,757 1205.97,67 " />
<polyline fill="none" vector-effect="none" points="1242.3,757 1242.3,67 " />
<polyline fill="none" vector-effect="none" points="1270.48,757 1270.48,67 " />
<polyline fill="none" vector-effect="none" points="1293.5,757 1293.5,67 " />
<polyline fill="none" vector-effect="none" points="1312.96,757 1312.96,67 " />
<polyline fill="none" vector-effect="none" points="1329.82,757 1329.82,67 " />
<polyline fill="none" vector-effect="none" points="1344.7,757 1344.7,67 " />
</g>

<g fill="#ffffff" fill-opacity="0.25098" stroke="#ffffff" stroke-opacity="0.25098" stroke-width="1" stroke-linecap="butt" stroke-linejoin="round" transform="matrix(0.5,0,0,0.5,0,0)"
font-family=".AppleSystemUIFont" font-size="13" font-weight="400" font-style="normal" 
>
<polyline fill="none" vector-effect="none" points="195,757 195,67 " />
<polyline fill="none" vector-effect="none" points="485.75,757 485.75,67 " />
<polyline fill="none" vector-effect="none" points="776.5,757 776.5,67 " />
<polyline fill="none" vector-effect="none" points="1067.25,757 1067.25,67 " />
<polyline fill="none" vector-effect="none" points="1358,757 1358,67 " />
<polyline fill="none" vector-effect="none" points="1358,757 195,757 " />
<polyline fill="none" vector-effect="none" points="1358,527 195,527 " />
<polyline fill="none" vector-effect="none" points="1358,297 195,297 " />
<polyline fill="none" vector-effect="none" points="1358,67 195,67 " />
</g>

<g fill="#d9d9d9" fill-opacity="1" stroke="#d9d9d9" stroke-opacity="1" stroke-width="1" stroke-linecap="square" stroke-linejoin="round" transform="matrix(0.5,0,0,0.5,0,0)"
font-family=".AppleSystemUIFont" font-size="13" font-weight="400" font-style="normal" 
>
<polyline fill="none" vector-effect="none" points="195,757 1358,757 " />
<polyline fill="none" vector-effect="none" points="195,67 1358,67 " />
<polyline fill="none" vector-effect="none" points="195,757 195,768.63 " />
<polyline fill="none" vector-effect="none" points="485.75,757 485.75,768.63 " />
<polyline fill="none" vector-effect="none" points="776.5,757 776.5,768.63 " />
<polyline fill="none" vector-effect="none" points="1067.25,757 1067.25,768.63 " />
<polyline fill="none" vector-effect="none" points="1358,757 1358,768.63 " />
<polyline fill="none" vector-effect="none" points="195,67 195,55.37 " />
<polyline fill="none" vector-effect="none" points="485.75,67 485.75,55.37 " />
<polyline fill="none" vector-effect="none" points="776.5,67 776.5,55.37 " />
<polyline fill="none" vector-effect="none" points="1067.25,67 1067.25,55.37 " />
<polyline fill="none" vector-effect="none" points="1358,67 1358,55.37 " />
<polyline fill="none" vector-effect="none" points="195,757 195,762.815 " />
<polyline fill="none" vector-effect="none" points="282.524,757 282.524,762.815 " />
<polyline fill="none" vector-effect="none" points="333.723,757 333.723,762.815 " />
<polyline fill="none" vector-effect="none" points="370.049,757 370.049,762.815 " />
<polyline fill="none" vector-effect="none" points="398.226,757 398.226,762.815 " />
<polyline fill="none" vector-effect="none" points="421.247,757 421.247,762.815 " />
<polyline fill="none" vector-effect="none" points="440.712,757 440.712,762.815 " />
<polyline fill="none" vector-effect="none" points="457.573,757 457.573,762.815 " />
<polyline fill="none" vector-effect="none" points="472.446,757 472.446,762.815 " />
<polyline fill="none" vector-effect="none" points="485.75,757 485.75,762.815 " />
<polyline fill="none" vector-effect="none" points="573.274,757 573.274,762.815 " />
<polyline fill="none" vector-effect="none" points="624.473,757 624.473,762.815 " />
<polyline fill="none" vector-effect="none" points="660.799,757 660.799,762.815 " />
<polyline fill="none" vector-effect="none" points="688.976,757 688.976,762.815 " />
<polyline fill="none" vector-effect="none" points="711.997,757 711.997,762.815 " />
<polyline fill="none" vector-effect="none" points="731.462,757 731.462,762.815 " />
<polyline fill="none" vector-effect="none" points="748.323,757 748.323,762.815 " />
<polyline fill="none" vector-effect="none" points="763.196,757 763.196,762.815 " />
<polyline fill="none" vector-effect="none" points="776.5,757 776.5,762.815 " />
<polyline fill="none" vector-effect="none" points="864.024,757 864.024,762.815 " />
<polyline fill="none" vector-effect="none" points="915.223,757 915.223,762.815 " />
<polyline fill="none" vector-effect="none" points="951.549,757 951.549,762.815 " />
<polyline fill="none" vector-effect="none" points="979.726,757 979.726,762.815 " />
<polyline fill="none" vector-effect="none" points="1002.75,757 1002.75,762.815 " />
<polyline fill="none" vector-effect="none" points="1022.21,757 1022.21,762.815 " />
<polyline fill="none" vector-effect="none" points="1039.07,757 1039.07,762.815 " />
<polyline fill="none" vector-effect="none" points="1053.95,757 1053.95,762.815 " />
<polyline fill="none" vector-effect="none" points="1067.25,757 1067.25,762.815 " />
<polyline fill="none" vector-effect="none" points="1154.77,757 1154.77,762.815 " />
<polyline fill="none" vector-effect="none" points="1205.97,757 1205.97,762.815 " />
<polyline fill="none" vector-effect="none" points="1242.3,757 1242.3,762.815 " />
<polyline fill="none" vector-effect="none" points="1270.48,757 1270.48,762.815 " />
<polyline fill="none" vector-effect="none" points="1293.5,757 1293.5,762.815 " />
<polyline fill="none" vector-effect="none" points="1312.96,757 1312.96,762.815 " />
<polyline fill="none" vector-effect="none" points="1329.82,757 1329.82,762.815 " />
<polyline fill="none" vector-effect="none" points="1344.7,757 1344.7,762.815 " />
<polyline fill="none" vector-effect="none" points="1358,757 1358,762.815 " />
<polyline fill="none" vector-effect="none" points="195,67 195,61.185 " />
<polyline fill="none" vector-effect="none" points="282.524,67 282.524,61.185 " />
<polyline fill="none" vector-effect="none" points="333.723,67 333.723,61.185 " />
<polyline fill="none" vector-effect="none" points="370.049,67 370.049,61.185 " />
<polyline fill="none" vector-effect="none" points="398.226,67 398.226,61.185 " />
<polyline fill="none" vector-effect="none" points="421.247,67 421.247,61.185 " />
<polyline fill="none" vector-effect="none" points="440.712,67 440.712,61.185 " />
<polyline fill="none" vector-effect="none" points="457.573,67 457.573,61.185 " />
<polyline fill="none" vector-effect="none" points="472.446,67 472.446,61.185 " />
<polyline fill="none" vector-effect="none" points="485.75,67 485.75,61.185 " />
<polyline fill="none" vector-effect="none" points="573.274,67 573.274,61.185 " />
<polyline fill="none" vector-effect="none" points="624.473,67 624.473,61.185 " />
<polyline fill="none" vector-effect="none" points="660.799,67 660.799,61.185 " />
<polyline fill="none" vector-effect="none" points="688.976,67 688.976,61.185 " />
<polyline fill="none" vector-effect="none" points="711.997,67 711.997,61.185 " />
<polyline fill="none" vector-effect="none" points="731.462,67 731.462,61.185 " />
<polyline fill="none" vector-effect="none" points="748.323,67 748.323,61.185 " />
<polyline fill="none" vector-effect="none" points="763.196,67 763.196,61.185 " />
<polyline fill="none" vector-effect="none" points="776.5,67 776.5,61.185 " />
<polyline fill="none" vector-effect="none" points="864.024,67 864.024,61.185 " />
<polyline fill="none" vector-effect="none" points="915.223,67 915.223,61.185 " />
<polyline fill="none" vector-effect="none" points="951.549,67 951.549,61.185 " />
<polyline fill="none" vector-effect="none" points="979.726,67 979.726,61.185 " />
<polyline fill="none" vector-effect="none" points="1002.75,67 1002.75,61.185 " />
<polyline fill="none" vector-effect="none" points="1022.21,67 1022.21,61.185 " />
<polyline fill="none" vector-effect="none" points="1039.07,67 1039.07,61.185 " />
<polyline fill="none" vector-effect="none" points="1053.95,67 1053.95,61.185 " />
<polyline fill="none" vector-effect="none" points="1067.25,67 1067.25,61.185 " />
<polyline fill="none" vector-effect="none" points="1154.77,67 1154.77,61.185 " />
<polyline fill="none" vector-effect="none" points="1205.97,67 1205.97,61.185 " />
<polyline fill="none" vector-effect="none" points="1242.3,67 1242.3,61.185 " />
<polyline fill="none" vector-effect="none" points="1270.48,67 1270.48,61.185 " />
<polyline fill="none" vector-effect="none" points="1293.5,67 1293.5,61.185 " />
<polyline fill="none" vector-effect="none" points="1312.96,67 1312.96,61.185 " />
<polyline fill="none" vector-effect="none" points="1329.82,67 1329.82,61.185 " />
<polyline fill="none" vector-effect="none" points="1344.7,67 1344.7,61.185 " />
<polyline fill="none" vector-effect="none" points="1358,67 1358,61.185 " />
</g>

<g fill="#d9d9d9" fill-opacity="1" stroke="none" transform="matrix(0.5,0,0,0.5,76.1111,409.195)"
font-family=".AppleSystemUIFont" font-size="13" font-weight="400" font-style="normal" 
>
<path vector-effect="none" fill-rule="evenodd" d="M4.08203,0 L4.08203,-1.54688 C7.7487,-1.54688 9.58203,-2.01237 9.58203,-2.94336 L9.58203,-26.0391 C8.0638,-25.3086 6.14453,-24.9434 3.82422,-24.9434 L3.82422,-26.4902 C7.41927,-26.4902 10.1335,-27.4284 11.9668,-29.3047 L12.5898,-29.3047 C12.6901,-29.3047 12.7868,-29.2653 12.8799,-29.1865 C12.973,-29.1077 13.0195,-29.0182 13.0195,-28.918 L13.0195,-2.94336 C13.0195,-2.01237 14.8529,-1.54688 18.5195,-1.54688 L18.5195,0 L4.08203,0"/>
</g>

<g fill="#d9d9d9" fill-opacity="1" stroke="none" transform="matrix(0.5,0,0,0.5,87.1111,409.195)"
font-family=".AppleSystemUIFont" font-size="13" font-weight="400" font-style="normal" 
>
<path vector-effect="none" fill-rule="evenodd" d="M11,0.966797 C7.40495,0.966797 4.95931,-0.512044 3.66309,-3.46973 C2.36686,-6.42741 1.71875,-9.94727 1.71875,-14.0293 C1.71875,-16.5788 1.9515,-18.9779 2.41699,-21.2266 C2.88249,-23.4753 3.80632,-25.3838 5.18848,-26.9521 C6.57064,-28.5205 8.50781,-29.3047 11,-29.3047 C12.9336,-29.3047 14.5163,-28.832 15.748,-27.8867 C16.9798,-26.9414 17.918,-25.7204 18.5625,-24.2236 C19.207,-22.7269 19.6475,-21.1227 19.8838,-19.4111 C20.1201,-17.6995 20.2383,-15.9056 20.2383,-14.0293 C20.2383,-11.5085 20.0055,-9.14876 19.54,-6.9502 C19.0745,-4.75163 18.1615,-2.88249 16.8008,-1.34277 C15.4401,0.19694 13.5065,0.966797 11,0.966797 M11,-0.171875 C12.6328,-0.171875 13.8503,-1.00977 14.6523,-2.68555 C15.4544,-4.36133 15.9486,-6.21615 16.1348,-8.25 C16.321,-10.2839 16.4141,-12.4466 16.4141,-14.7383 C16.4141,-16.944 16.321,-18.9779 16.1348,-20.8398 C15.9486,-22.7018 15.458,-24.3883 14.6631,-25.8994 C13.8682,-27.4105 12.6471,-28.166 11,-28.166 C9.33854,-28.166 8.10677,-27.4069 7.30469,-25.8887 C6.5026,-24.3704 6.00846,-22.6839 5.82227,-20.8291 C5.63607,-18.9743 5.54297,-16.944 5.54297,-14.7383 C5.54297,-13.1055 5.58236,-11.5658 5.66113,-10.1191 C5.73991,-8.67253 5.95117,-7.17936 6.29492,-5.63965 C6.63867,-4.09993 7.19368,-2.80371 7.95996,-1.75098 C8.72624,-0.698242 9.73958,-0.171875 11,-0.171875 "/>
</g>

<g fill="#d9d9d9" fill-opacity="1" stroke="none" transform="matrix(0.5,0,0,0.5,98.1111,401.211)"
font-family=".AppleSystemUIFont" font-size="13" font-weight="400" font-style="normal" 
>
<path vector-effect="none" fill-rule="evenodd" d="M3.06152,-6.89941 C2.89551,-6.89941 2.75879,-6.96289 2.65137,-7.08984 C2.54395,-7.2168 2.49023,-7.35352 2.49023,-7.5 C2.49023,-7.64648 2.54395,-7.7832 2.65137,-7.91016 C2.75879,-8.03711 2.89551,-8.10059 3.06152,-8.10059 L20.2734,-8.10059 C20.4297,-8.10059 20.5591,-8.03711 20.6616,-7.91016 C20.7642,-7.7832 20.8154,-7.64648 20.8154,-7.5 C20.8154,-7.35352 20.7642,-7.2168 20.6616,-7.08984 C20.5591,-6.96289 20.4297,-6.89941 20.2734,-6.89941 L3.06152,-6.89941"/>
</g>

<g fill="#d9d9d9" fill-opacity="1" stroke="none" transform="matrix(0.5,0,0,0.5,110.089,401.211)"
font-family=".AppleSystemUIFont" font-size="13" font-weight="400" font-style="normal" 
>
<path vector-effect="none" fill-rule="evenodd" d="M2.7832,0 L2.7832,-1.05469 C5.2832,-1.05469 6.5332,-1.37207 6.5332,-2.00684 L6.5332,-17.7539 C5.49805,-17.2559 4.18945,-17.0068 2.60742,-17.0068 L2.60742,-18.0615 C5.05859,-18.0615 6.90918,-18.7012 8.15918,-19.9805 L8.58398,-19.9805 C8.65234,-19.9805 8.71826,-19.9536 8.78174,-19.8999 C8.84521,-19.8462 8.87695,-19.7852 8.87695,-19.7168 L8.87695,-2.00684 C8.87695,-1.37207 10.127,-1.05469 12.627,-1.05469 L12.627,0 L2.7832,0"/>
</g>

<g fill="#d9d9d9" fill-opacity="1" stroke="none" transform="matrix(0.5,0,0,0.5,227.475,409.195)"
font-family=".AppleSystemUIFont" font-size="13" font-weight="400" font-style="normal" 
>
<path vector-effect="none" fill-rule="evenodd" d="M4.08203,0 L4.08203,-1.54688 C7.7487,-1.54688 9.58203,-2.01237 9.58203,-2.94336 L9.58203,-26.0391 C8.0638,-25.3086 6.14453,-24.9434 3.82422,-24.9434 L3.82422,-26.4902 C7.41927,-26.4902 10.1335,-27.4284 11.9668,-29.3047 L12.5898,-29.3047 C12.6901,-29.3047 12.7868,-29.2653 12.8799,-29.1865 C12.973,-29.1077 13.0195,-29.0182 13.0195,-28.918 L13.0195,-2.94336 C13.0195,-2.01237 14.8529,-1.54688 18.5195,-1.54688 L18.5195,0 L4.08203,0"/>
</g>

<g fill="#d9d9d9" fill-opacity="1" stroke="none" transform="matrix(0.5,0,0,0.5,238.475,409.195)"
font-family=".AppleSystemUIFont" font-size="13" font-weight="400" font-style="normal" 
>
<path vector-effect="none" fill-rule="evenodd" d="M11,0.966797 C7.40495,0.966797 4.95931,-0.512044 3.66309,-3.46973 C2.36686,-6.42741 1.71875,-9.94727 1.71875,-14.0293 C1.71875,-16.5788 1.9515,-18.9779 2.41699,-21.2266 C2.88249,-23.4753 3.80632,-25.3838 5.18848,-26.9521 C6.57064,-28.5205 8.50781,-29.3047 11,-29.3047 C12.9336,-29.3047 14.5163,-28.832 15.748,-27.8867 C16.9798,-26.9414 17.918,-25.7204 18.5625,-24.2236 C19.207,-22.7269 19.6475,-21.1227 19.8838,-19.4111 C20.1201,-17.6995 20.2383,-15.9056 20.2383,-14.0293 C20.2383,-11.5085 20.0055,-9.14876 19.54,-6.9502 C19.0745,-4.75163 18.1615,-2.88249 16.8008,-1.34277 C15.4401,0.19694 13.5065,0.966797 11,0.966797 M11,-0.171875 C12.6328,-0.171875 13.8503,-1.00977 14.6523,-2.68555 C15.4544,-4.36133 15.9486,-6.21615 16.1348,-8.25 C16.321,-10.2839 16.4141,-12.4466 16.4141,-14.7383 C16.4141,-16.944 16.321,-18.9779 16.1348,-20.8398 C15.9486,-22.7018 15.458,-24.3883 14.6631,-25.8994 C13.8682,-27.4105 12.6471,-28.166 11,-28.166 C9.33854,-28.166 8.10677,-27.4069 7.30469,-25.8887 C6.5026,-24.3704 6.00846,-22.6839 5.82227,-20.8291 C5.63607,-18.9743 5.54297,-16.944 5.54297,-14.7383 C5.54297,-13.1055 5.58236,-11.5658 5.66113,-10.1191 C5.73991,-8.67253 5.95117,-7.17936 6.29492,-5.63965 C6.63867,-4.09993 7.19368,-2.80371 7.95996,-1.75098 C8.72624,-0.698242 9.73958,-0.171875 11,-0.171875 "/>
</g>

<g fill="#d9d9d9" fill-opacity="1" stroke="none" transform="matrix(0.5,0,0,0.5,249.475,401.211)"
font-family=".AppleSystemUIFont" font-size="13" font-weight="400" font-style="normal" 
>
<path vector-effect="none" fill-rule="evenodd" d="M7.5,0.65918 C5.04883,0.65918 3.38135,-0.349121 2.49756,-2.36572 C1.61377,-4.38232 1.17188,-6.78223 1.17188,-9.56543 C1.17188,-11.3037 1.33057,-12.9395 1.64795,-14.4727 C1.96533,-16.0059 2.59521,-17.3071 3.5376,-18.3765 C4.47998,-19.4458 5.80078,-19.9805 7.5,-19.9805 C8.81836,-19.9805 9.89746,-19.6582 10.7373,-19.0137 C11.5771,-18.3691 12.2168,-17.5366 12.6563,-16.5161 C13.0957,-15.4956 13.396,-14.4019 13.5571,-13.2349 C13.7183,-12.0679 13.7988,-10.8447 13.7988,-9.56543 C13.7988,-7.84668 13.6401,-6.23779 13.3228,-4.73877 C13.0054,-3.23975 12.3828,-1.96533 11.4551,-0.915527 C10.5273,0.134277 9.20898,0.65918 7.5,0.65918 M7.5,-0.117188 C8.61328,-0.117188 9.44336,-0.688477 9.99023,-1.83105 C10.5371,-2.97363 10.874,-4.23828 11.001,-5.625 C11.1279,-7.01172 11.1914,-8.48633 11.1914,-10.0488 C11.1914,-11.5527 11.1279,-12.9395 11.001,-14.209 C10.874,-15.4785 10.5396,-16.6284 9.99756,-17.6587 C9.45557,-18.689 8.62305,-19.2041 7.5,-19.2041 C6.36719,-19.2041 5.52734,-18.6865 4.98047,-17.6514 C4.43359,-16.6162 4.09668,-15.4663 3.96973,-14.2017 C3.84277,-12.937 3.7793,-11.5527 3.7793,-10.0488 C3.7793,-8.93555 3.80615,-7.88574 3.85986,-6.89941 C3.91357,-5.91309 4.05762,-4.89502 4.29199,-3.84521 C4.52637,-2.79541 4.90479,-1.91162 5.42725,-1.19385 C5.94971,-0.476074 6.64063,-0.117188 7.5,-0.117188 "/>
</g>

<g fill="#d9d9d9" fill-opacity="1" stroke="none" transform="matrix(0.5,0,0,0.5,372.85,409.195)"
font-family=".AppleSystemUIFont" font-size="13" font-weight="400" font-style="normal" 
>
<path vector-effect="none" fill-rule="evenodd" d="M4.08203,0 L4.08203,-1.54688 C7.7487,-1.54688 9.58203,-2.01237 9.58203,-2.94336 L9.58203,-26.0391 C8.0638,-25.3086 6.14453,-24.9434 3.82422,-24.9434 L3.82422,-26.4902 C7.41927,-26.4902 10.1335,-27.4284 11.9668,-29.3047 L12.5898,-29.3047 C12.6901,-29.3047 12.7868,-29.2653 12.8799,-29.1865 C12.973,-29.1077 13.0195,-29.0182 13.0195,-28.918 L13.0195,-2.94336 C13.0195,-2.01237 14.8529,-1.54688 18.5195,-1.54688 L18.5195,0 L4.08203,0"/>
</g>

<g fill="#d9d9d9" fill-opacity="1" stroke="none" transform="matrix(0.5,0,0,0.5,383.85,409.195)"
font-family=".AppleSystemUIFont" font-size="13" font-weight="400" font-style="normal" 
>
<path vector-effect="none" fill-rule="evenodd" d="M11,0.966797 C7.40495,0.966797 4.95931,-0.512044 3.66309,-3.46973 C2.36686,-6.42741 1.71875,-9.94727 1.71875,-14.0293 C1.71875,-16.5788 1.9515,-18.9779 2.41699,-21.2266 C2.88249,-23.4753 3.80632,-25.3838 5.18848,-26.9521 C6.57064,-28.5205 8.50781,-29.3047 11,-29.3047 C12.9336,-29.3047 14.5163,-28.832 15.748,-27.8867 C16.9798,-26.9414 17.918,-25.7204 18.5625,-24.2236 C19.207,-22.7269 19.6475,-21.1227 19.8838,-19.4111 C20.1201,-17.6995 20.2383,-15.9056 20.2383,-14.0293 C20.2383,-11.5085 20.0055,-9.14876 19.54,-6.9502 C19.0745,-4.75163 18.1615,-2.88249 16.8008,-1.34277 C15.4401,0.19694 13.5065,0.966797 11,0.966797 M11,-0.171875 C12.6328,-0.171875 13.8503,-1.00977 14.6523,-2.68555 C15.4544,-4.36133 15.9486,-6.21615 16.1348,-8.25 C16.321,-10.2839 16.4141,-12.4466 16.4141,-14.7383 C16.4141,-16.944 16.321,-18.9779 16.1348,-20.8398 C15.9486,-22.7018 15.458,-24.3883 14.6631,-25.8994 C13.8682,-27.4105 12.6471,-28.166 11,-28.166 C9.33854,-28.166 8.10677,-27.4069 7.30469,-25.8887 C6.5026,-24.3704 6.00846,-22.6839 5.82227,-20.8291 C5.63607,-18.9743 5.54297,-16.944 5.54297,-14.7383 C5.54297,-13.1055 5.58236,-11.5658 5.66113,-10.1191 C5.73991,-8.67253 5.95117,-7.17936 6.29492,-5.63965 C6.63867,-4.09993 7.19368,-2.80371 7.95996,-1.75098 C8.72624,-0.698242 9.73958,-0.171875 11,-0.171875 "/>
</g>

<g fill="#d9d9d9" fill-opacity="1" stroke="none" transform="matrix(0.5,0,0,0.5,394.85,401.211)"
font-family=".AppleSystemUIFont" font-size="13" font-weight="400" font-style="normal" 
>
<path vector-effect="none" fill-rule="evenodd" d="M2.7832,0 L2.7832,-1.05469 C5.2832,-1.05469 6.5332,-1.37207 6.5332,-2.00684 L6.5332,-17.7539 C5.49805,-17.2559 4.18945,-17.0068 2.60742,-17.0068 L2.60742,-18.0615 C5.05859,-18.0615 6.90918,-18.7012 8.15918,-19.9805 L8.58398,-19.9805 C8.65234,-19.9805 8.71826,-19.9536 8.78174,-19.8999 C8.84521,-19.8462 8.87695,-19.7852 8.87695,-19.7168 L8.87695,-2.00684 C8.87695,-1.37207 10.127,-1.05469 12.627,-1.05469 L12.627,0 L2.7832,0"/>
</g>

<g fill="#d9d9d9" fill-opacity="1" stroke="none" transform="matrix(0.5,0,0,0.5,518.225,409.195)"
font-family=".AppleSystemUIFont" font-size="13" font-weight="400" font-style="normal" 
>
<path vector-effect="none" fill-rule="evenodd" d="M4.08203,0 L4.08203,-1.54688 C7.7487,-1.54688 9.58203,-2.01237 9.58203,-2.94336 L9.58203,-26.0391 C8.0638,-25.3086 6.14453,-24.9434 3.82422,-24.9434 L3.82422,-26.4902 C7.41927,-26.4902 10.1335,-27.4284 11.9668,-29.3047 L12.5898,-29.3047 C12.6901,-29.3047 12.7868,-29.2653 12.8799,-29.1865 C12.973,-29.1077 13.0195,-29.0182 13.0195,-28.918 L13.0195,-2.94336 C13.0195,-2.01237 14.8529,-1.54688 18.5195,-1.54688 L18.5195,0 L4.08203,0"/>
</g>

<g fill="#d9d9d9" fill-opacity="1" stroke="none" transform="matrix(0.5,0,0,0.5,529.225,409.195)"
font-family=".AppleSystemUIFont" font-size="13" font-weight="400" font-style="normal" 
>
<path vector-effect="none" fill-rule="evenodd" d="M11,0.966797 C7.40495,0.966797 4.95931,-0.512044 3.66309,-3.46973 C2.36686,-6.42741 1.71875,-9.94727 1.71875,-14.0293 C1.71875,-16.5788 1.9515,-18.9779 2.41699,-21.2266 C2.88249,-23.4753 3.80632,-25.3838 5.18848,-26.9521 C6.57064,-28.5205 8.50781,-29.3047 11,-29.3047 C12.9336,-29.3047 14.5163,-28.832 15.748,-27.8867 C16.9798,-26.9414 17.918,-25.7204 18.5625,-24.2236 C19.207,-22.7269 19.6475,-21.1227 19.8838,-19.4111 C20.1201,-17.6995 20.2383,-15.9056 20.2383,-14.0293 C20.2383,-11.5085 20.0055,-9.14876 19.54,-6.9502 C19.0745,-4.75163 18.1615,-2.88249 16.8008,-1.34277 C15.4401,0.19694 13.5065,0.966797 11,0.966797 M11,-0.171875 C12.6328,-0.171875 13.8503,-1.00977 14.6523,-2.68555 C15.4544,-4.36133 15.9486,-6.21615 16.1348,-8.25 C16.321,-10.2839 16.4141,-12.4466 16.4141,-14.7383 C16.4141,-16.944 16.321,-18.9779 16.1348,-20.8398 C15.9486,-22.7018 15.458,-24.3883 14.6631,-25.8994 C13.8682,-27.4105 12.6471,-28.166 11,-28.166 C9.33854,-28.166 8.10677,-27.4069 7.30469,-25.8887 C6.5026,-24.3704 6.00846,-22.6839 5.82227,-20.8291 C5.63607,-18.9743 5.54297,-16.944 5.54297,-14.7383 C5.54297,-13.1055 5.58236,-11.5658 5.66113,-10.1191 C5.73991,-8.67253 5.95117,-7.17936 6.29492,-5.63965 C6.63867,-4.09993 7.19368,-2.80371 7.95996,-1.75098 C8.72624,-0.698242 9.73958,-0.171875 11,-0.171875 "/>
</g>

<g fill="#d9d9d9" fill-opacity="1" stroke="none" transform="matrix(0.5,0,0,0.5,540.225,401.211)"
font-family=".AppleSystemUIFont" font-size="13" font-weight="400" font-style="normal" 
>
<path vector-effect="none" fill-rule="evenodd" d="M1.49414,0 L1.49414,-0.805664 C1.49414,-0.854492 1.51367,-0.908203 1.55273,-0.966797 L6.21094,-6.12305 C6.91406,-6.88477 7.48535,-7.52441 7.9248,-8.04199 C8.36426,-8.55957 8.79883,-9.15527 9.22852,-9.8291 C9.6582,-10.5029 9.99756,-11.189 10.2466,-11.8872 C10.4956,-12.5854 10.6201,-13.3252 10.6201,-14.1064 C10.6201,-14.9268 10.4688,-15.7104 10.166,-16.4575 C9.86328,-17.2046 9.41162,-17.8027 8.81104,-18.252 C8.21045,-18.7012 7.48535,-18.9258 6.63574,-18.9258 C5.7666,-18.9258 4.98535,-18.6646 4.29199,-18.1421 C3.59863,-17.6196 3.11035,-16.9434 2.82715,-16.1133 C2.90527,-16.1328 3.0127,-16.1426 3.14941,-16.1426 C3.59863,-16.1426 3.98193,-15.9912 4.29932,-15.6885 C4.6167,-15.3857 4.77539,-14.9951 4.77539,-14.5166 C4.77539,-14.0576 4.6167,-13.6694 4.29932,-13.3521 C3.98193,-13.0347 3.59863,-12.876 3.14941,-12.876 C2.68066,-12.876 2.2876,-13.0396 1.97021,-13.3667 C1.65283,-13.6938 1.49414,-14.0771 1.49414,-14.5166 C1.49414,-15.2686 1.63574,-15.9741 1.91895,-16.6333 C2.20215,-17.2925 2.60986,-17.8784 3.14209,-18.3911 C3.67432,-18.9038 4.2749,-19.2969 4.94385,-19.5703 C5.61279,-19.8438 6.32324,-19.9805 7.0752,-19.9805 C8.21777,-19.9805 9.28223,-19.7388 10.2686,-19.2554 C11.2549,-18.772 12.0361,-18.0884 12.6123,-17.2046 C13.1885,-16.3208 13.4766,-15.2881 13.4766,-14.1064 C13.4766,-13.2373 13.2861,-12.4121 12.9053,-11.6309 C12.5244,-10.8496 12.0361,-10.1392 11.4404,-9.49951 C10.8447,-8.85986 10.083,-8.13477 9.15527,-7.32422 C8.22754,-6.51367 7.61719,-5.97168 7.32422,-5.69824 L3.92578,-2.43164 L6.81152,-2.43164 C8.22754,-2.43164 9.41162,-2.44385 10.3638,-2.46826 C11.3159,-2.49268 11.8213,-2.5293 11.8799,-2.57813 C12.1143,-2.83203 12.3535,-3.75488 12.5977,-5.34668 L13.4766,-5.34668 L12.627,0 L1.49414,0"/>
</g>

<g fill="#d9d9d9" fill-opacity="1" stroke="none" transform="matrix(0.5,0,0,0.5,663.6,409.195)"
font-family=".AppleSystemUIFont" font-size="13" font-weight="400" font-style="normal" 
>
<path vector-effect="none" fill-rule="evenodd" d="M4.08203,0 L4.08203,-1.54688 C7.7487,-1.54688 9.58203,-2.01237 9.58203,-2.94336 L9.58203,-26.0391 C8.0638,-25.3086 6.14453,-24.9434 3.82422,-24.9434 L3.82422,-26.4902 C7.41927,-26.4902 10.1335,-27.4284 11.9668,-29.3047 L12.5898,-29.3047 C12.6901,-29.3047 12.7868,-29.2653 12.8799,-29.1865 C12.973,-29.1077 13.0195,-29.0182 13.0195,-28.918 L13.0195,-2.94336 C13.0195,-2.01237 14.8529,-1.54688 18.5195,-1.54688 L18.5195,0 L4.08203,0"/>
</g>

<g fill="#d9d9d9" fill-opacity="1" stroke="none" transform="matrix(0.5,0,0,0.5,674.6,409.195)"
font-family=".AppleSystemUIFont" font-size="13" font-weight="400" font-style="normal" 
>
<path vector-effect="none" fill-rule="evenodd" d="M11,0.966797 C7.40495,0.966797 4.95931,-0.512044 3.66309,-3.46973 C2.36686,-6.42741 1.71875,-9.94727 1.71875,-14.0293 C1.71875,-16.5788 1.9515,-18.9779 2.41699,-21.2266 C2.88249,-23.4753 3.80632,-25.3838 5.18848,-26.9521 C6.57064,-28.5205 8.50781,-29.3047 11,-29.3047 C12.9336,-29.3047 14.5163,-28.832 15.748,-27.8867 C16.9798,-26.9414 17.918,-25.7204 18.5625,-24.2236 C19.207,-22.7269 19.6475,-21.1227 19.8838,-19.4111 C20.1201,-17.6995 20.2383,-15.9056 20.2383,-14.0293 C20.2383,-11.5085 20.0055,-9.14876 19.54,-6.9502 C19.0745,-4.75163 18.1615,-2.88249 16.8008,-1.34277 C15.4401,0.19694 13.5065,0.966797 11,0.966797 M11,-0.171875 C12.6328,-0.171875 13.8503,-1.00977 14.6523,-2.68555 C15.4544,-4.36133 15.9486,-6.21615 16.1348,-8.25 C16.321,-10.2839 16.4141,-12.4466 16.4141,-14.7383 C16.4141,-16.944 16.321,-18.9779 16.1348,-20.8398 C15.9486,-22.7018 15.458,-24.3883 14.6631,-25.8994 C13.8682,-27.4105 12.6471,-28.166 11,-28.166 C9.33854,-28.166 8.10677,-27.4069 7.30469,-25.8887 C6.5026,-24.3704 6.00846,-22.6839 5.82227,-20.8291 C5.63607,-18.9743 5.54297,-16.944 5.54297,-14.7383 C5.54297,-13.1055 5.58236,-11.5658 5.66113,-10.1191 C5.73991,-8.67253 5.95117,-7.17936 6.29492,-5.63965 C6.63867,-4.09993 7.19368,-2.80371 7.95996,-1.75098 C8.72624,-0.698242 9.73958,-0.171875 11,-0.171875 "/>
</g>

<g fill="#d9d9d9" fill-opacity="1" stroke="none" transform="matrix(0.5,0,0,0.5,685.6,401.211)"
font-family=".AppleSystemUIFont" font-size="13" font-weight="400" font-style="normal" 
>
<path vector-effect="none" fill-rule="evenodd" d="M2.85645,-2.31445 C3.3252,-1.63086 3.95508,-1.12305 4.74609,-0.791016 C5.53711,-0.458984 6.38672,-0.292969 7.29492,-0.292969 C8.45703,-0.292969 9.28223,-0.788574 9.77051,-1.77979 C10.2588,-2.771 10.5029,-3.89648 10.5029,-5.15625 C10.5029,-5.72266 10.4517,-6.28906 10.3491,-6.85547 C10.2466,-7.42188 10.0732,-7.94922 9.8291,-8.4375 C9.58496,-8.92578 9.25049,-9.31641 8.82568,-9.60938 C8.40088,-9.90234 7.88086,-10.0488 7.26563,-10.0488 L5.27344,-10.0488 C5.09766,-10.0488 5.00977,-10.1416 5.00977,-10.3271 L5.00977,-10.5908 C5.00977,-10.7471 5.09766,-10.8252 5.27344,-10.8252 L6.92871,-10.957 C7.63184,-10.957 8.21533,-11.2207 8.6792,-11.748 C9.14307,-12.2754 9.48242,-12.9175 9.69727,-13.6743 C9.91211,-14.4312 10.0195,-15.1514 10.0195,-15.835 C10.0195,-16.792 9.79492,-17.5781 9.3457,-18.1934 C8.89648,-18.8086 8.21289,-19.1162 7.29492,-19.1162 C6.5332,-19.1162 5.80566,-18.9722 5.1123,-18.6841 C4.41895,-18.396 3.86719,-17.959 3.45703,-17.373 C3.49609,-17.3828 3.53027,-17.3901 3.55957,-17.395 C3.58887,-17.3999 3.62305,-17.4023 3.66211,-17.4023 C4.11133,-17.4023 4.4873,-17.2461 4.79004,-16.9336 C5.09277,-16.6211 5.24414,-16.2451 5.24414,-15.8057 C5.24414,-15.376 5.09277,-15.0049 4.79004,-14.6924 C4.4873,-14.3799 4.11133,-14.2236 3.66211,-14.2236 C3.22266,-14.2236 2.84668,-14.3799 2.53418,-14.6924 C2.22168,-15.0049 2.06543,-15.376 2.06543,-15.8057 C2.06543,-16.665 2.32422,-17.4121 2.8418,-18.0469 C3.35938,-18.6816 4.02588,-19.1626 4.84131,-19.4897 C5.65674,-19.8169 6.47461,-19.9805 7.29492,-19.9805 C7.90039,-19.9805 8.54004,-19.8901 9.21387,-19.7095 C9.8877,-19.5288 10.498,-19.27 11.0449,-18.9331 C11.5918,-18.5962 12.0386,-18.1641 12.3853,-17.6367 C12.7319,-17.1094 12.9053,-16.5088 12.9053,-15.835 C12.9053,-14.9951 12.7173,-14.2188 12.3413,-13.5059 C11.9653,-12.793 11.4502,-12.1777 10.7959,-11.6602 C10.1416,-11.1426 9.42383,-10.7568 8.64258,-10.5029 C9.51172,-10.3369 10.3369,-10.0098 11.1182,-9.52148 C11.8994,-9.0332 12.5269,-8.4082 13.0005,-7.64648 C13.4741,-6.88477 13.7109,-6.06445 13.7109,-5.18555 C13.7109,-4.08203 13.4082,-3.0835 12.8027,-2.18994 C12.1973,-1.29639 11.4014,-0.598145 10.415,-0.0952148 C9.42871,0.407715 8.38867,0.65918 7.29492,0.65918 C6.35742,0.65918 5.41748,0.480957 4.4751,0.124512 C3.53271,-0.231934 2.76123,-0.766602 2.16064,-1.47949 C1.56006,-2.19238 1.25977,-3.04688 1.25977,-4.04297 C1.25977,-4.54102 1.42578,-4.95605 1.75781,-5.28809 C2.08984,-5.62012 2.50488,-5.78613 3.00293,-5.78613 C3.3252,-5.78613 3.62061,-5.71045 3.88916,-5.55908 C4.15771,-5.40771 4.36768,-5.19531 4.51904,-4.92188 C4.67041,-4.64844 4.74609,-4.35547 4.74609,-4.04297 C4.74609,-3.55469 4.5752,-3.14453 4.2334,-2.8125 C3.8916,-2.48047 3.48145,-2.31445 3.00293,-2.31445 L2.85645,-2.31445"/>
</g>

<g fill="#ffffff" fill-opacity="1" stroke="none" transform="matrix(0.5,0,0,0.5,292.492,441.691)"
font-family=".AppleSystemUIFont" font-size="13" font-weight="400" font-style="normal" 
>
<path vector-effect="none" fill-rule="evenodd" d="M1.47656,0 L1.47656,-1.6875 C4.77344,-1.6875 6.42188,-2.19531 6.42188,-3.21094 L6.42188,-29.5781 C6.42188,-30.5938 4.77344,-31.1016 1.47656,-31.1016 L1.47656,-32.7891 L27.9375,-32.7891 L29.2734,-21.7969 L27.8906,-21.7969 C27.6719,-23.8125 27.3789,-25.4023 27.0117,-26.5664 C26.6445,-27.7305 26.1094,-28.6445 25.4063,-29.3086 C24.7031,-29.9727 23.7617,-30.4375 22.582,-30.7031 C21.4023,-30.9688 19.7813,-31.1016 17.7188,-31.1016 L13.3359,-31.1016 C12.7578,-31.1016 12.3086,-31.0781 11.9883,-31.0313 C11.668,-30.9844 11.4063,-30.8477 11.2031,-30.6211 C11,-30.3945 10.8984,-30.0469 10.8984,-29.5781 L10.8984,-17.2266 L14.2969,-17.2266 C15.9375,-17.2266 17.1406,-17.3711 17.9063,-17.6602 C18.6719,-17.9492 19.1992,-18.4766 19.4883,-19.2422 C19.7773,-20.0078 19.9219,-21.2109 19.9219,-22.8516 L21.3047,-22.8516 L21.3047,-9.9375 L19.9219,-9.9375 C19.9219,-11.5781 19.7773,-12.7813 19.4883,-13.5469 C19.1992,-14.3125 18.6719,-14.8398 17.9063,-15.1289 C17.1406,-15.418 15.9375,-15.5625 14.2969,-15.5625 L10.8984,-15.5625 L10.8984,-3.21094 C10.8984,-2.19531 12.9453,-1.6875 17.0391,-1.6875 L17.0391,0 L1.47656,0"/>
</g>

<g fill="#ffffff" fill-opacity="1" stroke="none" transform="matrix(0.5,0,0,0.5,306.272,441.691)"
font-family=".AppleSystemUIFont" font-size="13" font-weight="400" font-style="normal" 
>
<path vector-effect="none" fill-rule="evenodd" d="M1.24219,0 L1.24219,-1.6875 C2.33594,-1.6875 3.23438,-1.77344 3.9375,-1.94531 C4.64063,-2.11719 4.99219,-2.53906 4.99219,-3.21094 L4.99219,-16.3125 C4.99219,-17.1719 4.86328,-17.793 4.60547,-18.1758 C4.34766,-18.5586 3.97656,-18.793 3.49219,-18.8789 C3.00781,-18.9648 2.25781,-19.0078 1.24219,-19.0078 L1.24219,-20.6953 L8.10938,-21.2109 L8.10938,-16.5234 C8.625,-17.9141 9.35938,-19.043 10.3125,-19.9102 C11.2656,-20.7773 12.4219,-21.2109 13.7813,-21.2109 C14.7344,-21.2109 15.5859,-20.9297 16.3359,-20.3672 C17.0859,-19.8047 17.4609,-19.0625 17.4609,-18.1406 C17.4609,-17.5625 17.2539,-17.0586 16.8398,-16.6289 C16.4258,-16.1992 15.9141,-15.9844 15.3047,-15.9844 C14.7109,-15.9844 14.2031,-16.1953 13.7813,-16.6172 C13.3594,-17.0391 13.1484,-17.5469 13.1484,-18.1406 C13.1484,-19 13.4531,-19.6094 14.0625,-19.9688 L13.7813,-19.9688 C12.4844,-19.9688 11.4258,-19.5 10.6055,-18.5625 C9.78516,-17.625 9.20313,-16.4609 8.85938,-15.0703 C8.51563,-13.6797 8.34375,-12.3516 8.34375,-11.0859 L8.34375,-3.21094 C8.34375,-2.19531 9.89844,-1.6875 13.0078,-1.6875 L13.0078,0 L1.24219,0"/>
</g>

<g fill="#ffffff" fill-opacity="1" stroke="none" transform="matrix(0.5,0,0,0.5,315.751,441.691)"
font-family=".AppleSystemUIFont" font-size="13" font-weight="400" font-style="normal" 
>
<path vector-effect="none" fill-rule="evenodd" d="M11.9531,0.539063 C10,0.539063 8.20703,0.0273438 6.57422,-0.996094 C4.94141,-2.01953 3.66016,-3.38672 2.73047,-5.09766 C1.80078,-6.80859 1.33594,-8.61719 1.33594,-10.5234 C1.33594,-12.3984 1.76172,-14.1797 2.61328,-15.8672 C3.46484,-17.5547 4.65234,-18.918 6.17578,-19.957 C7.69922,-20.9961 9.39844,-21.5156 11.2734,-21.5156 C12.7422,-21.5156 14.0195,-21.2695 15.1055,-20.7773 C16.1914,-20.2852 17.0859,-19.6016 17.7891,-18.7266 C18.4922,-17.8516 19.0234,-16.8203 19.3828,-15.6328 C19.7422,-14.4453 19.9219,-13.1406 19.9219,-11.7188 C19.9219,-11.2969 19.7578,-11.0859 19.4297,-11.0859 L5.53125,-11.0859 L5.53125,-10.5703 C5.53125,-7.91406 6.06641,-5.63281 7.13672,-3.72656 C8.20703,-1.82031 9.95313,-0.867188 12.375,-0.867188 C13.3594,-0.867188 14.2695,-1.08594 15.1055,-1.52344 C15.9414,-1.96094 16.668,-2.57031 17.2852,-3.35156 C17.9023,-4.13281 18.3203,-4.96875 18.5391,-5.85938 C18.5703,-5.96875 18.6289,-6.06641 18.7148,-6.15234 C18.8008,-6.23828 18.8984,-6.28125 19.0078,-6.28125 L19.4297,-6.28125 C19.7578,-6.28125 19.9219,-6.07813 19.9219,-5.67188 C19.4688,-3.85938 18.4922,-2.37109 16.9922,-1.20703 C15.4922,-0.0429688 13.8125,0.539063 11.9531,0.539063 M5.57813,-12.2813 L16.5234,-12.2813 C16.5234,-13.4844 16.3555,-14.7031 16.0195,-15.9375 C15.6836,-17.1719 15.125,-18.1992 14.3438,-19.0195 C13.5625,-19.8398 12.5391,-20.25 11.2734,-20.25 C9.46094,-20.25 8.05859,-19.4023 7.06641,-17.707 C6.07422,-16.0117 5.57813,-14.2031 5.57813,-12.2813 "/>
</g>

<g fill="#ffffff" fill-opacity="1" stroke="none" transform="matrix(0.5,0,0,0.5,326.506,441.691)"
font-family=".AppleSystemUIFont" font-size="13" font-weight="400" font-style="normal" 
>
<path vector-effect="none" fill-rule="evenodd" d="M14.3906,9.30469 L14.3906,7.64063 C15.4844,7.64063 16.3828,7.54688 17.0859,7.35938 C17.7891,7.17188 18.1406,6.75 18.1406,6.09375 L18.1406,-2.78906 C17.3906,-1.78906 16.4453,-0.984375 15.3047,-0.375 C14.1641,0.234375 12.9688,0.539063 11.7188,0.539063 C10.2813,0.539063 8.94531,0.242188 7.71094,-0.351563 C6.47656,-0.945313 5.40234,-1.75 4.48828,-2.76563 C3.57422,-3.78125 2.86328,-4.95703 2.35547,-6.29297 C1.84766,-7.62891 1.59375,-8.98438 1.59375,-10.3594 C1.59375,-12.2656 2.0625,-14.0586 3,-15.7383 C3.9375,-17.418 5.22266,-18.75 6.85547,-19.7344 C8.48828,-20.7188 10.25,-21.2109 12.1406,-21.2109 C13.5,-21.2109 14.7578,-20.8281 15.9141,-20.0625 C17.0703,-19.2969 17.9922,-18.2734 18.6797,-16.9922 L20.3906,-21.2109 L21.6563,-21.2109 L21.6563,6.09375 C21.6563,6.75 22.0078,7.17188 22.7109,7.35938 C23.4141,7.54688 24.3047,7.64063 25.3828,7.64063 L25.3828,9.30469 L14.3906,9.30469 M12,-0.726563 C13.4219,-0.726563 14.6914,-1.19922 15.8086,-2.14453 C16.9258,-3.08984 17.75,-4.28125 18.2813,-5.71875 L18.2813,-14.1563 C17.9531,-15.6875 17.2734,-17.0156 16.2422,-18.1406 C15.2109,-19.2656 13.9766,-19.8281 12.5391,-19.8281 C11.4453,-19.8281 10.4688,-19.5391 9.60938,-18.9609 C8.75,-18.3828 8.03516,-17.6094 7.46484,-16.6406 C6.89453,-15.6719 6.46875,-14.625 6.1875,-13.5 C5.90625,-12.375 5.76563,-11.3125 5.76563,-10.3125 C5.76563,-9.03125 5.99219,-7.63672 6.44531,-6.12891 C6.89844,-4.62109 7.59375,-3.34375 8.53125,-2.29688 C9.46875,-1.25 10.625,-0.726563 12,-0.726563 "/>
</g>

<g fill="#ffffff" fill-opacity="1" stroke="none" transform="matrix(0.5,0,0,0.5,339.279,441.691)"
font-family=".AppleSystemUIFont" font-size="13" font-weight="400" font-style="normal" 
>
<path vector-effect="none" fill-rule="evenodd" d="M5.17969,-5.71875 L5.17969,-16.3125 C5.17969,-17.1719 5.05078,-17.793 4.79297,-18.1758 C4.53516,-18.5586 4.16406,-18.793 3.67969,-18.8789 C3.19531,-18.9648 2.44531,-19.0078 1.42969,-19.0078 L1.42969,-20.6953 L8.69531,-21.2109 L8.69531,-5.71875 C8.69531,-4.46875 8.78516,-3.49609 8.96484,-2.80078 C9.14453,-2.10547 9.52734,-1.58594 10.1133,-1.24219 C10.6992,-0.898438 11.6328,-0.726563 12.9141,-0.726563 C14.6328,-0.726563 16,-1.44531 17.0156,-2.88281 C18.0313,-4.32031 18.5391,-5.95313 18.5391,-7.78125 L18.5391,-16.3125 C18.5391,-17.1719 18.4063,-17.793 18.1406,-18.1758 C17.875,-18.5586 17.5039,-18.793 17.0273,-18.8789 C16.5508,-18.9648 15.8047,-19.0078 14.7891,-19.0078 L14.7891,-20.6953 L22.0313,-21.2109 L22.0313,-4.35938 C22.0313,-3.51563 22.1602,-2.90234 22.418,-2.51953 C22.6758,-2.13672 23.0469,-1.90234 23.5313,-1.81641 C24.0156,-1.73047 24.7656,-1.6875 25.7813,-1.6875 L25.7813,0 L18.6797,0.539063 L18.6797,-3.51563 C18.0859,-2.3125 17.2578,-1.33594 16.1953,-0.585938 C15.1328,0.164063 13.9609,0.539063 12.6797,0.539063 C10.3828,0.539063 8.55859,0.0507813 7.20703,-0.925781 C5.85547,-1.90234 5.17969,-3.5 5.17969,-5.71875 "/>
</g>

<g fill="#ffffff" fill-opacity="1" stroke="none" transform="matrix(0.5,0,0,0.5,352.723,441.691)"
font-family=".AppleSystemUIFont" font-size="13" font-weight="400" font-style="normal" 
>
<path vector-effect="none" fill-rule="evenodd" d="M11.9531,0.539063 C10,0.539063 8.20703,0.0273438 6.57422,-0.996094 C4.94141,-2.01953 3.66016,-3.38672 2.73047,-5.09766 C1.80078,-6.80859 1.33594,-8.61719 1.33594,-10.5234 C1.33594,-12.3984 1.76172,-14.1797 2.61328,-15.8672 C3.46484,-17.5547 4.65234,-18.918 6.17578,-19.957 C7.69922,-20.9961 9.39844,-21.5156 11.2734,-21.5156 C12.7422,-21.5156 14.0195,-21.2695 15.1055,-20.7773 C16.1914,-20.2852 17.0859,-19.6016 17.7891,-18.7266 C18.4922,-17.8516 19.0234,-16.8203 19.3828,-15.6328 C19.7422,-14.4453 19.9219,-13.1406 19.9219,-11.7188 C19.9219,-11.2969 19.7578,-11.0859 19.4297,-11.0859 L5.53125,-11.0859 L5.53125,-10.5703 C5.53125,-7.91406 6.06641,-5.63281 7.13672,-3.72656 C8.20703,-1.82031 9.95313,-0.867188 12.375,-0.867188 C13.3594,-0.867188 14.2695,-1.08594 15.1055,-1.52344 C15.9414,-1.96094 16.668,-2.57031 17.2852,-3.35156 C17.9023,-4.13281 18.3203,-4.96875 18.5391,-5.85938 C18.5703,-5.96875 18.6289,-6.06641 18.7148,-6.15234 C18.8008,-6.23828 18.8984,-6.28125 19.0078,-6.28125 L19.4297,-6.28125 C19.7578,-6.28125 19.9219,-6.07813 19.9219,-5.67188 C19.4688,-3.85938 18.4922,-2.37109 16.9922,-1.20703 C15.4922,-0.0429688 13.8125,0.539063 11.9531,0.539063 M5.57813,-12.2813 L16.5234,-12.2813 C16.5234,-13.4844 16.3555,-14.7031 16.0195,-15.9375 C15.6836,-17.1719 15.125,-18.1992 14.3438,-19.0195 C13.5625,-19.8398 12.5391,-20.25 11.2734,-20.25 C9.46094,-20.25 8.05859,-19.4023 7.06641,-17.707 C6.07422,-16.0117 5.57813,-14.2031 5.57813,-12.2813 "/>
</g>

<g fill="#ffffff" fill-opacity="1" stroke="none" transform="matrix(0.5,0,0,0.5,363.479,441.691)"
font-family=".AppleSystemUIFont" font-size="13" font-weight="400" font-style="normal" 
>
<path vector-effect="none" fill-rule="evenodd" d="M1.42969,0 L1.42969,-1.6875 C2.52344,-1.6875 3.42188,-1.77344 4.125,-1.94531 C4.82813,-2.11719 5.17969,-2.53906 5.17969,-3.21094 L5.17969,-16.3125 C5.17969,-17.1719 5.05078,-17.793 4.79297,-18.1758 C4.53516,-18.5586 4.16406,-18.793 3.67969,-18.8789 C3.19531,-18.9648 2.44531,-19.0078 1.42969,-19.0078 L1.42969,-20.6953 L8.39063,-21.2109 L8.39063,-16.5234 C9.03125,-17.8984 9.98047,-19.0234 11.2383,-19.8984 C12.4961,-20.7734 13.8672,-21.2109 15.3516,-21.2109 C17.5703,-21.2109 19.2383,-20.6797 20.3555,-19.6172 C21.4727,-18.5547 22.0313,-16.9297 22.0313,-14.7422 L22.0313,-3.21094 C22.0313,-2.53906 22.3828,-2.11719 23.0859,-1.94531 C23.7891,-1.77344 24.6875,-1.6875 25.7813,-1.6875 L25.7813,0 L14.7891,0 L14.7891,-1.6875 C15.8828,-1.6875 16.7813,-1.77344 17.4844,-1.94531 C18.1875,-2.11719 18.5391,-2.53906 18.5391,-3.21094 L18.5391,-14.6016 C18.5391,-16.1641 18.3125,-17.4492 17.8594,-18.457 C17.4063,-19.4648 16.4766,-19.9688 15.0703,-19.9688 C13.2109,-19.9688 11.6836,-19.2266 10.4883,-17.7422 C9.29297,-16.2578 8.69531,-14.5703 8.69531,-12.6797 L8.69531,-3.21094 C8.69531,-2.53906 9.04688,-2.11719 9.75,-1.94531 C10.4531,-1.77344 11.3438,-1.6875 12.4219,-1.6875 L12.4219,0 L1.42969,0"/>
</g>

<g fill="#ffffff" fill-opacity="1" stroke="none" transform="matrix(0.5,0,0,0.5,376.923,441.691)"
font-family=".AppleSystemUIFont" font-size="13" font-weight="400" font-style="normal" 
>
<path vector-effect="none" fill-rule="evenodd" d="M11.9531,0.539063 C10.0156,0.539063 8.25781,0.0351563 6.67969,-0.972656 C5.10156,-1.98047 3.85938,-3.32422 2.95313,-5.00391 C2.04688,-6.68359 1.59375,-8.46875 1.59375,-10.3594 C1.59375,-12.25 2.04297,-14.0625 2.94141,-15.7969 C3.83984,-17.5313 5.08203,-18.918 6.66797,-19.957 C8.25391,-20.9961 10.0156,-21.5156 11.9531,-21.5156 C13.8281,-21.5156 15.5352,-21.1484 17.0742,-20.4141 C18.6133,-19.6797 19.3828,-18.4766 19.3828,-16.8047 C19.3828,-16.1797 19.1602,-15.6367 18.7148,-15.1758 C18.2695,-14.7148 17.7266,-14.4844 17.0859,-14.4844 C16.4453,-14.4844 15.9023,-14.7148 15.457,-15.1758 C15.0117,-15.6367 14.7891,-16.1797 14.7891,-16.8047 C14.7891,-17.3672 14.9688,-17.8555 15.3281,-18.2695 C15.6875,-18.6836 16.1328,-18.9453 16.6641,-19.0547 C15.5547,-19.7578 14,-20.1094 12,-20.1094 C10.4688,-20.1094 9.23438,-19.6016 8.29688,-18.5859 C7.35938,-17.5703 6.70313,-16.3125 6.32813,-14.8125 C5.95313,-13.3125 5.76563,-11.8281 5.76563,-10.3594 C5.76563,-8.8125 5.99609,-7.31641 6.45703,-5.87109 C6.91797,-4.42578 7.66016,-3.23047 8.68359,-2.28516 C9.70703,-1.33984 10.9922,-0.867188 12.5391,-0.867188 C14.0547,-0.867188 15.3438,-1.33203 16.4063,-2.26172 C17.4688,-3.19141 18.1953,-4.40625 18.5859,-5.90625 C18.5859,-6.09375 18.7109,-6.1875 18.9609,-6.1875 L19.5469,-6.1875 C19.6406,-6.1875 19.7266,-6.14453 19.8047,-6.05859 C19.8828,-5.97266 19.9219,-5.875 19.9219,-5.76563 L19.9219,-5.625 C19.4375,-3.73438 18.4766,-2.23438 17.0391,-1.125 C15.6016,-0.015625 13.9063,0.539063 11.9531,0.539063 "/>
</g>

<g fill="#ffffff" fill-opacity="1" stroke="none" transform="matrix(0.5,0,0,0.5,387.679,441.691)"
font-family=".AppleSystemUIFont" font-size="13" font-weight="400" font-style="normal" 
>
<path vector-effect="none" fill-rule="evenodd" d="M3.30469,7.875 C3.91406,8.35938 4.58594,8.60156 5.32031,8.60156 C7.33594,8.60156 8.98438,7.07813 10.2656,4.03125 L11.9063,0 L4.71094,-17.625 C4.41406,-18.2188 3.96094,-18.5977 3.35156,-18.7617 C2.74219,-18.9258 1.92969,-19.0078 0.914063,-19.0078 L0.914063,-20.6953 L10.9922,-20.6953 L10.9922,-19.0078 C9.22656,-19.0078 8.34375,-18.625 8.34375,-17.8594 C8.34375,-17.7344 8.35938,-17.6406 8.39063,-17.5781 L13.7344,-4.45313 L18.5391,-16.2656 C18.6328,-16.5156 18.6797,-16.7891 18.6797,-17.0859 C18.6797,-17.4766 18.5742,-17.8164 18.3633,-18.1055 C18.1523,-18.3945 17.8789,-18.6172 17.543,-18.7734 C17.207,-18.9297 16.8281,-19.0078 16.4063,-19.0078 L16.4063,-20.6953 L24.375,-20.6953 L24.375,-19.0078 C23.3906,-19.0078 22.5273,-18.7813 21.7852,-18.3281 C21.043,-17.875 20.4688,-17.2031 20.0625,-16.3125 L11.7656,4.03125 C11.3281,5.0625 10.8164,6.01172 10.2305,6.87891 C9.64453,7.74609 8.92969,8.45703 8.08594,9.01172 C7.24219,9.56641 6.32031,9.84375 5.32031,9.84375 C4.14844,9.84375 3.12109,9.45703 2.23828,8.68359 C1.35547,7.91016 0.914063,6.95313 0.914063,5.8125 C0.914063,5.21875 1.11719,4.71875 1.52344,4.3125 C1.92969,3.90625 2.42969,3.70313 3.02344,3.70313 C3.42969,3.70313 3.79297,3.79297 4.11328,3.97266 C4.43359,4.15234 4.68359,4.39844 4.86328,4.71094 C5.04297,5.02344 5.13281,5.39063 5.13281,5.8125 C5.13281,6.32813 4.96094,6.78906 4.61719,7.19531 C4.27344,7.60156 3.83594,7.82813 3.30469,7.875 "/>
</g>

<g fill="#ffffff" fill-opacity="1" stroke="none" transform="matrix(0.5,0,0,0.5,408.517,441.691)"
font-family=".AppleSystemUIFont" font-size="13" font-weight="400" font-style="normal" 
>
<path vector-effect="none" fill-rule="evenodd" d="M14.8828,11.9063 C13.1016,10.5 11.5664,8.88672 10.2773,7.06641 C8.98828,5.24609 7.93359,3.30469 7.11328,1.24219 C6.29297,-0.820313 5.67969,-2.97656 5.27344,-5.22656 C4.86719,-7.47656 4.66406,-9.73438 4.66406,-12 C4.66406,-14.2969 4.86719,-16.5703 5.27344,-18.8203 C5.67969,-21.0703 6.30078,-23.2344 7.13672,-25.3125 C7.97266,-27.3906 9.03906,-29.3359 10.3359,-31.1484 C11.6328,-32.9609 13.1484,-34.5469 14.8828,-35.9063 C14.8828,-35.9688 14.9609,-36 15.1172,-36 L15.5625,-36 C15.6563,-36 15.7422,-35.957 15.8203,-35.8711 C15.8984,-35.7852 15.9375,-35.6875 15.9375,-35.5781 C15.9375,-35.4375 15.9063,-35.3359 15.8438,-35.2734 C14.2813,-33.7422 12.9805,-32.1016 11.9414,-30.3516 C10.9023,-28.6016 10.0664,-26.7383 9.43359,-24.7617 C8.80078,-22.7852 8.34375,-20.7383 8.0625,-18.6211 C7.78125,-16.5039 7.64063,-14.2969 7.64063,-12 C7.64063,-1.82813 10.3594,5.89844 15.7969,11.1797 C15.8906,11.2734 15.9375,11.4063 15.9375,11.5781 C15.9375,11.6563 15.8945,11.7461 15.8086,11.8477 C15.7227,11.9492 15.6406,12 15.5625,12 L15.1172,12 C14.9609,12 14.8828,11.9688 14.8828,11.9063 "/>
</g>

<g fill="#ffffff" fill-opacity="1" stroke="none" transform="matrix(0.5,0,0,0.5,417.929,441.691)"
font-family=".AppleSystemUIFont" font-size="13" font-weight="400" font-style="normal" 
>
<path vector-effect="none" fill-rule="evenodd" d="M1.24219,0 L1.24219,-1.6875 C2.33594,-1.6875 3.23438,-1.77344 3.9375,-1.94531 C4.64063,-2.11719 4.99219,-2.53906 4.99219,-3.21094 L4.99219,-16.3125 C4.99219,-17.1719 4.86328,-17.793 4.60547,-18.1758 C4.34766,-18.5586 3.97656,-18.793 3.49219,-18.8789 C3.00781,-18.9648 2.25781,-19.0078 1.24219,-19.0078 L1.24219,-20.6953 L8.10938,-21.2109 L8.10938,-16.5234 C8.625,-17.9141 9.35938,-19.043 10.3125,-19.9102 C11.2656,-20.7773 12.4219,-21.2109 13.7813,-21.2109 C14.7344,-21.2109 15.5859,-20.9297 16.3359,-20.3672 C17.0859,-19.8047 17.4609,-19.0625 17.4609,-18.1406 C17.4609,-17.5625 17.2539,-17.0586 16.8398,-16.6289 C16.4258,-16.1992 15.9141,-15.9844 15.3047,-15.9844 C14.7109,-15.9844 14.2031,-16.1953 13.7813,-16.6172 C13.3594,-17.0391 13.1484,-17.5469 13.1484,-18.1406 C13.1484,-19 13.4531,-19.6094 14.0625,-19.9688 L13.7813,-19.9688 C12.4844,-19.9688 11.4258,-19.5 10.6055,-18.5625 C9.78516,-17.625 9.20313,-16.4609 8.85938,-15.0703 C8.51563,-13.6797 8.34375,-12.3516 8.34375,-11.0859 L8.34375,-3.21094 C8.34375,-2.19531 9.89844,-1.6875 13.0078,-1.6875 L13.0078,0 L1.24219,0"/>
</g>

<g fill="#ffffff" fill-opacity="1" stroke="none" transform="matrix(0.5,0,0,0.5,427.407,441.691)"
font-family=".AppleSystemUIFont" font-size="13" font-weight="400" font-style="normal" 
>
<path vector-effect="none" fill-rule="evenodd" d="M1.92188,-4.71094 C1.92188,-6.61719 2.67188,-8.16797 4.17188,-9.36328 C5.67188,-10.5586 7.47266,-11.4023 9.57422,-11.8945 C11.6758,-12.3867 13.6719,-12.6328 15.5625,-12.6328 L15.5625,-14.6016 C15.5625,-15.5234 15.3594,-16.418 14.9531,-17.2852 C14.5469,-18.1523 13.9609,-18.8633 13.1953,-19.418 C12.4297,-19.9727 11.5859,-20.25 10.6641,-20.25 C8.53906,-20.25 6.92188,-19.7734 5.8125,-18.8203 C6.42188,-18.8203 6.92578,-18.5898 7.32422,-18.1289 C7.72266,-17.668 7.92188,-17.1328 7.92188,-16.5234 C7.92188,-15.8828 7.69531,-15.3359 7.24219,-14.8828 C6.78906,-14.4297 6.25,-14.2031 5.625,-14.2031 C4.98438,-14.2031 4.4375,-14.4297 3.98438,-14.8828 C3.53125,-15.3359 3.30469,-15.8828 3.30469,-16.5234 C3.30469,-18.2109 4.07031,-19.4648 5.60156,-20.2852 C7.13281,-21.1055 8.82031,-21.5156 10.6641,-21.5156 C11.9609,-21.5156 13.2656,-21.2383 14.5781,-20.6836 C15.8906,-20.1289 16.9648,-19.3359 17.8008,-18.3047 C18.6367,-17.2734 19.0547,-16.0703 19.0547,-14.6953 L19.0547,-3.89063 C19.0547,-3.26563 19.1875,-2.69141 19.4531,-2.16797 C19.7188,-1.64453 20.1328,-1.38281 20.6953,-1.38281 C21.2266,-1.38281 21.6211,-1.64844 21.8789,-2.17969 C22.1367,-2.71094 22.2656,-3.28125 22.2656,-3.89063 L22.2656,-6.96094 L23.6719,-6.96094 L23.6719,-3.89063 C23.6719,-3.17188 23.4844,-2.48828 23.1094,-1.83984 C22.7344,-1.19141 22.2305,-0.675781 21.5977,-0.292969 C20.9648,0.0898438 20.2813,0.28125 19.5469,0.28125 C18.6094,0.28125 17.8008,-0.0820313 17.1211,-0.808594 C16.4414,-1.53516 16.0625,-2.39844 15.9844,-3.39844 C15.3906,-2.19531 14.5156,-1.23828 13.3594,-0.527344 C12.2031,0.183594 10.9688,0.539063 9.65625,0.539063 C8.4375,0.539063 7.23828,0.359375 6.05859,0 C4.87891,-0.359375 3.89453,-0.925781 3.10547,-1.69922 C2.31641,-2.47266 1.92188,-3.47656 1.92188,-4.71094 M5.8125,-4.71094 C5.8125,-3.58594 6.22656,-2.64063 7.05469,-1.875 C7.88281,-1.10938 8.85938,-0.726563 9.98438,-0.726563 C11.0156,-0.726563 11.9531,-0.984375 12.7969,-1.5 C13.6406,-2.01563 14.3125,-2.71875 14.8125,-3.60938 C15.3125,-4.5 15.5625,-5.4375 15.5625,-6.42188 L15.5625,-11.4141 C14.1094,-11.4141 12.6211,-11.1758 11.0977,-10.6992 C9.57422,-10.2227 8.3125,-9.47656 7.3125,-8.46094 C6.3125,-7.44531 5.8125,-6.19531 5.8125,-4.71094 "/>
</g>

<g fill="#ffffff" fill-opacity="1" stroke="none" transform="matrix(0.5,0,0,0.5,439.507,441.691)"
font-family=".AppleSystemUIFont" font-size="13" font-weight="400" font-style="normal" 
>
<path vector-effect="none" fill-rule="evenodd" d="M11.7188,0.539063 C9.82813,0.539063 8.10156,0.0273438 6.53906,-0.996094 C4.97656,-2.01953 3.76172,-3.36719 2.89453,-5.03906 C2.02734,-6.71094 1.59375,-8.48438 1.59375,-10.3594 C1.59375,-12.2969 2.06641,-14.0977 3.01172,-15.7617 C3.95703,-17.4258 5.24219,-18.75 6.86719,-19.7344 C8.49219,-20.7188 10.2813,-21.2109 12.2344,-21.2109 C13.4063,-21.2109 14.5156,-20.9648 15.5625,-20.4727 C16.6094,-19.9805 17.5156,-19.2969 18.2813,-18.4219 L18.2813,-28.4063 C18.2813,-29.2656 18.1523,-29.8867 17.8945,-30.2695 C17.6367,-30.6523 17.2695,-30.8867 16.793,-30.9727 C16.3164,-31.0586 15.5703,-31.1016 14.5547,-31.1016 L14.5547,-32.7891 L21.6563,-33.3047 L21.6563,-4.35938 C21.6563,-3.51563 21.7852,-2.90234 22.043,-2.51953 C22.3008,-2.13672 22.668,-1.90234 23.1445,-1.81641 C23.6211,-1.73047 24.3672,-1.6875 25.3828,-1.6875 L25.3828,0 L18.1406,0.539063 L18.1406,-2.48438 C17.3125,-1.53125 16.3281,-0.789063 15.1875,-0.257813 C14.0469,0.273438 12.8906,0.539063 11.7188,0.539063 M6.82031,-4.17188 C7.36719,-3.125 8.09766,-2.28906 9.01172,-1.66406 C9.92578,-1.03906 10.9219,-0.726563 12,-0.726563 C13.3281,-0.726563 14.5469,-1.10938 15.6563,-1.875 C16.7656,-2.64063 17.5938,-3.63281 18.1406,-4.85156 L18.1406,-16.3594 C17.7656,-17.0625 17.293,-17.6914 16.7227,-18.2461 C16.1523,-18.8008 15.5117,-19.2266 14.8008,-19.5234 C14.0898,-19.8203 13.3359,-19.9688 12.5391,-19.9688 C10.8672,-19.9688 9.52344,-19.4961 8.50781,-18.5508 C7.49219,-17.6055 6.78125,-16.3984 6.375,-14.9297 C5.96875,-13.4609 5.76563,-11.9219 5.76563,-10.3125 C5.76563,-9.03125 5.83203,-7.91406 5.96484,-6.96094 C6.09766,-6.00781 6.38281,-5.07813 6.82031,-4.17188 "/>
</g>

<g fill="#ffffff" fill-opacity="1" stroke="none" transform="matrix(0.5,0,0,0.5,452.952,441.691)"
font-family=".AppleSystemUIFont" font-size="13" font-weight="400" font-style="normal" 
>
<path vector-effect="none" fill-rule="evenodd" d="M2.69531,11.0391 C2.69531,10.9453 2.71094,10.8828 2.74219,10.8516 L19.4297,-35.4141 C19.4922,-35.6016 19.6016,-35.7461 19.7578,-35.8477 C19.9141,-35.9492 20.0938,-36 20.2969,-36 C20.5781,-36 20.8086,-35.9141 20.9883,-35.7422 C21.168,-35.5703 21.2578,-35.3359 21.2578,-35.0391 L21.2578,-34.8516 L4.57031,11.4141 C4.38281,11.8047 4.07813,12 3.65625,12 C3.39063,12 3.16406,11.9063 2.97656,11.7188 C2.78906,11.5313 2.69531,11.3047 2.69531,11.0391 "/>
</g>

<g fill="#ffffff" fill-opacity="1" stroke="none" transform="matrix(0.5,0,0,0.5,465.052,441.691)"
font-family=".AppleSystemUIFont" font-size="13" font-weight="400" font-style="normal" 
>
<path vector-effect="none" fill-rule="evenodd" d="M1.59375,0.140625 L1.59375,-7.6875 C1.59375,-7.9375 1.73438,-8.0625 2.01563,-8.0625 L2.60156,-8.0625 C2.78906,-8.0625 2.91406,-7.9375 2.97656,-7.6875 C3.86719,-3.04688 6.02344,-0.726563 9.44531,-0.726563 C10.9609,-0.726563 12.2305,-1.07031 13.2539,-1.75781 C14.2773,-2.44531 14.7891,-3.50781 14.7891,-4.94531 C14.7891,-5.97656 14.3906,-6.85547 13.5938,-7.58203 C12.7969,-8.30859 11.8516,-8.80469 10.7578,-9.07031 L7.54688,-9.70313 C6.46875,-9.9375 5.48828,-10.2969 4.60547,-10.7813 C3.72266,-11.2656 3,-11.9102 2.4375,-12.7148 C1.875,-13.5195 1.59375,-14.4531 1.59375,-15.5156 C1.59375,-16.9219 1.96484,-18.0742 2.70703,-18.9727 C3.44922,-19.8711 4.41406,-20.5195 5.60156,-20.918 C6.78906,-21.3164 8.07031,-21.5156 9.44531,-21.5156 C11.0859,-21.5156 12.5156,-21.0781 13.7344,-20.2031 L15.1172,-21.3984 C15.1172,-21.4766 15.1953,-21.5156 15.3516,-21.5156 L15.7031,-21.5156 C15.7969,-21.5156 15.8828,-21.4727 15.9609,-21.3867 C16.0391,-21.3008 16.0781,-21.2109 16.0781,-21.1172 L16.0781,-14.8359 C16.0781,-14.5391 15.9531,-14.3906 15.7031,-14.3906 L15.1172,-14.3906 C14.8359,-14.3906 14.6953,-14.5391 14.6953,-14.8359 C14.6953,-16.5078 14.2305,-17.8516 13.3008,-18.8672 C12.3711,-19.8828 11.0703,-20.3906 9.39844,-20.3906 C7.96094,-20.3906 6.71484,-20.125 5.66016,-19.5938 C4.60547,-19.0625 4.07813,-18.1484 4.07813,-16.8516 C4.07813,-15.9609 4.45703,-15.2305 5.21484,-14.6602 C5.97266,-14.0898 6.85938,-13.6797 7.875,-13.4297 L11.1328,-12.8203 C12.2266,-12.5703 13.2461,-12.1484 14.1914,-11.5547 C15.1367,-10.9609 15.8867,-10.2109 16.4414,-9.30469 C16.9961,-8.39844 17.2734,-7.375 17.2734,-6.23438 C17.2734,-5.07813 17.0742,-4.07422 16.6758,-3.22266 C16.2773,-2.37109 15.7227,-1.66406 15.0117,-1.10156 C14.3008,-0.539063 13.4609,-0.125 12.4922,0.140625 C11.5234,0.40625 10.5078,0.539063 9.44531,0.539063 C7.44531,0.539063 5.73438,-0.132813 4.3125,-1.47656 L2.55469,0.421875 C2.55469,0.5 2.46875,0.539063 2.29688,0.539063 L2.01563,0.539063 C1.73438,0.539063 1.59375,0.40625 1.59375,0.140625 "/>
</g>

<g fill="#ffffff" fill-opacity="1" stroke="none" transform="matrix(0.5,0,0,0.5,474.597,441.691)"
font-family=".AppleSystemUIFont" font-size="13" font-weight="400" font-style="normal" 
>
<path vector-effect="none" fill-rule="evenodd" d="M3.11719,12 C2.83594,12 2.69531,11.8594 2.69531,11.5781 C2.69531,11.4375 2.72656,11.3359 2.78906,11.2734 C8.25781,5.92969 10.9922,-1.82813 10.9922,-12 C10.9922,-22.1719 8.28906,-29.8984 2.88281,-35.1797 C2.75781,-35.2578 2.69531,-35.3906 2.69531,-35.5781 C2.69531,-35.6875 2.73828,-35.7852 2.82422,-35.8711 C2.91016,-35.957 3.00781,-36 3.11719,-36 L3.5625,-36 C3.65625,-36 3.73438,-35.9688 3.79688,-35.9063 C6.09375,-34.0938 8.00781,-31.8906 9.53906,-29.2969 C11.0703,-26.7031 12.1914,-23.9375 12.9023,-21 C13.6133,-18.0625 13.9688,-15.0625 13.9688,-12 C13.9688,-9.73438 13.7773,-7.50391 13.3945,-5.30859 C13.0117,-3.11328 12.4023,-0.949219 11.5664,1.18359 C10.7305,3.31641 9.67188,5.28516 8.39063,7.08984 C7.10938,8.89453 5.57813,10.5 3.79688,11.9063 C3.73438,11.9688 3.65625,12 3.5625,12 L3.11719,12"/>
</g>

<g fill="#d9d9d9" fill-opacity="1" stroke="#d9d9d9" stroke-opacity="1" stroke-width="1" stroke-linecap="square" stroke-linejoin="round" transform="matrix(0.5,0,0,0.5,0,0)"
font-family=".AppleSystemUIFont" font-size="13" font-weight="400" font-style="normal" 
>
<polyline fill="none" vector-effect="none" points="195,757 195,67 " />
<polyline fill="none" vector-effect="none" points="1358,757 1358,67 " />
<polyline fill="none" vector-effect="none" points="195,757 183.37,757 " />
<polyline fill="none" vector-effect="none" points="195,527 183.37,527 " />
<polyline fill="none" vector-effect="none" points="195,297 183.37,297 " />
<polyline fill="none" vector-effect="none" points="195,67 183.37,67 " />
<polyline fill="none" vector-effect="none" points="1358,757 1369.63,757 " />
<polyline fill="none" vector-effect="none" points="1358,527 1369.63,527 " />
<polyline fill="none" vector-effect="none" points="1358,297 1369.63,297 " />
<polyline fill="none" vector-effect="none" points="1358,67 1369.63,67 " />
</g>

<g fill="#d9d9d9" fill-opacity="1" stroke="none" transform="matrix(0.5,0,0,0.5,74.285,383.78)"
font-family=".AppleSystemUIFont" font-size="13" font-weight="400" font-style="normal" 
>
<path vector-effect="none" fill-rule="evenodd" d="M11,0.966797 C7.40495,0.966797 4.95931,-0.512044 3.66309,-3.46973 C2.36686,-6.42741 1.71875,-9.94727 1.71875,-14.0293 C1.71875,-16.5788 1.9515,-18.9779 2.41699,-21.2266 C2.88249,-23.4753 3.80632,-25.3838 5.18848,-26.9521 C6.57064,-28.5205 8.50781,-29.3047 11,-29.3047 C12.9336,-29.3047 14.5163,-28.832 15.748,-27.8867 C16.9798,-26.9414 17.918,-25.7204 18.5625,-24.2236 C19.207,-22.7269 19.6475,-21.1227 19.8838,-19.4111 C20.1201,-17.6995 20.2383,-15.9056 20.2383,-14.0293 C20.2383,-11.5085 20.0055,-9.14876 19.54,-6.9502 C19.0745,-4.75163 18.1615,-2.88249 16.8008,-1.34277 C15.4401,0.19694 13.5065,0.966797 11,0.966797 M11,-0.171875 C12.6328,-0.171875 13.8503,-1.00977 14.6523,-2.68555 C15.4544,-4.36133 15.9486,-6.21615 16.1348,-8.25 C16.321,-10.2839 16.4141,-12.4466 16.4141,-14.7383 C16.4141,-16.944 16.321,-18.9779 16.1348,-20.8398 C15.9486,-22.7018 15.458,-24.3883 14.6631,-25.8994 C13.8682,-27.4105 12.6471,-28.166 11,-28.166 C9.33854,-28.166 8.10677,-27.4069 7.30469,-25.8887 C6.5026,-24.3704 6.00846,-22.6839 5.82227,-20.8291 C5.63607,-18.9743 5.54297,-16.944 5.54297,-14.7383 C5.54297,-13.1055 5.58236,-11.5658 5.66113,-10.1191 C5.73991,-8.67253 5.95117,-7.17936 6.29492,-5.63965 C6.63867,-4.09993 7.19368,-2.80371 7.95996,-1.75098 C8.72624,-0.698242 9.73958,-0.171875 11,-0.171875 "/>
</g>

<g fill="#d9d9d9" fill-opacity="1" stroke="none" transform="matrix(0.5,0,0,0.5,57.1738,268.78)"
font-family=".AppleSystemUIFont" font-size="13" font-weight="400" font-style="normal" 
>
<path vector-effect="none" fill-rule="evenodd" d="M11,0.966797 C7.40495,0.966797 4.95931,-0.512044 3.66309,-3.46973 C2.36686,-6.42741 1.71875,-9.94727 1.71875,-14.0293 C1.71875,-16.5788 1.9515,-18.9779 2.41699,-21.2266 C2.88249,-23.4753 3.80632,-25.3838 5.18848,-26.9521 C6.57064,-28.5205 8.50781,-29.3047 11,-29.3047 C12.9336,-29.3047 14.5163,-28.832 15.748,-27.8867 C16.9798,-26.9414 17.918,-25.7204 18.5625,-24.2236 C19.207,-22.7269 19.6475,-21.1227 19.8838,-19.4111 C20.1201,-17.6995 20.2383,-15.9056 20.2383,-14.0293 C20.2383,-11.5085 20.0055,-9.14876 19.54,-6.9502 C19.0745,-4.75163 18.1615,-2.88249 16.8008,-1.34277 C15.4401,0.19694 13.5065,0.966797 11,0.966797 M11,-0.171875 C12.6328,-0.171875 13.8503,-1.00977 14.6523,-2.68555 C15.4544,-4.36133 15.9486,-6.21615 16.1348,-8.25 C16.321,-10.2839 16.4141,-12.4466 16.4141,-14.7383 C16.4141,-16.944 16.321,-18.9779 16.1348,-20.8398 C15.9486,-22.7018 15.458,-24.3883 14.6631,-25.8994 C13.8682,-27.4105 12.6471,-28.166 11,-28.166 C9.33854,-28.166 8.10677,-27.4069 7.30469,-25.8887 C6.5026,-24.3704 6.00846,-22.6839 5.82227,-20.8291 C5.63607,-18.9743 5.54297,-16.944 5.54297,-14.7383 C5.54297,-13.1055 5.58236,-11.5658 5.66113,-10.1191 C5.73991,-8.67253 5.95117,-7.17936 6.29492,-5.63965 C6.63867,-4.09993 7.19368,-2.80371 7.95996,-1.75098 C8.72624,-0.698242 9.73958,-0.171875 11,-0.171875 "/>
</g>

<g fill="#d9d9d9" fill-opacity="1" stroke="none" transform="matrix(0.5,0,0,0.5,68.1738,268.78)"
font-family=".AppleSystemUIFont" font-size="13" font-weight="400" font-style="normal" 
>
<path vector-effect="none" fill-rule="evenodd" d="M3.69531,-2.42773 C3.69531,-3.08659 3.9388,-3.65234 4.42578,-4.125 C4.91276,-4.59766 5.47852,-4.83398 6.12305,-4.83398 C6.52409,-4.83398 6.91797,-4.72656 7.30469,-4.51172 C7.69141,-4.29688 7.99219,-3.99609 8.20703,-3.60938 C8.42188,-3.22266 8.5293,-2.82878 8.5293,-2.42773 C8.5293,-1.7832 8.29297,-1.21745 7.82031,-0.730469 C7.34766,-0.24349 6.7819,0 6.12305,0 C5.47852,0 4.91276,-0.24349 4.42578,-0.730469 C3.9388,-1.21745 3.69531,-1.7832 3.69531,-2.42773 "/>
</g>

<g fill="#d9d9d9" fill-opacity="1" stroke="none" transform="matrix(0.5,0,0,0.5,74.285,268.78)"
font-family=".AppleSystemUIFont" font-size="13" font-weight="400" font-style="normal" 
>
<path vector-effect="none" fill-rule="evenodd" d="M3.82422,-5.00586 C4.125,-4.14648 4.58691,-3.36589 5.20996,-2.66406 C5.83301,-1.96224 6.57064,-1.41439 7.42285,-1.02051 C8.27507,-0.626628 9.15951,-0.429688 10.0762,-0.429688 C12.196,-0.429688 13.6569,-1.25326 14.459,-2.90039 C15.2611,-4.54753 15.6621,-6.54557 15.6621,-8.89453 C15.6621,-9.91146 15.6442,-10.7673 15.6084,-11.4619 C15.5726,-12.1566 15.4759,-12.8262 15.3184,-13.4707 C15.0462,-14.502 14.57,-15.4043 13.8896,-16.1777 C13.2093,-16.9512 12.375,-17.3379 11.3867,-17.3379 C10.3984,-17.3379 9.5498,-17.1875 8.84082,-16.8867 C8.13184,-16.5859 7.55534,-16.235 7.11133,-15.834 C6.66732,-15.4329 6.27344,-15.0104 5.92969,-14.5664 C5.58594,-14.1224 5.37109,-13.8861 5.28516,-13.8574 L4.79102,-13.8574 C4.7194,-13.8574 4.62988,-13.904 4.52246,-13.9971 C4.41504,-14.0902 4.36133,-14.1797 4.36133,-14.2656 L4.36133,-28.9609 C4.36133,-29.0326 4.40788,-29.1077 4.50098,-29.1865 C4.59408,-29.2653 4.69076,-29.3047 4.79102,-29.3047 L4.91992,-29.3047 C6.89648,-28.3594 8.99479,-27.8867 11.2148,-27.8867 C13.3919,-27.8867 15.4902,-28.3594 17.5098,-29.3047 L17.6387,-29.3047 C17.7389,-29.3047 17.832,-29.2689 17.918,-29.1973 C18.0039,-29.1257 18.0469,-29.0469 18.0469,-28.9609 L18.0469,-28.5527 C18.0469,-28.4095 18.0182,-28.3379 17.9609,-28.3379 C16.9583,-27.0059 15.7015,-25.9674 14.1904,-25.2227 C12.6794,-24.4779 11.1146,-24.1055 9.49609,-24.1055 C8.32161,-24.1055 7.11849,-24.2702 5.88672,-24.5996 L5.88672,-16.2852 C6.86068,-17.0729 7.73079,-17.6351 8.49707,-17.9717 C9.26335,-18.3083 10.2409,-18.4766 11.4297,-18.4766 C13.0482,-18.4766 14.4984,-18.0111 15.7803,-17.0801 C17.0622,-16.1491 18.0469,-14.9352 18.7344,-13.4385 C19.4219,-11.9417 19.7656,-10.4128 19.7656,-8.85156 C19.7656,-7.08984 19.3324,-5.45703 18.4658,-3.95313 C17.5993,-2.44922 16.4212,-1.25326 14.9316,-0.365234 C13.4421,0.522786 11.8236,0.966797 10.0762,0.966797 C8.62956,0.966797 7.30111,0.594401 6.09082,-0.150391 C4.88053,-0.895182 3.92806,-1.89779 3.2334,-3.1582 C2.53874,-4.41862 2.19141,-5.75781 2.19141,-7.17578 C2.19141,-7.83464 2.40625,-8.37174 2.83594,-8.78711 C3.26563,-9.20247 3.80273,-9.41016 4.44727,-9.41016 C5.0918,-9.41016 5.63249,-9.19889 6.06934,-8.77637 C6.50618,-8.35384 6.72461,-7.82031 6.72461,-7.17578 C6.72461,-6.54557 6.50618,-6.01204 6.06934,-5.5752 C5.63249,-5.13835 5.0918,-4.91992 4.44727,-4.91992 C4.34701,-4.91992 4.23242,-4.93066 4.10352,-4.95215 C3.97461,-4.97363 3.88151,-4.99154 3.82422,-5.00586 "/>
</g>

<g fill="#d9d9d9" fill-opacity="1" stroke="none" transform="matrix(0.5,0,0,0.5,74.285,153.78)"
font-family=".AppleSystemUIFont" font-size="13" font-weight="400" font-style="normal" 
>
<path vector-effect="none" fill-rule="evenodd" d="M4.08203,0 L4.08203,-1.54688 C7.7487,-1.54688 9.58203,-2.01237 9.58203,-2.94336 L9.58203,-26.0391 C8.0638,-25.3086 6.14453,-24.9434 3.82422,-24.9434 L3.82422,-26.4902 C7.41927,-26.4902 10.1335,-27.4284 11.9668,-29.3047 L12.5898,-29.3047 C12.6901,-29.3047 12.7868,-29.2653 12.8799,-29.1865 C12.973,-29.1077 13.0195,-29.0182 13.0195,-28.918 L13.0195,-2.94336 C13.0195,-2.01237 14.8529,-1.54688 18.5195,-1.54688 L18.5195,0 L4.08203,0"/>
</g>

<g fill="#d9d9d9" fill-opacity="1" stroke="none" transform="matrix(0.5,0,0,0.5,57.1738,38.7799)"
font-family=".AppleSystemUIFont" font-size="13" font-weight="400" font-style="normal" 
>
<path vector-effect="none" fill-rule="evenodd" d="M4.08203,0 L4.08203,-1.54688 C7.7487,-1.54688 9.58203,-2.01237 9.58203,-2.94336 L9.58203,-26.0391 C8.0638,-25.3086 6.14453,-24.9434 3.82422,-24.9434 L3.82422,-26.4902 C7.41927,-26.4902 10.1335,-27.4284 11.9668,-29.3047 L12.5898,-29.3047 C12.6901,-29.3047 12.7868,-29.2653 12.8799,-29.1865 C12.973,-29.1077 13.0195,-29.0182 13.0195,-28.918 L13.0195,-2.94336 C13.0195,-2.01237 14.8529,-1.54688 18.5195,-1.54688 L18.5195,0 L4.08203,0"/>
</g>

<g fill="#d9d9d9" fill-opacity="1" stroke="none" transform="matrix(0.5,0,0,0.5,68.1738,38.7799)"
font-family=".AppleSystemUIFont" font-size="13" font-weight="400" font-style="normal" 
>
<path vector-effect="none" fill-rule="evenodd" d="M3.69531,-2.42773 C3.69531,-3.08659 3.9388,-3.65234 4.42578,-4.125 C4.91276,-4.59766 5.47852,-4.83398 6.12305,-4.83398 C6.52409,-4.83398 6.91797,-4.72656 7.30469,-4.51172 C7.69141,-4.29688 7.99219,-3.99609 8.20703,-3.60938 C8.42188,-3.22266 8.5293,-2.82878 8.5293,-2.42773 C8.5293,-1.7832 8.29297,-1.21745 7.82031,-0.730469 C7.34766,-0.24349 6.7819,0 6.12305,0 C5.47852,0 4.91276,-0.24349 4.42578,-0.730469 C3.9388,-1.21745 3.69531,-1.7832 3.69531,-2.42773 "/>
</g>

<g fill="#d9d9d9" fill-opacity="1" stroke="none" transform="matrix(0.5,0,0,0.5,74.285,38.7799)"
font-family=".AppleSystemUIFont" font-size="13" font-weight="400" font-style="normal" 
>
<path vector-effect="none" fill-rule="evenodd" d="M3.82422,-5.00586 C4.125,-4.14648 4.58691,-3.36589 5.20996,-2.66406 C5.83301,-1.96224 6.57064,-1.41439 7.42285,-1.02051 C8.27507,-0.626628 9.15951,-0.429688 10.0762,-0.429688 C12.196,-0.429688 13.6569,-1.25326 14.459,-2.90039 C15.2611,-4.54753 15.6621,-6.54557 15.6621,-8.89453 C15.6621,-9.91146 15.6442,-10.7673 15.6084,-11.4619 C15.5726,-12.1566 15.4759,-12.8262 15.3184,-13.4707 C15.0462,-14.502 14.57,-15.4043 13.8896,-16.1777 C13.2093,-16.9512 12.375,-17.3379 11.3867,-17.3379 C10.3984,-17.3379 9.5498,-17.1875 8.84082,-16.8867 C8.13184,-16.5859 7.55534,-16.235 7.11133,-15.834 C6.66732,-15.4329 6.27344,-15.0104 5.92969,-14.5664 C5.58594,-14.1224 5.37109,-13.8861 5.28516,-13.8574 L4.79102,-13.8574 C4.7194,-13.8574 4.62988,-13.904 4.52246,-13.9971 C4.41504,-14.0902 4.36133,-14.1797 4.36133,-14.2656 L4.36133,-28.9609 C4.36133,-29.0326 4.40788,-29.1077 4.50098,-29.1865 C4.59408,-29.2653 4.69076,-29.3047 4.79102,-29.3047 L4.91992,-29.3047 C6.89648,-28.3594 8.99479,-27.8867 11.2148,-27.8867 C13.3919,-27.8867 15.4902,-28.3594 17.5098,-29.3047 L17.6387,-29.3047 C17.7389,-29.3047 17.832,-29.2689 17.918,-29.1973 C18.0039,-29.1257 18.0469,-29.0469 18.0469,-28.9609 L18.0469,-28.5527 C18.0469,-28.4095 18.0182,-28.3379 17.9609,-28.3379 C16.9583,-27.0059 15.7015,-25.9674 14.1904,-25.2227 C12.6794,-24.4779 11.1146,-24.1055 9.49609,-24.1055 C8.32161,-24.1055 7.11849,-24.2702 5.88672,-24.5996 L5.88672,-16.2852 C6.86068,-17.0729 7.73079,-17.6351 8.49707,-17.9717 C9.26335,-18.3083 10.2409,-18.4766 11.4297,-18.4766 C13.0482,-18.4766 14.4984,-18.0111 15.7803,-17.0801 C17.0622,-16.1491 18.0469,-14.9352 18.7344,-13.4385 C19.4219,-11.9417 19.7656,-10.4128 19.7656,-8.85156 C19.7656,-7.08984 19.3324,-5.45703 18.4658,-3.95313 C17.5993,-2.44922 16.4212,-1.25326 14.9316,-0.365234 C13.4421,0.522786 11.8236,0.966797 10.0762,0.966797 C8.62956,0.966797 7.30111,0.594401 6.09082,-0.150391 C4.88053,-0.895182 3.92806,-1.89779 3.2334,-3.1582 C2.53874,-4.41862 2.19141,-5.75781 2.19141,-7.17578 C2.19141,-7.83464 2.40625,-8.37174 2.83594,-8.78711 C3.26563,-9.20247 3.80273,-9.41016 4.44727,-9.41016 C5.0918,-9.41016 5.63249,-9.19889 6.06934,-8.77637 C6.50618,-8.35384 6.72461,-7.82031 6.72461,-7.17578 C6.72461,-6.54557 6.50618,-6.01204 6.06934,-5.5752 C5.63249,-5.13835 5.0918,-4.91992 4.44727,-4.91992 C4.34701,-4.91992 4.23242,-4.93066 4.10352,-4.95215 C3.97461,-4.97363 3.88151,-4.99154 3.82422,-5.00586 "/>
</g>

<g fill="#ffffff" fill-opacity="1" stroke="none" transform="matrix(0,-0.5,0.5,0,41.6745,231.629)"
font-family=".AppleSystemUIFont" font-size="13" font-weight="400" font-style="normal" 
>
<path vector-effect="none" fill-rule="evenodd" d="M11.0391,-5.13281 C12.1953,-3.72656 13.6055,-2.625 15.2695,-1.82813 C16.9336,-1.03125 18.6719,-0.632813 20.4844,-0.632813 C22.2656,-0.632813 23.8828,-1.08594 25.3359,-1.99219 C26.7891,-2.89844 27.5156,-4.1875 27.5156,-5.85938 L27.5156,-9.89063 C27.5156,-10.9063 25.5156,-11.4141 21.5156,-11.4141 L21.5156,-13.1016 L35.2734,-13.1016 L35.2734,-11.4141 C34.2578,-11.4141 33.4531,-11.3281 32.8594,-11.1563 C32.2656,-10.9844 31.9688,-10.5625 31.9688,-9.89063 L31.9688,-0.421875 C31.9688,-0.3125 31.9258,-0.214844 31.8398,-0.128906 C31.7539,-0.0429688 31.6563,0 31.5469,0 C31.25,0 30.7539,-0.351563 30.0586,-1.05469 C29.3633,-1.75781 28.8125,-2.38281 28.4063,-2.92969 C27.625,-1.58594 26.3984,-0.585938 24.7266,0.0703125 C23.0547,0.726563 21.3047,1.05469 19.4766,1.05469 C16.3672,1.05469 13.5352,0.253906 10.9805,-1.34766 C8.42578,-2.94922 6.40625,-5.08984 4.92188,-7.76953 C3.4375,-10.4492 2.69531,-13.3281 2.69531,-16.4063 C2.69531,-18.6719 3.125,-20.875 3.98438,-23.0156 C4.84375,-25.1563 6.04297,-27.0391 7.58203,-28.6641 C9.12109,-30.2891 10.9141,-31.5586 12.9609,-32.4727 C15.0078,-33.3867 17.1797,-33.8438 19.4766,-33.8438 C21.1328,-33.8438 22.6992,-33.4883 24.1758,-32.7773 C25.6523,-32.0664 26.9688,-31.0625 28.125,-29.7656 L30.9141,-33.7031 C31.1016,-33.7969 31.2109,-33.8438 31.2422,-33.8438 L31.5938,-33.8438 C31.6875,-33.8438 31.7734,-33.8047 31.8516,-33.7266 C31.9297,-33.6484 31.9688,-33.5547 31.9688,-33.4453 L31.9688,-20.4844 C31.9688,-20.2031 31.8438,-20.0625 31.5938,-20.0625 L30.7266,-20.0625 C30.4297,-20.0625 30.2813,-20.2031 30.2813,-20.4844 C30.2813,-21.4063 30.0977,-22.4375 29.7305,-23.5781 C29.3633,-24.7188 28.8945,-25.8008 28.3242,-26.8242 C27.7539,-27.8477 27.0938,-28.75 26.3438,-29.5313 C24.5469,-31.2813 22.4844,-32.1563 20.1563,-32.1563 C18.375,-32.1563 16.6719,-31.7578 15.0469,-30.9609 C13.4219,-30.1641 12.0547,-29.0625 10.9453,-27.6563 C9.77344,-26.1563 8.96094,-24.4492 8.50781,-22.5352 C8.05469,-20.6211 7.82813,-18.5781 7.82813,-16.4063 C7.82813,-11.5 8.89844,-7.74219 11.0391,-5.13281 "/>
</g>

<g fill="#ffffff" fill-opacity="1" stroke="none" transform="matrix(0,-0.5,0.5,0,41.6745,212.638)"
font-family=".AppleSystemUIFont" font-size="13" font-weight="400" font-style="normal" 
>
<path vector-effect="none" fill-rule="evenodd" d="M1.92188,-4.71094 C1.92188,-6.61719 2.67188,-8.16797 4.17188,-9.36328 C5.67188,-10.5586 7.47266,-11.4023 9.57422,-11.8945 C11.6758,-12.3867 13.6719,-12.6328 15.5625,-12.6328 L15.5625,-14.6016 C15.5625,-15.5234 15.3594,-16.418 14.9531,-17.2852 C14.5469,-18.1523 13.9609,-18.8633 13.1953,-19.418 C12.4297,-19.9727 11.5859,-20.25 10.6641,-20.25 C8.53906,-20.25 6.92188,-19.7734 5.8125,-18.8203 C6.42188,-18.8203 6.92578,-18.5898 7.32422,-18.1289 C7.72266,-17.668 7.92188,-17.1328 7.92188,-16.5234 C7.92188,-15.8828 7.69531,-15.3359 7.24219,-14.8828 C6.78906,-14.4297 6.25,-14.2031 5.625,-14.2031 C4.98438,-14.2031 4.4375,-14.4297 3.98438,-14.8828 C3.53125,-15.3359 3.30469,-15.8828 3.30469,-16.5234 C3.30469,-18.2109 4.07031,-19.4648 5.60156,-20.2852 C7.13281,-21.1055 8.82031,-21.5156 10.6641,-21.5156 C11.9609,-21.5156 13.2656,-21.2383 14.5781,-20.6836 C15.8906,-20.1289 16.9648,-19.3359 17.8008,-18.3047 C18.6367,-17.2734 19.0547,-16.0703 19.0547,-14.6953 L19.0547,-3.89063 C19.0547,-3.26563 19.1875,-2.69141 19.4531,-2.16797 C19.7188,-1.64453 20.1328,-1.38281 20.6953,-1.38281 C21.2266,-1.38281 21.6211,-1.64844 21.8789,-2.17969 C22.1367,-2.71094 22.2656,-3.28125 22.2656,-3.89063 L22.2656,-6.96094 L23.6719,-6.96094 L23.6719,-3.89063 C23.6719,-3.17188 23.4844,-2.48828 23.1094,-1.83984 C22.7344,-1.19141 22.2305,-0.675781 21.5977,-0.292969 C20.9648,0.0898438 20.2813,0.28125 19.5469,0.28125 C18.6094,0.28125 17.8008,-0.0820313 17.1211,-0.808594 C16.4414,-1.53516 16.0625,-2.39844 15.9844,-3.39844 C15.3906,-2.19531 14.5156,-1.23828 13.3594,-0.527344 C12.2031,0.183594 10.9688,0.539063 9.65625,0.539063 C8.4375,0.539063 7.23828,0.359375 6.05859,0 C4.87891,-0.359375 3.89453,-0.925781 3.10547,-1.69922 C2.31641,-2.47266 1.92188,-3.47656 1.92188,-4.71094 M5.8125,-4.71094 C5.8125,-3.58594 6.22656,-2.64063 7.05469,-1.875 C7.88281,-1.10938 8.85938,-0.726563 9.98438,-0.726563 C11.0156,-0.726563 11.9531,-0.984375 12.7969,-1.5 C13.6406,-2.01563 14.3125,-2.71875 14.8125,-3.60938 C15.3125,-4.5 15.5625,-5.4375 15.5625,-6.42188 L15.5625,-11.4141 C14.1094,-11.4141 12.6211,-11.1758 11.0977,-10.6992 C9.57422,-10.2227 8.3125,-9.47656 7.3125,-8.46094 C6.3125,-7.44531 5.8125,-6.19531 5.8125,-4.71094 "/>
</g>

<g fill="#ffffff" fill-opacity="1" stroke="none" transform="matrix(0,-0.5,0.5,0,41.6745,200.538)"
font-family=".AppleSystemUIFont" font-size="13" font-weight="400" font-style="normal" 
>
<path vector-effect="none" fill-rule="evenodd" d="M1.47656,0 L1.47656,-1.6875 C2.57031,-1.6875 3.46875,-1.77344 4.17188,-1.94531 C4.875,-2.11719 5.22656,-2.53906 5.22656,-3.21094 L5.22656,-16.3125 C5.22656,-17.5469 4.98828,-18.3047 4.51172,-18.5859 C4.03516,-18.8672 3.09375,-19.0078 1.6875,-19.0078 L1.6875,-20.6953 L8.60156,-21.2109 L8.60156,-3.21094 C8.60156,-2.53906 8.90625,-2.11719 9.51563,-1.94531 C10.125,-1.77344 10.9375,-1.6875 11.9531,-1.6875 L11.9531,0 L1.47656,0 M3.51563,-29.4609 C3.51563,-30.1641 3.78125,-30.7813 4.3125,-31.3125 C4.84375,-31.8438 5.45313,-32.1094 6.14063,-32.1094 C6.59375,-32.1094 7.03125,-31.9922 7.45313,-31.7578 C7.875,-31.5234 8.20313,-31.1953 8.4375,-30.7734 C8.67188,-30.3516 8.78906,-29.9141 8.78906,-29.4609 C8.78906,-28.7734 8.52344,-28.1641 7.99219,-27.6328 C7.46094,-27.1016 6.84375,-26.8359 6.14063,-26.8359 C5.45313,-26.8359 4.84375,-27.1016 4.3125,-27.6328 C3.78125,-28.1641 3.51563,-28.7734 3.51563,-29.4609 "/>
</g>

<g fill="#ffffff" fill-opacity="1" stroke="none" transform="matrix(0,-0.5,0.5,0,41.6745,193.816)"
font-family=".AppleSystemUIFont" font-size="13" font-weight="400" font-style="normal" 
>
<path vector-effect="none" fill-rule="evenodd" d="M1.42969,0 L1.42969,-1.6875 C2.52344,-1.6875 3.42188,-1.77344 4.125,-1.94531 C4.82813,-2.11719 5.17969,-2.53906 5.17969,-3.21094 L5.17969,-16.3125 C5.17969,-17.1719 5.05078,-17.793 4.79297,-18.1758 C4.53516,-18.5586 4.16406,-18.793 3.67969,-18.8789 C3.19531,-18.9648 2.44531,-19.0078 1.42969,-19.0078 L1.42969,-20.6953 L8.39063,-21.2109 L8.39063,-16.5234 C9.03125,-17.8984 9.98047,-19.0234 11.2383,-19.8984 C12.4961,-20.7734 13.8672,-21.2109 15.3516,-21.2109 C17.5703,-21.2109 19.2383,-20.6797 20.3555,-19.6172 C21.4727,-18.5547 22.0313,-16.9297 22.0313,-14.7422 L22.0313,-3.21094 C22.0313,-2.53906 22.3828,-2.11719 23.0859,-1.94531 C23.7891,-1.77344 24.6875,-1.6875 25.7813,-1.6875 L25.7813,0 L14.7891,0 L14.7891,-1.6875 C15.8828,-1.6875 16.7813,-1.77344 17.4844,-1.94531 C18.1875,-2.11719 18.5391,-2.53906 18.5391,-3.21094 L18.5391,-14.6016 C18.5391,-16.1641 18.3125,-17.4492 17.8594,-18.457 C17.4063,-19.4648 16.4766,-19.9688 15.0703,-19.9688 C13.2109,-19.9688 11.6836,-19.2266 10.4883,-17.7422 C9.29297,-16.2578 8.69531,-14.5703 8.69531,-12.6797 L8.69531,-3.21094 C8.69531,-2.53906 9.04688,-2.11719 9.75,-1.94531 C10.4531,-1.77344 11.3438,-1.6875 12.4219,-1.6875 L12.4219,0 L1.42969,0"/>
</g>

<g fill="none" stroke="#03dac5" stroke-opacity="1" stroke-width="3" stroke-linecap="butt" stroke-linejoin="round" transform="matrix(0.5,0,0,0.5,0,0)"
font-family=".AppleSystemUIFont" font-size="13" font-weight="400" font-style="normal" 
>
<polyline fill="none" vector-effect="none" points="195,297.023 282.524,297.092 302.283,297.126 322.043,297.172 341.802,297.235 361.561,297.321 381.32,297.439 401.079,297.6 420.838,297.82 440.597,298.121 460.356,298.531 480.115,299.089 485.75,299.283 499.874,299.85 519.633,300.884 539.392,302.287 559.151,304.184 578.91,306.741 598.669,310.168 618.428,314.73 638.187,320.748 657.946,328.593 677.705,338.667 697.464,351.359 717.223,366.982 736.982,385.69 756.741,407.398 776.5,431.731 796.259,458.038 816.018,485.469 835.777,513.102 855.536,540.077 875.295,565.694 895.054,589.466 914.813,611.11 934.572,630.521 954.331,647.726 974.09,662.838 993.849,676.021 1013.61,687.46 1033.37,697.35 1053.13,705.875 1067.25,711.228 1072.89,713.208 1092.64,719.505 1112.4,724.908 1132.16,729.539 1151.92,733.505 1171.68,736.901 1191.44,739.808 1211.2,742.296 1230.96,744.424 1250.72,746.245 1270.48,747.802 1358,752.4 " />
</g>

<g fill="none" stroke="#bb86fc" stroke-opacity="1" stroke-width="3" stroke-linecap="butt" stroke-linejoin="round" transform="matrix(0.5,0,0,0.5,0,0)"
font-family=".AppleSystemUIFont" font-size="13" font-weight="400" font-style="normal" 
>
<polyline fill="none" vector-effect="none" points="195,297 282.524,297 302.283,297 322.043,297 341.802,297 361.561,297 381.32,297.001 401.079,297.002 420.838,297.003 440.597,297.005 460.356,297.01 480.115,297.019 485.75,297.023 499.874,297.036 519.633,297.067 539.392,297.126 559.151,297.235 578.91,297.439 598.669,297.82 618.428,298.531 638.187,299.85 657.946,302.287 677.705,306.741 697.464,314.73 717.223,328.593 736.982,351.359 756.741,385.69 776.5,431.731 796.259,485.469 816.018,540.077 835.777,589.466 855.536,630.521 875.295,662.838 895.054,687.46 914.813,705.875 934.572,719.505 954.331,729.539 974.09,736.901 993.849,742.296 1013.61,746.245 1033.37,749.134 1053.13,751.247 1067.25,752.4 1072.89,752.793 1092.64,753.923 1112.4,754.75 1132.16,755.355 1151.92,755.797 1171.68,756.12 1191.44,756.357 1211.2,756.529 1230.96,756.656 1250.72,756.748 1270.48,756.816 1358,756.954 " />
</g>

<g fill="#333333" fill-opacity="1" stroke="none" transform="matrix(5e-05,0,0,5e-05,0,0)"
font-family=".AppleSystemUIFont" font-size="13" font-weight="400" font-style="normal" 
>
<path vector-effect="none" fill-rule="evenodd" d="M1.134e+07,830000 L1.134e+07,1.86e+06 L1.342e+07,1.86e+06 L1.342e+07,830000 L1.134e+07,830000"/>
</g>

<g fill="#03dac5" fill-opacity="1" stroke="#03dac5" stroke-opacity="1" stroke-width="3" stroke-linecap="butt" stroke-linejoin="round" transform="matrix(0.5,0,0,0.5,0,0)"
font-family=".AppleSystemUIFont" font-size="13" font-weight="400" font-style="normal" 
>
<polyline fill="none" vector-effect="none" points="1140.01,110.066 1200.09,110.066 " />
</g>

<g fill="#bb86fc" fill-opacity="1" stroke="#bb86fc" stroke-opacity="1" stroke-width="3" stroke-linecap="butt" stroke-linejoin="round" transform="matrix(0.5,0,0,0.5,0,0)"
font-family=".AppleSystemUIFont" font-size="13" font-weight="400" font-style="normal" 
>
<polyline fill="none" vector-effect="none" points="1140.01,158.934 1200.09,158.934 " />
</g>

<g fill="#d9d9d9" fill-opacity="1" stroke="none" transform="matrix(0.5,0,0,0.5,602.3,59.7848)"
font-family=".AppleSystemUIFont" font-size="13" font-weight="400" font-style="normal" 
>
<path vector-effect="none" fill-rule="evenodd" d="M15.1772,0.856934 C12.7017,0.856934 10.4768,0.199951 8.50269,-1.11401 C6.52856,-2.42798 4.98291,-4.17358 3.86572,-6.35083 C2.74854,-8.52808 2.18994,-10.8164 2.18994,-13.2158 C2.18994,-14.9932 2.5105,-16.7515 3.15161,-18.4907 C3.79272,-20.23 4.68774,-21.7725 5.83667,-23.1182 C6.9856,-24.4639 8.36621,-25.5303 9.97852,-26.3174 C11.5908,-27.1045 13.3237,-27.498 15.1772,-27.498 C17.0181,-27.498 18.7478,-27.1013 20.3665,-26.3079 C21.9851,-25.5144 23.3721,-24.4385 24.5273,-23.0801 C25.6826,-21.7217 26.5713,-20.1982 27.1934,-18.5098 C27.8154,-16.8213 28.1265,-15.0566 28.1265,-13.2158 C28.1265,-10.8164 27.5679,-8.52808 26.4507,-6.35083 C25.3335,-4.17358 23.7847,-2.42798 21.8042,-1.11401 C19.8237,0.199951 17.6147,0.856934 15.1772,0.856934 M8.70264,-4.2085 C9.46436,-3.01514 10.4038,-2.06616 11.521,-1.36157 C12.6382,-0.656982 13.8569,-0.304688 15.1772,-0.304688 C16.0278,-0.304688 16.8625,-0.476074 17.6814,-0.818848 C18.5002,-1.16162 19.2429,-1.63135 19.9094,-2.22803 C20.5759,-2.82471 21.144,-3.48486 21.6138,-4.2085 C23.1626,-6.54443 23.937,-9.75635 23.937,-13.8442 C23.937,-17.5894 23.1626,-20.5537 21.6138,-22.7373 C20.8521,-23.8291 19.9031,-24.7051 18.7668,-25.3652 C17.6306,-26.0254 16.4341,-26.3555 15.1772,-26.3555 C13.9077,-26.3555 12.7017,-26.0254 11.5591,-25.3652 C10.4165,-24.7051 9.46436,-23.8291 8.70264,-22.7373 C8.09326,-21.8867 7.62036,-20.9822 7.28394,-20.0237 C6.94751,-19.0652 6.70947,-18.0718 6.56982,-17.0435 C6.43018,-16.0151 6.36035,-14.9487 6.36035,-13.8442 C6.36035,-12.6636 6.427,-11.5115 6.5603,-10.3879 C6.6936,-9.2644 6.94116,-8.16309 7.30298,-7.08398 C7.66479,-6.00488 8.13135,-5.04639 8.70264,-4.2085 "/>
</g>

<g fill="#d9d9d9" fill-opacity="1" stroke="none" transform="matrix(0.5,0,0,0.5,617.7,59.7848)"
font-family=".AppleSystemUIFont" font-size="13" font-weight="400" font-style="normal" 
>
<path vector-effect="none" fill-rule="evenodd" d="M1.00928,0 L1.00928,-1.37109 C1.89795,-1.37109 2.62793,-1.44092 3.19922,-1.58057 C3.77051,-1.72021 4.05615,-2.06299 4.05615,-2.60889 L4.05615,-13.2539 C4.05615,-13.9521 3.95142,-14.4568 3.74194,-14.7678 C3.53247,-15.0789 3.23096,-15.2693 2.8374,-15.3391 C2.44385,-15.4089 1.83447,-15.4438 1.00928,-15.4438 L1.00928,-16.8149 L6.58887,-17.2339 L6.58887,-13.4253 C7.00781,-14.5552 7.60449,-15.4724 8.37891,-16.177 C9.15332,-16.8816 10.0928,-17.2339 11.1973,-17.2339 C11.9717,-17.2339 12.6636,-17.0054 13.2729,-16.5483 C13.8823,-16.0913 14.187,-15.4883 14.187,-14.7393 C14.187,-14.2695 14.0188,-13.8601 13.6824,-13.511 C13.3459,-13.1619 12.9302,-12.9873 12.4351,-12.9873 C11.9526,-12.9873 11.54,-13.1587 11.1973,-13.5015 C10.8545,-13.8442 10.6831,-14.2568 10.6831,-14.7393 C10.6831,-15.4375 10.9307,-15.9326 11.4258,-16.2246 L11.1973,-16.2246 C10.1436,-16.2246 9.28345,-15.8438 8.61694,-15.082 C7.95044,-14.3203 7.47754,-13.3745 7.19824,-12.2446 C6.91895,-11.1147 6.7793,-10.0356 6.7793,-9.00732 L6.7793,-2.60889 C6.7793,-1.78369 8.04248,-1.37109 10.5688,-1.37109 L10.5688,0 L1.00928,0"/>
</g>

<g fill="#d9d9d9" fill-opacity="1" stroke="none" transform="matrix(0.5,0,0,0.5,625.455,59.7848)"
font-family=".AppleSystemUIFont" font-size="13" font-weight="400" font-style="normal" 
>
<path vector-effect="none" fill-rule="evenodd" d="M9.52148,0.437988 C7.98535,0.437988 6.58252,0.0222168 5.31299,-0.809326 C4.04346,-1.64087 3.0564,-2.73584 2.35181,-4.09424 C1.64722,-5.45264 1.29492,-6.89355 1.29492,-8.41699 C1.29492,-9.99121 1.67896,-11.4543 2.44702,-12.8064 C3.21509,-14.1584 4.25928,-15.2344 5.57959,-16.0342 C6.8999,-16.834 8.35352,-17.2339 9.94043,-17.2339 C10.8926,-17.2339 11.7939,-17.0339 12.6445,-16.634 C13.4951,-16.2341 14.2314,-15.6787 14.8535,-14.9678 L14.8535,-23.0801 C14.8535,-23.7783 14.7488,-24.283 14.5393,-24.594 C14.3298,-24.905 14.0315,-25.0955 13.6443,-25.1653 C13.2571,-25.2351 12.6509,-25.27 11.8257,-25.27 L11.8257,-26.6411 L17.5957,-27.0601 L17.5957,-3.54199 C17.5957,-2.85645 17.7004,-2.35815 17.9099,-2.04712 C18.1194,-1.73608 18.4177,-1.54565 18.8049,-1.47583 C19.1921,-1.40601 19.7983,-1.37109 20.6235,-1.37109 L20.6235,0 L14.7393,0.437988 L14.7393,-2.01855 C14.0664,-1.24414 13.2666,-0.641113 12.3398,-0.209473 C11.4131,0.222168 10.4736,0.437988 9.52148,0.437988 M5.5415,-3.38965 C5.98584,-2.53906 6.57935,-1.85986 7.32202,-1.35205 C8.0647,-0.844238 8.87402,-0.590332 9.75,-0.590332 C10.8291,-0.590332 11.8193,-0.901367 12.7207,-1.52344 C13.6221,-2.14551 14.2949,-2.95166 14.7393,-3.94189 L14.7393,-13.292 C14.4346,-13.8633 14.0505,-14.3743 13.5872,-14.825 C13.1238,-15.2756 12.6033,-15.6216 12.0256,-15.8628 C11.448,-16.104 10.8354,-16.2246 10.188,-16.2246 C8.82959,-16.2246 7.73779,-15.8406 6.9126,-15.0725 C6.0874,-14.3044 5.50977,-13.3237 5.17969,-12.1304 C4.84961,-10.937 4.68457,-9.68652 4.68457,-8.37891 C4.68457,-7.33789 4.73853,-6.43018 4.84644,-5.65576 C4.95435,-4.88135 5.18604,-4.12598 5.5415,-3.38965 "/>
</g>

<g fill="#d9d9d9" fill-opacity="1" stroke="none" transform="matrix(0.5,0,0,0.5,636.455,59.7848)"
font-family=".AppleSystemUIFont" font-size="13" font-weight="400" font-style="normal" 
>
<path vector-effect="none" fill-rule="evenodd" d="M9.71191,0.437988 C8.125,0.437988 6.66821,0.0222168 5.34155,-0.809326 C4.01489,-1.64087 2.97388,-2.75171 2.21851,-4.14185 C1.46313,-5.53198 1.08545,-7.00146 1.08545,-8.55029 C1.08545,-10.0737 1.4314,-11.521 2.12329,-12.8921 C2.81519,-14.2632 3.78003,-15.3708 5.01782,-16.2151 C6.25562,-17.0593 7.63623,-17.4814 9.15967,-17.4814 C10.353,-17.4814 11.3909,-17.2815 12.2732,-16.8816 C13.1555,-16.4817 13.8823,-15.9263 14.4536,-15.2153 C15.0249,-14.5044 15.4565,-13.6665 15.7485,-12.7017 C16.0405,-11.7368 16.1865,-10.6768 16.1865,-9.52148 C16.1865,-9.17871 16.0532,-9.00732 15.7866,-9.00732 L4.49414,-9.00732 L4.49414,-8.58838 C4.49414,-6.43018 4.92896,-4.57666 5.79858,-3.02783 C6.66821,-1.479 8.08691,-0.70459 10.0547,-0.70459 C10.8545,-0.70459 11.594,-0.882324 12.2732,-1.23779 C12.9524,-1.59326 13.5427,-2.08838 14.0442,-2.72314 C14.5457,-3.35791 14.8853,-4.03711 15.063,-4.76074 C15.0884,-4.84961 15.136,-4.92896 15.2058,-4.99878 C15.2756,-5.0686 15.355,-5.10352 15.4438,-5.10352 L15.7866,-5.10352 C16.0532,-5.10352 16.1865,-4.93848 16.1865,-4.6084 C15.8184,-3.13574 15.0249,-1.92651 13.8062,-0.980713 C12.5874,-0.0349121 11.2227,0.437988 9.71191,0.437988 M4.53223,-9.97852 L13.4253,-9.97852 C13.4253,-10.9561 13.2888,-11.9463 13.0159,-12.9492 C12.7429,-13.9521 12.2891,-14.7869 11.6543,-15.4534 C11.0195,-16.1199 10.188,-16.4531 9.15967,-16.4531 C7.68701,-16.4531 6.54761,-15.7644 5.74146,-14.387 C4.9353,-13.0095 4.53223,-11.54 4.53223,-9.97852 "/>
</g>

<g fill="#d9d9d9" fill-opacity="1" stroke="none" transform="matrix(0.5,0,0,0.5,645.255,59.7848)"
font-family=".AppleSystemUIFont" font-size="13" font-weight="400" font-style="normal" 
>
<path vector-effect="none" fill-rule="evenodd" d="M1.00928,0 L1.00928,-1.37109 C1.89795,-1.37109 2.62793,-1.44092 3.19922,-1.58057 C3.77051,-1.72021 4.05615,-2.06299 4.05615,-2.60889 L4.05615,-13.2539 C4.05615,-13.9521 3.95142,-14.4568 3.74194,-14.7678 C3.53247,-15.0789 3.23096,-15.2693 2.8374,-15.3391 C2.44385,-15.4089 1.83447,-15.4438 1.00928,-15.4438 L1.00928,-16.8149 L6.58887,-17.2339 L6.58887,-13.4253 C7.00781,-14.5552 7.60449,-15.4724 8.37891,-16.177 C9.15332,-16.8816 10.0928,-17.2339 11.1973,-17.2339 C11.9717,-17.2339 12.6636,-17.0054 13.2729,-16.5483 C13.8823,-16.0913 14.187,-15.4883 14.187,-14.7393 C14.187,-14.2695 14.0188,-13.8601 13.6824,-13.511 C13.3459,-13.1619 12.9302,-12.9873 12.4351,-12.9873 C11.9526,-12.9873 11.54,-13.1587 11.1973,-13.5015 C10.8545,-13.8442 10.6831,-14.2568 10.6831,-14.7393 C10.6831,-15.4375 10.9307,-15.9326 11.4258,-16.2246 L11.1973,-16.2246 C10.1436,-16.2246 9.28345,-15.8438 8.61694,-15.082 C7.95044,-14.3203 7.47754,-13.3745 7.19824,-12.2446 C6.91895,-11.1147 6.7793,-10.0356 6.7793,-9.00732 L6.7793,-2.60889 C6.7793,-1.78369 8.04248,-1.37109 10.5688,-1.37109 L10.5688,0 L1.00928,0"/>
</g>

<g fill="#d9d9d9" fill-opacity="1" stroke="none" transform="matrix(0.5,0,0,0.5,659.61,59.7848)"
font-family=".AppleSystemUIFont" font-size="13" font-weight="400" font-style="normal" 
>
<path vector-effect="none" fill-rule="evenodd" d="M3.61816,0 L3.61816,-1.37109 C6.86816,-1.37109 8.49316,-1.78369 8.49316,-2.60889 L8.49316,-23.0801 C7.14746,-22.4326 5.44629,-22.1089 3.38965,-22.1089 L3.38965,-23.48 C6.57617,-23.48 8.98193,-24.3115 10.6069,-25.9746 L11.1592,-25.9746 C11.248,-25.9746 11.3337,-25.9397 11.4163,-25.8699 C11.4988,-25.8 11.54,-25.7207 11.54,-25.6318 L11.54,-2.60889 C11.54,-1.78369 13.165,-1.37109 16.415,-1.37109 L16.415,0 L3.61816,0"/>
</g>

<g fill="#d9d9d9" fill-opacity="1" stroke="none" transform="matrix(0.5,0,0,0.5,602.3,84.2191)"
font-family=".AppleSystemUIFont" font-size="13" font-weight="400" font-style="normal" 
>
<path vector-effect="none" fill-rule="evenodd" d="M15.1772,0.856934 C12.7017,0.856934 10.4768,0.199951 8.50269,-1.11401 C6.52856,-2.42798 4.98291,-4.17358 3.86572,-6.35083 C2.74854,-8.52808 2.18994,-10.8164 2.18994,-13.2158 C2.18994,-14.9932 2.5105,-16.7515 3.15161,-18.4907 C3.79272,-20.23 4.68774,-21.7725 5.83667,-23.1182 C6.9856,-24.4639 8.36621,-25.5303 9.97852,-26.3174 C11.5908,-27.1045 13.3237,-27.498 15.1772,-27.498 C17.0181,-27.498 18.7478,-27.1013 20.3665,-26.3079 C21.9851,-25.5144 23.3721,-24.4385 24.5273,-23.0801 C25.6826,-21.7217 26.5713,-20.1982 27.1934,-18.5098 C27.8154,-16.8213 28.1265,-15.0566 28.1265,-13.2158 C28.1265,-10.8164 27.5679,-8.52808 26.4507,-6.35083 C25.3335,-4.17358 23.7847,-2.42798 21.8042,-1.11401 C19.8237,0.199951 17.6147,0.856934 15.1772,0.856934 M8.70264,-4.2085 C9.46436,-3.01514 10.4038,-2.06616 11.521,-1.36157 C12.6382,-0.656982 13.8569,-0.304688 15.1772,-0.304688 C16.0278,-0.304688 16.8625,-0.476074 17.6814,-0.818848 C18.5002,-1.16162 19.2429,-1.63135 19.9094,-2.22803 C20.5759,-2.82471 21.144,-3.48486 21.6138,-4.2085 C23.1626,-6.54443 23.937,-9.75635 23.937,-13.8442 C23.937,-17.5894 23.1626,-20.5537 21.6138,-22.7373 C20.8521,-23.8291 19.9031,-24.7051 18.7668,-25.3652 C17.6306,-26.0254 16.4341,-26.3555 15.1772,-26.3555 C13.9077,-26.3555 12.7017,-26.0254 11.5591,-25.3652 C10.4165,-24.7051 9.46436,-23.8291 8.70264,-22.7373 C8.09326,-21.8867 7.62036,-20.9822 7.28394,-20.0237 C6.94751,-19.0652 6.70947,-18.0718 6.56982,-17.0435 C6.43018,-16.0151 6.36035,-14.9487 6.36035,-13.8442 C6.36035,-12.6636 6.427,-11.5115 6.5603,-10.3879 C6.6936,-9.2644 6.94116,-8.16309 7.30298,-7.08398 C7.66479,-6.00488 8.13135,-5.04639 8.70264,-4.2085 "/>
</g>

<g fill="#d9d9d9" fill-opacity="1" stroke="none" transform="matrix(0.5,0,0,0.5,617.7,84.2191)"
font-family=".AppleSystemUIFont" font-size="13" font-weight="400" font-style="normal" 
>
<path vector-effect="none" fill-rule="evenodd" d="M1.00928,0 L1.00928,-1.37109 C1.89795,-1.37109 2.62793,-1.44092 3.19922,-1.58057 C3.77051,-1.72021 4.05615,-2.06299 4.05615,-2.60889 L4.05615,-13.2539 C4.05615,-13.9521 3.95142,-14.4568 3.74194,-14.7678 C3.53247,-15.0789 3.23096,-15.2693 2.8374,-15.3391 C2.44385,-15.4089 1.83447,-15.4438 1.00928,-15.4438 L1.00928,-16.8149 L6.58887,-17.2339 L6.58887,-13.4253 C7.00781,-14.5552 7.60449,-15.4724 8.37891,-16.177 C9.15332,-16.8816 10.0928,-17.2339 11.1973,-17.2339 C11.9717,-17.2339 12.6636,-17.0054 13.2729,-16.5483 C13.8823,-16.0913 14.187,-15.4883 14.187,-14.7393 C14.187,-14.2695 14.0188,-13.8601 13.6824,-13.511 C13.3459,-13.1619 12.9302,-12.9873 12.4351,-12.9873 C11.9526,-12.9873 11.54,-13.1587 11.1973,-13.5015 C10.8545,-13.8442 10.6831,-14.2568 10.6831,-14.7393 C10.6831,-15.4375 10.9307,-15.9326 11.4258,-16.2246 L11.1973,-16.2246 C10.1436,-16.2246 9.28345,-15.8438 8.61694,-15.082 C7.95044,-14.3203 7.47754,-13.3745 7.19824,-12.2446 C6.91895,-11.1147 6.7793,-10.0356 6.7793,-9.00732 L6.7793,-2.60889 C6.7793,-1.78369 8.04248,-1.37109 10.5688,-1.37109 L10.5688,0 L1.00928,0"/>
</g>

<g fill="#d9d9d9" fill-opacity="1" stroke="none" transform="matrix(0.5,0,0,0.5,625.455,84.2191)"
font-family=".AppleSystemUIFont" font-size="13" font-weight="400" font-style="normal" 
>
<path vector-effect="none" fill-rule="evenodd" d="M9.52148,0.437988 C7.98535,0.437988 6.58252,0.0222168 5.31299,-0.809326 C4.04346,-1.64087 3.0564,-2.73584 2.35181,-4.09424 C1.64722,-5.45264 1.29492,-6.89355 1.29492,-8.41699 C1.29492,-9.99121 1.67896,-11.4543 2.44702,-12.8064 C3.21509,-14.1584 4.25928,-15.2344 5.57959,-16.0342 C6.8999,-16.834 8.35352,-17.2339 9.94043,-17.2339 C10.8926,-17.2339 11.7939,-17.0339 12.6445,-16.634 C13.4951,-16.2341 14.2314,-15.6787 14.8535,-14.9678 L14.8535,-23.0801 C14.8535,-23.7783 14.7488,-24.283 14.5393,-24.594 C14.3298,-24.905 14.0315,-25.0955 13.6443,-25.1653 C13.2571,-25.2351 12.6509,-25.27 11.8257,-25.27 L11.8257,-26.6411 L17.5957,-27.0601 L17.5957,-3.54199 C17.5957,-2.85645 17.7004,-2.35815 17.9099,-2.04712 C18.1194,-1.73608 18.4177,-1.54565 18.8049,-1.47583 C19.1921,-1.40601 19.7983,-1.37109 20.6235,-1.37109 L20.6235,0 L14.7393,0.437988 L14.7393,-2.01855 C14.0664,-1.24414 13.2666,-0.641113 12.3398,-0.209473 C11.4131,0.222168 10.4736,0.437988 9.52148,0.437988 M5.5415,-3.38965 C5.98584,-2.53906 6.57935,-1.85986 7.32202,-1.35205 C8.0647,-0.844238 8.87402,-0.590332 9.75,-0.590332 C10.8291,-0.590332 11.8193,-0.901367 12.7207,-1.52344 C13.6221,-2.14551 14.2949,-2.95166 14.7393,-3.94189 L14.7393,-13.292 C14.4346,-13.8633 14.0505,-14.3743 13.5872,-14.825 C13.1238,-15.2756 12.6033,-15.6216 12.0256,-15.8628 C11.448,-16.104 10.8354,-16.2246 10.188,-16.2246 C8.82959,-16.2246 7.73779,-15.8406 6.9126,-15.0725 C6.0874,-14.3044 5.50977,-13.3237 5.17969,-12.1304 C4.84961,-10.937 4.68457,-9.68652 4.68457,-8.37891 C4.68457,-7.33789 4.73853,-6.43018 4.84644,-5.65576 C4.95435,-4.88135 5.18604,-4.12598 5.5415,-3.38965 "/>
</g>

<g fill="#d9d9d9" fill-opacity="1" stroke="none" transform="matrix(0.5,0,0,0.5,636.455,84.2191)"
font-family=".AppleSystemUIFont" font-size="13" font-weight="400" font-style="normal" 
>
<path vector-effect="none" fill-rule="evenodd" d="M9.71191,0.437988 C8.125,0.437988 6.66821,0.0222168 5.34155,-0.809326 C4.01489,-1.64087 2.97388,-2.75171 2.21851,-4.14185 C1.46313,-5.53198 1.08545,-7.00146 1.08545,-8.55029 C1.08545,-10.0737 1.4314,-11.521 2.12329,-12.8921 C2.81519,-14.2632 3.78003,-15.3708 5.01782,-16.2151 C6.25562,-17.0593 7.63623,-17.4814 9.15967,-17.4814 C10.353,-17.4814 11.3909,-17.2815 12.2732,-16.8816 C13.1555,-16.4817 13.8823,-15.9263 14.4536,-15.2153 C15.0249,-14.5044 15.4565,-13.6665 15.7485,-12.7017 C16.0405,-11.7368 16.1865,-10.6768 16.1865,-9.52148 C16.1865,-9.17871 16.0532,-9.00732 15.7866,-9.00732 L4.49414,-9.00732 L4.49414,-8.58838 C4.49414,-6.43018 4.92896,-4.57666 5.79858,-3.02783 C6.66821,-1.479 8.08691,-0.70459 10.0547,-0.70459 C10.8545,-0.70459 11.594,-0.882324 12.2732,-1.23779 C12.9524,-1.59326 13.5427,-2.08838 14.0442,-2.72314 C14.5457,-3.35791 14.8853,-4.03711 15.063,-4.76074 C15.0884,-4.84961 15.136,-4.92896 15.2058,-4.99878 C15.2756,-5.0686 15.355,-5.10352 15.4438,-5.10352 L15.7866,-5.10352 C16.0532,-5.10352 16.1865,-4.93848 16.1865,-4.6084 C15.8184,-3.13574 15.0249,-1.92651 13.8062,-0.980713 C12.5874,-0.0349121 11.2227,0.437988 9.71191,0.437988 M4.53223,-9.97852 L13.4253,-9.97852 C13.4253,-10.9561 13.2888,-11.9463 13.0159,-12.9492 C12.7429,-13.9521 12.2891,-14.7869 11.6543,-15.4534 C11.0195,-16.1199 10.188,-16.4531 9.15967,-16.4531 C7.68701,-16.4531 6.54761,-15.7644 5.74146,-14.387 C4.9353,-13.0095 4.53223,-11.54 4.53223,-9.97852 "/>
</g>

<g fill="#d9d9d9" fill-opacity="1" stroke="none" transform="matrix(0.5,0,0,0.5,645.255,84.2191)"
font-family=".AppleSystemUIFont" font-size="13" font-weight="400" font-style="normal" 
>
<path vector-effect="none" fill-rule="evenodd" d="M1.00928,0 L1.00928,-1.37109 C1.89795,-1.37109 2.62793,-1.44092 3.19922,-1.58057 C3.77051,-1.72021 4.05615,-2.06299 4.05615,-2.60889 L4.05615,-13.2539 C4.05615,-13.9521 3.95142,-14.4568 3.74194,-14.7678 C3.53247,-15.0789 3.23096,-15.2693 2.8374,-15.3391 C2.44385,-15.4089 1.83447,-15.4438 1.00928,-15.4438 L1.00928,-16.8149 L6.58887,-17.2339 L6.58887,-13.4253 C7.00781,-14.5552 7.60449,-15.4724 8.37891,-16.177 C9.15332,-16.8816 10.0928,-17.2339 11.1973,-17.2339 C11.9717,-17.2339 12.6636,-17.0054 13.2729,-16.5483 C13.8823,-16.0913 14.187,-15.4883 14.187,-14.7393 C14.187,-14.2695 14.0188,-13.8601 13.6824,-13.511 C13.3459,-13.1619 12.9302,-12.9873 12.4351,-12.9873 C11.9526,-12.9873 11.54,-13.1587 11.1973,-13.5015 C10.8545,-13.8442 10.6831,-14.2568 10.6831,-14.7393 C10.6831,-15.4375 10.9307,-15.9326 11.4258,-16.2246 L11.1973,-16.2246 C10.1436,-16.2246 9.28345,-15.8438 8.61694,-15.082 C7.95044,-14.3203 7.47754,-13.3745 7.19824,-12.2446 C6.91895,-11.1147 6.7793,-10.0356 6.7793,-9.00732 L6.7793,-2.60889 C6.7793,-1.78369 8.04248,-1.37109 10.5688,-1.37109 L10.5688,0 L1.00928,0"/>
</g>

<g fill="#d9d9d9" fill-opacity="1" stroke="none" transform="matrix(0.5,0,0,0.5,659.61,84.2191)"
font-family=".AppleSystemUIFont" font-size="13" font-weight="400" font-style="normal" 
>
<path vector-effect="none" fill-rule="evenodd" d="M1.94238,0 L1.94238,-1.04736 C1.94238,-1.11084 1.96777,-1.18066 2.01855,-1.25684 L8.07422,-7.95996 C8.98828,-8.9502 9.73096,-9.78174 10.3022,-10.4546 C10.8735,-11.1274 11.4385,-11.9019 11.9971,-12.7778 C12.5557,-13.6538 12.9968,-14.5457 13.3206,-15.4534 C13.6443,-16.3611 13.8062,-17.3228 13.8062,-18.3384 C13.8062,-19.4048 13.6094,-20.4236 13.2158,-21.3948 C12.8223,-22.366 12.2351,-23.1436 11.4543,-23.7275 C10.6736,-24.3115 9.73096,-24.6035 8.62646,-24.6035 C7.49658,-24.6035 6.48096,-24.2639 5.57959,-23.5847 C4.67822,-22.9055 4.04346,-22.0264 3.67529,-20.9473 C3.77686,-20.9727 3.9165,-20.9854 4.09424,-20.9854 C4.67822,-20.9854 5.17651,-20.7886 5.58911,-20.395 C6.00171,-20.0015 6.20801,-19.4937 6.20801,-18.8716 C6.20801,-18.2749 6.00171,-17.7703 5.58911,-17.3577 C5.17651,-16.9451 4.67822,-16.7388 4.09424,-16.7388 C3.48486,-16.7388 2.97388,-16.9514 2.56128,-17.3767 C2.14868,-17.802 1.94238,-18.3003 1.94238,-18.8716 C1.94238,-19.8491 2.12646,-20.7664 2.49463,-21.6233 C2.86279,-22.4802 3.39282,-23.2419 4.08472,-23.9084 C4.77661,-24.575 5.55737,-25.0859 6.427,-25.4414 C7.29663,-25.7969 8.22021,-25.9746 9.19775,-25.9746 C10.6831,-25.9746 12.0669,-25.6604 13.3491,-25.032 C14.6313,-24.4036 15.647,-23.5149 16.396,-22.366 C17.145,-21.217 17.5195,-19.8745 17.5195,-18.3384 C17.5195,-17.2085 17.272,-16.1357 16.7769,-15.1201 C16.2817,-14.1045 15.647,-13.1809 14.8726,-12.3494 C14.0981,-11.5178 13.1079,-10.5752 11.9019,-9.52148 C10.6958,-8.46777 9.90234,-7.76318 9.52148,-7.40771 L5.10352,-3.16113 L8.85498,-3.16113 C10.6958,-3.16113 12.2351,-3.177 13.4729,-3.20874 C14.7107,-3.24048 15.3677,-3.28809 15.4438,-3.35156 C15.7485,-3.68164 16.0596,-4.88135 16.377,-6.95068 L17.5195,-6.95068 L16.415,0 L1.94238,0"/>
</g>

<g fill="none" stroke="#d9d9d9" stroke-opacity="1" stroke-width="1" stroke-linecap="butt" stroke-linejoin="miter" stroke-miterlimit="2" transform="matrix(0.5,0,0,0.5,0,0)"
font-family=".AppleSystemUIFont" font-size="13" font-weight="400" font-style="normal" 
>
<path vector-effect="none" fill-rule="evenodd" d="M1134,186 L1134,83 L1342,83 L1342,186 L1134,186"/>
</g>
</g>
</svg>
