<?xml version="1.0" encoding="UTF-8" standalone="no"?>
<!-- Created with Inkscape (http://www.inkscape.org/) -->

<svg
   version="1.1"
   id="svg1"
   width="862.66669"
   height="560"
   viewBox="0 0 862.66669 560"
   xmlns="http://www.w3.org/2000/svg"
   xmlns:svg="http://www.w3.org/2000/svg">
  <defs
     id="defs1" />
  <g
     id="g1">
    <path
       id="path1"
       d="M -0.81899007,-0.66666667 H 861.84768 V 559.33333 H -0.81899007 Z"
       style="fill:#333333;fill-opacity:1;fill-rule:evenodd;stroke:none" />
    <path
       id="path2"
       d="M 64.51434,9.9999989 V 499.33332 H 839.84765 V 9.9999989 Z"
       style="fill:#333333;fill-opacity:1;fill-rule:evenodd;stroke:none" />
    <path
       id="path3"
       d="M 64.847677,10 V 499.33333 H 64.18101 V 10 Z"
       style="fill:#ffffff;fill-opacity:0.25098;fill-rule:nonzero;stroke:none" />
    <path
       id="path4"
       d="m 142.381,10 v 489.33333 h -0.66667 V 10 Z"
       style="fill:#ffffff;fill-opacity:0.25098;fill-rule:nonzero;stroke:none" />
    <path
       id="path5"
       d="m 219.91435,10 v 489.33333 h -0.66667 V 10 Z"
       style="fill:#ffffff;fill-opacity:0.25098;fill-rule:nonzero;stroke:none" />
    <path
       id="path6"
       d="m 297.44769,10 v 489.33333 h -0.66666 V 10 Z"
       style="fill:#ffffff;fill-opacity:0.25098;fill-rule:nonzero;stroke:none" />
    <path
       id="path7"
       d="m 374.98102,10 v 489.33333 h -0.66667 V 10 Z"
       style="fill:#ffffff;fill-opacity:0.25098;fill-rule:nonzero;stroke:none" />
    <path
       id="path8"
       d="m 452.51434,10 v 489.33333 h -0.66666 V 10 Z"
       style="fill:#ffffff;fill-opacity:0.25098;fill-rule:nonzero;stroke:none" />
    <path
       id="path9"
       d="M 530.04767,10 V 499.33333 H 529.381 V 10 Z"
       style="fill:#ffffff;fill-opacity:0.25098;fill-rule:nonzero;stroke:none" />
    <path
       id="path10"
       d="m 607.58099,10 v 489.33333 h -0.66666 V 10 Z"
       style="fill:#ffffff;fill-opacity:0.25098;fill-rule:nonzero;stroke:none" />
    <path
       id="path11"
       d="m 685.11436,10 v 489.33333 h -0.66667 V 10 Z"
       style="fill:#ffffff;fill-opacity:0.25098;fill-rule:nonzero;stroke:none" />
    <path
       id="path12"
       d="m 762.64764,10 v 489.33333 h -0.66666 V 10 Z"
       style="fill:#ffffff;fill-opacity:0.25098;fill-rule:nonzero;stroke:none" />
    <path
       id="path13"
       d="m 840.18101,10 v 489.33333 h -0.66667 V 10 Z"
       style="fill:#ffffff;fill-opacity:0.25098;fill-rule:nonzero;stroke:none" />
    <path
       id="path14"
       d="M 64.514343,499 H 839.84768 v 0.66667 H 64.514343 Z"
       style="fill:#ffffff;fill-opacity:0.25098;fill-rule:nonzero;stroke:none" />
    <path
       id="path15"
       d="M 64.514343,450.06665 H 839.84768 v 0.66667 H 64.514343 Z"
       style="fill:#ffffff;fill-opacity:0.25098;fill-rule:nonzero;stroke:none" />
    <path
       id="path16"
       d="M 64.514343,401.13334 H 839.84768 v 0.66667 H 64.514343 Z"
       style="fill:#ffffff;fill-opacity:0.25098;fill-rule:nonzero;stroke:none" />
    <path
       id="path17"
       d="M 64.514343,352.19999 H 839.84768 v 0.66667 H 64.514343 Z"
       style="fill:#ffffff;fill-opacity:0.25098;fill-rule:nonzero;stroke:none" />
    <path
       id="path18"
       d="M 64.514343,303.26666 H 839.84768 v 0.66667 H 64.514343 Z"
       style="fill:#ffffff;fill-opacity:0.25098;fill-rule:nonzero;stroke:none" />
    <path
       id="path19"
       d="M 64.514343,254.33333 H 839.84768 V 255 H 64.514343 Z"
       style="fill:#ffffff;fill-opacity:0.25098;fill-rule:nonzero;stroke:none" />
    <path
       id="path20"
       d="M 64.514343,205.39998 H 839.84768 v 0.66667 H 64.514343 Z"
       style="fill:#ffffff;fill-opacity:0.25098;fill-rule:nonzero;stroke:none" />
    <path
       id="path21"
       d="M 64.514343,156.46667 H 839.84768 v 0.66667 H 64.514343 Z"
       style="fill:#ffffff;fill-opacity:0.25098;fill-rule:nonzero;stroke:none" />
    <path
       id="path22"
       d="M 64.514343,107.53333 H 839.84768 v 0.66666 H 64.514343 Z"
       style="fill:#ffffff;fill-opacity:0.25098;fill-rule:nonzero;stroke:none" />
    <path
       id="path23"
       d="M 64.514343,58.600016 H 839.84768 v 0.666667 H 64.514343 Z"
       style="fill:#ffffff;fill-opacity:0.25098;fill-rule:nonzero;stroke:none" />
    <path
       id="path24"
       d="M 64.514343,9.6666667 H 839.84768 V 10.333333 H 64.514343 Z"
       style="fill:#ffffff;fill-opacity:0.25098;fill-rule:nonzero;stroke:none" />
    <path
       id="path25"
       d="M 3.4198928,0.30297988 C 2.3534865,0.31469863 1.5917678,-0.06030138 1.1230178,-0.84545763 0.63668963,-1.6247545 0.40231463,-2.5798326 0.41989275,-3.7048326 c 0,-0.7324219 0.0703125,-1.453125 0.2109375,-2.15625 0.10546875,-0.703125 0.3046875,-1.4179688 0.58593755,-2.15625 0.2636718,-0.703125 0.5683593,-1.3828125 0.9140625,-2.0390624 0.3398437,-0.621094 0.7324218,-1.242188 1.171875,-1.851563 0.076172,-0.105468 0.1757812,-0.164062 0.3046875,-0.164062 0.140625,0 0.2402343,0.04101 0.3046875,0.117187 0.058594,0.08203 0.09375,0.164063 0.09375,0.257813 0.011719,0.09375 -0.011719,0.18164 -0.070313,0.257812 -1.7050782,2.3437504 -2.5546875,4.5117191 -2.5546875,6.4921879 0,0.8613281 0.1992187,1.59375 0.609375,2.203125 0.3867187,0.609375 0.9902343,0.9140625 1.8046875,0.9140625 0.6855468,0 1.3359375,-0.1992188 1.9453125,-0.609375 0.5917968,-0.4042969 1.1074218,-0.9257813 1.546875,-1.5703125 0,-0.3105469 0.058594,-0.8203125 0.1875,-1.5234375 0.1054687,-0.703125 0.2871093,-1.3242188 0.5390625,-1.875 0.2167968,-0.5273438 0.5039062,-0.796875 0.8671875,-0.796875 0.4042968,0 0.6152343,0.2519531 0.6328125,0.75 0,0.2988281 -0.064453,0.6679687 -0.1875,1.1015625 -0.1289063,0.4570312 -0.2578125,0.8671875 -0.3984375,1.2421875 -0.1582032,0.3925781 -0.3457032,0.8203125 -0.5625,1.2890625 0.2167968,1.3300781 0.8789062,1.9921875 1.9921882,1.9921875 0.638671,0 1.294921,-0.1875 1.96875,-0.5625 0.621093,-0.3574219 1.195311,-0.8496094 1.710936,-1.4765625 0.498047,-0.5917969 0.896485,-1.2421875 1.195314,-1.9453125 0.28125,-0.6855469 0.421875,-1.3476563 0.421875,-1.9921875 0,-0.5625 -0.08789,-1.0078125 -0.257814,-1.3359375 -0.1875,-0.3105469 -0.421875,-0.6386719 -0.703125,-0.9843754 -0.298828,-0.328125 -0.457031,-0.638672 -0.46875,-0.9375 0,-0.292968 0.164064,-0.591797 0.492189,-0.890625 0.310546,-0.292968 0.662108,-0.445312 1.054686,-0.445312 0.404297,0 0.708985,0.205078 0.914063,0.609375 0.1875,0.421875 0.28125,0.984375 0.28125,1.6875 0,0.6914061 -0.175781,1.6816405 -0.515625,2.9765624 -0.345703,1.3125 -0.738281,2.4023437 -1.171874,3.2578125 -0.597657,1.171875 -1.347657,2.15625 -2.25,2.95312497 -0.925782,0.81445313 -1.945314,1.21875001 -3.0703132,1.21875001 -0.7207032,0 -1.3007813,-0.22265626 -1.734375,-0.65625001 C 7.767549,-0.757567 7.4804396,-1.3435045 7.3573928,-2.1110826 c -0.515625,0.7382812 -1.1132813,1.32421872 -1.78125,1.75781247 -0.6738282,0.43359375 -1.3945313,0.65625001 -2.15625,0.65625001 z m 0,0"
       style="fill:#03dac5;fill-opacity:1;fill-rule:nonzero;stroke:none"
       aria-label="!"
       transform="matrix(0.66666667,0,0,0.66666667,412.57163,552.20817)" />
    <path
       id="path26"
       d="M 8.698212,6.9357924 C 7.6493839,6.1213393 6.7528995,5.1838393 6.0028995,4.1232924 5.2528995,3.0568861 4.6318058,1.9260268 4.151337,0.72485488 3.6650089,-0.476317 3.307587,-1.7360826 3.073212,-3.0485826 2.838837,-4.3610826 2.7216495,-5.679442 2.7216495,-7.0095201 c 0,-1.3417969 0.1171875,-2.671875 0.3515625,-3.9843749 0.234375,-1.294922 0.5976563,-2.554688 1.1015625,-3.773438 0.46875,-1.21875 1.0839844,-2.349609 1.8515625,-3.398437 0.75,-1.060547 1.640625,-1.992188 2.671875,-2.789063 -0.017578,-0.0293 0.023437,-0.04687 0.1171875,-0.04687 H 9.073212 c 0.058594,0 0.1054688,0.02344 0.140625,0.07031 0.046875,0.04687 0.070312,0.111328 0.070312,0.1875 0.011719,0.08203 0,0.134765 -0.046875,0.164062 -0.9082031,0.890625 -1.6582031,1.845703 -2.25,2.859375 -0.6269531,1.03125 -1.1191406,2.121094 -1.4765625,3.257813 -0.375,1.171875 -0.6445312,2.367187 -0.796875,3.585937 -0.1757812,1.2539066 -0.2578125,2.5429691 -0.2578125,3.8671879 0,5.953125 1.5820313,10.4589844 4.7578125,13.5234375 0.058594,0.058594 0.082031,0.1230469 0.070312,0.1875 0,0.076172 -0.023437,0.1464844 -0.070312,0.2109375 -0.046875,0.058594 -0.09375,0.09375 -0.140625,0.09375 h -0.257812 c -0.09375,0 -0.1347656,-0.023437 -0.1171875,-0.070312 z m 0,0"
       style="fill:#03dac5;fill-opacity:1;fill-rule:nonzero;stroke:none"
       aria-label="("
       transform="matrix(0.66666667,0,0,0.66666667,428.51369,552.20817)" />
    <path
       id="path27"
       d="m 2.1544496,-0.47045763 c 0,-0.10546875 0.00586,-0.19335937 0.023437,-0.2578125 l 2.109375,-8.34374997 c 0.1230469,-0.515625 0.1875,-0.9726559 0.1875,-1.3828129 0,-0.796875 -0.2753906,-1.195312 -0.8203125,-1.195312 -0.5976562,0 -1.0253906,0.345703 -1.2890625,1.03125 -0.2988281,0.7031249 -0.5742187,1.5878905 -0.8203125,2.6484374 0,0.064453 -0.035156,0.1171875 -0.09375,0.1640625 -0.064453,0.035156 -0.1113281,0.041016 -0.140625,0.023437 H 0.98257463 c -0.0820313,0 -0.140625,-0.029297 -0.1875,-0.09375 -0.0351563,-0.076172 -0.046875,-0.140625 -0.046875,-0.1875 0.19921875,-0.8085938 0.39843747,-1.5 0.58593747,-2.0624999 0.1699219,-0.5625 0.46875,-1.078125 0.890625,-1.546875 0.3867188,-0.46875 0.8789063,-0.703125 1.4765625,-0.703125 0.6210938,0.01758 1.1835938,0.205078 1.6875,0.5625 0.4804688,0.375 0.7851563,0.867188 0.9140625,1.476563 0.46875,-0.609375 1.0078125,-1.107422 1.6171875,-1.5 0.5917969,-0.357422 1.2539063,-0.539063 1.9921875,-0.539063 0.5742189,0.01758 1.1015629,0.1875 1.5703129,0.515625 0.451172,0.363282 0.679687,0.832032 0.679687,1.40625 -0.01758,0.486328 -0.164062,0.9023436 -0.445312,1.2421874 -0.298828,0.3457031 -0.697266,0.515625 -1.195313,0.515625 -0.298828,0 -0.5507811,-0.09375 -0.7499999,-0.28125 -0.2050781,-0.1699219 -0.3046875,-0.4335938 -0.3046875,-0.796875 0,-0.3574214 0.1464844,-0.7031244 0.4453125,-1.0312494 0.2929689,-0.310547 0.6386719,-0.46875 1.0312499,-0.46875 -0.298828,-0.246094 -0.65625,-0.375 -1.0781249,-0.375 -0.8144531,0 -1.5175781,0.28125 -2.109375,0.84375 -0.5976562,0.580078 -1.125,1.30664 -1.59375,2.1796869 L 4.1700746,-0.61108263 C 4.0880434,-0.34155138 3.941559,-0.1247545 3.7247621,0.04516737 3.5021059,0.21508925 3.2618715,0.30297988 2.9981996,0.30297988 2.7638246,0.31469863 2.5587465,0.24438612 2.3888246,0.09204237 c -0.1582031,-0.13476562 -0.234375,-0.328125 -0.234375,-0.5625 z m 0,0"
       style="fill:#03dac5;fill-opacity:1;fill-rule:nonzero;stroke:none"
       aria-label="r"
       transform="matrix(0.66666667,0,0,0.66666667,436.02854,552.20817)" />
    <path
       id="path28"
       d="m 4.8775954,0.30297988 c -1.1894531,0 -2.1210938,-0.44531251 -2.7890625,-1.33593748 -0.6738281,-0.8730469 -1.0078125,-1.921875 -1.0078125,-3.140625 0,-1.1835938 0.3046875,-2.4257813 0.9140625,-3.7265625 0.609375,-1.265625 1.453125,-2.3320309 2.53125,-3.2109379 1.03125,-0.84375 2.15625,-1.265625 3.375,-1.265625 0.5625,0 1.0605469,0.152344 1.5,0.445313 0.4335937,0.298828 0.7792971,0.714844 1.0312501,1.242187 0.1875,-0.75 0.591797,-1.125 1.21875,-1.125 0.234375,0 0.433594,0.07031 0.609375,0.210938 0.140625,0.158203 0.216797,0.345703 0.234375,0.5625 0,0.06445 -0.01172,0.111328 -0.02344,0.140625 0,0.01758 0,0.04101 0,0.07031 l -1.96875,7.8281254 c -0.128906,0.5625 -0.1875,1.0253906 -0.1875,1.3828125 0,0.79687497 0.263672,1.19531247 0.796875,1.19531247 0.574219,0 1.03125,-0.375 1.359375,-1.12499997 0.292969,-0.7324219 0.544922,-1.59375 0.75,-2.578125 0.04687,-0.1054688 0.123047,-0.1640625 0.234375,-0.1640625 h 0.328125 c 0.05859,0 0.117188,0.041016 0.164063,0.1171875 0.04687,0.064453 0.07617,0.1171875 0.09375,0.1640625 -0.328125,1.3125 -0.691406,2.3613281 -1.078125,3.14062497 -0.410156,0.78515625 -1.042969,1.17187501 -1.898438,1.17187501 C 10.420564,0.31469863 9.8697829,0.12719862 9.4010329,-0.25952013 8.9147048,-0.59936388 8.6100173,-1.085692 8.4869704,-1.7126451 7.2799391,-0.35327013 6.0787673,0.31469863 4.8775954,0.30297988 Z m 0.023437,-0.72656251 c 0.65625,0 1.3125,-0.2578125 1.96875,-0.77343747 0.6210937,-0.4980469 1.1601562,-1.0898438 1.6171875,-1.78125 0.011719,0 0.029297,-0.023437 0.046875,-0.070312 l 1.5000001,-6.09375 0.02344,-0.070312 C 9.9459548,-9.8806139 9.7115798,-10.460692 9.3541579,-10.94702 c -0.375,-0.46875 -0.8847656,-0.703125 -1.5234375,-0.703125 -0.6445313,0 -1.21875,0.257812 -1.734375,0.773437 -0.5625,0.515625 -1.0253906,1.1250004 -1.3828125,1.8281254 -0.375,0.75 -0.7265625,1.7753906 -1.0546875,3.0703125 -0.3457031,1.3007812 -0.5097656,2.3144531 -0.4921875,3.046875 -0.017578,0.65625 0.1230469,1.2363281 0.421875,1.734375 0.2636719,0.51562497 0.703125,0.77343747 1.3124995,0.77343747 z m 0,0"
       style="fill:#03dac5;fill-opacity:1;fill-rule:nonzero;stroke:none"
       aria-label="a"
       transform="matrix(0.66666667,0,0,0.66666667,445.28343,552.20817)" />
    <path
       id="path29"
       d="m 4.8724676,0.30297988 c -1.1894531,0 -2.1210937,-0.44531251 -2.7890625,-1.33593748 -0.6738281,-0.8730469 -1.0078125,-1.921875 -1.0078125,-3.140625 0,-1.1835938 0.3046875,-2.4257813 0.9140625,-3.7265625 0.609375,-1.265625 1.453125,-2.3320309 2.53125,-3.2109379 1.03125,-0.84375 2.15625,-1.265625 3.375,-1.265625 0.5449219,0 1.0429688,0.152344 1.5,0.445313 0.4335938,0.328125 0.7792969,0.74414 1.0312499,1.242187 l 1.570313,-6.257812 c 0.05859,-0.310547 0.09961,-0.585938 0.117187,-0.820313 0.01172,-0.246093 -0.585937,-0.375 -1.804687,-0.375 -0.1875,0 -0.28125,-0.123047 -0.28125,-0.375 0,-0.0293 0.01172,-0.105468 0.04687,-0.234375 0.0293,-0.123047 0.07031,-0.216797 0.117187,-0.28125 0.04687,-0.05859 0.123047,-0.09375 0.234375,-0.09375 l 3.773438,-0.304687 c 0.216797,0 0.328125,0.117187 0.328125,0.351562 l -4.03125,16.1015629 c -0.128907,0.328125 -0.1875,0.8378906 -0.1875,1.5234375 0,0.69140622 0.263672,1.03124997 0.796875,1.03124997 0.574218,0 1.03125,-0.375 1.359375,-1.12499997 0.292968,-0.7324219 0.544922,-1.59375 0.75,-2.578125 0.04687,-0.1054688 0.123047,-0.1640625 0.234375,-0.1640625 h 0.328125 c 0.05859,0 0.117187,0.041016 0.164062,0.1171875 0.04687,0.064453 0.07617,0.1171875 0.09375,0.1640625 -0.328125,1.3125 -0.691406,2.3613281 -1.078125,3.14062497 -0.410156,0.78515625 -1.042969,1.17187501 -1.898437,1.17187501 C 10.415436,0.31469863 9.8646551,0.12719862 9.3959051,-0.25952013 8.909577,-0.59936388 8.6048895,-1.085692 8.4818426,-1.7126451 7.2748114,-0.35327013 6.0736395,0.31469863 4.8724676,0.30297988 Z m 0.023437,-0.72656251 c 0.65625,0 1.3125,-0.2578125 1.96875,-0.77343747 0.6210938,-0.4980469 1.1601563,-1.0898438 1.6171875,-1.78125 0.011719,0 0.029297,-0.029297 0.046875,-0.09375 l 1.5234379,-6.1640625 c -0.1289066,-0.65625 -0.369141,-1.2246094 -0.7265629,-1.7109374 -0.3925781,-0.46875 -0.890625,-0.703125 -1.5,-0.703125 -0.6445312,0 -1.21875,0.257812 -1.734375,0.773437 -0.5625,0.515625 -1.0253906,1.1250004 -1.3828125,1.8281254 -0.375,0.75 -0.7265625,1.7753906 -1.0546875,3.0703125 -0.3457031,1.3007812 -0.5097656,2.3144531 -0.4921875,3.046875 -0.017578,0.65625 0.1230469,1.2363281 0.421875,1.734375 0.2636719,0.51562497 0.703125,0.77343747 1.3125,0.77343747 z m 0,0"
       style="fill:#03dac5;fill-opacity:1;fill-rule:nonzero;stroke:none"
       aria-label="d"
       transform="matrix(0.66666667,0,0,0.66666667,455.49778,552.20817)" />
    <path
       id="path30"
       d="m 1.5455633,6.4436049 c 0,-0.064453 0.00586,-0.1054688 0.023437,-0.1171875 L 11.319001,-20.673583 c 0.01172,-0.09375 0.07031,-0.169922 0.164062,-0.234375 0.09375,-0.05859 0.210938,-0.09375 0.351563,-0.09375 0.152344,0 0.28125,0.05859 0.375,0.164063 0.105469,0.09375 0.164062,0.228515 0.164062,0.398437 v 0.09375 L 2.6471258,6.6545424 C 2.5357976,6.8889174 2.354157,7.0061049 2.1080633,7.0061049 1.9498601,7.0061049 1.8150945,6.9475111 1.7096258,6.8420424 1.5982976,6.7307143 1.5455633,6.5959486 1.5455633,6.4436049 Z m 0,0"
       style="fill:#03dac5;fill-opacity:1;fill-rule:nonzero;stroke:none"
       aria-label="="
       transform="matrix(0.66666667,0,0,0.66666667,465.55556,552.20817)" />
    <path
       id="path31"
       d="m 2.439363,-1.7126451 c 0.4804688,0.8613281 1.4882813,1.28906247 3.0234375,1.28906247 0.65625,0 1.2773438,-0.1171875 1.875,-0.3515625 0.5742188,-0.19921875 1.0664063,-0.52734377 1.4765625,-0.98437497 0.375,-0.4335938 0.5625,-0.984375 0.5625,-1.640625 0,-0.46875 -0.1757812,-0.8554688 -0.515625,-1.171875 C 8.5155349,-4.882567 8.0936599,-5.0935045 7.595613,-5.2048326 L 6.0721755,-5.5095201 C 5.3690505,-5.679442 4.7948318,-6.007567 4.361238,-6.4938951 c -0.4570312,-0.46875 -0.6738281,-1.0371094 -0.65625,-1.7109375 0,-0.8261719 0.2226563,-1.5585938 0.6796875,-2.2031254 0.4335938,-0.621093 1.03125,-1.107422 1.78125,-1.453125 0.7324219,-0.339843 1.5,-0.515625 2.296875,-0.515625 0.84375,0.01758 1.5996095,0.222657 2.2734375,0.609375 0.667969,0.410157 1.007813,1.007813 1.007813,1.8046879 -0.01758,0.421875 -0.140625,0.796875 -0.375,1.125 -0.251954,0.328125 -0.585938,0.4921875 -1.007813,0.4921875 -0.234375,0 -0.4453125,-0.076172 -0.6328125,-0.234375 -0.1757812,-0.1523438 -0.2578125,-0.3574219 -0.2578125,-0.609375 0,-0.2167969 0.058594,-0.4335938 0.1875,-0.65625 0.1230469,-0.1875004 0.2871094,-0.3515624 0.492188,-0.4921874 0.199218,-0.105469 0.410156,-0.164063 0.632812,-0.164063 -0.175781,-0.386718 -0.480469,-0.679687 -0.9140625,-0.867187 -0.4570312,-0.1875 -0.9492187,-0.28125 -1.4765625,-0.28125 -0.4863281,0 -0.9550781,0.09375 -1.40625,0.28125 -0.4863281,0.1875 -0.8671875,0.46875 -1.1484375,0.84375 -0.2988281,0.375 -0.4453125,0.814453 -0.4453125,1.3124999 0,0.3457031 0.1230469,0.6445312 0.375,0.890625 0.2167969,0.2695312 0.5039063,0.4453125 0.8671875,0.5390625 l 1.6171875,0.328125 c 0.5273438,0.1113281 1.0136719,0.3046875 1.453125,0.5859375 0.421875,0.28125 0.755859,0.6269531 1.007813,1.03125 0.246093,0.4394531 0.375,0.9316406 0.375,1.4765625 0,0.703125 -0.1875,1.3828125 -0.5625,2.0390625 -0.410157,0.6914062 -0.8906255,1.2304687 -1.4531255,1.61718747 -1.0019531,0.67382813 -2.2148437,1.00781251 -3.6328125,1.00781251 -1.0195312,0 -1.9335937,-0.22851563 -2.7421875,-0.67968751 -0.84375,-0.43359375 -1.2597656,-1.11328127 -1.2421875,-2.03906247 0,-0.4980469 0.1464844,-0.9433594 0.4453125,-1.3359375 0.28125,-0.3574219 0.6796875,-0.5449219 1.1953125,-0.5625 0.3105469,0.017578 0.5683594,0.1113281 0.7734375,0.28125 0.1992188,0.1875 0.2929688,0.46875 0.28125,0.84375 0,0.3632812 -0.1523437,0.6972656 -0.4453125,1.0078125 -0.328125,0.3164062 -0.703125,0.46875 -1.125,0.46875 z m 0,0"
       style="fill:#03dac5;fill-opacity:1;fill-rule:nonzero;stroke:none"
       aria-label="s"
       transform="matrix(0.66666667,0,0,0.66666667,475.21751,552.20817)" />
    <path
       id="path32"
       d="m 1.8307811,7.0061049 c -0.1757812,0 -0.2578125,-0.087891 -0.2578125,-0.2578125 0,-0.064453 0.011719,-0.1171875 0.046875,-0.1640625 3.1875,-3.1289063 4.7871094,-7.6523438 4.8046875,-13.59375 0,-5.9355469 -1.5820312,-10.4414059 -4.734375,-13.5234379 -0.082031,-0.0293 -0.1171875,-0.105468 -0.1171875,-0.234375 0,-0.05859 0.023437,-0.117187 0.070312,-0.164062 0.046875,-0.04687 0.1054688,-0.07031 0.1875,-0.07031 h 0.2578125 c 0.046875,0 0.09375,0.01758 0.140625,0.04687 1.3242188,1.066407 2.4375,2.355469 3.328125,3.867188 0.890625,1.517578 1.5527344,3.128906 1.9921875,4.828125 0.4042969,1.722656 0.609375,3.4687499 0.609375,5.2499999 0,1.3300781 -0.1113281,2.6367187 -0.328125,3.9140625 -0.234375,1.2832031 -0.5976562,2.5488281 -1.078125,3.79687498 C 6.266328,1.9494643 5.6510936,3.0979018 4.9010936,4.1467299 4.1335155,5.1896986 3.2428905,6.1213393 2.2292186,6.9357924 c -0.046875,0.046875 -0.09375,0.070312 -0.140625,0.070312 z m 0,0"
       style="fill:#03dac5;fill-opacity:1;fill-rule:nonzero;stroke:none"
       aria-label=")"
       transform="matrix(0.66666667,0,0,0.66666667,484.27557,552.20817)" />
    <path
       id="path33"
       d="M 195,801 H 1358"
       style="fill:none;stroke:#ffffff;stroke-width:1;stroke-linecap:square;stroke-linejoin:round;stroke-miterlimit:10;stroke-dasharray:none;stroke-opacity:1"
       transform="matrix(0.66666667,0,0,0.66666667,-65.485657,-34.666667)" />
    <path
       id="path34"
       d="M 195,67 H 1358"
       style="fill:none;stroke:#ffffff;stroke-width:1;stroke-linecap:square;stroke-linejoin:round;stroke-miterlimit:10;stroke-dasharray:none;stroke-opacity:1"
       transform="matrix(0.66666667,0,0,0.66666667,-65.485657,-34.666667)" />
    <path
       id="path35"
       d="M 195,812.63 V 801"
       style="fill:none;stroke:#ffffff;stroke-width:1;stroke-linecap:square;stroke-linejoin:round;stroke-miterlimit:10;stroke-dasharray:none;stroke-opacity:1"
       transform="matrix(0.66666667,0,0,0.66666667,-65.485657,-34.666667)" />
    <path
       id="path36"
       d="M 195,67 V 55.369987"
       style="fill:none;stroke:#ffffff;stroke-width:1;stroke-linecap:square;stroke-linejoin:round;stroke-miterlimit:10;stroke-dasharray:none;stroke-opacity:1"
       transform="matrix(0.66666667,0,0,0.66666667,-65.485657,-34.666667)" />
    <path
       id="path37"
       d="M 311.29999,812.63 V 801"
       style="fill:none;stroke:#ffffff;stroke-width:1;stroke-linecap:square;stroke-linejoin:round;stroke-miterlimit:10;stroke-dasharray:none;stroke-opacity:1"
       transform="matrix(0.66666667,0,0,0.66666667,-65.485657,-34.666667)" />
    <path
       id="path38"
       d="M 311.29999,67 V 55.369987"
       style="fill:none;stroke:#ffffff;stroke-width:1;stroke-linecap:square;stroke-linejoin:round;stroke-miterlimit:10;stroke-dasharray:none;stroke-opacity:1"
       transform="matrix(0.66666667,0,0,0.66666667,-65.485657,-34.666667)" />
    <path
       id="path39"
       d="M 427.60001,812.63 V 801"
       style="fill:none;stroke:#ffffff;stroke-width:1;stroke-linecap:square;stroke-linejoin:round;stroke-miterlimit:10;stroke-dasharray:none;stroke-opacity:1"
       transform="matrix(0.66666667,0,0,0.66666667,-65.485657,-34.666667)" />
    <path
       id="path40"
       d="M 427.60001,67 V 55.369987"
       style="fill:none;stroke:#ffffff;stroke-width:1;stroke-linecap:square;stroke-linejoin:round;stroke-miterlimit:10;stroke-dasharray:none;stroke-opacity:1"
       transform="matrix(0.66666667,0,0,0.66666667,-65.485657,-34.666667)" />
    <path
       id="path41"
       d="M 543.90002,812.63 V 801"
       style="fill:none;stroke:#ffffff;stroke-width:1;stroke-linecap:square;stroke-linejoin:round;stroke-miterlimit:10;stroke-dasharray:none;stroke-opacity:1"
       transform="matrix(0.66666667,0,0,0.66666667,-65.485657,-34.666667)" />
    <path
       id="path42"
       d="M 543.90002,67 V 55.369987"
       style="fill:none;stroke:#ffffff;stroke-width:1;stroke-linecap:square;stroke-linejoin:round;stroke-miterlimit:10;stroke-dasharray:none;stroke-opacity:1"
       transform="matrix(0.66666667,0,0,0.66666667,-65.485657,-34.666667)" />
    <path
       id="path43"
       d="M 660.20001,812.63 V 801"
       style="fill:none;stroke:#ffffff;stroke-width:1;stroke-linecap:square;stroke-linejoin:round;stroke-miterlimit:10;stroke-dasharray:none;stroke-opacity:1"
       transform="matrix(0.66666667,0,0,0.66666667,-65.485657,-34.666667)" />
    <path
       id="path44"
       d="M 660.20001,67 V 55.369987"
       style="fill:none;stroke:#ffffff;stroke-width:1;stroke-linecap:square;stroke-linejoin:round;stroke-miterlimit:10;stroke-dasharray:none;stroke-opacity:1"
       transform="matrix(0.66666667,0,0,0.66666667,-65.485657,-34.666667)" />
    <path
       id="path45"
       d="M 776.5,812.63 V 801"
       style="fill:none;stroke:#ffffff;stroke-width:1;stroke-linecap:square;stroke-linejoin:round;stroke-miterlimit:10;stroke-dasharray:none;stroke-opacity:1"
       transform="matrix(0.66666667,0,0,0.66666667,-65.485657,-34.666667)" />
    <path
       id="path46"
       d="M 776.5,67 V 55.369987"
       style="fill:none;stroke:#ffffff;stroke-width:1;stroke-linecap:square;stroke-linejoin:round;stroke-miterlimit:10;stroke-dasharray:none;stroke-opacity:1"
       transform="matrix(0.66666667,0,0,0.66666667,-65.485657,-34.666667)" />
    <path
       id="path47"
       d="M 892.79999,812.63 V 801"
       style="fill:none;stroke:#ffffff;stroke-width:1;stroke-linecap:square;stroke-linejoin:round;stroke-miterlimit:10;stroke-dasharray:none;stroke-opacity:1"
       transform="matrix(0.66666667,0,0,0.66666667,-65.485657,-34.666667)" />
    <path
       id="path48"
       d="M 892.79999,67 V 55.369987"
       style="fill:none;stroke:#ffffff;stroke-width:1;stroke-linecap:square;stroke-linejoin:round;stroke-miterlimit:10;stroke-dasharray:none;stroke-opacity:1"
       transform="matrix(0.66666667,0,0,0.66666667,-65.485657,-34.666667)" />
    <path
       id="path49"
       d="M 1009.1,812.63 V 801"
       style="fill:none;stroke:#ffffff;stroke-width:1;stroke-linecap:square;stroke-linejoin:round;stroke-miterlimit:10;stroke-dasharray:none;stroke-opacity:1"
       transform="matrix(0.66666667,0,0,0.66666667,-65.485657,-34.666667)" />
    <path
       id="path50"
       d="M 1009.1,67 V 55.369987"
       style="fill:none;stroke:#ffffff;stroke-width:1;stroke-linecap:square;stroke-linejoin:round;stroke-miterlimit:10;stroke-dasharray:none;stroke-opacity:1"
       transform="matrix(0.66666667,0,0,0.66666667,-65.485657,-34.666667)" />
    <path
       id="path51"
       d="M 1125.4,812.63 V 801"
       style="fill:none;stroke:#ffffff;stroke-width:1;stroke-linecap:square;stroke-linejoin:round;stroke-miterlimit:10;stroke-dasharray:none;stroke-opacity:1"
       transform="matrix(0.66666667,0,0,0.66666667,-65.485657,-34.666667)" />
    <path
       id="path52"
       d="M 1125.4,67 V 55.369987"
       style="fill:none;stroke:#ffffff;stroke-width:1;stroke-linecap:square;stroke-linejoin:round;stroke-miterlimit:10;stroke-dasharray:none;stroke-opacity:1"
       transform="matrix(0.66666667,0,0,0.66666667,-65.485657,-34.666667)" />
    <path
       id="path53"
       d="M 1241.7,812.63 V 801"
       style="fill:none;stroke:#ffffff;stroke-width:1;stroke-linecap:square;stroke-linejoin:round;stroke-miterlimit:10;stroke-dasharray:none;stroke-opacity:1"
       transform="matrix(0.66666667,0,0,0.66666667,-65.485657,-34.666667)" />
    <path
       id="path54"
       d="M 1241.7,67 V 55.369987"
       style="fill:none;stroke:#ffffff;stroke-width:1;stroke-linecap:square;stroke-linejoin:round;stroke-miterlimit:10;stroke-dasharray:none;stroke-opacity:1"
       transform="matrix(0.66666667,0,0,0.66666667,-65.485657,-34.666667)" />
    <path
       id="path55"
       d="M 1358,812.63 V 801"
       style="fill:none;stroke:#ffffff;stroke-width:1;stroke-linecap:square;stroke-linejoin:round;stroke-miterlimit:10;stroke-dasharray:none;stroke-opacity:1"
       transform="matrix(0.66666667,0,0,0.66666667,-65.485657,-34.666667)" />
    <path
       id="path56"
       d="M 1358,67 V 55.369987"
       style="fill:none;stroke:#ffffff;stroke-width:1;stroke-linecap:square;stroke-linejoin:round;stroke-miterlimit:10;stroke-dasharray:none;stroke-opacity:1"
       transform="matrix(0.66666667,0,0,0.66666667,-65.485657,-34.666667)" />
    <text
       id="text56"
       xml:space="preserve"
       transform="matrix(0.66666667,0,0,0.66666667,59.18101,527.85124)"><tspan
         id="tspan56"
         style="font-variant:normal;font-weight:normal;font-size:28px;font-family:Helvetica;writing-mode:lr-tb;fill:#ffffff;fill-opacity:1;fill-rule:nonzero;stroke:none"
         x="0"
         y="0">0</tspan></text>
    <text
       id="text57"
       xml:space="preserve"
       transform="matrix(0.66666667,0,0,0.66666667,126.381,527.85124)"><tspan
         id="tspan57"
         style="font-variant:normal;font-weight:normal;font-size:28px;font-family:Helvetica;writing-mode:lr-tb;fill:#ffffff;fill-opacity:1;fill-rule:nonzero;stroke:none"
         x="0"
         dx="0 -0.0055 -0.0055"
         y="0">250</tspan></text>
    <text
       id="text58"
       xml:space="preserve"
       transform="matrix(0.66666667,0,0,0.66666667,203.91435,527.85124)"><tspan
         id="tspan58"
         style="font-variant:normal;font-weight:normal;font-size:28px;font-family:Helvetica;writing-mode:lr-tb;fill:#ffffff;fill-opacity:1;fill-rule:nonzero;stroke:none"
         x="0"
         dx="0 -0.0055 -0.0055"
         y="0">500</tspan></text>
    <text
       id="text59"
       xml:space="preserve"
       transform="matrix(0.66666667,0,0,0.66666667,281.44769,527.85124)"><tspan
         id="tspan59"
         style="font-variant:normal;font-weight:normal;font-size:28px;font-family:Helvetica;writing-mode:lr-tb;fill:#ffffff;fill-opacity:1;fill-rule:nonzero;stroke:none"
         x="0"
         dx="0 -0.0055 -0.0055"
         y="0">750</tspan></text>
    <text
       id="text60"
       xml:space="preserve"
       transform="matrix(0.66666667,0,0,0.66666667,353.98102,527.85124)"><tspan
         id="tspan60"
         style="font-variant:normal;font-weight:normal;font-size:28px;font-family:Helvetica;writing-mode:lr-tb;fill:#ffffff;fill-opacity:1;fill-rule:nonzero;stroke:none"
         x="0"
         dx="0 -0.0055 -0.0055 -0.0055"
         y="0">1000</tspan></text>
    <text
       id="text61"
       xml:space="preserve"
       transform="matrix(0.66666667,0,0,0.66666667,431.51434,527.85124)"><tspan
         id="tspan61"
         style="font-variant:normal;font-weight:normal;font-size:28px;font-family:Helvetica;writing-mode:lr-tb;fill:#ffffff;fill-opacity:1;fill-rule:nonzero;stroke:none"
         x="0"
         dx="0 -0.0055 -0.0055 -0.0055"
         y="0">1250</tspan></text>
    <text
       id="text62"
       xml:space="preserve"
       transform="matrix(0.66666667,0,0,0.66666667,509.04767,527.85124)"><tspan
         id="tspan62"
         style="font-variant:normal;font-weight:normal;font-size:28px;font-family:Helvetica;writing-mode:lr-tb;fill:#ffffff;fill-opacity:1;fill-rule:nonzero;stroke:none"
         x="0"
         dx="0 -0.0055 -0.0055 -0.0055"
         y="0">1500</tspan></text>
    <text
       id="text63"
       xml:space="preserve"
       transform="matrix(0.66666667,0,0,0.66666667,586.58099,527.85124)"><tspan
         id="tspan63"
         style="font-variant:normal;font-weight:normal;font-size:28px;font-family:Helvetica;writing-mode:lr-tb;fill:#ffffff;fill-opacity:1;fill-rule:nonzero;stroke:none"
         x="0"
         dx="0 -0.0055 -0.0055 -0.0055"
         y="0">1750</tspan></text>
    <text
       id="text64"
       xml:space="preserve"
       transform="matrix(0.66666667,0,0,0.66666667,664.11436,527.85124)"><tspan
         id="tspan64"
         style="font-variant:normal;font-weight:normal;font-size:28px;font-family:Helvetica;writing-mode:lr-tb;fill:#ffffff;fill-opacity:1;fill-rule:nonzero;stroke:none"
         x="0"
         dx="0 -0.0055 -0.0055 -0.0055"
         y="0">2000</tspan></text>
    <text
       id="text65"
       xml:space="preserve"
       transform="matrix(0.66666667,0,0,0.66666667,741.64764,527.85124)"><tspan
         id="tspan65"
         style="font-variant:normal;font-weight:normal;font-size:28px;font-family:Helvetica;writing-mode:lr-tb;fill:#ffffff;fill-opacity:1;fill-rule:nonzero;stroke:none"
         x="0"
         dx="0 -0.0055 -0.0055 -0.0055"
         y="0">2250</tspan></text>
    <text
       id="text66"
       xml:space="preserve"
       transform="matrix(0.66666667,0,0,0.66666667,819.18101,527.85124)"><tspan
         id="tspan66"
         style="font-variant:normal;font-weight:normal;font-size:28px;font-family:Helvetica;writing-mode:lr-tb;fill:#ffffff;fill-opacity:1;fill-rule:nonzero;stroke:none"
         x="0"
         dx="0 -0.0055 -0.0055 -0.0055"
         y="0">2500</tspan></text>
    <path
       id="path66"
       d="M 195,801 V 67"
       style="fill:none;stroke:#ffffff;stroke-width:1;stroke-linecap:square;stroke-linejoin:round;stroke-miterlimit:10;stroke-dasharray:none;stroke-opacity:1"
       transform="matrix(0.66666667,0,0,0.66666667,-65.485657,-34.666667)" />
    <path
       id="path67"
       d="M 1358,801 V 67"
       style="fill:none;stroke:#ffffff;stroke-width:1;stroke-linecap:square;stroke-linejoin:round;stroke-miterlimit:10;stroke-dasharray:none;stroke-opacity:1"
       transform="matrix(0.66666667,0,0,0.66666667,-65.485657,-34.666667)" />
    <path
       id="path68"
       d="M 195,801 H 183.36999"
       style="fill:none;stroke:#ffffff;stroke-width:1;stroke-linecap:square;stroke-linejoin:round;stroke-miterlimit:10;stroke-dasharray:none;stroke-opacity:1"
       transform="matrix(0.66666667,0,0,0.66666667,-65.485657,-34.666667)" />
    <path
       id="path69"
       d="M 195,727.59998 H 183.36999"
       style="fill:none;stroke:#ffffff;stroke-width:1;stroke-linecap:square;stroke-linejoin:round;stroke-miterlimit:10;stroke-dasharray:none;stroke-opacity:1"
       transform="matrix(0.66666667,0,0,0.66666667,-65.485657,-34.666667)" />
    <path
       id="path70"
       d="M 195,654.20001 H 183.36999"
       style="fill:none;stroke:#ffffff;stroke-width:1;stroke-linecap:square;stroke-linejoin:round;stroke-miterlimit:10;stroke-dasharray:none;stroke-opacity:1"
       transform="matrix(0.66666667,0,0,0.66666667,-65.485657,-34.666667)" />
    <path
       id="path71"
       d="M 195,580.79999 H 183.36999"
       style="fill:none;stroke:#ffffff;stroke-width:1;stroke-linecap:square;stroke-linejoin:round;stroke-miterlimit:10;stroke-dasharray:none;stroke-opacity:1"
       transform="matrix(0.66666667,0,0,0.66666667,-65.485657,-34.666667)" />
    <path
       id="path72"
       d="M 195,507.39999 H 183.36999"
       style="fill:none;stroke:#ffffff;stroke-width:1;stroke-linecap:square;stroke-linejoin:round;stroke-miterlimit:10;stroke-dasharray:none;stroke-opacity:1"
       transform="matrix(0.66666667,0,0,0.66666667,-65.485657,-34.666667)" />
    <path
       id="path73"
       d="M 195,434 H 183.36999"
       style="fill:none;stroke:#ffffff;stroke-width:1;stroke-linecap:square;stroke-linejoin:round;stroke-miterlimit:10;stroke-dasharray:none;stroke-opacity:1"
       transform="matrix(0.66666667,0,0,0.66666667,-65.485657,-34.666667)" />
    <path
       id="path74"
       d="M 195,360.59997 H 183.36999"
       style="fill:none;stroke:#ffffff;stroke-width:1;stroke-linecap:square;stroke-linejoin:round;stroke-miterlimit:10;stroke-dasharray:none;stroke-opacity:1"
       transform="matrix(0.66666667,0,0,0.66666667,-65.485657,-34.666667)" />
    <path
       id="path75"
       d="M 195,287.20001 H 183.36999"
       style="fill:none;stroke:#ffffff;stroke-width:1;stroke-linecap:square;stroke-linejoin:round;stroke-miterlimit:10;stroke-dasharray:none;stroke-opacity:1"
       transform="matrix(0.66666667,0,0,0.66666667,-65.485657,-34.666667)" />
    <path
       id="path76"
       d="M 195,213.79999 H 183.36999"
       style="fill:none;stroke:#ffffff;stroke-width:1;stroke-linecap:square;stroke-linejoin:round;stroke-miterlimit:10;stroke-dasharray:none;stroke-opacity:1"
       transform="matrix(0.66666667,0,0,0.66666667,-65.485657,-34.666667)" />
    <path
       id="path77"
       d="M 195,140.40002 H 183.36999"
       style="fill:none;stroke:#ffffff;stroke-width:1;stroke-linecap:square;stroke-linejoin:round;stroke-miterlimit:10;stroke-dasharray:none;stroke-opacity:1"
       transform="matrix(0.66666667,0,0,0.66666667,-65.485657,-34.666667)" />
    <path
       id="path78"
       d="M 195,67 H 183.36999"
       style="fill:none;stroke:#ffffff;stroke-width:1;stroke-linecap:square;stroke-linejoin:round;stroke-miterlimit:10;stroke-dasharray:none;stroke-opacity:1"
       transform="matrix(0.66666667,0,0,0.66666667,-65.485657,-34.666667)" />
    <path
       id="path79"
       d="m 1358,801 h 11.63"
       style="fill:none;stroke:#ffffff;stroke-width:1;stroke-linecap:square;stroke-linejoin:round;stroke-miterlimit:10;stroke-dasharray:none;stroke-opacity:1"
       transform="matrix(0.66666667,0,0,0.66666667,-65.485657,-34.666667)" />
    <path
       id="path80"
       d="m 1358,727.59998 h 11.63"
       style="fill:none;stroke:#ffffff;stroke-width:1;stroke-linecap:square;stroke-linejoin:round;stroke-miterlimit:10;stroke-dasharray:none;stroke-opacity:1"
       transform="matrix(0.66666667,0,0,0.66666667,-65.485657,-34.666667)" />
    <path
       id="path81"
       d="m 1358,654.20001 h 11.63"
       style="fill:none;stroke:#ffffff;stroke-width:1;stroke-linecap:square;stroke-linejoin:round;stroke-miterlimit:10;stroke-dasharray:none;stroke-opacity:1"
       transform="matrix(0.66666667,0,0,0.66666667,-65.485657,-34.666667)" />
    <path
       id="path82"
       d="m 1358,580.79999 h 11.63"
       style="fill:none;stroke:#ffffff;stroke-width:1;stroke-linecap:square;stroke-linejoin:round;stroke-miterlimit:10;stroke-dasharray:none;stroke-opacity:1"
       transform="matrix(0.66666667,0,0,0.66666667,-65.485657,-34.666667)" />
    <path
       id="path83"
       d="m 1358,507.39999 h 11.63"
       style="fill:none;stroke:#ffffff;stroke-width:1;stroke-linecap:square;stroke-linejoin:round;stroke-miterlimit:10;stroke-dasharray:none;stroke-opacity:1"
       transform="matrix(0.66666667,0,0,0.66666667,-65.485657,-34.666667)" />
    <path
       id="path84"
       d="m 1358,434 h 11.63"
       style="fill:none;stroke:#ffffff;stroke-width:1;stroke-linecap:square;stroke-linejoin:round;stroke-miterlimit:10;stroke-dasharray:none;stroke-opacity:1"
       transform="matrix(0.66666667,0,0,0.66666667,-65.485657,-34.666667)" />
    <path
       id="path85"
       d="m 1358,360.59997 h 11.63"
       style="fill:none;stroke:#ffffff;stroke-width:1;stroke-linecap:square;stroke-linejoin:round;stroke-miterlimit:10;stroke-dasharray:none;stroke-opacity:1"
       transform="matrix(0.66666667,0,0,0.66666667,-65.485657,-34.666667)" />
    <path
       id="path86"
       d="m 1358,287.20001 h 11.63"
       style="fill:none;stroke:#ffffff;stroke-width:1;stroke-linecap:square;stroke-linejoin:round;stroke-miterlimit:10;stroke-dasharray:none;stroke-opacity:1"
       transform="matrix(0.66666667,0,0,0.66666667,-65.485657,-34.666667)" />
    <path
       id="path87"
       d="m 1358,213.79999 h 11.63"
       style="fill:none;stroke:#ffffff;stroke-width:1;stroke-linecap:square;stroke-linejoin:round;stroke-miterlimit:10;stroke-dasharray:none;stroke-opacity:1"
       transform="matrix(0.66666667,0,0,0.66666667,-65.485657,-34.666667)" />
    <path
       id="path88"
       d="m 1358,140.40002 h 11.63"
       style="fill:none;stroke:#ffffff;stroke-width:1;stroke-linecap:square;stroke-linejoin:round;stroke-miterlimit:10;stroke-dasharray:none;stroke-opacity:1"
       transform="matrix(0.66666667,0,0,0.66666667,-65.485657,-34.666667)" />
    <path
       id="path89"
       d="m 1358,67 h 11.63"
       style="fill:none;stroke:#ffffff;stroke-width:1;stroke-linecap:square;stroke-linejoin:round;stroke-miterlimit:10;stroke-dasharray:none;stroke-opacity:1"
       transform="matrix(0.66666667,0,0,0.66666667,-65.485657,-34.666667)" />
    <text
       id="text89"
       xml:space="preserve"
       transform="matrix(0.66666667,0,0,0.66666667,24.361013,504.36458)"><tspan
         id="tspan89"
         style="font-variant:normal;font-weight:normal;font-size:28px;font-family:Helvetica;writing-mode:lr-tb;fill:#ffffff;fill-opacity:1;fill-rule:nonzero;stroke:none"
         x="0"
         dx="0 -0.0055 0.0096249999"
         y="0">0.0</tspan></text>
    <text
       id="text90"
       xml:space="preserve"
       transform="matrix(0.66666667,0,0,0.66666667,24.361013,455.43123)"><tspan
         id="tspan90"
         style="font-variant:normal;font-weight:normal;font-size:28px;font-family:Helvetica;writing-mode:lr-tb;fill:#ffffff;fill-opacity:1;fill-rule:nonzero;stroke:none"
         x="0"
         dx="0 -0.0055 0.0096249999"
         y="0">0.1</tspan></text>
    <text
       id="text91"
       xml:space="preserve"
       transform="matrix(0.66666667,0,0,0.66666667,24.361013,406.49792)"><tspan
         id="tspan91"
         style="font-variant:normal;font-weight:normal;font-size:28px;font-family:Helvetica;writing-mode:lr-tb;fill:#ffffff;fill-opacity:1;fill-rule:nonzero;stroke:none"
         x="0"
         dx="0 -0.0055 0.0096249999"
         y="0">0.2</tspan></text>
    <text
       id="text92"
       xml:space="preserve"
       transform="matrix(0.66666667,0,0,0.66666667,24.361013,357.56457)"><tspan
         id="tspan92"
         style="font-variant:normal;font-weight:normal;font-size:28px;font-family:Helvetica;writing-mode:lr-tb;fill:#ffffff;fill-opacity:1;fill-rule:nonzero;stroke:none"
         x="0"
         dx="0 -0.0055 0.0096249999"
         y="0">0.3</tspan></text>
    <text
       id="text93"
       xml:space="preserve"
       transform="matrix(0.66666667,0,0,0.66666667,24.361013,308.63127)"><tspan
         id="tspan93"
         style="font-variant:normal;font-weight:normal;font-size:28px;font-family:Helvetica;writing-mode:lr-tb;fill:#ffffff;fill-opacity:1;fill-rule:nonzero;stroke:none"
         x="0"
         dx="0 -0.0055 0.0096249999"
         y="0">0.4</tspan></text>
    <text
       id="text94"
       xml:space="preserve"
       transform="matrix(0.66666667,0,0,0.66666667,24.361013,259.69792)"><tspan
         id="tspan94"
         style="font-variant:normal;font-weight:normal;font-size:28px;font-family:Helvetica;writing-mode:lr-tb;fill:#ffffff;fill-opacity:1;fill-rule:nonzero;stroke:none"
         x="0"
         dx="0 -0.0055 0.0096249999"
         y="0">0.5</tspan></text>
    <text
       id="text95"
       xml:space="preserve"
       transform="matrix(0.66666667,0,0,0.66666667,24.361013,210.76457)"><tspan
         id="tspan95"
         style="font-variant:normal;font-weight:normal;font-size:28px;font-family:Helvetica;writing-mode:lr-tb;fill:#ffffff;fill-opacity:1;fill-rule:nonzero;stroke:none"
         x="0"
         dx="0 -0.0055 0.0096249999"
         y="0">0.6</tspan></text>
    <text
       id="text96"
       xml:space="preserve"
       transform="matrix(0.66666667,0,0,0.66666667,24.361013,161.83126)"><tspan
         id="tspan96"
         style="font-variant:normal;font-weight:normal;font-size:28px;font-family:Helvetica;writing-mode:lr-tb;fill:#ffffff;fill-opacity:1;fill-rule:nonzero;stroke:none"
         x="0"
         dx="0 -0.0055 0.0096249999"
         y="0">0.7</tspan></text>
    <text
       id="text97"
       xml:space="preserve"
       transform="matrix(0.66666667,0,0,0.66666667,24.361013,112.89791)"><tspan
         id="tspan97"
         style="font-variant:normal;font-weight:normal;font-size:28px;font-family:Helvetica;writing-mode:lr-tb;fill:#ffffff;fill-opacity:1;fill-rule:nonzero;stroke:none"
         x="0"
         dx="0 -0.0055 0.0096249999"
         y="0">0.8</tspan></text>
    <text
       id="text98"
       xml:space="preserve"
       transform="matrix(0.66666667,0,0,0.66666667,24.361013,63.9646)"><tspan
         id="tspan98"
         style="font-variant:normal;font-weight:normal;font-size:28px;font-family:Helvetica;writing-mode:lr-tb;fill:#ffffff;fill-opacity:1;fill-rule:nonzero;stroke:none"
         x="0"
         dx="0 -0.0055 0.0096249999"
         y="0">0.9</tspan></text>
    <text
       id="text99"
       xml:space="preserve"
       transform="matrix(0.66666667,0,0,0.66666667,24.361013,15.03125)"><tspan
         id="tspan99"
         style="font-variant:normal;font-weight:normal;font-size:28px;font-family:Helvetica;writing-mode:lr-tb;fill:#ffffff;fill-opacity:1;fill-rule:nonzero;stroke:none"
         x="0"
         dx="0 -0.0055 0.0096249999"
         y="0">1.0</tspan></text>
    <path
       id="path99"
       d="M 1.2636405,0 C 1.0878593,0 1.005828,-0.1171875 1.005828,-0.3515625 1.017547,-0.3808594 1.035125,-0.4511719 1.052703,-0.5625 1.082,-0.66796875 1.123015,-0.75585938 1.1698905,-0.8203125 c 0.046875,-0.0585938 0.099609,-0.09375 0.1640625,-0.09375 1.0605469,0 1.8046875,-0.0585938 2.2265625,-0.1875 0.2167969,-0.058594 0.3808594,-0.2871094 0.4921875,-0.6796875 l 3.5625,-14.296875 C 7.6445,-16.230469 7.662078,-16.371094 7.662078,-16.5 c 0,-0.140625 -0.1347656,-0.222656 -0.3984375,-0.257813 -0.2695312,-0.04687 -0.8613281,-0.07617 -1.78125,-0.09375 -0.1757812,0 -0.2578125,-0.105468 -0.2578125,-0.328125 0.011719,-0.0293 0.029297,-0.09961 0.046875,-0.210937 0.029297,-0.105469 0.058594,-0.193359 0.09375,-0.257813 0.046875,-0.07617 0.1054688,-0.117187 0.1875,-0.117187 h 8.976563 c 0.808593,0 1.605468,0.152344 2.390625,0.445312 0.761718,0.298829 1.394531,0.744141 1.898437,1.335938 0.480469,0.609375 0.726563,1.335937 0.726563,2.179687 0,1.113282 -0.386719,2.097657 -1.148438,2.953125 -0.785156,0.8613286 -1.751953,1.5351567 -2.90625,2.0156255 -1.171875,0.4863281 -2.291016,0.7265625 -3.351562,0.7265625 H 7.896453 L 6.3261405,-1.6875 c -0.046875,0.1757812 -0.070312,0.2988281 -0.070312,0.375 0.011719,0.082031 0.029297,0.140625 0.046875,0.1875 0.011719,0.035156 0.035156,0.058594 0.070312,0.070312 0.046875,0.017578 0.1054688,0.035156 0.1875,0.046875 0.328125,0.0644531 0.9609375,0.09375 1.8984375,0.09375 0.1523438,0 0.234375,0.1171875 0.234375,0.3515625 -0.064453,0.25195313 -0.1113281,0.41015625 -0.140625,0.46875 C 8.5175468,-0.02929687 8.4237968,0 8.271453,0 Z M 8.037078,-8.8828125 h 3.632813 c 1.6875,0 2.964843,-0.4511719 3.84375,-1.3593755 0.433593,-0.433593 0.802734,-1.083984 1.101562,-1.945312 0.28125,-0.84375 0.421875,-1.605469 0.421875,-2.296875 0,-0.84375 -0.322266,-1.453125 -0.960937,-1.828125 -0.65625,-0.357422 -1.470704,-0.539063 -2.4375,-0.539063 h -2.484375 c -0.46875,0 -0.785157,0.04687 -0.9375,0.140625 -0.158204,0.08203 -0.2988286,0.328125 -0.4218755,0.75 z m 0,0"
       style="fill:#ffd54f;fill-opacity:1;fill-rule:nonzero;stroke:none"
       aria-label="P"
       transform="matrix(0,-0.66666667,0.66666667,0,14.21875,280.67055)" />
    <path
       id="path100"
       d="m 4.6428214,0.28125 -1.21875,-16.546875 c -0.064453,-0.246094 -0.2519531,-0.410156 -0.5625,-0.492188 -0.328125,-0.05859 -0.7265625,-0.09375 -1.1953125,-0.09375 -0.1757813,0 -0.2578125,-0.105468 -0.2578125,-0.328125 0.046875,-0.216796 0.082031,-0.363281 0.1171875,-0.445312 0.046875,-0.09375 0.1523437,-0.140625 0.328125,-0.140625 h 6.1875 c 0.1523437,0 0.2167969,0.158203 0.1875,0.46875 -0.035156,0.298828 -0.1171875,0.445312 -0.2578125,0.445312 -1.3945313,0 -2.1328125,0.246094 -2.2265625,0.726563 l 0.9375,13.125 6.4921871,-11.320313 -0.117187,-1.945312 c -0.08203,-0.246094 -0.275391,-0.410156 -0.585938,-0.492188 -0.328125,-0.05859 -0.726562,-0.09375 -1.195312,-0.09375 -0.175781,0 -0.257813,-0.105468 -0.257813,-0.328125 0.04687,-0.216796 0.08203,-0.363281 0.117188,-0.445312 0.04687,-0.09375 0.152344,-0.140625 0.328125,-0.140625 h 6.1875 c 0.169922,0 0.257812,0.117187 0.257812,0.351562 -0.01758,0.04687 -0.04102,0.128907 -0.07031,0.234375 -0.01758,0.09375 -0.04687,0.175782 -0.09375,0.234375 -0.03516,0.06445 -0.09375,0.09375 -0.1875,0.09375 -1.394531,0 -2.126953,0.246094 -2.203125,0.726563 v 0.1875 L 16.291259,-3 23.369384,-15.328125 c 0.09375,-0.1875 0.140625,-0.410156 0.140625,-0.679688 0,-0.263671 -0.175781,-0.46875 -0.515625,-0.609375 -0.345703,-0.140625 -0.738281,-0.216796 -1.171875,-0.234375 -0.158203,0 -0.234375,-0.105468 -0.234375,-0.328125 0.0293,-0.140625 0.05273,-0.246093 0.07031,-0.328125 0.01172,-0.07617 0.04687,-0.128906 0.09375,-0.164062 0.05859,-0.04687 0.152344,-0.07617 0.28125,-0.09375 h 4.945313 c 0.169922,0 0.257812,0.117187 0.257812,0.351562 -0.01758,0.04687 -0.04102,0.128907 -0.07031,0.234375 -0.01758,0.111329 -0.04687,0.199219 -0.09375,0.257813 -0.04687,0.04687 -0.105469,0.07031 -0.164063,0.07031 -1.236328,0 -2.173828,0.5625 -2.8125,1.6875 -0.04687,0.06445 -0.07031,0.09375 -0.07031,0.09375 L 15.213134,0.28125 C 15.119384,0.48046875 14.96704,0.57421875 14.767821,0.5625 H 14.556884 C 14.334228,0.57421875 14.234618,0.48046875 14.252196,0.28125 L 13.244384,-13.101563 5.6037589,0.28125 C 5.4748526,0.48046875 5.3283683,0.57421875 5.1584464,0.5625 H 4.9475089 C 4.7424308,0.57421875 4.6428214,0.48046875 4.6428214,0.28125 Z m 0,0"
       style="fill:#ffd54f;fill-opacity:1;fill-rule:nonzero;stroke:none"
       aria-label="W"
       transform="matrix(0,-0.66666667,0.66666667,0,14.21875,266.87256)" />
    <path
       id="path101"
       d="M 1.2895804,0 C 1.1137991,0 1.0317679,-0.1171875 1.0317679,-0.3515625 c 0.011719,-0.0292969 0.029297,-0.09375 0.046875,-0.1875 0.029297,-0.10546875 0.058594,-0.19335938 0.09375,-0.2578125 0.046875,-0.0585938 0.1171875,-0.0996094 0.2109375,-0.1171875 1.6523437,0 2.6132812,-0.5273438 2.8828125,-1.59375 l 3.375,-13.5703125 c 0.029297,-0.152344 0.046875,-0.292969 0.046875,-0.421875 0,-0.140625 -0.1347656,-0.222656 -0.3984375,-0.257813 -0.2695313,-0.04687 -0.8613281,-0.07617 -1.78125,-0.09375 -0.1757813,0 -0.2578125,-0.105468 -0.2578125,-0.328125 0.011719,-0.0293 0.029297,-0.09961 0.046875,-0.210937 0.029297,-0.105469 0.058594,-0.193359 0.09375,-0.257813 0.046875,-0.07617 0.1054687,-0.117187 0.1875,-0.117187 h 4.5937501 c 0.1875,0.01758 0.292969,0.117187 0.328125,0.304687 l 2.039062,14.882813 9.46875,-14.882813 c 0.105469,-0.1875 0.269532,-0.287109 0.492188,-0.304687 h 4.40625 c 0.152344,0 0.240234,0.117187 0.257812,0.351562 -0.01758,0.04687 -0.04102,0.128907 -0.07031,0.234375 -0.01758,0.111329 -0.04687,0.199219 -0.09375,0.257813 -0.04687,0.04687 -0.105469,0.07031 -0.164063,0.07031 -1.066406,0.01758 -1.798828,0.08203 -2.203125,0.1875 -0.234375,0.08203 -0.410156,0.316407 -0.515625,0.703125 l -3.5625,14.273438 c -0.03516,0.1757812 -0.04687,0.2988281 -0.04687,0.375 0,0.082031 0.0059,0.140625 0.02344,0.1875 0.01172,0.035156 0.03516,0.058594 0.07031,0.070312 0.04687,0.017578 0.117188,0.035156 0.210938,0.046875 0.328125,0.0644531 0.949219,0.09375 1.875,0.09375 0.169922,0 0.257812,0.1171875 0.257812,0.3515625 -0.06445,0.25195313 -0.117187,0.41015625 -0.164062,0.46875 C 22.746612,-0.02929687 22.66458,0 22.523955,0 H 15.72708 c -0.175781,0 -0.257812,-0.1171875 -0.257812,-0.3515625 0.01172,-0.0292969 0.0293,-0.0996094 0.04687,-0.2109375 0.0293,-0.10546875 0.05859,-0.19335938 0.09375,-0.2578125 0.04687,-0.0585938 0.105469,-0.09375 0.1875,-0.09375 1.042969,0 1.78125,-0.0585938 2.203125,-0.1875 0.234375,-0.058594 0.404297,-0.2871094 0.515625,-0.6796875 L 22.242705,-16.851563 11.766143,-0.28125 C 11.637237,-0.09375 11.461455,0 11.22708,0 11.004424,0 10.887237,-0.09375 10.875518,-0.28125 l -2.2265626,-16.359375 -3.5625,14.25 c -0.017578,0.046875 -0.035156,0.1054687 -0.046875,0.1640625 0,0.064453 -0.011719,0.1347656 -0.023437,0.2109375 0,0.4570312 0.1933594,0.75 0.5859375,0.890625 0.3867187,0.140625 0.8730469,0.2109375 1.453125,0.2109375 0.1699219,0 0.2578125,0.1171875 0.2578125,0.3515625 -0.064453,0.22265625 -0.1171875,0.36914063 -0.1640625,0.4453125 C 7.1137991,-0.03515625 7.0200491,0 6.8677054,0 Z m 0,0"
       style="fill:#ffd54f;fill-opacity:1;fill-rule:nonzero;stroke:none"
       aria-label="M"
       transform="matrix(0,-0.66666667,0.66666667,0,14.21875,247.73081)" />
    <path
       id="path102"
       d="m 292.40677,727.59998 c 0,-3.31371 -2.68629,-6 -6,-6 -3.31371,0 -6,2.68629 -6,6 0,3.3137 2.68629,6 6,6 3.31371,0 6,-2.6863 6,-6 z"
       style="fill:none;stroke:#03dac5;stroke-width:10;stroke-linecap:butt;stroke-linejoin:miter;stroke-miterlimit:5;stroke-dasharray:none;stroke-opacity:1"
       transform="matrix(0.66666667,0,0,0.66666667,-65.485657,-34.666667)" />
    <path
       id="path103"
       d="m 517.40802,654.20001 c 0,-3.31371 -2.68629,-6 -6,-6 -3.31371,0 -6,2.68629 -6,6 0,3.31371 2.68629,6 6,6 3.31371,0 6,-2.68629 6,-6 z"
       style="fill:none;stroke:#03dac5;stroke-width:10;stroke-linecap:butt;stroke-linejoin:miter;stroke-miterlimit:5;stroke-dasharray:none;stroke-opacity:1"
       transform="matrix(0.66666667,0,0,0.66666667,-65.485657,-34.666667)" />
    <path
       id="path104"
       d="m 704.00513,580.79999 c 0,-3.31371 -2.68629,-6 -6,-6 -3.31371,0 -6,2.68629 -6,6 0,3.31371 2.68629,6 6,6 3.31371,0 6,-2.68629 6,-6 z"
       style="fill:none;stroke:#03dac5;stroke-width:10;stroke-linecap:butt;stroke-linejoin:miter;stroke-miterlimit:5;stroke-dasharray:none;stroke-opacity:1"
       transform="matrix(0.66666667,0,0,0.66666667,-65.485657,-34.666667)" />
    <path
       id="path105"
       d="m 806.06439,507.39999 c 0,-3.31371 -2.68629,-6 -6,-6 -3.31371,0 -6,2.68629 -6,6 0,3.31371 2.68629,6 6,6 3.31371,0 6,-2.68629 6,-6 z"
       style="fill:none;stroke:#03dac5;stroke-width:10;stroke-linecap:butt;stroke-linejoin:miter;stroke-miterlimit:5;stroke-dasharray:none;stroke-opacity:1"
       transform="matrix(0.66666667,0,0,0.66666667,-65.485657,-34.666667)" />
    <path
       id="path106"
       d="m 906.82452,434 c 0,-3.31371 -2.68629,-6 -6,-6 -3.31371,0 -6,2.68629 -6,6 0,3.31371 2.68629,6 6,6 3.31371,0 6,-2.68629 6,-6 z"
       style="fill:none;stroke:#03dac5;stroke-width:10;stroke-linecap:butt;stroke-linejoin:miter;stroke-miterlimit:5;stroke-dasharray:none;stroke-opacity:1"
       transform="matrix(0.66666667,0,0,0.66666667,-65.485657,-34.666667)" />
    <path
       id="path107"
       d="m 1012.3426,360.59997 c 0,-3.3137 -2.6863,-6 -6,-6 -3.3137,0 -6,2.6863 -6,6 0,3.31371 2.6863,6 6,6 3.3137,0 6,-2.68629 6,-6 z"
       style="fill:none;stroke:#03dac5;stroke-width:10;stroke-linecap:butt;stroke-linejoin:miter;stroke-miterlimit:5;stroke-dasharray:none;stroke-opacity:1"
       transform="matrix(0.66666667,0,0,0.66666667,-65.485657,-34.666667)" />
    <path
       id="path108"
       d="m 1117.5521,287.20001 c 0,-3.31371 -2.6863,-6 -6,-6 -3.3137,0 -6,2.68629 -6,6 0,3.31371 2.6863,6 6,6 3.3137,0 6,-2.68629 6,-6 z"
       style="fill:none;stroke:#03dac5;stroke-width:10;stroke-linecap:butt;stroke-linejoin:miter;stroke-miterlimit:5;stroke-dasharray:none;stroke-opacity:1"
       transform="matrix(0.66666667,0,0,0.66666667,-65.485657,-34.666667)" />
    <path
       id="path109"
       d="m 1214.0253,213.79999 c 0,-3.31371 -2.6863,-6 -6,-6 -3.3137,0 -6,2.68629 -6,6 0,3.31371 2.6863,6 6,6 3.3137,0 6,-2.68629 6,-6 z"
       style="fill:none;stroke:#03dac5;stroke-width:10;stroke-linecap:butt;stroke-linejoin:miter;stroke-miterlimit:5;stroke-dasharray:none;stroke-opacity:1"
       transform="matrix(0.66666667,0,0,0.66666667,-65.485657,-34.666667)" />
    <path
       id="path110"
       d="m 1301.4698,140.40002 c 0,-3.3137 -2.6862,-6 -6,-6 -3.3137,0 -6,2.6863 -6,6 0,3.31371 2.6863,6 6,6 3.3138,0 6,-2.68629 6,-6 z"
       style="fill:none;stroke:#03dac5;stroke-width:10;stroke-linecap:butt;stroke-linejoin:miter;stroke-miterlimit:5;stroke-dasharray:none;stroke-opacity:1"
       transform="matrix(0.66666667,0,0,0.66666667,-65.485657,-34.666667)" />
    <path
       id="path111"
       d="m 195,801 0.46519,-0.17181 0.46521,-0.17188 0.4652,-0.172 0.46519,-0.17206 0.46521,-0.17217 0.4652,-0.17225 0.46519,-0.17236 0.46521,-0.17242 0.4652,-0.17249 0.46519,-0.17261 0.46521,-0.17273 0.4652,-0.17279 0.46521,-0.17285 0.46519,-0.17297 0.4652,-0.1731 0.46521,-0.17315 0.46519,-0.17322 0.4652,-0.17334 0.46521,-0.17346 0.46519,-0.17347 0.46519,-0.17364 0.46521,-0.17365 0.4652,-0.17382 0.46519,-0.17389 0.46521,-0.17395 0.4652,-0.17401 0.46519,-0.1742 0.46521,-0.17419 0.4652,-0.17432 0.46519,-0.17444 0.46521,-0.1745 0.4652,-0.17462 0.46519,-0.17468 0.46521,-0.17475 0.4652,-0.17486 0.46519,-0.17499 0.46521,-0.17505 0.4652,-0.17511 0.46521,-0.17523 0.46519,-0.17529 0.4652,-0.17542 0.46521,-0.17553 0.46519,-0.17554 0.46519,-0.17572 0.46521,-0.17572 0.4652,-0.1759 0.46519,-0.17591 0.46521,-0.17609 0.4652,-0.17608 0.46519,-0.17621 0.46521,-0.17633 0.4652,-0.17639 0.46519,-0.17652 0.46521,-0.17657 0.4652,-0.17664 0.46519,-0.17675 0.46521,-0.17688 0.4652,-0.17695 0.46519,-0.177 0.46521,-0.17712 0.4652,-0.17725 0.46521,-0.17724 0.46519,-0.17743 0.4652,-0.17749 0.46521,-0.17755 0.46519,-0.17768 0.46519,-0.17773 0.46521,-0.17786 0.4652,-0.17792 0.46519,-0.17804 0.46521,-0.1781 0.4652,-0.17816 0.46519,-0.17834 0.46521,-0.17835 0.4652,-0.17846 0.46519,-0.17859 0.46521,-0.17865 0.4652,-0.17871 0.46519,-0.17884 0.46521,-0.17895 0.4652,-0.17902 0.46519,-0.17907 0.46521,-0.1792 0.4652,-0.17926 0.46521,-0.17939 0.46519,-0.17944 0.4652,-0.17957 0.46521,-0.17962 0.46519,-0.17975 0.4652,-0.17981 0.46521,-0.17993 0.46519,-0.17999 0.46519,-0.18012 0.46521,-0.18017 0.4652,-0.1803 0.46519,-0.18036 0.46521,-0.18042 0.4652,-0.18054 0.46519,-0.18067 0.46521,-0.18072 0.4652,-0.18079 0.46519,-0.18091 0.46521,-0.18103 0.4652,-0.18109 0.46519,-0.18115 0.46521,-0.18127 0.4652,-0.18134 0.46519,-0.18146 0.46521,-0.18152 0.4652,-0.18164 0.46521,-0.1817 0.46519,-0.18182 0.4652,-0.18189 0.46521,-0.182 0.46519,-0.18207 0.46519,-0.18219 0.46522,-0.18225 0.46519,-0.18232 0.4652,-0.18243 0.4652,-0.18256 0.4652,-0.18261 0.46519,-0.18268 0.46521,-0.1828 0.4652,-0.18292 0.46519,-0.18299 0.46521,-0.18304 0.4652,-0.18317 0.46519,-0.18322 0.46521,-0.18335 0.4652,-0.18342 0.46519,-0.18353 0.46521,-0.18359 0.46521,-0.18372 0.46518,-0.18377 0.46521,-0.1839 0.46521,-0.18396 0.46518,-0.18408 0.46521,-0.18415 0.46521,-0.1842 0.46518,-0.18433 0.46521,-0.18445 0.46521,-0.18451 0.46518,-0.18457 0.46521,-0.18469 0.46521,-0.18481 0.46518,-0.18488 0.46521,-0.18493 0.46521,-0.18506 0.46518,-0.18512 0.46521,-0.18525 0.46521,-0.18536 0.46518,-0.18536 0.46521,-0.18555 0.46521,-0.18555 0.46518,-0.18573 0.46521,-0.18573 0.46521,-0.18585 0.46518,-0.18597 0.46521,-0.18604 0.46521,-0.18616 0.46518,-0.18621 0.46521,-0.18628 0.46521,-0.1864 0.46517,-0.18653 0.46521,-0.18658 0.46521,-0.18665 0.46518,-0.18676 0.46521,-0.1869 0.46521,-0.18694 0.46521,-0.18702 0.46518,-0.18713 0.46521,-0.1872 0.46521,-0.18731 0.46518,-0.18738 0.46521,-0.1875 0.46521,-0.18756 0.46518,-0.18769 0.46521,-0.18774 0.46521,-0.18787 0.46518,-0.18792 0.46521,-0.18799 0.46521,-0.18817 0.46518,-0.18817 0.46521,-0.1883 0.46521,-0.18841 0.46518,-0.18848 0.46521,-0.18854 0.46521,-0.18866 0.46518,-0.18872 0.46521,-0.18884 0.46521,-0.18896 0.46518,-0.18903 0.46521,-0.18909 0.46521,-0.18921 0.46518,-0.18927 0.46521,-0.18939 0.46521,-0.18945 0.46518,-0.18958 0.46521,-0.18963 0.46521,-0.18976 0.46518,-0.18982 0.46521,-0.18988 0.46521,-0.19 0.46518,-0.19013 0.46521,-0.19018 0.46521,-0.19031 0.46518,-0.19037 0.46521,-0.19043 0.46521,-0.19055 0.46518,-0.19061 0.46521,-0.19074 0.46521,-0.19086 0.46517,-0.19091 0.46521,-0.19098 0.46521,-0.1911 0.46518,-0.19117 0.46521,-0.19128 0.46521,-0.19135 0.46521,-0.19146 0.46518,-0.19153 0.46521,-0.19165 0.46521,-0.19171 0.46518,-0.19178 0.46521,-0.19195 0.46521,-0.19196 0.46518,-0.19207 0.46521,-0.1922 0.46521,-0.19226 0.46518,-0.19233 0.46521,-0.19244 0.46521,-0.19257 0.46518,-0.19262 0.46521,-0.19269 0.46521,-0.19281 0.46518,-0.19287 0.46521,-0.193 0.46521,-0.19305 0.46518,-0.19318 0.46521,-0.19323 0.46521,-0.19336 0.46518,-0.19342 0.46521,-0.19354 0.46521,-0.19361 0.46518,-0.19372 0.46521,-0.19379 0.46521,-0.19391 0.46518,-0.19397 0.46521,-0.19403 0.46521,-0.19415 0.46518,-0.19428 0.46521,-0.19433 0.46521,-0.1944 0.46518,-0.19452 0.46521,-0.19464 0.46521,-0.19464 0.46518,-0.19483 0.46521,-0.19488 0.46521,-0.19495 0.46517,-0.19507 0.46521,-0.19512 0.46521,-0.19526 0.46518,-0.19531 0.46521,-0.19543 0.46522,-0.1955 0.4652,-0.19562 0.46518,-0.19568 0.46521,-0.19574 0.46521,-0.19586 0.46518,-0.19598 0.46521,-0.19605 0.46521,-0.19616 0.46518,-0.19623 0.46521,-0.19629 0.46521,-0.19641 0.46518,-0.19647 0.46521,-0.1966 0.46521,-0.19671 0.46518,-0.19678 0.46521,-0.19684 0.46521,-0.19696 0.46518,-0.19702 0.46521,-0.19715 0.46521,-0.1972 0.46518,-0.19733 0.46521,-0.19738 0.46521,-0.19745 0.46518,-0.19763 0.46521,-0.19764 0.46521,-0.19775 0.46518,-0.19788 0.46521,-0.19793 0.46521,-0.19806 0.46518,-0.19812 0.46521,-0.19818 0.46521,-0.19831 0.46518,-0.19836 0.46521,-0.19849 0.46521,-0.19861 0.46518,-0.19867 0.46521,-0.19873 0.46521,-0.19885 0.46518,-0.19891 0.46521,-0.19904 0.46521,-0.1991 0.46518,-0.19921 0.46521,-0.19928 0.46521,-0.1994 0.46517,-0.19947 0.46521,-0.19958 0.46521,-0.19965 0.46518,-0.19971 0.46522,-0.19983 0.4652,-0.19995 0.46521,-0.20001 0.46518,-0.20007 0.46521,-0.2002 0.46521,-0.20031 0.46518,-0.20038 0.46521,-0.20044 0.46521,-0.20056 0.46518,-0.20063 0.46521,-0.20074 0.46521,-0.20081 0.46518,-0.20092 0.46521,-0.20105 0.46521,-0.20105 0.46518,-0.20124 0.46521,-0.20123 0.46521,-0.20135 0.46518,-0.20148 0.46521,-0.20154 0.46521,-0.20166 0.46518,-0.20172 0.46521,-0.20178 0.46521,-0.20191 0.46518,-0.20202 0.46521,-0.20209 0.46521,-0.20215 0.46518,-0.20227 0.46521,-0.20239 0.46521,-0.20246 0.46518,-0.20251 0.46521,-0.20264 0.46521,-0.2027 0.46518,-0.20282 0.46521,-0.20288 0.46521,-0.203 0.46518,-0.20306 0.46521,-0.20319 0.46521,-0.20325 0.46518,-0.20337 0.46521,-0.20343 0.46521,-0.20355 0.46518,-0.20361 0.46521,-0.20368 0.46521,-0.20379 0.46517,-0.20392 0.46521,-0.20398 0.46521,-0.20404 0.46518,-0.20416 0.46521,-0.20429 0.46521,-0.20428 0.46521,-0.20447 0.46518,-0.20453 0.46521,-0.20459 0.46521,-0.20471 0.46518,-0.20477 0.46521,-0.2049 0.46521,-0.20496 0.46518,-0.20507 0.46521,-0.20514 0.46521,-0.20526 0.46518,-0.20533 0.46521,-0.20538 0.46521,-0.20556 0.46518,-0.20557 0.46521,-0.20569 0.46521,-0.20581 0.46518,-0.20587 0.46521,-0.20593 0.46521,-0.20606 0.46518,-0.20618 0.46521,-0.20623 0.46521,-0.2063 0.46518,-0.20642 0.46521,-0.20649 0.46521,-0.2066 0.46518,-0.20666 0.46521,-0.20679 0.46521,-0.20685 0.46518,-0.20697 0.46521,-0.20703 0.46521,-0.20716 0.46518,-0.20721 0.46521,-0.20734 0.46521,-0.20739 0.46518,-0.20746 0.46521,-0.20764 0.46521,-0.20764 0.46518,-0.20777 0.46521,-0.20788 0.46521,-0.20795 0.46517,-0.20801 0.46521,-0.20813 0.46521,-0.20819 0.46518,-0.20831 0.46521,-0.20844 0.46521,-0.20849 0.46521,-0.20856 0.46518,-0.20868 0.46521,-0.20874 0.46521,-0.20886 0.46518,-0.20893 0.46521,-0.20904 0.46521,-0.20911 0.46518,-0.20916 0.46521,-0.2093 0.46521,-0.20941 0.46518,-0.20947 0.46521,-0.20959 0.46521,-0.20966 0.46518,-0.20972 0.46521,-0.20983 0.46521,-0.20997 0.46518,-0.21002 0.46521,-0.21008 0.46521,-0.21021 0.46518,-0.21026 0.46521,-0.21039 0.46521,-0.21051 0.46518,-0.21051 0.46521,-0.21069 0.46521,-0.2107 0.46518,-0.21087 0.46521,-0.21088 0.46521,-0.211 0.46518,-0.21112 0.46521,-0.21118 0.46521,-0.21131 0.46518,-0.21136 0.46521,-0.21149 0.46521,-0.21154 0.46518,-0.21161 0.46521,-0.21174 0.46521,-0.21185 0.46518,-0.21185 0.46521,-0.21204 0.46521,-0.21209 0.46518,-0.21216 0.46521,-0.21228 0.46521,-0.21234 0.46517,-0.21247 0.46521,-0.21258 0.46521,-0.21259 0.46519,-0.21277 0.4652,-0.21277 0.46521,-0.21289 0.46521,-0.21301 0.46518,-0.21307 0.46521,-0.2132 0.46521,-0.21326 0.46518,-0.21337 0.46521,-0.21344 0.46521,-0.21351 0.46518,-0.21362 0.46521,-0.21374 0.46521,-0.21381 0.46518,-0.21387 0.46521,-0.21399 0.46521,-0.21405 0.46518,-0.21417 0.46521,-0.21429 0.46521,-0.2143 0.46518,-0.21447 0.46521,-0.21448 0.46521,-0.21466 0.46518,-0.21472 0.46521,-0.21479 0.46521,-0.21484 0.46518,-0.21503 0.46521,-0.21502 0.46521,-0.21515 0.46518,-0.21527 0.46521,-0.21534 0.46521,-0.21545 0.46518,-0.21552 0.46521,-0.21557 0.46521,-0.2157 0.46518,-0.21582 0.46521,-0.21588 0.46521,-0.21594 0.46518,-0.21607 0.46521,-0.21612 0.46521,-0.21625 0.46518,-0.21631 0.46521,-0.21643 0.46521,-0.21649 0.46518,-0.21662 0.46521,-0.21667 0.46521,-0.2168 0.46517,-0.21686 0.46521,-0.21698 0.46521,-0.21704 0.46518,-0.21716 0.46521,-0.21722 0.46521,-0.21729 0.46521,-0.21741 0.46518,-0.21753 0.46521,-0.21759 0.46521,-0.21765 0.46518,-0.21777 0.46521,-0.2179 0.46521,-0.21795 0.46518,-0.21802 0.46521,-0.21814 0.46521,-0.2182 0.46518,-0.21832 0.46521,-0.21839 0.46521,-0.2185 0.46518,-0.21857 0.46521,-0.21869 0.46521,-0.21875 0.46518,-0.21887 0.46521,-0.21893 0.46521,-0.219 0.46518,-0.21918 0.46521,-0.21917 0.46521,-0.2193 0.46518,-0.21942 0.46521,-0.21949 0.46521,-0.21954 0.46518,-0.21967 0.46521,-0.21978 0.46521,-0.21985 0.46518,-0.21991 0.46521,-0.22003 0.46521,-0.22009 0.46518,-0.22022 0.46521,-0.22028 0.46521,-0.22039 0.46518,-0.22046 0.46521,-0.22058 0.46521,-0.22065 0.46518,-0.22076 0.46521,-0.22083 0.46521,-0.22094 0.46517,-0.22101 0.46521,-0.22107 0.46522,-0.22119 0.46518,-0.22132 0.4652,-0.22137 0.46521,-0.22144 0.46521,-0.22155 0.46518,-0.22168 0.46521,-0.22174 0.46521,-0.22181 0.46518,-0.22192 0.46521,-0.22198 0.46521,-0.22211 0.46518,-0.22217 0.46521,-0.22229 0.46521,-0.22241 0.46518,-0.22241 0.46521,-0.2226 0.46521,-0.22259 0.46518,-0.22272 0.46521,-0.22284 0.46521,-0.2229 0.46518,-0.22302 0.46521,-0.22309 0.46521,-0.22314 0.46518,-0.22327 0.46521,-0.22339 0.46521,-0.22345 0.46518,-0.22351 0.46521,-0.22363 0.46521,-0.22375 0.46518,-0.22382 0.46521,-0.22388 0.46521,-0.224 0.46518,-0.22406 0.46521,-0.22418 0.46521,-0.22424 0.46518,-0.22437 0.46521,-0.22442 0.46521,-0.22455 0.46518,-0.22461 0.46521,-0.22473 0.46521,-0.22479 0.46518,-0.22486 0.46521,-0.22497 0.46521,-0.2251 0.46518,-0.22516 0.46521,-0.22528 0.46521,-0.22534 0.46517,-0.22541 0.46521,-0.22552 0.46522,-0.22559 0.46518,-0.22571 0.46521,-0.22583 0.4652,-0.22589 0.46521,-0.22595 0.46518,-0.22607 0.46521,-0.22614 0.46521,-0.22625 0.46518,-0.22632 0.46521,-0.22644 0.46521,-0.22651 0.46518,-0.22662 0.46521,-0.22668 0.46521,-0.22675 0.46518,-0.22687 0.46521,-0.22699 0.46521,-0.22705 0.46518,-0.22717 0.46521,-0.22723 0.46521,-0.2273 0.46518,-0.22742 0.46521,-0.22747 0.46521,-0.2276 0.46518,-0.22773 0.46521,-0.22778 0.46521,-0.22784 0.46518,-0.22797 0.46521,-0.22803 0.46521,-0.22815 0.46518,-0.22821 0.46521,-0.22833 0.46521,-0.22839 0.46518,-0.22852 0.46521,-0.22857 0.46521,-0.2287 0.46518,-0.22876 0.46521,-0.22882 0.46521,-0.22895 0.46518,-0.22906 0.46521,-0.22913 0.46521,-0.22919 0.46518,-0.2293 0.46521,-0.22944 0.46521,-0.22949 0.46518,-0.22955 0.46521,-0.22968 0.46521,-0.22973 0.46517,-0.22986 0.46521,-0.22992 0.46521,-0.23004 0.46518,-0.2301 0.46521,-0.23023 0.46521,-0.23029 0.46521,-0.2304 0.46518,-0.23047 0.46521,-0.23059 0.46521,-0.23065 0.46518,-0.23078 0.46521,-0.23083 0.46521,-0.2309 0.46518,-0.23102 0.46521,-0.23114 0.46521,-0.2312 0.46518,-0.23126 0.46521,-0.23138 0.46521,-0.23151 0.46518,-0.23157 0.46521,-0.23163 0.46521,-0.23175 0.46518,-0.23181 0.46521,-0.23193 0.46521,-0.232 0.46518,-0.23211 0.46521,-0.23218 0.46521,-0.2323 0.46518,-0.23236 0.46521,-0.23248 0.46521,-0.23255 0.46518,-0.2326 0.46521,-0.23273 0.46521,-0.23285 0.46518,-0.23291 0.46521,-0.23303 0.46521,-0.2331 0.46521,-0.23315 0.46521,-0.23328 0.46515,-0.2334 0.46521,-0.23339 0.46521,-0.23359 0.46521,-0.23364 0.46521,-0.2337 0.46521,-0.23383 0.46515,-0.23388 0.46521,-0.23401 0.46521,-0.23407 0.4652,-0.23419 0.46521,-0.23426 0.46521,-0.23437 0.46515,-0.23444 0.46521,-0.2345 0.46521,-0.23461 0.46521,-0.23475 0.46521,-0.2348 0.46521,-0.23492 0.46515,-0.23499 0.46521,-0.23504 0.46521,-0.23517 0.46521,-0.23529 0.46521,-0.23529 0.46521,-0.23548 0.46515,-0.23553 0.46521,-0.2356 0.46521,-0.23572 0.46521,-0.23577 0.46521,-0.2359 0.46521,-0.23597 0.46515,-0.23608 0.46521,-0.23614 0.46521,-0.23627 0.46521,-0.23633 0.46521,-0.23645 0.46521,-0.23651 0.46515,-0.23657 0.46521,-0.2367 0.46521,-0.23682 0.46521,-0.23687 0.46521,-0.23694 0.46521,-0.23706 0.46521,-0.23718 0.46515,-0.23725 0.46521,-0.2373 0.46521,-0.23743 0.46521,-0.23749 0.46521,-0.23761 0.46521,-0.23773 0.46515,-0.23773 0.46521,-0.23792 0.46521,-0.23791 0.46521,-0.2381 0.46521,-0.2381 0.46521,-0.23822 0.46515,-0.23834 0.4652,-0.2384 0.46522,-0.23853 0.46521,-0.23858 0.4652,-0.23871 0.46522,-0.23871 0.46514,-0.23889 0.46521,-0.23896 0.46521,-0.23907 0.46521,-0.23908 0.46521,-0.23925 0.46521,-0.23932 0.46515,-0.23938 0.46521,-0.2395 0.46521,-0.23957 0.46521,-0.23968 0.46521,-0.23975 0.46521,-0.23987 0.46515,-0.23992 0.46521,-0.24006 0.46521,-0.24011 0.46521,-0.24023 0.46521,-0.2403 0.46521,-0.24042 0.46515,-0.24047 0.46521,-0.24054 0.46521,-0.24067 0.46521,-0.24078 0.46521,-0.24084 0.46521,-0.24091 0.46515,-0.24103 0.46521,-0.24115 0.46521,-0.24121 0.46521,-0.24127 0.46521,-0.2414 0.46521,-0.24145 0.46521,-0.24158 0.46515,-0.24163 0.46521,-0.24177 0.46521,-0.24182 0.46521,-0.24194 0.46521,-0.242 0.46521,-0.24213 0.46515,-0.24219 0.46521,-0.24231 0.46521,-0.24237 0.46521,-0.24243 0.46521,-0.24255 0.46521,-0.24268 0.46515,-0.24274 0.4652,-0.24279 0.46521,-0.24292 0.46521,-0.24305 0.46521,-0.2431 0.46521,-0.24316 0.46515,-0.24329 0.46521,-0.24335 0.46521,-0.24347 0.46521,-0.24359 0.46521,-0.24359 0.46521,-0.24377 0.46515,-0.24378 0.46521,-0.24396 0.46521,-0.24395 0.46521,-0.24408 0.46521,-0.2442 0.46521,-0.24427 0.46515,-0.24438 0.46521,-0.24445 0.46521,-0.2445 0.46521,-0.24463 0.46521,-0.24475 0.46521,-0.24482 0.46515,-0.24487 0.46521,-0.24499 0.46521,-0.24512 0.46521,-0.24512 0.46521,-0.2453 0.46521,-0.24536 0.46521,-0.24542 0.46515,-0.24555 0.46521,-0.2456 0.46521,-0.24573 0.46521,-0.24579 0.46521,-0.24591 0.46521,-0.24597 0.46515,-0.24609 0.46521,-0.24616 0.46521,-0.24621 0.46521,-0.24634 0.46521,-0.24646 0.46521,-0.24652 0.46515,-0.24659 0.46521,-0.24676 0.46521,-0.24677 0.46521,-0.24688 0.46521,-0.24695 0.46521,-0.24707 0.46515,-0.24713 0.4652,-0.24726 0.46521,-0.24737 0.46522,-0.24744 0.4652,-0.2475 0.46522,-0.24762 0.46514,-0.24768 0.46521,-0.24774 0.46521,-0.24792 0.46521,-0.24793 0.46521,-0.24804 0.46521,-0.24817 0.46515,-0.24823 0.46521,-0.24836 0.46521,-0.24841 0.46521,-0.24847 0.46521,-0.2486 0.46521,-0.24872 0.46515,-0.24878 0.46521,-0.24884 0.46521,-0.24896 0.46521,-0.24902 0.46521,-0.24915 0.46521,-0.24927 0.46515,-0.24932 0.46521,-0.24939 0.46521,-0.24952 0.46521,-0.24957 0.46521,-0.24963 0.46521,-0.24982 0.46521,-0.24982 0.46515,-0.25 0.46521,-0.25 0.46521,-0.25012 0.46521,-0.25024 0.46521,-0.25031 0.46521,-0.25043 0.46515,-0.25048 0.46521,-0.25055 0.46521,-0.25067 0.46521,-0.25074 0.46521,-0.25085 0.46521,-0.25098 0.46515,-0.25104 0.46521,-0.25109 0.46521,-0.25122 0.46521,-0.25129 0.46521,-0.2514 0.46521,-0.25146 0.46514,-0.25159 0.46521,-0.25165 0.46521,-0.25177 0.46521,-0.25183 0.46521,-0.25195 0.46521,-0.25202 0.46515,-0.25207 0.46521,-0.2522 0.46521,-0.25232 0.46521,-0.25238 0.46521,-0.25244 0.46521,-0.25263 0.46515,-0.25262 0.46521,-0.25275 0.46521,-0.25281 0.46521,-0.25292 0.46521,-0.25299 0.46521,-0.25312 0.46515,-0.25323 0.46521,-0.25324 0.46521,-0.25342 0.46521,-0.25347 0.46521,-0.25354 0.46521,-0.25361 0.46515,-0.25372 0.46521,-0.25384 0.46521,-0.25391 0.46521,-0.25403 0.46521,-0.25409 0.46521,-0.25421 0.46521,-0.25427 0.46515,-0.25434 0.46521,-0.25445 0.46521,-0.25458 0.46521,-0.25458 0.46521,-0.25476 0.46521,-0.25482 0.46515,-0.25488 0.46521,-0.25501 0.46521,-0.25506 0.46521,-0.25519 0.46521,-0.25525 0.46521,-0.25537 0.46515,-0.25543 0.46521,-0.25556 0.46521,-0.25561 0.46521,-0.25574 0.46521,-0.2558 0.46521,-0.25592 0.46514,-0.25598 0.46521,-0.2561 0.46521,-0.25611 0.46521,-0.25628 0.46521,-0.25635 0.46521,-0.25647 0.46515,-0.25653 0.46521,-0.25659 0.46521,-0.25672 0.46521,-0.25677 0.46521,-0.2569 0.46521,-0.25696 0.46515,-0.25708 0.46521,-0.2572 0.46521,-0.2572 0.46521,-0.25739 0.46521,-0.25738 0.46521,-0.25751 0.46515,-0.25763 0.46521,-0.25769 0.46521,-0.25781 0.46521,-0.25788 0.46521,-0.25799 0.46521,-0.25806 0.46515,-0.25812 0.46521,-0.25823 0.46521,-0.25837 0.46521,-0.25842 0.46521,-0.25848 0.46521,-0.25861 0.46521,-0.25867 0.46515,-0.25879 0.46521,-0.25891 0.46521,-0.25897 0.46521,-0.25903 0.46521,-0.25916 0.46521,-0.25921 0.46515,-0.25934 0.46521,-0.2594 0.46521,-0.25946 0.46521,-0.25964 0.46521,-0.25971 0.46521,-0.2597 0.46515,-0.25989 0.46521,-0.25995 0.46521,-0.26007 0.46521,-0.26013 0.46521,-0.2602 0.4652,-0.26031 0.46515,-0.26044 0.46521,-0.26044 0.46521,-0.26062 0.46521,-0.26068 0.46521,-0.26074 0.46521,-0.26086 0.46515,-0.26093 0.46521,-0.26104 0.46521,-0.26111 0.46521,-0.26123 0.46521,-0.2613 0.46521,-0.26141 0.46515,-0.26147 0.46521,-0.2616 0.46521,-0.26166 0.46521,-0.26178 0.46521,-0.26184 0.46521,-0.2619 0.46515,-0.26209 0.46521,-0.26208 0.46521,-0.26221 0.46521,-0.26233 0.46521,-0.26239 0.46521,-0.26245 0.46515,-0.26257 0.46521,-0.26264 0.46521,-0.26275 0.46521,-0.26282 0.46521,-0.26294 0.46521,-0.263 0.46521,-0.26312 0.46515,-0.26319 0.46521,-0.2633 0.46521,-0.26337 0.46521,-0.26349 0.46521,-0.26355 0.46521,-0.26367 0.46515,-0.26373 0.46521,-0.26379 0.46521,-0.26392 0.46521,-0.26404 0.46521,-0.2641 0.46521,-0.26422 0.46515,-0.26422 0.46521,-0.26441 0.46521,-0.26446 0.4652,-0.26453 0.46521,-0.26465 0.46521,-0.2647 0.46515,-0.26484 0.46521,-0.26489 0.46521,-0.26501 0.46521,-0.26508 0.46521,-0.2652 0.46521,-0.26532 0.46515,-0.26532 0.46521,-0.26544 0.46521,-0.26556 0.46521,-0.26563 0.46521,-0.26574 0.46521,-0.26581 0.46515,-0.26587 0.46521,-0.26599 0.46521,-0.26612 0.46521,-0.26617 0.46521,-0.26624 0.46521,-0.26635 0.46515,-0.26642 0.46521,-0.2666 0.46521,-0.26661 0.46521,-0.26672 0.46521,-0.26678 0.46521,-0.26691 0.46515,-0.26697 0.46521,-0.26709 0.46521,-0.26715 0.46521,-0.26721 0.46521,-0.2674 0.46521,-0.26745 0.46521,-0.26746 0.46515,-0.26764 0.46521,-0.2677 0.46521,-0.26782 0.46521,-0.26788 0.46521,-0.26795 0.46521,-0.26806 0.46515,-0.26819 0.46521,-0.26825 0.46521,-0.26831 0.46521,-0.26843 0.46521,-0.2685 0.46521,-0.26861 0.46514,-0.26874 0.46522,-0.26874 0.4652,-0.26892 0.46521,-0.26892 0.46521,-0.26904 0.46521,-0.26917 0.46515,-0.26922 0.46521,-0.26935 0.46521,-0.26941 0.46521,-0.26953 0.46521,-0.2696 0.46521,-0.26965 0.46515,-0.26977 0.46521,-0.2699 0.46521,-0.26996 0.46521,-0.27002 0.46521,-0.27014 0.46521,-0.27027 0.46515,-0.27032 0.46521,-0.27039 0.46521,-0.2705 0.46521,-0.27063 0.46521,-0.27063 0.46521,-0.27082 0.46515,-0.27081 0.46521,-0.27093 0.46521,-0.27106 0.46521,-0.27112 0.46521,-0.27124 0.46521,-0.2713 0.46521,-0.27143 0.46515,-0.27148 0.46521,-0.27161 0.46521,-0.27166 0.46521,-0.27173 0.46521,-0.27185 0.46521,-0.27197 0.46515,-0.27198 0.46521,-0.27215 0.46521,-0.27222 0.46521,-0.27234 0.46521,-0.27234 0.46521,-0.27252 0.46515,-0.27258 0.46521,-0.27265 0.46521,-0.2727 0.46521,-0.27289 0.46521,-0.27295 0.46521,-0.27301 0.46514,-0.27307 0.46521,-0.27326 0.46522,-0.27325 0.4652,-0.27338 0.46522,-0.27349 0.4652,-0.27356 0.46515,-0.27362 0.46521,-0.27375 0.46521,-0.27386 0.46521,-0.27393 0.46521,-0.27398 0.46521,-0.27411 0.46515,-0.27423 0.46521,-0.2743 0.46521,-0.27435 0.46521,-0.27448 0.46521,-0.27453 0.46521,-0.27466 0.46515,-0.27472 0.46521,-0.27484 0.46521,-0.2749 0.46521,-0.27503 0.46521,-0.27508 0.46521,-0.27521 0.46515,-0.27527 0.46521,-0.27533 0.46521,-0.27545 0.46521,-0.27557 0.46521,-0.27564 0.46521,-0.27575 0.46521,-0.27582 0.46515,-0.27588 0.46521,-0.276 0.46521,-0.27606 0.46521,-0.27619 0.46521,-0.2763 0.46521,-0.27631 0.46515,-0.27649 0.46521,-0.27655 0.46521,-0.27661 0.46521,-0.27674 0.46521,-0.27679 0.46521,-0.27692 0.46515,-0.27697 0.46521,-0.27704 0.46521,-0.27722 0.46521,-0.27723 0.46521,-0.27734 0.46521,-0.27746 0.46515,-0.27753 0.46521,-0.27759 0.4652,-0.27771 0.46521,-0.27783 0.46521,-0.27789 0.46521,-0.27796 0.46515,-0.27807 0.46521,-0.2782 0.46521,-0.2782 0.46521,-0.27838 0.46521,-0.27838 0.46521,-0.27857 0.46515,-0.27862 0.46521,-0.27869 0.46521,-0.27881 0.46521,-0.27887 0.46521,-0.27893 0.46521,-0.27911 0.46515,-0.27912 0.46521,-0.27923 0.46521,-0.27936 0.46521,-0.27942 0.46521,-0.27954 0.46521,-0.2796 0.46515,-0.27967 0.46521,-0.27978 0.46521,-0.27985 0.46521,-0.28003 0.46521,-0.28003 0.46521,-0.28015 0.46521,-0.28021 0.46515,-0.28033 0.46521,-0.2804 0.46521,-0.28052 0.46521,-0.28058 0.46521,-0.2807 0.46521,-0.28076 0.46515,-0.28088 0.46521,-0.28095 0.46521,-0.281 0.46521,-0.28119 0.46521,-0.28119 0.46521,-0.28131 0.46515,-0.28143 0.46521,-0.2815 0.46521,-0.28155 0.46521,-0.28174 0.46521,-0.28174 0.46521,-0.28186 0.46514,-0.28192 0.46522,-0.28205 0.4652,-0.28216 0.46521,-0.28217 0.46521,-0.28234 0.46521,-0.28235 0.46515,-0.28254 0.46521,-0.28253 0.46521,-0.28271 0.46521,-0.28272 0.46521,-0.28283 0.46521,-0.28296 0.46515,-0.28302 0.46521,-0.28315 0.46521,-0.2832 0.46521,-0.28326 0.46521,-0.28345 0.46521,-0.28345 0.46515,-0.28357 0.46521,-0.28369 0.46521,-0.28369 0.46521,-0.28387 0.46521,-0.28394 0.46521,-0.284 0.46515,-0.28411 0.46521,-0.28418 0.46521,-0.28431 0.46521,-0.28442 0.46521,-0.28442 0.46521,-0.28461 0.46521,-0.28461 0.46515,-0.28473 0.46521,-0.28485 0.46521,-0.28491 0.46521,-0.28503 0.46521,-0.2851 0.46521,-0.28522 0.46515,-0.28521 0.46521,-0.2854 0.46521,-0.28547 0.46521,-0.28552 0.46521,-0.28567 0.46521,-0.28571 0.46515,-0.28586 0.46521,-0.28589 0.46521,-0.28601 0.46521,-0.2861 0.46521,-0.28619 0.46521,-0.28626 0.46515,-0.28634 0.4652,-0.28647 0.46521,-0.28656 0.46521,-0.28662 0.46521,-0.28672 0.46521,-0.28683 0.46515,-0.28687 0.46521,-0.28701 0.46521,-0.28708 0.46521,-0.28717 0.46521,-0.28727 0.46521,-0.28738 0.46515,-0.28741 0.46521,-0.28754 0.46521,-0.28763 0.46521,-0.28772 0.46521,-0.28781 0.46521,-0.2879 0.46515,-0.28797 0.46521,-0.28808 0.46521,-0.28815 0.46521,-0.28827 0.46521,-0.28833 0.46521,-0.28845 0.46515,-0.28854 0.46521,-0.28861 0.46521,-0.28869 0.46521,-0.28879 0.46521,-0.28888 0.46521,-0.289 0.46521,-0.28907 0.46515,-0.28915 0.46521,-0.28925 0.46521,-0.28933 0.46521,-0.28943 0.46521,-0.28952 0.46521,-0.28961 0.46515,-0.28971 0.46521,-0.28979 0.46521,-0.28986 0.46521,-0.28998 0.46521,-0.29004 0.46521,-0.29016 0.46515,-0.29022 0.46521,-0.29034 0.46521,-0.29044 0.4652,-0.2905 0.46522,-0.29058 0.4652,-0.29071 0.46515,-0.29078 0.46521,-0.29089 0.46521,-0.29095 0.46521,-0.29105 0.46521,-0.29111 0.46521,-0.29126 0.46515,-0.29129 0.46521,-0.29144 0.46521,-0.2915 0.46521,-0.2916 0.46521,-0.29166 0.46521,-0.29177 0.46515,-0.29184 0.46521,-0.292 0.46521,-0.29202 0.46521,-0.29214 0.46521,-0.29221 0.46521,-0.2923 0.46515,-0.29242 0.46521,-0.29248 0.46521,-0.2926 0.46521,-0.29266 0.46521,-0.29276 0.46521,-0.29284 0.46515,-0.29294 0.46521,-0.29306 0.46521,-0.29312 0.46521,-0.29322 0.46521,-0.2933 0.46521,-0.29337 0.46521,-0.29349 0.46515,-0.29357 0.46521,-0.29367 0.46521,-0.29377 0.46521,-0.29382 0.46521,-0.29395 0.46521,-0.29403 0.46515,-0.2941 0.46521,-0.29422 0.46521,-0.29428 0.46521,-0.2944 0.46521,-0.29447 0.46521,-0.29455 0.46515,-0.29468 0.4652,-0.29474 0.46521,-0.29483 0.46521,-0.29492 0.46521,-0.29502 0.46521,-0.2951 0.46515,-0.2952 0.46521,-0.29529 0.46521,-0.29538 0.46521,-0.29547 0.46521,-0.29553 0.46521,-0.29565 0.46515,-0.29575 0.46521,-0.29584 0.46521,-0.29592 0.46521,-0.296 0.46521,-0.29608 0.46521,-0.2962 0.46515,-0.29629 0.46521,-0.29636 0.46521,-0.29645 0.46521,-0.29654 0.46521,-0.29663 0.46521,-0.29675 0.46515,-0.29682 0.46521,-0.2969 0.46521,-0.297 0.46521,-0.29709 0.46521,-0.29718 0.46521,-0.29727 0.46515,-0.29736 0.46521,-0.29746 0.46521,-0.29754 0.46521,-0.29761 0.46521,-0.29773 0.46521,-0.29779 0.46521,-0.29791 0.46515,-0.29801 0.46521,-0.29806 0.46521,-0.29816 0.46521,-0.29828 0.46521,-0.29834 0.46521,-0.29846 0.46515,-0.29852 0.46521,-0.29862 0.46521,-0.2987 0.46521,-0.29883 0.46521,-0.29886 0.46521,-0.29898 0.46514,-0.2991 0.46522,-0.29914 0.4652,-0.29925 0.46521,-0.29938 0.46522,-0.29941 0.4652,-0.2995 0.46515,-0.29962 0.46521,-0.29971 0.46521,-0.29981 0.46521,-0.29989 0.46521,-0.29996 0.46521,-0.30005 0.46515,-0.30017 0.46521,-0.30023 0.46521,-0.30036 0.46521,-0.30041 0.46521,-0.30051 0.46521,-0.3006 0.46515,-0.30069 0.46521,-0.30078 0.46521,-0.3009 0.46521,-0.30094 0.46521,-0.30108 0.46521,-0.30115 0.46515,-0.30121 0.46521,-0.30133 0.46521,-0.30142 0.46521,-0.30148 0.46521,-0.30164 0.46521,-0.30167 0.46521,-0.30178 0.46515,-0.30185 0.46521,-0.30197 0.46521,-0.30204 0.46521,-0.30215 0.46521,-0.30222 0.46521,-0.3023 0.46515,-0.30243 0.46521,-0.30249 0.46521,-0.30259 0.46521,-0.30267 0.46521,-0.30276 0.46521,-0.30289 0.46515,-0.30292 0.46521,-0.30304 0.46521,-0.30313 0.46521,-0.30322 0.46521,-0.30332 0.46521,-0.3034 0.46515,-0.30347 0.4652,-0.30359 0.46521,-0.30368 0.46522,-0.30374 0.4652,-0.30383 0.46521,-0.30396 0.46515,-0.30401 0.46521,-0.30414 0.46521,-0.3042 0.46521,-0.30432 0.46521,-0.30438 0.46521,-0.30448 0.46515,-0.30456 0.46521,-0.30466 0.46521,-0.30475 0.46521,-0.30487 0.46521,-0.3049 0.46521,-0.30502 0.46515,-0.30512 0.46521,-0.3052 0.46521,-0.3053 0.46521,-0.30539 0.46521,-0.30545 0.46521,-0.30558 0.46515,-0.30566 0.46521,-0.30572 0.46521,-0.30585 0.46521,-0.30591 0.46521,-0.306 0.46521,-0.30612 0.46521,-0.30618 0.46515,-0.30628 0.46521,-0.30639 0.46521,-0.30646 0.46521,-0.30655 0.46521,-0.30664 0.46521,-0.30673 0.46515,-0.30683 0.46521,-0.30691 0.46521,-0.30701 0.46521,-0.3071 0.46521,-0.30716 0.46521,-0.30728 0.46515,-0.30737 0.46521,-0.30744 0.46521,-0.30758 0.46521,-0.30762 0.46521,-0.30771 0.46521,-0.30783 0.46514,-0.30789 0.46521,-0.30802 0.46521,-0.30807 0.46521,-0.3082 0.46522,-0.30825 0.4652,-0.30836 0.46515,-0.30844 0.46521,-0.30853 0.46521,-0.30862 0.46521,-0.30872 0.46521,-0.30881 0.46521,-0.3089 0.46515,-0.30899 0.46521,-0.30908 0.46521,-0.30917 0.46521,-0.30927 0.46521,-0.30929 0.46521,-0.30945 0.46515,-0.30954 0.46521,-0.3096 0.46521,-0.30972 0.46521,-0.30979 0.46521,-0.30993 0.46521,-0.30997 0.46515,-0.31006 0.46521,-0.31018 0.46521,-0.31021 0.46521,-0.31037 0.46521,-0.31042 0.46521,-0.31052 0.46521,-0.31057 0.46515,-0.31073 0.46521,-0.3108 0.46521,-0.31088 0.46521,-0.31097 0.46521,-0.31107 0.46521,-0.31116 0.46515,-0.31121 0.46521,-0.31134 0.46521,-0.31141 0.46521,-0.31149 0.46521,-0.31164 0.46521,-0.31168 0.46515,-0.3118 0.46521,-0.31186 0.46521,-0.31195 0.46521,-0.31204 0.46521,-0.31216 0.46521,-0.31223 0.46515,-0.31235 0.4652,-0.31234 0.46521,-0.31253 0.46521,-0.3126 0.46521,-0.31265 0.46521,-0.31283 0.46515,-0.31284 0.46521,-0.31296 0.46521,-0.31302 0.46521,-0.31317 0.46521,-0.3132 0.46521,-0.31329 0.46515,-0.31342 0.46521,-0.31351 0.46521,-0.31356 0.46521,-0.31369 0.46521,-0.31376 0.46521,-0.31387 0.46515,-0.31396 0.46521,-0.31397 0.46521,-0.31418 0.46521,-0.31421 0.46521,-0.3143 0.46521,-0.31439 0.46515,-0.31448 0.46521,-0.31461 0.46521,-0.31463 0.46521,-0.31473 0.46521,-0.31488 0.46521,-0.31491 0.46521,-0.31504 0.46515,-0.31512 0.46521,-0.31519 0.46521,-0.3153 0.46521,-0.3154 0.46521,-0.31546 0.46521,-0.31559 0.46515,-0.31564 0.46521,-0.31573 0.46521,-0.31583 0.46521,-0.31598 0.46521,-0.31601 0.46521,-0.31607 0.46515,-0.31622 0.46521,-0.31629 0.46521,-0.3164 0.46521,-0.31644 0.46521,-0.31656 0.4652,-0.31668 0.46515,-0.31668 0.46521,-0.31686 0.46521,-0.3169 0.46521,-0.31702 0.46521,-0.3171 0.46521,-0.3172 0.46515,-0.31726 0.46521,-0.31736 0.46521,-0.3175 0.46521,-0.31754 0.46521,-0.31762 0.46521,-0.31775 0.46515,-0.31781 0.46521,-0.31793 0.46521,-0.31797 0.46521,-0.31811 0.46521,-0.31818 0.46521,-0.31827 0.46515,-0.31833 0.46521,-0.31845 0.46521,-0.31854 0.46521,-0.31863 0.46521,-0.31873 0.46521,-0.31885 0.46515,-0.31887 0.46521,-0.319 0.46521,-0.31907 0.46521,-0.31921 0.46521,-0.31921 0.46521,-0.3194 0.46521,-0.3194 0.46515,-0.31955 0.46521,-0.31964 0.46521,-0.31967 0.46521,-0.31982 0.46521,-0.31989 0.46521,-0.32001 0.46515,-0.32007 0.46521,-0.32016 0.46521,-0.32025 0.46521,-0.32034 0.46521,-0.32046 0.46521,-0.3205 0.46515,-0.32062 0.46521,-0.32071 0.4652,-0.32077 0.46521,-0.32092 0.46521,-0.32095 0.46521,-0.32108 0.46515,-0.32117 0.46521,-0.32125 0.46521,-0.32129 0.46521,-0.32145 0.46521,-0.3215 0.46521,-0.32159 0.46515,-0.32172 0.46521,-0.32178 0.46521,-0.3219 0.46521,-0.32195 0.46521,-0.32206 0.46521,-0.32217 0.46515,-0.32221 0.46521,-0.32235 0.46521,-0.32239 0.46521,-0.32251 0.46521,-0.32257 0.46521,-0.32269 0.46515,-0.32279 0.46521,-0.32288 0.46521,-0.32296 0.46521,-0.32306 0.46521,-0.32312 0.46521,-0.32324 0.46515,-0.32331 0.46521,-0.32339 0.46521,-0.32355 0.46521,-0.32355 0.46521,-0.32367 0.46521,-0.32379 0.46521,-0.32385 0.46515,-0.32394 0.46521,-0.32407 0.46521,-0.3241 0.46521,-0.32422 0.46521,-0.32434 0.46521,-0.3244 0.46515,-0.32449 0.46521,-0.32459 0.46521,-0.32464 0.46521,-0.32477 0.46521,-0.32483 0.46521,-0.32495 0.46514,-0.32504 0.46522,-0.32511 0.4652,-0.32525 0.46522,-0.32526 0.4652,-0.32541 0.46521,-0.32547 0.46515,-0.32559 0.46521,-0.32565 0.46521,-0.32572 0.46521,-0.32587 0.46521,-0.32592 0.46521,-0.32602 0.46515,-0.32611 0.46521,-0.32621 0.46521,-0.32629 0.46521,-0.32642 0.46521,-0.32644 0.46521,-0.32657 0.46515,-0.32666 0.46521,-0.32672 0.46521,-0.32688 0.46521,-0.3269 0.46521,-0.32703 0.46521,-0.32705 0.46515,-0.32721 0.46521,-0.3273 0.46521,-0.32737 0.46521,-0.32748 0.46521,-0.32755 0.46521,-0.32763 0.46518,-0.32773 0.4652,-0.32782 0.4652,-0.32791 0.4652,-0.32803 0.4652,-0.3281 0.4652,-0.32822 0.4652,-0.32824 0.4652,-0.32837 0.4652,-0.32843 0.4652,-0.32859 0.4652,-0.32864 0.4652,-0.32867 0.4652,-0.32883 0.4652,-0.32892 0.4652,-0.32901 0.4652,-0.32907 0.4652,-0.32919 0.4652,-0.32926 0.4652,-0.32934 0.4652,-0.32947 0.4652,-0.32953 0.4652,-0.32962 0.4652,-0.32974 0.4652,-0.32977 0.4652,-0.32993 0.4652,-0.33002 0.4652,-0.33005 0.4652,-0.33016 0.4652,-0.33027 0.4652,-0.33035 0.4652,-0.33044 0.4652,-0.33054 0.4652,-0.33063 0.4652,-0.33068 0.4652,-0.33082 0.4652,-0.33087 0.4652,-0.33096 0.4652,-0.33109 0.4652,-0.33114 0.4652,-0.33127 0.4652,-0.33133 0.4652,-0.33145 0.4652,-0.33148 0.4652,-0.33164 0.4652,-0.33169 0.4652,-0.33182 0.4652,-0.33188 0.4652,-0.33197 0.4652,-0.33206 0.4652,-0.33215 0.4652,-0.33225 0.4652,-0.33231 0.4653,-0.33242 0.465,-0.33249 0.4653,-0.33264 0.4652,-0.33268 0.4652,-0.33279 0.4652,-0.33286 0.4652,-0.33297 0.4652,-0.33307 0.4652,-0.3331 0.4652,-0.33325 0.4652,-0.33332 0.4652,-0.33343 0.4653,-0.3335 0.465,-0.33358 0.4653,-0.33368 0.4652,-0.33377 0.4652,-0.33387 0.4652,-0.33398 0.4652,-0.33405 0.4652,-0.3341 0.4652,-0.33426 0.4652,-0.33429 0.4652,-0.33441 0.4652,-0.33451 0.4653,-0.33456 0.465,-0.33469 0.4653,-0.33477 0.4652,-0.33487 0.4652,-0.33493 0.4652,-0.33506 0.4652,-0.33511 0.4652,-0.33521 0.4652,-0.33529 0.4652,-0.33539 0.4652,-0.33551 0.4652,-0.33557 0.4653,-0.33566 0.465,-0.33576 0.4653,-0.33585 0.4652,-0.33593 0.4652,-0.33606 0.4652,-0.33606 0.4652,-0.33624 0.4652,-0.33631 0.4652,-0.33639 0.4652,-0.33646 0.4652,-0.33658 0.4652,-0.33664 0.4653,-0.33676 0.4652,-0.33682 0.465,-0.33692 0.4653,-0.33706 0.4652,-0.33707 0.4652,-0.33725 0.4652,-0.33725 0.4652,-0.3374 0.4652,-0.33743 0.4652,-0.33759 0.4652,-0.33764 0.4652,-0.33777 0.4652,-0.3378 0.4653,-0.33792 0.465,-0.33802 0.4653,-0.33807 0.4652,-0.3382 0.4652,-0.33831 0.4652,-0.33835 0.4652,-0.33847 0.4652,-0.33853 0.4652,-0.33866 0.4652,-0.33871 0.4652,-0.33884 0.4652,-0.3389 0.4653,-0.33902 0.465,-0.33911 0.4653,-0.33917 0.4652,-0.33923 0.4652,-0.33939 0.4652,-0.33945 0.4652,-0.33954 0.4652,-0.33963 0.4652,-0.33972 0.4652,-0.33984 0.4652,-0.3399 0.4652,-0.33997 0.4653,-0.34012 0.465,-0.34015 0.4653,-0.3403 0.4652,-0.34033 0.4652,-0.34046 0.4652,-0.34051 0.4652,-0.34064 0.4652,-0.3407 0.4652,-0.34082 0.4652,-0.34091 0.4652,-0.34097 0.4652,-0.34107 0.4652,-0.34115 0.4653,-0.34128 0.465,-0.34131 0.4653,-0.34143 0.4652,-0.34155 0.4652,-0.34162 0.4652,-0.34173 0.4652,-0.34177 0.4652,-0.34189 0.4652,-0.34195 0.4652,-0.3421 0.4652,-0.34216 0.4652,-0.34226 0.4653,-0.34228 0.465,-0.34244 0.4653,-0.3425 0.4652,-0.34262 0.4652,-0.34274 0.4652,-0.34278 0.4652,-0.34286 0.4652,-0.34296 0.4652,-0.34308 0.4652,-0.34314 0.4652,-0.34326 0.4652,-0.34329 0.4653,-0.34344 0.465,-0.34348 0.4653,-0.34363 0.4652,-0.34369 0.4652,-0.34378 0.4652,-0.34387 0.4652,-0.34396 0.4652,-0.34406 0.4652,-0.34411 0.4652,-0.34424 0.4652,-0.3443 0.4652,-0.34442 0.4653,-0.34452 0.465,-0.34457 0.4653,-0.34467 0.4651,-0.34478 0.4653,-0.34485 0.4652,-0.34497 0.4652,-0.34503 0.4652,-0.34516 0.4652,-0.34518 0.4652,-0.34531 0.4652,-0.34543 0.4652,-0.34549 0.4652,-0.34558 0.4653,-0.34564 0.465,-0.34576 0.4653,-0.34589 0.4652,-0.34595 0.4652,-0.34601 0.4652,-0.34613 0.4652,-0.34619 0.4652,-0.34634 0.4652,-0.34637 0.4652,-0.3465 0.4652,-0.34659 0.4652,-0.34662 0.4653,-0.34677 0.465,-0.34683 0.4653,-0.34696 0.4652,-0.34701 0.4652,-0.34711 0.4652,-0.3472 0.4652,-0.34729 0.4652,-0.34741 0.4652,-0.34747 0.4652,-0.34754 0.4652,-0.34768 0.4652,-0.34772 0.4653,-0.34787 0.465,-0.34787 0.4653,-0.34805 0.4652,-0.34812 0.4652,-0.3482 0.4652,-0.3483 0.4652,-0.34833 0.4652,-0.34845 0.4652,-0.34857 0.4652,-0.34869 0.4652,-0.34873 0.4652,-0.34881 0.4653,-0.34891 0.465,-0.349 0.4652,-0.34912 0.4653,-0.34915 0.4652,-0.34931 0.4652,-0.34933 0.4652,-0.34949 0.4652,-0.34955 0.4652,-0.34964 0.4652,-0.3497 0.4652,-0.34982 0.4652,-0.34992 0.4652,-0.35 0.4653,-0.35007 0.465,-0.35019 0.4653,-0.35031 0.4652,-0.35034 0.4652,-0.35043 0.4652,-0.35053 0.4652,-0.35065 0.4652,-0.35071 0.4652,-0.35083 0.4652,-0.35086 0.4652,-0.35101 0.4652,-0.3511 0.4653,-0.35117 0.465,-0.35123 0.4653,-0.35135 0.4652,-0.35144 0.4652,-0.35153 0.4652,-0.35162 0.4652,-0.35175 0.4652,-0.3518 0.4652,-0.35187 0.4652,-0.35196 0.4652,-0.35211 0.4652,-0.35214 0.4653,-0.35227 0.465,-0.35232 0.4653,-0.35245 0.4652,-0.35254 0.4652,-0.35257 0.4652,-0.35272 0.4652,-0.35279 0.4652,-0.3529 0.4652,-0.35297 0.4652,-0.35306 0.4652,-0.35314 0.4652,-0.35325 0.4653,-0.3533 0.465,-0.35345 0.4652,-0.35352 0.4653,-0.35357 0.4652,-0.35373 0.4652,-0.35376 0.4652,-0.35389 0.4652,-0.35397 0.4652,-0.35403 0.4652,-0.35416 0.4652,-0.35425 0.4652,-0.35431 0.4652,-0.35443 0.4653,-0.35449 0.465,-0.35461 0.4653,-0.35468 0.4652,-0.35477 0.4652,-0.35485 0.4652,-0.35499 0.4652,-0.35501 0.4652,-0.35516 0.4652,-0.35522 0.4652,-0.35532 0.4652,-0.35538 0.4652,-0.35553 0.4653,-0.35559 0.465,-0.35565 0.4653,-0.35577 0.4652,-0.35587 0.4652,-0.35593 0.4652,-0.35604 0.4652,-0.35611 0.4652,-0.35624 0.4652,-0.35632 0.4652,-0.35638 0.4652,-0.35648 0.4652,-0.3566 0.4653,-0.35666 0.465,-0.35678 0.4653,-0.35681 0.4652,-0.35696 0.4652,-0.35706 0.4652,-0.35708 0.4652,-0.35721 0.4652,-0.3573 0.4652,-0.35739 0.4652,-0.35749 0.4652,-0.35757 0.4652,-0.35765 0.4653,-0.35774 0.465,-0.35788 0.4652,-0.35791 0.4653,-0.35801 0.4652,-0.35814 0.4652,-0.35818 0.4652,-0.35831 0.4652,-0.35835 0.4652,-0.35849 0.4652,-0.35857 0.4652,-0.35862 0.4652,-0.35875 0.4652,-0.35883 0.4653,-0.35893 0.465,-0.35901 0.4653,-0.3591 0.4652,-0.35918 0.4652,-0.35933 0.4652,-0.35936 0.4652,-0.35943 0.4652,-0.35959 0.4652,-0.35962 0.4652,-0.35971 0.4652,-0.35985 0.4652,-0.35992 0.4653,-0.35997 0.465,-0.36011 0.4653,-0.3602 0.4652,-0.36027 0.4652,-0.36037 0.4652,-0.36046 0.4652,-0.36053 0.4652,-0.36063 0.4652,-0.36072 0.4652,-0.36081 0.4652,-0.3609 0.4652,-0.36102 0.4653,-0.36105 0.465,-0.36121 0.4653,-0.36124 0.4652,-0.36137 0.4652,-0.36142 0.4652,-0.36156 0.4652,-0.36163 0.4652,-0.36173 0.4652,-0.3618 0.4652,-0.3619 0.4652,-0.36199 0.4652,-0.36207 0.4653,-0.36216 0.465,-0.36226 0.4652,-0.36233 0.4653,-0.36246 0.4652,-0.36252 0.4652,-0.36259 0.4652,-0.36273 0.4652,-0.36278 0.4652,-0.3629 0.4652,-0.36299 0.4652,-0.36304 0.4652,-0.36316 0.4652,-0.36326 0.4653,-0.36335 0.465,-0.36342 0.4653,-0.36352 0.4652,-0.3636 0.4652,-0.3637 0.4652,-0.36378 0.4652,-0.36391 0.4652,-0.36395 0.4652,-0.36404 0.4652,-0.36417 0.4652,-0.36423 0.4652,-0.36435 0.4653,-0.36442 0.465,-0.36449 0.4653,-0.36461 0.4652,-0.3647 0.4652,-0.36477 0.4652,-0.36489 0.4652,-0.36496 0.4652,-0.36505 0.4652,-0.36513 0.4652,-0.36523 0.4652,-0.36531 0.4652,-0.36543 0.4653,-0.3655 0.465,-0.36557 0.4653,-0.36571 0.4652,-0.36573 0.4652,-0.36589 0.4652,-0.36597 0.4652,-0.36601 0.4652,-0.36614 0.4652,-0.36622 0.4652,-0.36632 0.4652,-0.36641 0.4652,-0.36649 0.4653,-0.36659 0.465,-0.36665 0.4652,-0.36676 0.4653,-0.36689 0.4652,-0.36692 0.4652,-0.36702 0.4652,-0.36716 0.4652,-0.36719 0.4652,-0.36732 0.4652,-0.36737 0.4652,-0.3675 0.4652,-0.36758 0.4652,-0.36768 0.4653,-0.36776 0.465,-0.3678 0.4653,-0.36794 0.4652,-0.36802 0.4652,-0.36815 0.4652,-0.3682 0.4652,-0.36828 0.4652,-0.36838 0.4652,-0.3685 0.4652,-0.36856 0.4652,-0.36864 0.4652,-0.36876 0.4652,-0.36885 0.4651,-0.36891 0.4653,-0.36902 0.4652,-0.36912 0.4652,-0.3692 0.4652,-0.36925 0.4652,-0.36939 0.4652,-0.36946 0.4652,-0.36955 0.4652,-0.36969 0.4652,-0.36972 0.4652,-0.36983 0.4653,-0.3699 0.465,-0.37004 0.4653,-0.37007 0.4652,-0.37021 0.4652,-0.37026 0.4652,-0.37039 0.4652,-0.37042 0.4652,-0.37056 0.4652,-0.37065 0.4652,-0.37075 0.4652,-0.37081 0.4652,-0.37092 0.4653,-0.371 0.4652,-0.37108 0.465,-0.37118 0.4653,-0.37125 0.4652,-0.3714 0.4652,-0.37143 0.4652,-0.37153 0.4652,-0.37165 0.4652,-0.3717 0.4652,-0.37183 0.4652,-0.37187 0.4652,-0.37201 0.4652,-0.37208 0.4653,-0.3722 0.465,-0.37225 0.4653,-0.37236 0.4652,-0.37244 0.4652,-0.37254 0.4652,-0.3726 0.4652,-0.37271 0.4652,-0.37279 0.4652,-0.37288 0.4652,-0.37302 0.4652,-0.37304 0.4652,-0.3732 0.4653,-0.37323 0.465,-0.37336 0.4653,-0.37341 0.4652,-0.37353 0.4652,-0.37362 0.4652,-0.37371 0.4652,-0.3738 0.4652,-0.37388 0.4652,-0.37398 0.4652,-0.37406 0.4652,-0.37416 0.4652,-0.37422 0.4653,-0.37433 0.465,-0.37445 0.4653,-0.37449 0.4652,-0.37464 0.4652,-0.37468 0.4652,-0.3748 0.4652,-0.37485 0.4652,-0.37498 0.4652,-0.37506 0.4652,-0.37511 0.4652,-0.37524 0.4652,-0.37534 0.4653,-0.37541 0.4652,-0.3755 0.465,-0.3756 0.4653,-0.37572 0.4652,-0.37577 0.4652,-0.37586 0.4652,-0.37595 0.4652,-0.37606 0.4652,-0.37612 0.4652,-0.37625 0.4652,-0.3763 0.4652,-0.37641 0.4652,-0.37652 0.4653,-0.3766 0.465,-0.37663 0.4653,-0.37677 0.4652,-0.37686 0.4652,-0.37695 0.4652,-0.37705 0.4652,-0.37712 0.4652,-0.37724 0.4652,-0.37731 0.4652,-0.37738 0.4652,-0.37752 0.4652,-0.37756 0.4653,-0.37765 0.465,-0.37778 0.4653,-0.37787 0.4652,-0.37791 0.4652,-0.37804 0.4652,-0.37813 0.4652,-0.37822 0.4652,-0.37829 0.4652,-0.37841 0.4652,-0.37848 0.4652,-0.37857 0.4652,-0.37864 0.4652,-0.37874 0.4651,-0.37883 0.4653,-0.37897 0.4652,-0.379 0.4652,-0.37913 0.4652,-0.37918 0.4652,-0.37932 0.4652,-0.37935 0.4652,-0.37949 0.4652,-0.37957 0.4652,-0.37966 0.4652,-0.37971 0.4653,-0.37984 0.4652,-0.37991 0.465,-0.38002 0.4653,-0.38015 0.4652,-0.38017 0.4652,-0.38028 0.4652,-0.38035 0.4652,-0.3805 0.4652,-0.38053 0.4652,-0.38064 0.4652,-0.38075 0.4652,-0.38084 0.4652,-0.38088 0.4652,-0.38102 0.4651,-0.38111 0.4653,-0.38119 0.4652,-0.38127 0.4652,-0.38134 0.4652,-0.38148 0.4652,-0.38155 0.4652,-0.38164 0.4652,-0.38171 0.4652,-0.3818 0.4652,-0.38193 0.4652,-0.38199 0.4653,-0.38207 0.465,-0.3822 0.4653,-0.38223 0.4652,-0.38239 0.4652,-0.38244 0.4652,-0.38251 0.4652,-0.38264 0.4652,-0.38272 0.4652,-0.38282 0.4652,-0.38289 0.4652,-0.38299 0.4652,-0.38307 0.4653,-0.38317 0.465,-0.38328 0.4653,-0.38333 0.4652,-0.38343 0.4652,-0.38356 0.4652,-0.3836 0.4652,-0.38373 0.4652,-0.38377 0.4652,-0.3839 0.4652,-0.38399 0.4652,-0.38405 0.4652,-0.38415 0.4653,-0.38426 0.4652,-0.38434 0.465,-0.38443 0.4653,-0.38452 0.4652,-0.3846 0.4652,-0.38469 0.4652,-0.38483 0.4652,-0.38487 0.4652,-0.38495 0.4652,-0.38508 0.4652,-0.38514 0.4652,-0.38527 0.4652,-0.3853 0.4653,-0.38543 0.465,-0.38551 0.4653,-0.38563 0.4652,-0.38565 0.4652,-0.38578 0.4652,-0.38588 0.4652,-0.38596 0.4652,-0.38609 0.4652,-0.38614 0.4652,-0.38622 0.4652,-0.3863 0.4652,-0.3864 0.4653,-0.38654 0.465,-0.38658 0.4653,-0.3867 0.4652,-0.38675 0.4652,-0.38687 0.4652,-0.38697 0.4652,-0.38705 0.4652,-0.3871 0.4652,-0.38724 0.4652,-0.38731 0.4652,-0.38741 0.4652,-0.38749 0.4652,-0.38758 0.4651,-0.38771 0.4652,-0.38775 0.4653,-0.38784 0.4652,-0.38794 0.4652,-0.38806 0.4652,-0.38811 0.4652,-0.38822 0.4652,-0.38828 0.4652,-0.38841 0.4652,-0.38851 0.4652,-0.38858 0.4653,-0.38863 0.4652,-0.38876 0.465,-0.38885 0.4653,-0.38893 0.4652,-0.38902 0.4652,-0.38917 0.4652,-0.38919 0.4652,-0.38929 0.4652,-0.38937 0.4652,-0.3895 0.4652,-0.38955 0.4652,-0.38968 0.4652,-0.38973 0.4653,-0.38985 0.465,-0.38994 0.4653,-0.38999 0.4652,-0.39011 0.4652,-0.39021 0.4652,-0.39029 0.4652,-0.39038 0.4652,-0.39047 0.4652,-0.39055 0.4652,-0.39064 0.4652,-0.39073 0.4652,-0.39086 0.4653,-0.39091 0.465,-0.39099 0.4653,-0.39112 0.4652,-0.39117 0.4652,-0.3913 0.4652,-0.39139 0.4652,-0.39142 0.4652,-0.39156 0.4652,-0.39165 0.4652,-0.39174 0.4652,-0.39182 0.4652,-0.39191 0.4653,-0.392 0.465,-0.39209 0.4653,-0.39217 0.4652,-0.39226 0.4652,-0.39239 0.4652,-0.39244 0.4652,-0.39257 0.4652,-0.39261 0.4652,-0.39274 0.4652,-0.39279 0.4652,-0.39291 0.4652,-0.39301 0.4653,-0.39305 0.4652,-0.39318 0.465,-0.39326 0.4653,-0.39336 0.4652,-0.39344 0.4652,-0.39352 0.4652,-0.39363 0.4652,-0.39374 0.4652,-0.39379 0.4652,-0.39389 0.4652,-0.39401 0.4652,-0.39405 0.4652,-0.39419 0.4653,-0.39422 0.465,-0.39437 0.4653,-0.39444 0.4652,-0.3945 0.4652,-0.39462 0.4652,-0.39471 0.4652,-0.394795 0.4652,-0.39489 0.4652,-0.394973 0.4652,-0.395058 0.4652,-0.395149 0.4652,-0.395279 0.4652,-0.395325 0.4651,-0.395409 0.4653,-0.395546 0.4652,-0.395584 0.4652,-0.395714 0.4652,-0.395767 0.4652,-0.395889 0.4652,-0.395981 0.4652,-0.396019 0.4652,-0.396156 0.4652,-0.39624 0.4652,-0.396332 0.4653,-0.396416 0.465,-0.396507 0.4652,-0.396591 0.4653,-0.396721 0.4652,-0.396767 0.4652,-0.396858 0.4652,-0.396988 L 1358,89.9375"
       style="fill:none;stroke:#ffd54f;stroke-width:2;stroke-linecap:butt;stroke-linejoin:round;stroke-miterlimit:5;stroke-dasharray:10, 6;stroke-dashoffset:0;stroke-opacity:1"
       transform="matrix(0.66666667,0,0,0.66666667,-65.485657,-34.666667)" />
    <path
       id="path112"
       d="M 75.181006,20.666665 V 63.999997 H 262.51433 V 20.666665 Z"
       style="fill:#333333;fill-opacity:1;fill-rule:evenodd;stroke:none" />
    <path
       id="path113"
       d="m 253.06418,100.56757 c 0,-3.313713 -2.68629,-6.000004 -6,-6.000004 -3.31371,0 -6,2.686291 -6,6.000004 0,3.3137 2.68629,6 6,6 3.31371,0 6,-2.6863 6,-6 z"
       style="fill:none;stroke:#03dac5;stroke-width:10;stroke-linecap:butt;stroke-linejoin:miter;stroke-miterlimit:5;stroke-dasharray:none;stroke-opacity:1"
       transform="matrix(0.66666667,0,0,0.66666667,-65.485657,-34.666667)" />
    <path
       id="path114"
       d="m 217.0107,130.43243 h 60.10695"
       style="fill:none;stroke:#ffd54f;stroke-width:2;stroke-linecap:butt;stroke-linejoin:round;stroke-miterlimit:5;stroke-dasharray:10, 6;stroke-dashoffset:0;stroke-opacity:1"
       transform="matrix(0.66666667,0,0,0.66666667,-65.485657,-34.666667)" />
    <text
       id="text114"
       xml:space="preserve"
       transform="matrix(0.66666667,0,0,0.66666667,122.26479,36.878377)"><tspan
         id="tspan114"
         style="font-variant:normal;font-weight:normal;font-size:25px;font-family:Helvetica;writing-mode:lr-tb;fill:#d9d9d9;fill-opacity:1;fill-rule:nonzero;stroke:none"
         x="0"
         y="0">E</tspan></text>
    <text
       id="text115"
       xml:space="preserve"
       transform="matrix(0.66666667,0,0,0.66666667,133.37937,36.878377)"><tspan
         id="tspan115"
         style="font-variant:normal;font-weight:normal;font-size:25px;font-family:Helvetica;writing-mode:lr-tb;fill:#d9d9d9;fill-opacity:1;fill-rule:nonzero;stroke:none"
         x="0"
         dx="0 0 -0.0093750004 -0.0093750004 -0.0125 0 -0.0125 -0.0093750004 -0.0093750004 0.0125 -0.0093750004 0 0.0125 -0.0093750004 -0.0093750004 0.0125"
         y="0">xperimental data</tspan></text>
    <text
       id="text116"
       xml:space="preserve"
       transform="matrix(0.66666667,0,0,0.66666667,122.26479,56.788289)"><tspan
         id="tspan116"
         style="font-variant:normal;font-weight:normal;font-size:25px;font-family:Helvetica;writing-mode:lr-tb;fill:#d9d9d9;fill-opacity:1;fill-rule:nonzero;stroke:none"
         x="0"
         dx="0 0 -0.0093750004 -0.0125 0 -0.0093750004 0.0125"
         y="0">Curve ﬁt</tspan></text>
    <path
       id="path116"
       d="M 211,148 V 83 h 281 v 65 z"
       style="fill:none;stroke:#d9d9d9;stroke-width:1;stroke-linecap:butt;stroke-linejoin:miter;stroke-miterlimit:5;stroke-dasharray:none;stroke-opacity:1"
       transform="matrix(0.66666667,0,0,0.66666667,-65.485657,-34.666667)" />
  </g>
</svg>
