<?xml version="1.0" encoding="UTF-8" standalone="no"?>
<!-- Created with Inkscape (http://www.inkscape.org/) -->

<svg
   version="1.1"
   id="svg2"
   width="234.25067"
   height="129.86"
   viewBox="0 0 234.25067 129.86"
   xmlns="http://www.w3.org/2000/svg"
   xmlns:svg="http://www.w3.org/2000/svg">
  <defs
     id="defs6">
    <clipPath
       clipPathUnits="userSpaceOnUse"
       id="clipPath18">
      <path
         d="M 0,0 H 175.688 V 97.395 H 0 Z"
         id="path16" />
    </clipPath>
  </defs>
  <g
     id="g8"
     transform="matrix(1.3333333,0,0,-1.3333333,0,129.86)">
    <g
       id="g10" />
    <g
       id="g12">
      <g
         id="g14"
         clip-path="url(#clipPath18)">
        <path
           d="M 0,0 H 175.688 V 97.395 H 0 Z"
           style="fill:#333333;fill-opacity:1;fill-rule:nonzero;stroke:none"
           id="path20" />
        <g
           id="g22"
           transform="translate(62.103,38.98)">
          <path
             d="m -39.95613,14.543 0.17998,0.28706 0.13397,0.16068 0.2335,0.22799 0.418,0.31876 0.76573,0.44721 0.73275,0.35516 1.42996,0.61281 1.70227,0.53392 1.62813,0.32891 1.58137,0.20049 1.54927,0.11229 3.03542,0.05238 2.98225,-0.09489 2.93659,-0.22051 2.89694,-0.32806 2.8642,-0.41925 2.83319,-0.50325 2.80208,-0.58995 2.7716,-0.67369 2.74532,-0.74469 2.72471,-0.80254 2.708,-0.8471 L 4.39584,12.0774 7.0843,11.17528 9.76334,10.24852 12.43301,9.29475 15.09146,8.3115 17.73837,7.29515 20.37299,6.2451 22.99536,5.16266 25.60704,4.04959 28.20825,2.90901 30.80042,1.7423 l 2.58326,-1.1911 2.57414,-1.21494 2.56583,-1.23908 2.55682,-1.26249 2.54838,-1.28705 2.53993,-1.31018 2.53154,-1.332 2.5244,-1.35289 2.51704,-1.37184 2.51109,-1.38945 2.50531,-1.40531 2.49898,-1.42143 2.49378,-1.43701 2.48759,-1.45273 2.48239,-1.46832 2.47676,-1.48374 2.47103,-1.49824 2.46611,-1.51303 2.46067,-1.52671 2.45606,-1.54066 2.45132,-1.55365 2.44573,-1.56775 2.44081,-1.58254 1.21876,-0.79573 1.21749,-0.79802 1.2173,-0.79979 1.21702,-0.80062 -0.05798,-0.15932 -1.34985,0.43562 -1.34972,0.436 -1.34929,0.4359 -1.34987,0.43561 -2.69938,0.87204 -2.69915,0.87149 -2.69957,0.87163 -2.69941,0.87206 -2.69916,0.87147 -2.69955,0.87166 -2.69915,0.87147 -2.69941,0.87204 -2.69957,0.87165 -2.69915,0.87149 -2.6994,0.87204 -2.69914,0.87149 -2.69957,0.87163 -2.69942,0.87205 -2.69914,0.87148 -2.69957,0.87165 -2.69899,0.87189 -2.69957,0.87163 -2.69942,0.87204 -2.69915,0.87151 -2.69954,0.87162 -2.69899,0.87191 -2.69957,0.87162 -2.69973,0.87123 -2.69914,0.87151 -2.69955,0.87163 -2.69916,0.8715 -2.69926,0.87242 -2.69913,0.87287 -2.6987,0.87273 -2.69927,0.87243 -2.69929,0.8711 -2.70041,0.86918 -2.70076,0.86838 -2.69974,0.86985 -2.69792,0.87612 -2.69382,0.88611 -2.6892,0.90008 -2.68241,0.91878 -2.67355,0.94181 -2.66316,0.97163 -2.65003,1.00644 -2.63566,1.04723 -2.61937,1.09193 -2.59885,1.14707 -1.27945,0.62908 -1.25812,0.68761 -1.23904,0.74005 -1.21852,0.79518 -0.90581,0.82727 -0.40253,0.55205 -0.34959,0.69616 -0.13571,0.45676 -0.04224,0.29755 -0.005,0.19376 0.15968,0.64613"
             style="fill:none;stroke:#cccccc;stroke-width:0.3985;stroke-linecap:butt;stroke-linejoin:miter;stroke-miterlimit:10;stroke-dasharray:none;stroke-opacity:1"
             id="path24" />
        </g>
        <g
           id="g26"
           transform="translate(62.103,38.98)">
          <path
             d="M -53.27484,19.39066 106.5497,-38.78133"
             style="fill:none;stroke:#666666;stroke-width:0.3985;stroke-linecap:butt;stroke-linejoin:miter;stroke-miterlimit:10;stroke-dasharray:2.98883, 2.98883;stroke-dashoffset:0;stroke-opacity:1"
             id="path28" />
        </g>
        <g
           id="g30"
           transform="translate(62.103,38.98)">
          <path
             d="M 0,0 H -27.88852"
             style="fill:none;stroke:#00b8d5;stroke-width:0.3985;stroke-linecap:butt;stroke-linejoin:miter;stroke-miterlimit:10;stroke-dasharray:none;stroke-opacity:1"
             id="path32" />
        </g>
        <g
           id="g34"
           transform="rotate(180,17.10724,19.49)">
          <path
             d="M -1.19551,1.59401 C -1.09587,0.99626 0,0.09961 0.29886,0 0,-0.09961 -1.09587,-0.99626 -1.19551,-1.59401"
             style="fill:none;stroke:#00b8d5;stroke-width:0.31879;stroke-linecap:round;stroke-linejoin:round;stroke-miterlimit:10;stroke-dasharray:none;stroke-opacity:1"
             id="path36" />
        </g>
        <g
           id="g38">
          <text
             xml:space="preserve"
             transform="matrix(1,0,0,-1,37.276,31.171)"
             style="font-variant:normal;font-weight:normal;font-size:9.9626px;font-family:CMMI10;-inkscape-font-specification:CMMI10;writing-mode:lr-tb;fill:#00b8d5;fill-opacity:1;fill-rule:nonzero;stroke:none"
             id="text42"><tspan
               x="0"
               y="0"
               id="tspan40">v</tspan></text>
        </g>
        <g
           id="g44"
           transform="translate(62.103,38.98)">
          <path
             d="M -56.69362,0 H -28.3468"
             style="fill:none;stroke:#666666;stroke-width:0.3985;stroke-linecap:butt;stroke-linejoin:miter;stroke-miterlimit:10;stroke-dasharray:2.98883, 2.98883;stroke-dashoffset:0;stroke-opacity:1"
             id="path46" />
        </g>
        <g
           id="g48"
           transform="translate(62.103,38.98)">
          <path
             d="m 42.5202,0 h 70.867"
             style="fill:none;stroke:#666666;stroke-width:0.3985;stroke-linecap:butt;stroke-linejoin:miter;stroke-miterlimit:10;stroke-dasharray:2.98883, 2.98883;stroke-dashoffset:0;stroke-opacity:1"
             id="path50" />
        </g>
        <g
           id="g52">
          <text
             xml:space="preserve"
             transform="matrix(1,0,0,-1,3.32,45.449)"
             style="font-variant:normal;font-weight:normal;font-size:9.9626px;font-family:CMMI10;-inkscape-font-specification:CMMI10;writing-mode:lr-tb;fill:#cccccc;fill-opacity:1;fill-rule:nonzero;stroke:none"
             id="text56"><tspan
               x="0"
               y="0"
               id="tspan54">ω</tspan></text>
        </g>
        <g
           id="g58"
           transform="translate(62.103,38.98)">
          <path
             d="m -49.6069,0 c 0,5.7853 1.0128,11.53049 2.83473,16.5362"
             style="fill:none;stroke:#cccccc;stroke-width:0.3985;stroke-linecap:butt;stroke-linejoin:miter;stroke-miterlimit:10;stroke-dasharray:none;stroke-opacity:1"
             id="path60" />
        </g>
        <g
           id="g62"
           transform="rotate(70.001229,-31.976366,38.705181)">
          <path
             d="M -1.19551,1.59401 C -1.09587,0.99626 0,0.09961 0.29886,0 0,-0.09961 -1.09587,-0.99626 -1.19551,-1.59401"
             style="fill:none;stroke:#cccccc;stroke-width:0.31879;stroke-linecap:round;stroke-linejoin:round;stroke-miterlimit:10;stroke-dasharray:none;stroke-opacity:1"
             id="path64" />
        </g>
        <g
           id="g66"
           transform="translate(62.103,38.98)">
          <path
             d="M 0,0 H 41.81284"
             style="fill:none;stroke:#65dd18;stroke-width:0.79701;stroke-linecap:butt;stroke-linejoin:miter;stroke-miterlimit:10;stroke-dasharray:none;stroke-opacity:1"
             id="path68" />
        </g>
        <g
           id="g70"
           transform="translate(103.9158,38.98)">
          <path
             d="M -1.55415,2.0722 C -1.42464,1.29512 0,0.1295 0.38852,0 0,-0.1295 -1.42464,-1.29512 -1.55415,-2.0722"
             style="fill:none;stroke:#65dd18;stroke-width:0.6376;stroke-linecap:round;stroke-linejoin:round;stroke-miterlimit:10;stroke-dasharray:none;stroke-opacity:1"
             id="path72" />
        </g>
        <g
           id="g74">
          <text
             xml:space="preserve"
             transform="matrix(1,0,0,-1,108.342,44.636)"
             style="font-variant:normal;font-weight:normal;font-size:9.9626px;font-family:CMMI10;-inkscape-font-specification:CMMI10;writing-mode:lr-tb;fill:#65dd18;fill-opacity:1;fill-rule:nonzero;stroke:none"
             id="text78"><tspan
               x="0"
               y="0"
               id="tspan76">f</tspan></text>
        </g>
        <g
           id="g80">
          <text
             xml:space="preserve"
             transform="matrix(1,0,0,-1,113.219,43.142)"
             style="font-variant:normal;font-weight:normal;font-size:6.9738px;font-family:CMMI7;-inkscape-font-specification:CMMI7;writing-mode:lr-tb;fill:#65dd18;fill-opacity:1;fill-rule:nonzero;stroke:none"
             id="text84"><tspan
               x="0"
               y="0"
               id="tspan82">d</tspan></text>
        </g>
        <g
           id="g86"
           transform="translate(62.103,38.98)">
          <path
             d="M 0,0 V 41.81284"
             style="fill:none;stroke:#65dd18;stroke-width:0.79701;stroke-linecap:butt;stroke-linejoin:miter;stroke-miterlimit:10;stroke-dasharray:none;stroke-opacity:1"
             id="path88" />
        </g>
        <g
           id="g90"
           transform="rotate(90,-9.34492,71.44792)">
          <path
             d="M -1.55415,2.0722 C -1.42464,1.29512 0,0.1295 0.38852,0 0,-0.1295 -1.42464,-1.29512 -1.55415,-2.0722"
             style="fill:none;stroke:#65dd18;stroke-width:0.6376;stroke-linecap:round;stroke-linejoin:round;stroke-miterlimit:10;stroke-dasharray:none;stroke-opacity:1"
             id="path92" />
        </g>
        <g
           id="g94">
          <text
             xml:space="preserve"
             transform="matrix(1,0,0,-1,58.135,87.156)"
             style="font-variant:normal;font-weight:normal;font-size:9.9626px;font-family:CMMI10;-inkscape-font-specification:CMMI10;writing-mode:lr-tb;fill:#65dd18;fill-opacity:1;fill-rule:nonzero;stroke:none"
             id="text98"><tspan
               x="0"
               y="0"
               id="tspan96">f</tspan></text>
        </g>
        <g
           id="g100">
          <text
             xml:space="preserve"
             transform="matrix(1,0,0,-1,63.013,85.662)"
             style="font-variant:normal;font-weight:normal;font-size:6.9738px;font-family:CMMI7;-inkscape-font-specification:CMMI7;writing-mode:lr-tb;fill:#65dd18;fill-opacity:1;fill-rule:nonzero;stroke:none"
             id="text104"><tspan
               x="0"
               y="0"
               id="tspan102">l</tspan></text>
        </g>
      </g>
    </g>
  </g>
</svg>
