<?xml version="1.0" encoding="UTF-8" standalone="no"?>
<svg width="264.583mm" height="158.75mm"
 viewBox="0 0 750 450"
 xmlns="http://www.w3.org/2000/svg" xmlns:xlink="http://www.w3.org/1999/xlink"  version="1.2" baseProfile="tiny">
<title>Qt SVG Document</title>
<desc>MATLAB, The MathWorks, Inc. Version 25.1.0.2943329 R2025a</desc>
<defs>
</defs>
<g fill="none" stroke="black" stroke-width="1" fill-rule="evenodd" stroke-linecap="square" stroke-linejoin="bevel" >

<g fill="#333333" fill-opacity="1" stroke="none" transform="matrix(0.5,0,0,0.5,0,0)"
font-family=".AppleSystemUIFont" font-size="13" font-weight="400" font-style="normal" 
>
<path vector-effect="none" fill-rule="evenodd" d="M0,0 L1501,0 L1501,901 L0,901 L0,0"/>
</g>

<g fill="#333333" fill-opacity="1" stroke="none" transform="matrix(5e-05,0,0,5e-05,0,0)"
font-family=".AppleSystemUIFont" font-size="13" font-weight="400" font-style="normal" 
>
<path vector-effect="none" fill-rule="evenodd" d="M1.95e+06,670000 L1.95e+06,8.01e+06 L1.358e+07,8.01e+06 L1.358e+07,670000 L1.95e+06,670000"/>
</g>

<g fill="#ffffff" fill-opacity="0.25098" stroke="#ffffff" stroke-opacity="0.25098" stroke-width="1" stroke-linecap="butt" stroke-linejoin="round" transform="matrix(0.5,0,0,0.5,0,0)"
font-family=".AppleSystemUIFont" font-size="13" font-weight="400" font-style="normal" 
>
<polyline fill="none" vector-effect="none" points="195,67 195,801 " />
<polyline fill="none" vector-effect="none" points="340.375,67 340.375,801 " />
<polyline fill="none" vector-effect="none" points="485.75,67 485.75,801 " />
<polyline fill="none" vector-effect="none" points="631.125,67 631.125,801 " />
<polyline fill="none" vector-effect="none" points="776.5,67 776.5,801 " />
<polyline fill="none" vector-effect="none" points="921.875,67 921.875,801 " />
<polyline fill="none" vector-effect="none" points="1067.25,67 1067.25,801 " />
<polyline fill="none" vector-effect="none" points="1212.63,67 1212.63,801 " />
<polyline fill="none" vector-effect="none" points="1358,67 1358,801 " />
<polyline fill="none" vector-effect="none" points="195,801 1358,801 " />
<polyline fill="none" vector-effect="none" points="195,709.25 1358,709.25 " />
<polyline fill="none" vector-effect="none" points="195,617.5 1358,617.5 " />
<polyline fill="none" vector-effect="none" points="195,525.75 1358,525.75 " />
<polyline fill="none" vector-effect="none" points="195,434 1358,434 " />
<polyline fill="none" vector-effect="none" points="195,342.25 1358,342.25 " />
<polyline fill="none" vector-effect="none" points="195,250.5 1358,250.5 " />
<polyline fill="none" vector-effect="none" points="195,158.75 1358,158.75 " />
<polyline fill="none" vector-effect="none" points="195,67 1358,67 " />
</g>

<g fill="#ffffff" fill-opacity="1" stroke="none" transform="matrix(0.5,0,0,0.5,371.66,441.051)"
font-family=".AppleSystemUIFont" font-size="13" font-weight="400" font-style="normal" 
>
<path vector-effect="none" fill-rule="evenodd" d="M6.03516,0.336914 C5.08789,0.336914 4.24561,0.112305 3.5083,-0.336914 C2.771,-0.786133 2.20215,-1.3916 1.80176,-2.15332 C1.40137,-2.91504 1.20117,-3.7793 1.20117,-4.74609 C1.20117,-6.10352 1.57959,-7.44629 2.33643,-8.77441 C3.09326,-10.1025 4.09912,-11.1816 5.354,-12.0117 C6.60889,-12.8418 7.9248,-13.2568 9.30176,-13.2568 C10.3174,-13.2568 11.2109,-12.9907 11.9824,-12.4585 C12.7539,-11.9263 13.3398,-11.2183 13.7402,-10.3345 C14.1406,-9.45068 14.3408,-8.50586 14.3408,-7.5 L14.3701,-5.49316 C15.0537,-6.44043 15.6323,-7.42432 16.106,-8.44482 C16.5796,-9.46533 16.9434,-10.5225 17.1973,-11.6162 C17.2363,-11.7334 17.3145,-11.792 17.4316,-11.792 L17.7832,-11.792 C17.9688,-11.792 18.0615,-11.6992 18.0615,-11.5137 C18.0615,-11.4941 18.0518,-11.4648 18.0322,-11.4258 C17.7979,-10.5078 17.5049,-9.62646 17.1533,-8.78174 C16.8018,-7.93701 16.3892,-7.11914 15.9155,-6.32813 C15.4419,-5.53711 14.9268,-4.81934 14.3701,-4.1748 C14.3701,-1.69434 14.6582,-0.454102 15.2344,-0.454102 C15.6055,-0.454102 15.9106,-0.563965 16.1499,-0.783691 C16.3892,-1.00342 16.5991,-1.27441 16.7798,-1.59668 C16.9604,-1.91895 17.0752,-2.08496 17.124,-2.09473 L17.4902,-2.09473 C17.6465,-2.09473 17.7246,-1.99707 17.7246,-1.80176 C17.7246,-1.30371 17.439,-0.822754 16.8677,-0.358887 C16.2964,0.10498 15.7324,0.336914 15.1758,0.336914 C14.4531,0.336914 13.8525,0.102539 13.374,-0.366211 C12.8955,-0.834961 12.5684,-1.44531 12.3926,-2.19727 C11.4551,-1.39648 10.4395,-0.773926 9.3457,-0.32959 C8.25195,0.114746 7.14844,0.336914 6.03516,0.336914 M6.09375,-0.454102 C8.23242,-0.454102 10.2832,-1.33301 12.2461,-3.09082 C12.2363,-3.20801 12.2217,-3.35205 12.2021,-3.52295 C12.1826,-3.69385 12.1729,-3.78906 12.1729,-3.80859 L12.1729,-7.0459 C12.1729,-10.6689 11.1963,-12.4805 9.24316,-12.4805 C8.07129,-12.4805 7.0459,-11.98 6.16699,-10.979 C5.28809,-9.97803 4.62646,-8.78174 4.18213,-7.39014 C3.73779,-5.99854 3.51563,-4.72656 3.51563,-3.57422 C3.51563,-2.70508 3.73779,-1.96777 4.18213,-1.3623 C4.62646,-0.756836 5.26367,-0.454102 6.09375,-0.454102 "/>
</g>

<g fill="#ffffff" fill-opacity="1" stroke="none" transform="matrix(0.5,0,0,0.5,386.702,441.051)"
font-family=".AppleSystemUIFont" font-size="13" font-weight="400" font-style="normal" 
>
<path vector-effect="none" fill-rule="evenodd" d="M9.30176,7.44141 C8.18848,6.5625 7.229,5.5542 6.42334,4.4165 C5.61768,3.27881 4.9585,2.06543 4.4458,0.776367 C3.93311,-0.512695 3.5498,-1.86035 3.2959,-3.2666 C3.04199,-4.67285 2.91504,-6.08398 2.91504,-7.5 C2.91504,-8.93555 3.04199,-10.3564 3.2959,-11.7627 C3.5498,-13.1689 3.93799,-14.5215 4.46045,-15.8203 C4.98291,-17.1191 5.64941,-18.335 6.45996,-19.4678 C7.27051,-20.6006 8.21777,-21.5918 9.30176,-22.4414 C9.30176,-22.4805 9.35059,-22.5 9.44824,-22.5 L9.72656,-22.5 C9.78516,-22.5 9.83887,-22.4731 9.8877,-22.4194 C9.93652,-22.3657 9.96094,-22.3047 9.96094,-22.2363 C9.96094,-22.1484 9.94141,-22.085 9.90234,-22.0459 C8.92578,-21.0889 8.11279,-20.0635 7.46338,-18.9697 C6.81396,-17.876 6.2915,-16.7114 5.896,-15.4761 C5.50049,-14.2407 5.21484,-12.9614 5.03906,-11.6382 C4.86328,-10.3149 4.77539,-8.93555 4.77539,-7.5 C4.77539,-1.14258 6.47461,3.68652 9.87305,6.9873 C9.93164,7.0459 9.96094,7.12891 9.96094,7.23633 C9.96094,7.28516 9.93408,7.34131 9.88037,7.40479 C9.82666,7.46826 9.77539,7.5 9.72656,7.5 L9.44824,7.5 C9.35059,7.5 9.30176,7.48047 9.30176,7.44141 "/>
</g>

<g fill="#ffffff" fill-opacity="1" stroke="none" transform="matrix(0.5,0,0,0.5,392.691,435.462)"
font-family=".AppleSystemUIFont" font-size="13" font-weight="400" font-style="normal" 
>
<path vector-effect="none" fill-rule="evenodd" d="M5.25,-1.1792 C4.52539,-1.1792 3.85034,-1.36206 3.22485,-1.72778 C2.59937,-2.09351 2.10205,-2.59424 1.73291,-3.22998 C1.36377,-3.86572 1.1792,-4.53906 1.1792,-5.25 C1.1792,-5.96094 1.36377,-6.63428 1.73291,-7.27002 C2.10205,-7.90576 2.59937,-8.40649 3.22485,-8.77222 C3.85034,-9.13794 4.52539,-9.3208 5.25,-9.3208 C5.97461,-9.3208 6.64795,-9.13623 7.27002,-8.76709 C7.89209,-8.39795 8.38599,-7.89722 8.75171,-7.26489 C9.11743,-6.63257 9.30029,-5.96094 9.30029,-5.25 C9.30029,-4.53906 9.11743,-3.86743 8.75171,-3.23511 C8.38599,-2.60278 7.89209,-2.10205 7.27002,-1.73291 C6.64795,-1.36377 5.97461,-1.1792 5.25,-1.1792 M5.25,-2.02002 C6.125,-2.02002 6.87866,-2.3396 7.51099,-2.97876 C8.14331,-3.61792 8.45947,-4.375 8.45947,-5.25 C8.45947,-5.81055 8.31421,-6.34204 8.02368,-6.84448 C7.73315,-7.34692 7.3418,-7.74512 6.84961,-8.03906 C6.35742,-8.33301 5.82422,-8.47998 5.25,-8.47998 C4.81934,-8.47998 4.40918,-8.39624 4.01953,-8.22876 C3.62988,-8.06128 3.28125,-7.82373 2.97363,-7.51611 C2.66602,-7.2085 2.43018,-6.86157 2.26611,-6.47534 C2.10205,-6.08911 2.02002,-5.68066 2.02002,-5.25 C2.02002,-4.375 2.33618,-3.61792 2.96851,-2.97876 C3.60083,-2.3396 4.36133,-2.02002 5.25,-2.02002 "/>
</g>

<g fill="#ffffff" fill-opacity="1" stroke="none" transform="matrix(0.5,0,0,0.5,398.851,441.051)"
font-family=".AppleSystemUIFont" font-size="13" font-weight="400" font-style="normal" 
>
<path vector-effect="none" fill-rule="evenodd" d="M1.94824,7.5 C1.77246,7.5 1.68457,7.41211 1.68457,7.23633 C1.68457,7.14844 1.7041,7.08496 1.74316,7.0459 C5.16113,3.70605 6.87012,-1.14258 6.87012,-7.5 C6.87012,-13.8574 5.18066,-18.6865 1.80176,-21.9873 C1.72363,-22.0361 1.68457,-22.1191 1.68457,-22.2363 C1.68457,-22.3047 1.71143,-22.3657 1.76514,-22.4194 C1.81885,-22.4731 1.87988,-22.5 1.94824,-22.5 L2.22656,-22.5 C2.28516,-22.5 2.33398,-22.4805 2.37305,-22.4414 C3.80859,-21.3086 5.00488,-19.9316 5.96191,-18.3105 C6.91895,-16.6895 7.61963,-14.9609 8.06396,-13.125 C8.5083,-11.2891 8.73047,-9.41406 8.73047,-7.5 C8.73047,-6.08398 8.61084,-4.68994 8.37158,-3.31787 C8.13232,-1.9458 7.75146,-0.593262 7.229,0.739746 C6.70654,2.07275 6.04492,3.30322 5.24414,4.43115 C4.44336,5.55908 3.48633,6.5625 2.37305,7.44141 C2.33398,7.48047 2.28516,7.5 2.22656,7.5 L1.94824,7.5"/>
</g>

<g fill="#ffffff" fill-opacity="1" stroke="#ffffff" stroke-opacity="1" stroke-width="1" stroke-linecap="square" stroke-linejoin="round" transform="matrix(0.5,0,0,0.5,0,0)"
font-family=".AppleSystemUIFont" font-size="13" font-weight="400" font-style="normal" 
>
<polyline fill="none" vector-effect="none" points="195,801 1358,801 " />
<polyline fill="none" vector-effect="none" points="195,67 1358,67 " />
<polyline fill="none" vector-effect="none" points="195,812.63 195,801 " />
<polyline fill="none" vector-effect="none" points="195,67 195,55.37 " />
<polyline fill="none" vector-effect="none" points="340.375,812.63 340.375,801 " />
<polyline fill="none" vector-effect="none" points="340.375,67 340.375,55.37 " />
<polyline fill="none" vector-effect="none" points="485.75,812.63 485.75,801 " />
<polyline fill="none" vector-effect="none" points="485.75,67 485.75,55.37 " />
<polyline fill="none" vector-effect="none" points="631.125,812.63 631.125,801 " />
<polyline fill="none" vector-effect="none" points="631.125,67 631.125,55.37 " />
<polyline fill="none" vector-effect="none" points="776.5,812.63 776.5,801 " />
<polyline fill="none" vector-effect="none" points="776.5,67 776.5,55.37 " />
<polyline fill="none" vector-effect="none" points="921.875,812.63 921.875,801 " />
<polyline fill="none" vector-effect="none" points="921.875,67 921.875,55.37 " />
<polyline fill="none" vector-effect="none" points="1067.25,812.63 1067.25,801 " />
<polyline fill="none" vector-effect="none" points="1067.25,67 1067.25,55.37 " />
<polyline fill="none" vector-effect="none" points="1212.63,812.63 1212.63,801 " />
<polyline fill="none" vector-effect="none" points="1212.63,67 1212.63,55.37 " />
<polyline fill="none" vector-effect="none" points="1358,812.63 1358,801 " />
<polyline fill="none" vector-effect="none" points="1358,67 1358,55.37 " />
</g>

<g fill="#ffffff" fill-opacity="1" stroke="none" transform="matrix(0.5,0,0,0.5,87.5,422.115)"
font-family=".AppleSystemUIFont" font-size="13" font-weight="400" font-style="normal" 
>
<path vector-effect="none" fill-rule="evenodd" d="M1.16211,-9.06445 L8.02539,-9.06445 L8.02539,-6.53516 L1.16211,-6.53516 L1.16211,-9.06445 M11.9922,-13.8633 L11.9922,-15.75 C13.7695,-15.9232 15.0091,-16.2126 15.7109,-16.6182 C16.4128,-17.0238 16.9368,-17.9831 17.2832,-19.4961 L19.2246,-19.4961 L19.2246,0 L16.5996,0 L16.5996,-13.8633 L11.9922,-13.8633 M32.4492,-19.5781 C34.9831,-19.5781 36.8151,-18.5345 37.9453,-16.4473 C38.8203,-14.834 39.2578,-12.6237 39.2578,-9.81641 C39.2578,-7.15495 38.8613,-4.95378 38.0684,-3.21289 C36.9199,-0.715495 35.0423,0.533203 32.4355,0.533203 C30.084,0.533203 28.334,-0.48763 27.1855,-2.5293 C26.2285,-4.23372 25.75,-6.52148 25.75,-9.39258 C25.75,-11.6165 26.0371,-13.526 26.6113,-15.1211 C27.6868,-18.0924 29.6328,-19.5781 32.4492,-19.5781 M32.4219,-1.70898 C33.6979,-1.70898 34.7142,-2.27409 35.4707,-3.4043 C36.2272,-4.53451 36.6055,-6.63997 36.6055,-9.7207 C36.6055,-11.9447 36.332,-13.7744 35.7852,-15.21 C35.2383,-16.6455 34.1764,-17.3633 32.5996,-17.3633 C31.1504,-17.3633 30.0908,-16.682 29.4209,-15.3193 C28.751,-13.9567 28.416,-11.9492 28.416,-9.29688 C28.416,-7.30078 28.6302,-5.69661 29.0586,-4.48438 C29.7148,-2.63411 30.8359,-1.70898 32.4219,-1.70898 "/>
</g>

<g fill="#ffffff" fill-opacity="1" stroke="none" transform="matrix(0.5,0,0,0.5,163.938,422.115)"
font-family=".AppleSystemUIFont" font-size="13" font-weight="400" font-style="normal" 
>
<path vector-effect="none" fill-rule="evenodd" d="M1.16211,-9.06445 L8.02539,-9.06445 L8.02539,-6.53516 L1.16211,-6.53516 L1.16211,-9.06445 M12.7715,-4.99023 C12.9355,-3.58659 13.5872,-2.61589 14.7266,-2.07813 C15.3099,-1.80469 15.9844,-1.66797 16.75,-1.66797 C18.2083,-1.66797 19.2884,-2.13281 19.9902,-3.0625 C20.6921,-3.99219 21.043,-5.02214 21.043,-6.15234 C21.043,-7.51953 20.626,-8.57682 19.792,-9.32422 C18.958,-10.0716 17.9577,-10.4453 16.791,-10.4453 C15.9434,-10.4453 15.2165,-10.2813 14.6104,-9.95313 C14.0042,-9.625 13.487,-9.16927 13.0586,-8.58594 L10.9258,-8.70898 L12.416,-19.25 L22.5879,-19.25 L22.5879,-16.8711 L14.2617,-16.8711 L13.4277,-11.4297 C13.8835,-11.776 14.3164,-12.0358 14.7266,-12.209 C15.4557,-12.5098 16.2988,-12.6602 17.2559,-12.6602 C19.0514,-12.6602 20.5736,-12.0814 21.8223,-10.9238 C23.071,-9.76628 23.6953,-8.29883 23.6953,-6.52148 C23.6953,-4.67122 23.1234,-3.03971 21.9795,-1.62695 C20.8356,-0.214193 19.0104,0.492188 16.5039,0.492188 C14.9089,0.492188 13.4984,0.0432943 12.2725,-0.854492 C11.0465,-1.75228 10.3607,-3.13086 10.2148,-4.99023 L12.7715,-4.99023"/>
</g>

<g fill="#ffffff" fill-opacity="1" stroke="none" transform="matrix(0.5,0,0,0.5,238.875,422.115)"
font-family=".AppleSystemUIFont" font-size="13" font-weight="400" font-style="normal" 
>
<path vector-effect="none" fill-rule="evenodd" d="M7.57422,-19.5781 C10.1081,-19.5781 11.9401,-18.5345 13.0703,-16.4473 C13.9453,-14.834 14.3828,-12.6237 14.3828,-9.81641 C14.3828,-7.15495 13.9863,-4.95378 13.1934,-3.21289 C12.0449,-0.715495 10.1673,0.533203 7.56055,0.533203 C5.20898,0.533203 3.45898,-0.48763 2.31055,-2.5293 C1.35352,-4.23372 0.875,-6.52148 0.875,-9.39258 C0.875,-11.6165 1.16211,-13.526 1.73633,-15.1211 C2.81185,-18.0924 4.75781,-19.5781 7.57422,-19.5781 M7.54688,-1.70898 C8.82292,-1.70898 9.83919,-2.27409 10.5957,-3.4043 C11.3522,-4.53451 11.7305,-6.63997 11.7305,-9.7207 C11.7305,-11.9447 11.457,-13.7744 10.9102,-15.21 C10.3633,-16.6455 9.30143,-17.3633 7.72461,-17.3633 C6.27539,-17.3633 5.21582,-16.682 4.5459,-15.3193 C3.87598,-13.9567 3.54102,-11.9492 3.54102,-9.29688 C3.54102,-7.30078 3.75521,-5.69661 4.18359,-4.48438 C4.83984,-2.63411 5.96094,-1.70898 7.54688,-1.70898 "/>
</g>

<g fill="#ffffff" fill-opacity="1" stroke="none" transform="matrix(0.5,0,0,0.5,311.563,422.115)"
font-family=".AppleSystemUIFont" font-size="13" font-weight="400" font-style="normal" 
>
<path vector-effect="none" fill-rule="evenodd" d="M3.45898,-4.99023 C3.62305,-3.58659 4.27474,-2.61589 5.41406,-2.07813 C5.9974,-1.80469 6.67188,-1.66797 7.4375,-1.66797 C8.89583,-1.66797 9.97591,-2.13281 10.6777,-3.0625 C11.3796,-3.99219 11.7305,-5.02214 11.7305,-6.15234 C11.7305,-7.51953 11.3135,-8.57682 10.4795,-9.32422 C9.64551,-10.0716 8.64518,-10.4453 7.47852,-10.4453 C6.63086,-10.4453 5.90397,-10.2813 5.29785,-9.95313 C4.69173,-9.625 4.17448,-9.16927 3.74609,-8.58594 L1.61328,-8.70898 L3.10352,-19.25 L13.2754,-19.25 L13.2754,-16.8711 L4.94922,-16.8711 L4.11523,-11.4297 C4.57096,-11.776 5.00391,-12.0358 5.41406,-12.209 C6.14323,-12.5098 6.98633,-12.6602 7.94336,-12.6602 C9.73893,-12.6602 11.2611,-12.0814 12.5098,-10.9238 C13.7585,-9.76628 14.3828,-8.29883 14.3828,-6.52148 C14.3828,-4.67122 13.8109,-3.03971 12.667,-1.62695 C11.5231,-0.214193 9.69792,0.492188 7.19141,0.492188 C5.59635,0.492188 4.18587,0.0432943 2.95996,-0.854492 C1.73405,-1.75228 1.04818,-3.13086 0.902344,-4.99023 L3.45898,-4.99023"/>
</g>

<g fill="#ffffff" fill-opacity="1" stroke="none" transform="matrix(0.5,0,0,0.5,380.5,422.115)"
font-family=".AppleSystemUIFont" font-size="13" font-weight="400" font-style="normal" 
>
<path vector-effect="none" fill-rule="evenodd" d="M2.67969,-13.8633 L2.67969,-15.75 C4.45703,-15.9232 5.69661,-16.2126 6.39844,-16.6182 C7.10026,-17.0238 7.62435,-17.9831 7.9707,-19.4961 L9.91211,-19.4961 L9.91211,0 L7.28711,0 L7.28711,-13.8633 L2.67969,-13.8633 M23.1367,-19.5781 C25.6706,-19.5781 27.5026,-18.5345 28.6328,-16.4473 C29.5078,-14.834 29.9453,-12.6237 29.9453,-9.81641 C29.9453,-7.15495 29.5488,-4.95378 28.7559,-3.21289 C27.6074,-0.715495 25.7298,0.533203 23.123,0.533203 C20.7715,0.533203 19.0215,-0.48763 17.873,-2.5293 C16.916,-4.23372 16.4375,-6.52148 16.4375,-9.39258 C16.4375,-11.6165 16.7246,-13.526 17.2988,-15.1211 C18.3743,-18.0924 20.3203,-19.5781 23.1367,-19.5781 M23.1094,-1.70898 C24.3854,-1.70898 25.4017,-2.27409 26.1582,-3.4043 C26.9147,-4.53451 27.293,-6.63997 27.293,-9.7207 C27.293,-11.9447 27.0195,-13.7744 26.4727,-15.21 C25.9258,-16.6455 24.8639,-17.3633 23.2871,-17.3633 C21.8379,-17.3633 20.7783,-16.682 20.1084,-15.3193 C19.4385,-13.9567 19.1035,-11.9492 19.1035,-9.29688 C19.1035,-7.30078 19.3177,-5.69661 19.7461,-4.48438 C20.4023,-2.63411 21.5234,-1.70898 23.1094,-1.70898 "/>
</g>

<g fill="#ffffff" fill-opacity="1" stroke="none" transform="matrix(0.5,0,0,0.5,453.188,422.115)"
font-family=".AppleSystemUIFont" font-size="13" font-weight="400" font-style="normal" 
>
<path vector-effect="none" fill-rule="evenodd" d="M2.67969,-13.8633 L2.67969,-15.75 C4.45703,-15.9232 5.69661,-16.2126 6.39844,-16.6182 C7.10026,-17.0238 7.62435,-17.9831 7.9707,-19.4961 L9.91211,-19.4961 L9.91211,0 L7.28711,0 L7.28711,-13.8633 L2.67969,-13.8633 M19.0215,-4.99023 C19.1855,-3.58659 19.8372,-2.61589 20.9766,-2.07813 C21.5599,-1.80469 22.2344,-1.66797 23,-1.66797 C24.4583,-1.66797 25.5384,-2.13281 26.2402,-3.0625 C26.9421,-3.99219 27.293,-5.02214 27.293,-6.15234 C27.293,-7.51953 26.876,-8.57682 26.042,-9.32422 C25.208,-10.0716 24.2077,-10.4453 23.041,-10.4453 C22.1934,-10.4453 21.4665,-10.2813 20.8604,-9.95313 C20.2542,-9.625 19.737,-9.16927 19.3086,-8.58594 L17.1758,-8.70898 L18.666,-19.25 L28.8379,-19.25 L28.8379,-16.8711 L20.5117,-16.8711 L19.6777,-11.4297 C20.1335,-11.776 20.5664,-12.0358 20.9766,-12.209 C21.7057,-12.5098 22.5488,-12.6602 23.5059,-12.6602 C25.3014,-12.6602 26.8236,-12.0814 28.0723,-10.9238 C29.321,-9.76628 29.9453,-8.29883 29.9453,-6.52148 C29.9453,-4.67122 29.3734,-3.03971 28.2295,-1.62695 C27.0856,-0.214193 25.2604,0.492188 22.7539,0.492188 C21.1589,0.492188 19.7484,0.0432943 18.5225,-0.854492 C17.2965,-1.75228 16.6107,-3.13086 16.4648,-4.99023 L19.0215,-4.99023"/>
</g>

<g fill="#ffffff" fill-opacity="1" stroke="none" transform="matrix(0.5,0,0,0.5,525.875,422.115)"
font-family=".AppleSystemUIFont" font-size="13" font-weight="400" font-style="normal" 
>
<path vector-effect="none" fill-rule="evenodd" d="M0.875,0 C0.966146,-1.6862 1.31478,-3.15365 1.9209,-4.40234 C2.52702,-5.65104 3.70964,-6.78581 5.46875,-7.80664 L8.09375,-9.32422 C9.26953,-10.0078 10.0944,-10.5911 10.5684,-11.0742 C11.3158,-11.8307 11.6895,-12.6966 11.6895,-13.6719 C11.6895,-14.8112 11.3477,-15.7158 10.6641,-16.3857 C9.98047,-17.0557 9.06901,-17.3906 7.92969,-17.3906 C6.24349,-17.3906 5.07682,-16.7526 4.42969,-15.4766 C4.08333,-14.793 3.89193,-13.8451 3.85547,-12.6328 L1.35352,-12.6328 C1.38086,-14.3372 1.69531,-15.7272 2.29688,-16.8027 C3.36328,-18.6986 5.24544,-19.6465 7.94336,-19.6465 C10.1855,-19.6465 11.8239,-19.0404 12.8584,-17.8281 C13.8929,-16.6159 14.4102,-15.2669 14.4102,-13.7813 C14.4102,-12.2135 13.8587,-10.8737 12.7559,-9.76172 C12.1178,-9.11458 10.974,-8.33073 9.32422,-7.41016 L7.45117,-6.37109 C6.55794,-5.87891 5.85612,-5.40951 5.3457,-4.96289 C4.43424,-4.16992 3.86003,-3.29036 3.62305,-2.32422 L14.3145,-2.32422 L14.3145,0 L0.875,0 M23.1367,-19.5781 C25.6706,-19.5781 27.5026,-18.5345 28.6328,-16.4473 C29.5078,-14.834 29.9453,-12.6237 29.9453,-9.81641 C29.9453,-7.15495 29.5488,-4.95378 28.7559,-3.21289 C27.6074,-0.715495 25.7298,0.533203 23.123,0.533203 C20.7715,0.533203 19.0215,-0.48763 17.873,-2.5293 C16.916,-4.23372 16.4375,-6.52148 16.4375,-9.39258 C16.4375,-11.6165 16.7246,-13.526 17.2988,-15.1211 C18.3743,-18.0924 20.3203,-19.5781 23.1367,-19.5781 M23.1094,-1.70898 C24.3854,-1.70898 25.4017,-2.27409 26.1582,-3.4043 C26.9147,-4.53451 27.293,-6.63997 27.293,-9.7207 C27.293,-11.9447 27.0195,-13.7744 26.4727,-15.21 C25.9258,-16.6455 24.8639,-17.3633 23.2871,-17.3633 C21.8379,-17.3633 20.7783,-16.682 20.1084,-15.3193 C19.4385,-13.9567 19.1035,-11.9492 19.1035,-9.29688 C19.1035,-7.30078 19.3177,-5.69661 19.7461,-4.48438 C20.4023,-2.63411 21.5234,-1.70898 23.1094,-1.70898 "/>
</g>

<g fill="#ffffff" fill-opacity="1" stroke="none" transform="matrix(0.5,0,0,0.5,598.563,422.115)"
font-family=".AppleSystemUIFont" font-size="13" font-weight="400" font-style="normal" 
>
<path vector-effect="none" fill-rule="evenodd" d="M0.875,0 C0.966146,-1.6862 1.31478,-3.15365 1.9209,-4.40234 C2.52702,-5.65104 3.70964,-6.78581 5.46875,-7.80664 L8.09375,-9.32422 C9.26953,-10.0078 10.0944,-10.5911 10.5684,-11.0742 C11.3158,-11.8307 11.6895,-12.6966 11.6895,-13.6719 C11.6895,-14.8112 11.3477,-15.7158 10.6641,-16.3857 C9.98047,-17.0557 9.06901,-17.3906 7.92969,-17.3906 C6.24349,-17.3906 5.07682,-16.7526 4.42969,-15.4766 C4.08333,-14.793 3.89193,-13.8451 3.85547,-12.6328 L1.35352,-12.6328 C1.38086,-14.3372 1.69531,-15.7272 2.29688,-16.8027 C3.36328,-18.6986 5.24544,-19.6465 7.94336,-19.6465 C10.1855,-19.6465 11.8239,-19.0404 12.8584,-17.8281 C13.8929,-16.6159 14.4102,-15.2669 14.4102,-13.7813 C14.4102,-12.2135 13.8587,-10.8737 12.7559,-9.76172 C12.1178,-9.11458 10.974,-8.33073 9.32422,-7.41016 L7.45117,-6.37109 C6.55794,-5.87891 5.85612,-5.40951 5.3457,-4.96289 C4.43424,-4.16992 3.86003,-3.29036 3.62305,-2.32422 L14.3145,-2.32422 L14.3145,0 L0.875,0 M19.0215,-4.99023 C19.1855,-3.58659 19.8372,-2.61589 20.9766,-2.07813 C21.5599,-1.80469 22.2344,-1.66797 23,-1.66797 C24.4583,-1.66797 25.5384,-2.13281 26.2402,-3.0625 C26.9421,-3.99219 27.293,-5.02214 27.293,-6.15234 C27.293,-7.51953 26.876,-8.57682 26.042,-9.32422 C25.208,-10.0716 24.2077,-10.4453 23.041,-10.4453 C22.1934,-10.4453 21.4665,-10.2813 20.8604,-9.95313 C20.2542,-9.625 19.737,-9.16927 19.3086,-8.58594 L17.1758,-8.70898 L18.666,-19.25 L28.8379,-19.25 L28.8379,-16.8711 L20.5117,-16.8711 L19.6777,-11.4297 C20.1335,-11.776 20.5664,-12.0358 20.9766,-12.209 C21.7057,-12.5098 22.5488,-12.6602 23.5059,-12.6602 C25.3014,-12.6602 26.8236,-12.0814 28.0723,-10.9238 C29.321,-9.76628 29.9453,-8.29883 29.9453,-6.52148 C29.9453,-4.67122 29.3734,-3.03971 28.2295,-1.62695 C27.0856,-0.214193 25.2604,0.492188 22.7539,0.492188 C21.1589,0.492188 19.7484,0.0432943 18.5225,-0.854492 C17.2965,-1.75228 16.6107,-3.13086 16.4648,-4.99023 L19.0215,-4.99023"/>
</g>

<g fill="#ffffff" fill-opacity="1" stroke="none" transform="matrix(0.5,0,0,0.5,671.25,422.115)"
font-family=".AppleSystemUIFont" font-size="13" font-weight="400" font-style="normal" 
>
<path vector-effect="none" fill-rule="evenodd" d="M7.27344,0.533203 C4.95833,0.533203 3.27897,-0.102539 2.23535,-1.37402 C1.19173,-2.64551 0.669922,-4.19271 0.669922,-6.01563 L3.24023,-6.01563 C3.34961,-4.7487 3.58659,-3.82813 3.95117,-3.25391 C4.58919,-2.22396 5.74219,-1.70898 7.41016,-1.70898 C8.70443,-1.70898 9.74349,-2.05534 10.5273,-2.74805 C11.3112,-3.44076 11.7031,-4.33398 11.7031,-5.42773 C11.7031,-6.77669 11.2907,-7.72005 10.4658,-8.25781 C9.64095,-8.79557 8.49479,-9.06445 7.02734,-9.06445 C6.86328,-9.06445 6.69694,-9.06217 6.52832,-9.05762 C6.3597,-9.05306 6.1888,-9.04622 6.01563,-9.03711 L6.01563,-11.2109 C6.27083,-11.1836 6.48503,-11.1654 6.6582,-11.1563 C6.83138,-11.1471 7.01823,-11.1426 7.21875,-11.1426 C8.13932,-11.1426 8.89583,-11.2884 9.48828,-11.5801 C10.5273,-12.0905 11.0469,-13.002 11.0469,-14.3145 C11.0469,-15.2897 10.7005,-16.0417 10.0078,-16.5703 C9.3151,-17.099 8.50846,-17.3633 7.58789,-17.3633 C5.94727,-17.3633 4.8125,-16.8164 4.18359,-15.7227 C3.83724,-15.1211 3.64128,-14.2643 3.5957,-13.1523 L1.16211,-13.1523 C1.16211,-14.6107 1.45378,-15.8503 2.03711,-16.8711 C3.03971,-18.694 4.80339,-19.6055 7.32813,-19.6055 C9.32422,-19.6055 10.8691,-19.1611 11.9629,-18.2725 C13.0566,-17.3838 13.6035,-16.0964 13.6035,-14.4102 C13.6035,-13.207 13.2799,-12.2318 12.6328,-11.4844 C12.2318,-11.0195 11.7122,-10.6549 11.0742,-10.3906 C12.1042,-10.1081 12.9085,-9.56348 13.4873,-8.75684 C14.0661,-7.9502 14.3555,-6.96354 14.3555,-5.79688 C14.3555,-3.92839 13.7402,-2.40625 12.5098,-1.23047 C11.2793,-0.0546875 9.53385,0.533203 7.27344,0.533203 M23.1367,-19.5781 C25.6706,-19.5781 27.5026,-18.5345 28.6328,-16.4473 C29.5078,-14.834 29.9453,-12.6237 29.9453,-9.81641 C29.9453,-7.15495 29.5488,-4.95378 28.7559,-3.21289 C27.6074,-0.715495 25.7298,0.533203 23.123,0.533203 C20.7715,0.533203 19.0215,-0.48763 17.873,-2.5293 C16.916,-4.23372 16.4375,-6.52148 16.4375,-9.39258 C16.4375,-11.6165 16.7246,-13.526 17.2988,-15.1211 C18.3743,-18.0924 20.3203,-19.5781 23.1367,-19.5781 M23.1094,-1.70898 C24.3854,-1.70898 25.4017,-2.27409 26.1582,-3.4043 C26.9147,-4.53451 27.293,-6.63997 27.293,-9.7207 C27.293,-11.9447 27.0195,-13.7744 26.4727,-15.21 C25.9258,-16.6455 24.8639,-17.3633 23.2871,-17.3633 C21.8379,-17.3633 20.7783,-16.682 20.1084,-15.3193 C19.4385,-13.9567 19.1035,-11.9492 19.1035,-9.29688 C19.1035,-7.30078 19.3177,-5.69661 19.7461,-4.48438 C20.4023,-2.63411 21.5234,-1.70898 23.1094,-1.70898 "/>
</g>

<g fill="#65dd18" fill-opacity="1" stroke="#65dd18" stroke-opacity="1" stroke-width="1" stroke-linecap="square" stroke-linejoin="round" transform="matrix(0.5,0,0,0.5,0,0)"
font-family=".AppleSystemUIFont" font-size="13" font-weight="400" font-style="normal" 
>
<polyline fill="none" vector-effect="none" points="195,801 195,67 " />
<polyline fill="none" vector-effect="none" points="195,801 183.37,801 " />
<polyline fill="none" vector-effect="none" points="195,709.25 183.37,709.25 " />
<polyline fill="none" vector-effect="none" points="195,617.5 183.37,617.5 " />
<polyline fill="none" vector-effect="none" points="195,525.75 183.37,525.75 " />
<polyline fill="none" vector-effect="none" points="195,434 183.37,434 " />
<polyline fill="none" vector-effect="none" points="195,342.25 183.37,342.25 " />
<polyline fill="none" vector-effect="none" points="195,250.5 183.37,250.5 " />
<polyline fill="none" vector-effect="none" points="195,158.75 183.37,158.75 " />
<polyline fill="none" vector-effect="none" points="195,67 183.37,67 " />
</g>

<g fill="#65dd18" fill-opacity="1" stroke="none" transform="matrix(0.5,0,0,0.5,54.885,404.5)"
font-family=".AppleSystemUIFont" font-size="13" font-weight="400" font-style="normal" 
>
<path vector-effect="none" fill-rule="evenodd" d="M1.16211,-9.06445 L8.02539,-9.06445 L8.02539,-6.53516 L1.16211,-6.53516 L1.16211,-9.06445 M16.8867,-19.5781 C19.4206,-19.5781 21.2526,-18.5345 22.3828,-16.4473 C23.2578,-14.834 23.6953,-12.6237 23.6953,-9.81641 C23.6953,-7.15495 23.2988,-4.95378 22.5059,-3.21289 C21.3574,-0.715495 19.4798,0.533203 16.873,0.533203 C14.5215,0.533203 12.7715,-0.48763 11.623,-2.5293 C10.666,-4.23372 10.1875,-6.52148 10.1875,-9.39258 C10.1875,-11.6165 10.4746,-13.526 11.0488,-15.1211 C12.1243,-18.0924 14.0703,-19.5781 16.8867,-19.5781 M16.8594,-1.70898 C18.1354,-1.70898 19.1517,-2.27409 19.9082,-3.4043 C20.6647,-4.53451 21.043,-6.63997 21.043,-9.7207 C21.043,-11.9447 20.7695,-13.7744 20.2227,-15.21 C19.6758,-16.6455 18.6139,-17.3633 17.0371,-17.3633 C15.5879,-17.3633 14.5283,-16.682 13.8584,-15.3193 C13.1885,-13.9567 12.8535,-11.9492 12.8535,-9.29688 C12.8535,-7.30078 13.0677,-5.69661 13.4961,-4.48438 C14.1523,-2.63411 15.2734,-1.70898 16.8594,-1.70898 M27.2676,-2.98047 L30.125,-2.98047 L30.125,0 L27.2676,0 L27.2676,-2.98047 M33.5156,0 C33.6068,-1.6862 33.9554,-3.15365 34.5615,-4.40234 C35.1676,-5.65104 36.3503,-6.78581 38.1094,-7.80664 L40.7344,-9.32422 C41.9102,-10.0078 42.735,-10.5911 43.209,-11.0742 C43.9564,-11.8307 44.3301,-12.6966 44.3301,-13.6719 C44.3301,-14.8112 43.9883,-15.7158 43.3047,-16.3857 C42.6211,-17.0557 41.7096,-17.3906 40.5703,-17.3906 C38.8841,-17.3906 37.7174,-16.7526 37.0703,-15.4766 C36.724,-14.793 36.5326,-13.8451 36.4961,-12.6328 L33.9941,-12.6328 C34.0215,-14.3372 34.3359,-15.7272 34.9375,-16.8027 C36.0039,-18.6986 37.8861,-19.6465 40.584,-19.6465 C42.8262,-19.6465 44.4645,-19.0404 45.499,-17.8281 C46.5335,-16.6159 47.0508,-15.2669 47.0508,-13.7813 C47.0508,-12.2135 46.4993,-10.8737 45.3965,-9.76172 C44.7585,-9.11458 43.6146,-8.33073 41.9648,-7.41016 L40.0918,-6.37109 C39.1986,-5.87891 38.4967,-5.40951 37.9863,-4.96289 C37.0749,-4.16992 36.5007,-3.29036 36.2637,-2.32422 L46.9551,-2.32422 L46.9551,0 L33.5156,0 M51.6621,-4.99023 C51.8262,-3.58659 52.4779,-2.61589 53.6172,-2.07813 C54.2005,-1.80469 54.875,-1.66797 55.6406,-1.66797 C57.099,-1.66797 58.179,-2.13281 58.8809,-3.0625 C59.5827,-3.99219 59.9336,-5.02214 59.9336,-6.15234 C59.9336,-7.51953 59.5166,-8.57682 58.6826,-9.32422 C57.8486,-10.0716 56.8483,-10.4453 55.6816,-10.4453 C54.834,-10.4453 54.1071,-10.2813 53.501,-9.95313 C52.8949,-9.625 52.3776,-9.16927 51.9492,-8.58594 L49.8164,-8.70898 L51.3066,-19.25 L61.4785,-19.25 L61.4785,-16.8711 L53.1523,-16.8711 L52.3184,-11.4297 C52.7741,-11.776 53.207,-12.0358 53.6172,-12.209 C54.3464,-12.5098 55.1895,-12.6602 56.1465,-12.6602 C57.9421,-12.6602 59.4642,-12.0814 60.7129,-10.9238 C61.9616,-9.76628 62.5859,-8.29883 62.5859,-6.52148 C62.5859,-4.67122 62.014,-3.03971 60.8701,-1.62695 C59.7262,-0.214193 57.901,0.492188 55.3945,0.492188 C53.7995,0.492188 52.389,0.0432943 51.1631,-0.854492 C49.9372,-1.75228 49.2513,-3.13086 49.1055,-4.99023 L51.6621,-4.99023"/>
</g>

<g fill="#65dd18" fill-opacity="1" stroke="none" transform="matrix(0.5,0,0,0.5,59.885,358.625)"
font-family=".AppleSystemUIFont" font-size="13" font-weight="400" font-style="normal" 
>
<path vector-effect="none" fill-rule="evenodd" d="M7.57422,-19.5781 C10.1081,-19.5781 11.9401,-18.5345 13.0703,-16.4473 C13.9453,-14.834 14.3828,-12.6237 14.3828,-9.81641 C14.3828,-7.15495 13.9863,-4.95378 13.1934,-3.21289 C12.0449,-0.715495 10.1673,0.533203 7.56055,0.533203 C5.20898,0.533203 3.45898,-0.48763 2.31055,-2.5293 C1.35352,-4.23372 0.875,-6.52148 0.875,-9.39258 C0.875,-11.6165 1.16211,-13.526 1.73633,-15.1211 C2.81185,-18.0924 4.75781,-19.5781 7.57422,-19.5781 M7.54688,-1.70898 C8.82292,-1.70898 9.83919,-2.27409 10.5957,-3.4043 C11.3522,-4.53451 11.7305,-6.63997 11.7305,-9.7207 C11.7305,-11.9447 11.457,-13.7744 10.9102,-15.21 C10.3633,-16.6455 9.30143,-17.3633 7.72461,-17.3633 C6.27539,-17.3633 5.21582,-16.682 4.5459,-15.3193 C3.87598,-13.9567 3.54102,-11.9492 3.54102,-9.29688 C3.54102,-7.30078 3.75521,-5.69661 4.18359,-4.48438 C4.83984,-2.63411 5.96094,-1.70898 7.54688,-1.70898 M17.9551,-2.98047 L20.8125,-2.98047 L20.8125,0 L17.9551,0 L17.9551,-2.98047 M30.9023,-19.5781 C33.4362,-19.5781 35.2682,-18.5345 36.3984,-16.4473 C37.2734,-14.834 37.7109,-12.6237 37.7109,-9.81641 C37.7109,-7.15495 37.3145,-4.95378 36.5215,-3.21289 C35.373,-0.715495 33.4954,0.533203 30.8887,0.533203 C28.5371,0.533203 26.7871,-0.48763 25.6387,-2.5293 C24.6816,-4.23372 24.2031,-6.52148 24.2031,-9.39258 C24.2031,-11.6165 24.4902,-13.526 25.0645,-15.1211 C26.14,-18.0924 28.0859,-19.5781 30.9023,-19.5781 M30.875,-1.70898 C32.151,-1.70898 33.1673,-2.27409 33.9238,-3.4043 C34.6803,-4.53451 35.0586,-6.63997 35.0586,-9.7207 C35.0586,-11.9447 34.7852,-13.7744 34.2383,-15.21 C33.6914,-16.6455 32.6296,-17.3633 31.0527,-17.3633 C29.6035,-17.3633 28.5439,-16.682 27.874,-15.3193 C27.2041,-13.9567 26.8691,-11.9492 26.8691,-9.29688 C26.8691,-7.30078 27.0833,-5.69661 27.5117,-4.48438 C28.168,-2.63411 29.2891,-1.70898 30.875,-1.70898 M46.4648,-19.5781 C48.9987,-19.5781 50.8307,-18.5345 51.9609,-16.4473 C52.8359,-14.834 53.2734,-12.6237 53.2734,-9.81641 C53.2734,-7.15495 52.877,-4.95378 52.084,-3.21289 C50.9355,-0.715495 49.0579,0.533203 46.4512,0.533203 C44.0996,0.533203 42.3496,-0.48763 41.2012,-2.5293 C40.2441,-4.23372 39.7656,-6.52148 39.7656,-9.39258 C39.7656,-11.6165 40.0527,-13.526 40.627,-15.1211 C41.7025,-18.0924 43.6484,-19.5781 46.4648,-19.5781 M46.4375,-1.70898 C47.7135,-1.70898 48.7298,-2.27409 49.4863,-3.4043 C50.2428,-4.53451 50.6211,-6.63997 50.6211,-9.7207 C50.6211,-11.9447 50.3477,-13.7744 49.8008,-15.21 C49.2539,-16.6455 48.1921,-17.3633 46.6152,-17.3633 C45.166,-17.3633 44.1064,-16.682 43.4365,-15.3193 C42.7666,-13.9567 42.4316,-11.9492 42.4316,-9.29688 C42.4316,-7.30078 42.6458,-5.69661 43.0742,-4.48438 C43.7305,-2.63411 44.8516,-1.70898 46.4375,-1.70898 "/>
</g>

<g fill="#65dd18" fill-opacity="1" stroke="none" transform="matrix(0.5,0,0,0.5,59.885,312.75)"
font-family=".AppleSystemUIFont" font-size="13" font-weight="400" font-style="normal" 
>
<path vector-effect="none" fill-rule="evenodd" d="M7.57422,-19.5781 C10.1081,-19.5781 11.9401,-18.5345 13.0703,-16.4473 C13.9453,-14.834 14.3828,-12.6237 14.3828,-9.81641 C14.3828,-7.15495 13.9863,-4.95378 13.1934,-3.21289 C12.0449,-0.715495 10.1673,0.533203 7.56055,0.533203 C5.20898,0.533203 3.45898,-0.48763 2.31055,-2.5293 C1.35352,-4.23372 0.875,-6.52148 0.875,-9.39258 C0.875,-11.6165 1.16211,-13.526 1.73633,-15.1211 C2.81185,-18.0924 4.75781,-19.5781 7.57422,-19.5781 M7.54688,-1.70898 C8.82292,-1.70898 9.83919,-2.27409 10.5957,-3.4043 C11.3522,-4.53451 11.7305,-6.63997 11.7305,-9.7207 C11.7305,-11.9447 11.457,-13.7744 10.9102,-15.21 C10.3633,-16.6455 9.30143,-17.3633 7.72461,-17.3633 C6.27539,-17.3633 5.21582,-16.682 4.5459,-15.3193 C3.87598,-13.9567 3.54102,-11.9492 3.54102,-9.29688 C3.54102,-7.30078 3.75521,-5.69661 4.18359,-4.48438 C4.83984,-2.63411 5.96094,-1.70898 7.54688,-1.70898 M17.9551,-2.98047 L20.8125,-2.98047 L20.8125,0 L17.9551,0 L17.9551,-2.98047 M24.2031,0 C24.2943,-1.6862 24.6429,-3.15365 25.249,-4.40234 C25.8551,-5.65104 27.0378,-6.78581 28.7969,-7.80664 L31.4219,-9.32422 C32.5977,-10.0078 33.4225,-10.5911 33.8965,-11.0742 C34.6439,-11.8307 35.0176,-12.6966 35.0176,-13.6719 C35.0176,-14.8112 34.6758,-15.7158 33.9922,-16.3857 C33.3086,-17.0557 32.3971,-17.3906 31.2578,-17.3906 C29.5716,-17.3906 28.4049,-16.7526 27.7578,-15.4766 C27.4115,-14.793 27.2201,-13.8451 27.1836,-12.6328 L24.6816,-12.6328 C24.709,-14.3372 25.0234,-15.7272 25.625,-16.8027 C26.6914,-18.6986 28.5736,-19.6465 31.2715,-19.6465 C33.5137,-19.6465 35.152,-19.0404 36.1865,-17.8281 C37.221,-16.6159 37.7383,-15.2669 37.7383,-13.7813 C37.7383,-12.2135 37.1868,-10.8737 36.084,-9.76172 C35.446,-9.11458 34.3021,-8.33073 32.6523,-7.41016 L30.7793,-6.37109 C29.8861,-5.87891 29.1842,-5.40951 28.6738,-4.96289 C27.7624,-4.16992 27.1882,-3.29036 26.9512,-2.32422 L37.6426,-2.32422 L37.6426,0 L24.2031,0 M42.3496,-4.99023 C42.5137,-3.58659 43.1654,-2.61589 44.3047,-2.07813 C44.888,-1.80469 45.5625,-1.66797 46.3281,-1.66797 C47.7865,-1.66797 48.8665,-2.13281 49.5684,-3.0625 C50.2702,-3.99219 50.6211,-5.02214 50.6211,-6.15234 C50.6211,-7.51953 50.2041,-8.57682 49.3701,-9.32422 C48.5361,-10.0716 47.5358,-10.4453 46.3691,-10.4453 C45.5215,-10.4453 44.7946,-10.2813 44.1885,-9.95313 C43.5824,-9.625 43.0651,-9.16927 42.6367,-8.58594 L40.5039,-8.70898 L41.9941,-19.25 L52.166,-19.25 L52.166,-16.8711 L43.8398,-16.8711 L43.0059,-11.4297 C43.4616,-11.776 43.8945,-12.0358 44.3047,-12.209 C45.0339,-12.5098 45.877,-12.6602 46.834,-12.6602 C48.6296,-12.6602 50.1517,-12.0814 51.4004,-10.9238 C52.6491,-9.76628 53.2734,-8.29883 53.2734,-6.52148 C53.2734,-4.67122 52.7015,-3.03971 51.5576,-1.62695 C50.4137,-0.214193 48.5885,0.492188 46.082,0.492188 C44.487,0.492188 43.0765,0.0432943 41.8506,-0.854492 C40.6247,-1.75228 39.9388,-3.13086 39.793,-4.99023 L42.3496,-4.99023"/>
</g>

<g fill="#65dd18" fill-opacity="1" stroke="none" transform="matrix(0.5,0,0,0.5,59.885,266.875)"
font-family=".AppleSystemUIFont" font-size="13" font-weight="400" font-style="normal" 
>
<path vector-effect="none" fill-rule="evenodd" d="M7.57422,-19.5781 C10.1081,-19.5781 11.9401,-18.5345 13.0703,-16.4473 C13.9453,-14.834 14.3828,-12.6237 14.3828,-9.81641 C14.3828,-7.15495 13.9863,-4.95378 13.1934,-3.21289 C12.0449,-0.715495 10.1673,0.533203 7.56055,0.533203 C5.20898,0.533203 3.45898,-0.48763 2.31055,-2.5293 C1.35352,-4.23372 0.875,-6.52148 0.875,-9.39258 C0.875,-11.6165 1.16211,-13.526 1.73633,-15.1211 C2.81185,-18.0924 4.75781,-19.5781 7.57422,-19.5781 M7.54688,-1.70898 C8.82292,-1.70898 9.83919,-2.27409 10.5957,-3.4043 C11.3522,-4.53451 11.7305,-6.63997 11.7305,-9.7207 C11.7305,-11.9447 11.457,-13.7744 10.9102,-15.21 C10.3633,-16.6455 9.30143,-17.3633 7.72461,-17.3633 C6.27539,-17.3633 5.21582,-16.682 4.5459,-15.3193 C3.87598,-13.9567 3.54102,-11.9492 3.54102,-9.29688 C3.54102,-7.30078 3.75521,-5.69661 4.18359,-4.48438 C4.83984,-2.63411 5.96094,-1.70898 7.54688,-1.70898 M17.9551,-2.98047 L20.8125,-2.98047 L20.8125,0 L17.9551,0 L17.9551,-2.98047 M26.7871,-4.99023 C26.9512,-3.58659 27.6029,-2.61589 28.7422,-2.07813 C29.3255,-1.80469 30,-1.66797 30.7656,-1.66797 C32.224,-1.66797 33.304,-2.13281 34.0059,-3.0625 C34.7077,-3.99219 35.0586,-5.02214 35.0586,-6.15234 C35.0586,-7.51953 34.6416,-8.57682 33.8076,-9.32422 C32.9736,-10.0716 31.9733,-10.4453 30.8066,-10.4453 C29.959,-10.4453 29.2321,-10.2813 28.626,-9.95313 C28.0199,-9.625 27.5026,-9.16927 27.0742,-8.58594 L24.9414,-8.70898 L26.4316,-19.25 L36.6035,-19.25 L36.6035,-16.8711 L28.2773,-16.8711 L27.4434,-11.4297 C27.8991,-11.776 28.332,-12.0358 28.7422,-12.209 C29.4714,-12.5098 30.3145,-12.6602 31.2715,-12.6602 C33.0671,-12.6602 34.5892,-12.0814 35.8379,-10.9238 C37.0866,-9.76628 37.7109,-8.29883 37.7109,-6.52148 C37.7109,-4.67122 37.139,-3.03971 35.9951,-1.62695 C34.8512,-0.214193 33.026,0.492188 30.5195,0.492188 C28.9245,0.492188 27.514,0.0432943 26.2881,-0.854492 C25.0622,-1.75228 24.3763,-3.13086 24.2305,-4.99023 L26.7871,-4.99023 M46.4648,-19.5781 C48.9987,-19.5781 50.8307,-18.5345 51.9609,-16.4473 C52.8359,-14.834 53.2734,-12.6237 53.2734,-9.81641 C53.2734,-7.15495 52.877,-4.95378 52.084,-3.21289 C50.9355,-0.715495 49.0579,0.533203 46.4512,0.533203 C44.0996,0.533203 42.3496,-0.48763 41.2012,-2.5293 C40.2441,-4.23372 39.7656,-6.52148 39.7656,-9.39258 C39.7656,-11.6165 40.0527,-13.526 40.627,-15.1211 C41.7025,-18.0924 43.6484,-19.5781 46.4648,-19.5781 M46.4375,-1.70898 C47.7135,-1.70898 48.7298,-2.27409 49.4863,-3.4043 C50.2428,-4.53451 50.6211,-6.63997 50.6211,-9.7207 C50.6211,-11.9447 50.3477,-13.7744 49.8008,-15.21 C49.2539,-16.6455 48.1921,-17.3633 46.6152,-17.3633 C45.166,-17.3633 44.1064,-16.682 43.4365,-15.3193 C42.7666,-13.9567 42.4316,-11.9492 42.4316,-9.29688 C42.4316,-7.30078 42.6458,-5.69661 43.0742,-4.48438 C43.7305,-2.63411 44.8516,-1.70898 46.4375,-1.70898 "/>
</g>

<g fill="#65dd18" fill-opacity="1" stroke="none" transform="matrix(0.5,0,0,0.5,59.885,221)"
font-family=".AppleSystemUIFont" font-size="13" font-weight="400" font-style="normal" 
>
<path vector-effect="none" fill-rule="evenodd" d="M7.57422,-19.5781 C10.1081,-19.5781 11.9401,-18.5345 13.0703,-16.4473 C13.9453,-14.834 14.3828,-12.6237 14.3828,-9.81641 C14.3828,-7.15495 13.9863,-4.95378 13.1934,-3.21289 C12.0449,-0.715495 10.1673,0.533203 7.56055,0.533203 C5.20898,0.533203 3.45898,-0.48763 2.31055,-2.5293 C1.35352,-4.23372 0.875,-6.52148 0.875,-9.39258 C0.875,-11.6165 1.16211,-13.526 1.73633,-15.1211 C2.81185,-18.0924 4.75781,-19.5781 7.57422,-19.5781 M7.54688,-1.70898 C8.82292,-1.70898 9.83919,-2.27409 10.5957,-3.4043 C11.3522,-4.53451 11.7305,-6.63997 11.7305,-9.7207 C11.7305,-11.9447 11.457,-13.7744 10.9102,-15.21 C10.3633,-16.6455 9.30143,-17.3633 7.72461,-17.3633 C6.27539,-17.3633 5.21582,-16.682 4.5459,-15.3193 C3.87598,-13.9567 3.54102,-11.9492 3.54102,-9.29688 C3.54102,-7.30078 3.75521,-5.69661 4.18359,-4.48438 C4.83984,-2.63411 5.96094,-1.70898 7.54688,-1.70898 M17.9551,-2.98047 L20.8125,-2.98047 L20.8125,0 L17.9551,0 L17.9551,-2.98047 M37.9707,-19.25 L37.9707,-17.1035 C37.3418,-16.4928 36.5055,-15.431 35.4619,-13.918 C34.4183,-12.4049 33.4954,-10.7734 32.6934,-9.02344 C31.9004,-7.31901 31.2988,-5.76497 30.8887,-4.36133 C30.6243,-3.45898 30.2826,-2.00521 29.8633,0 L27.1426,0 C27.7624,-3.73698 29.1296,-7.45573 31.2441,-11.1563 C32.4928,-13.3255 33.8053,-15.1986 35.1816,-16.7754 L24.3535,-16.7754 L24.3535,-19.25 L37.9707,-19.25 M42.3496,-4.99023 C42.5137,-3.58659 43.1654,-2.61589 44.3047,-2.07813 C44.888,-1.80469 45.5625,-1.66797 46.3281,-1.66797 C47.7865,-1.66797 48.8665,-2.13281 49.5684,-3.0625 C50.2702,-3.99219 50.6211,-5.02214 50.6211,-6.15234 C50.6211,-7.51953 50.2041,-8.57682 49.3701,-9.32422 C48.5361,-10.0716 47.5358,-10.4453 46.3691,-10.4453 C45.5215,-10.4453 44.7946,-10.2813 44.1885,-9.95313 C43.5824,-9.625 43.0651,-9.16927 42.6367,-8.58594 L40.5039,-8.70898 L41.9941,-19.25 L52.166,-19.25 L52.166,-16.8711 L43.8398,-16.8711 L43.0059,-11.4297 C43.4616,-11.776 43.8945,-12.0358 44.3047,-12.209 C45.0339,-12.5098 45.877,-12.6602 46.834,-12.6602 C48.6296,-12.6602 50.1517,-12.0814 51.4004,-10.9238 C52.6491,-9.76628 53.2734,-8.29883 53.2734,-6.52148 C53.2734,-4.67122 52.7015,-3.03971 51.5576,-1.62695 C50.4137,-0.214193 48.5885,0.492188 46.082,0.492188 C44.487,0.492188 43.0765,0.0432943 41.8506,-0.854492 C40.6247,-1.75228 39.9388,-3.13086 39.793,-4.99023 L42.3496,-4.99023"/>
</g>

<g fill="#65dd18" fill-opacity="1" stroke="none" transform="matrix(0.5,0,0,0.5,59.885,175.125)"
font-family=".AppleSystemUIFont" font-size="13" font-weight="400" font-style="normal" 
>
<path vector-effect="none" fill-rule="evenodd" d="M2.67969,-13.8633 L2.67969,-15.75 C4.45703,-15.9232 5.69661,-16.2126 6.39844,-16.6182 C7.10026,-17.0238 7.62435,-17.9831 7.9707,-19.4961 L9.91211,-19.4961 L9.91211,0 L7.28711,0 L7.28711,-13.8633 L2.67969,-13.8633 M17.9551,-2.98047 L20.8125,-2.98047 L20.8125,0 L17.9551,0 L17.9551,-2.98047 M30.9023,-19.5781 C33.4362,-19.5781 35.2682,-18.5345 36.3984,-16.4473 C37.2734,-14.834 37.7109,-12.6237 37.7109,-9.81641 C37.7109,-7.15495 37.3145,-4.95378 36.5215,-3.21289 C35.373,-0.715495 33.4954,0.533203 30.8887,0.533203 C28.5371,0.533203 26.7871,-0.48763 25.6387,-2.5293 C24.6816,-4.23372 24.2031,-6.52148 24.2031,-9.39258 C24.2031,-11.6165 24.4902,-13.526 25.0645,-15.1211 C26.14,-18.0924 28.0859,-19.5781 30.9023,-19.5781 M30.875,-1.70898 C32.151,-1.70898 33.1673,-2.27409 33.9238,-3.4043 C34.6803,-4.53451 35.0586,-6.63997 35.0586,-9.7207 C35.0586,-11.9447 34.7852,-13.7744 34.2383,-15.21 C33.6914,-16.6455 32.6296,-17.3633 31.0527,-17.3633 C29.6035,-17.3633 28.5439,-16.682 27.874,-15.3193 C27.2041,-13.9567 26.8691,-11.9492 26.8691,-9.29688 C26.8691,-7.30078 27.0833,-5.69661 27.5117,-4.48438 C28.168,-2.63411 29.2891,-1.70898 30.875,-1.70898 M46.4648,-19.5781 C48.9987,-19.5781 50.8307,-18.5345 51.9609,-16.4473 C52.8359,-14.834 53.2734,-12.6237 53.2734,-9.81641 C53.2734,-7.15495 52.877,-4.95378 52.084,-3.21289 C50.9355,-0.715495 49.0579,0.533203 46.4512,0.533203 C44.0996,0.533203 42.3496,-0.48763 41.2012,-2.5293 C40.2441,-4.23372 39.7656,-6.52148 39.7656,-9.39258 C39.7656,-11.6165 40.0527,-13.526 40.627,-15.1211 C41.7025,-18.0924 43.6484,-19.5781 46.4648,-19.5781 M46.4375,-1.70898 C47.7135,-1.70898 48.7298,-2.27409 49.4863,-3.4043 C50.2428,-4.53451 50.6211,-6.63997 50.6211,-9.7207 C50.6211,-11.9447 50.3477,-13.7744 49.8008,-15.21 C49.2539,-16.6455 48.1921,-17.3633 46.6152,-17.3633 C45.166,-17.3633 44.1064,-16.682 43.4365,-15.3193 C42.7666,-13.9567 42.4316,-11.9492 42.4316,-9.29688 C42.4316,-7.30078 42.6458,-5.69661 43.0742,-4.48438 C43.7305,-2.63411 44.8516,-1.70898 46.4375,-1.70898 "/>
</g>

<g fill="#65dd18" fill-opacity="1" stroke="none" transform="matrix(0.5,0,0,0.5,59.885,129.25)"
font-family=".AppleSystemUIFont" font-size="13" font-weight="400" font-style="normal" 
>
<path vector-effect="none" fill-rule="evenodd" d="M2.67969,-13.8633 L2.67969,-15.75 C4.45703,-15.9232 5.69661,-16.2126 6.39844,-16.6182 C7.10026,-17.0238 7.62435,-17.9831 7.9707,-19.4961 L9.91211,-19.4961 L9.91211,0 L7.28711,0 L7.28711,-13.8633 L2.67969,-13.8633 M17.9551,-2.98047 L20.8125,-2.98047 L20.8125,0 L17.9551,0 L17.9551,-2.98047 M24.2031,0 C24.2943,-1.6862 24.6429,-3.15365 25.249,-4.40234 C25.8551,-5.65104 27.0378,-6.78581 28.7969,-7.80664 L31.4219,-9.32422 C32.5977,-10.0078 33.4225,-10.5911 33.8965,-11.0742 C34.6439,-11.8307 35.0176,-12.6966 35.0176,-13.6719 C35.0176,-14.8112 34.6758,-15.7158 33.9922,-16.3857 C33.3086,-17.0557 32.3971,-17.3906 31.2578,-17.3906 C29.5716,-17.3906 28.4049,-16.7526 27.7578,-15.4766 C27.4115,-14.793 27.2201,-13.8451 27.1836,-12.6328 L24.6816,-12.6328 C24.709,-14.3372 25.0234,-15.7272 25.625,-16.8027 C26.6914,-18.6986 28.5736,-19.6465 31.2715,-19.6465 C33.5137,-19.6465 35.152,-19.0404 36.1865,-17.8281 C37.221,-16.6159 37.7383,-15.2669 37.7383,-13.7813 C37.7383,-12.2135 37.1868,-10.8737 36.084,-9.76172 C35.446,-9.11458 34.3021,-8.33073 32.6523,-7.41016 L30.7793,-6.37109 C29.8861,-5.87891 29.1842,-5.40951 28.6738,-4.96289 C27.7624,-4.16992 27.1882,-3.29036 26.9512,-2.32422 L37.6426,-2.32422 L37.6426,0 L24.2031,0 M42.3496,-4.99023 C42.5137,-3.58659 43.1654,-2.61589 44.3047,-2.07813 C44.888,-1.80469 45.5625,-1.66797 46.3281,-1.66797 C47.7865,-1.66797 48.8665,-2.13281 49.5684,-3.0625 C50.2702,-3.99219 50.6211,-5.02214 50.6211,-6.15234 C50.6211,-7.51953 50.2041,-8.57682 49.3701,-9.32422 C48.5361,-10.0716 47.5358,-10.4453 46.3691,-10.4453 C45.5215,-10.4453 44.7946,-10.2813 44.1885,-9.95313 C43.5824,-9.625 43.0651,-9.16927 42.6367,-8.58594 L40.5039,-8.70898 L41.9941,-19.25 L52.166,-19.25 L52.166,-16.8711 L43.8398,-16.8711 L43.0059,-11.4297 C43.4616,-11.776 43.8945,-12.0358 44.3047,-12.209 C45.0339,-12.5098 45.877,-12.6602 46.834,-12.6602 C48.6296,-12.6602 50.1517,-12.0814 51.4004,-10.9238 C52.6491,-9.76628 53.2734,-8.29883 53.2734,-6.52148 C53.2734,-4.67122 52.7015,-3.03971 51.5576,-1.62695 C50.4137,-0.214193 48.5885,0.492188 46.082,0.492188 C44.487,0.492188 43.0765,0.0432943 41.8506,-0.854492 C40.6247,-1.75228 39.9388,-3.13086 39.793,-4.99023 L42.3496,-4.99023"/>
</g>

<g fill="#65dd18" fill-opacity="1" stroke="none" transform="matrix(0.5,0,0,0.5,59.885,83.375)"
font-family=".AppleSystemUIFont" font-size="13" font-weight="400" font-style="normal" 
>
<path vector-effect="none" fill-rule="evenodd" d="M2.67969,-13.8633 L2.67969,-15.75 C4.45703,-15.9232 5.69661,-16.2126 6.39844,-16.6182 C7.10026,-17.0238 7.62435,-17.9831 7.9707,-19.4961 L9.91211,-19.4961 L9.91211,0 L7.28711,0 L7.28711,-13.8633 L2.67969,-13.8633 M17.9551,-2.98047 L20.8125,-2.98047 L20.8125,0 L17.9551,0 L17.9551,-2.98047 M26.7871,-4.99023 C26.9512,-3.58659 27.6029,-2.61589 28.7422,-2.07813 C29.3255,-1.80469 30,-1.66797 30.7656,-1.66797 C32.224,-1.66797 33.304,-2.13281 34.0059,-3.0625 C34.7077,-3.99219 35.0586,-5.02214 35.0586,-6.15234 C35.0586,-7.51953 34.6416,-8.57682 33.8076,-9.32422 C32.9736,-10.0716 31.9733,-10.4453 30.8066,-10.4453 C29.959,-10.4453 29.2321,-10.2813 28.626,-9.95313 C28.0199,-9.625 27.5026,-9.16927 27.0742,-8.58594 L24.9414,-8.70898 L26.4316,-19.25 L36.6035,-19.25 L36.6035,-16.8711 L28.2773,-16.8711 L27.4434,-11.4297 C27.8991,-11.776 28.332,-12.0358 28.7422,-12.209 C29.4714,-12.5098 30.3145,-12.6602 31.2715,-12.6602 C33.0671,-12.6602 34.5892,-12.0814 35.8379,-10.9238 C37.0866,-9.76628 37.7109,-8.29883 37.7109,-6.52148 C37.7109,-4.67122 37.139,-3.03971 35.9951,-1.62695 C34.8512,-0.214193 33.026,0.492188 30.5195,0.492188 C28.9245,0.492188 27.514,0.0432943 26.2881,-0.854492 C25.0622,-1.75228 24.3763,-3.13086 24.2305,-4.99023 L26.7871,-4.99023 M46.4648,-19.5781 C48.9987,-19.5781 50.8307,-18.5345 51.9609,-16.4473 C52.8359,-14.834 53.2734,-12.6237 53.2734,-9.81641 C53.2734,-7.15495 52.877,-4.95378 52.084,-3.21289 C50.9355,-0.715495 49.0579,0.533203 46.4512,0.533203 C44.0996,0.533203 42.3496,-0.48763 41.2012,-2.5293 C40.2441,-4.23372 39.7656,-6.52148 39.7656,-9.39258 C39.7656,-11.6165 40.0527,-13.526 40.627,-15.1211 C41.7025,-18.0924 43.6484,-19.5781 46.4648,-19.5781 M46.4375,-1.70898 C47.7135,-1.70898 48.7298,-2.27409 49.4863,-3.4043 C50.2428,-4.53451 50.6211,-6.63997 50.6211,-9.7207 C50.6211,-11.9447 50.3477,-13.7744 49.8008,-15.21 C49.2539,-16.6455 48.1921,-17.3633 46.6152,-17.3633 C45.166,-17.3633 44.1064,-16.682 43.4365,-15.3193 C42.7666,-13.9567 42.4316,-11.9492 42.4316,-9.29688 C42.4316,-7.30078 42.6458,-5.69661 43.0742,-4.48438 C43.7305,-2.63411 44.8516,-1.70898 46.4375,-1.70898 "/>
</g>

<g fill="#65dd18" fill-opacity="1" stroke="none" transform="matrix(0.5,0,0,0.5,59.885,37.5)"
font-family=".AppleSystemUIFont" font-size="13" font-weight="400" font-style="normal" 
>
<path vector-effect="none" fill-rule="evenodd" d="M2.67969,-13.8633 L2.67969,-15.75 C4.45703,-15.9232 5.69661,-16.2126 6.39844,-16.6182 C7.10026,-17.0238 7.62435,-17.9831 7.9707,-19.4961 L9.91211,-19.4961 L9.91211,0 L7.28711,0 L7.28711,-13.8633 L2.67969,-13.8633 M17.9551,-2.98047 L20.8125,-2.98047 L20.8125,0 L17.9551,0 L17.9551,-2.98047 M37.9707,-19.25 L37.9707,-17.1035 C37.3418,-16.4928 36.5055,-15.431 35.4619,-13.918 C34.4183,-12.4049 33.4954,-10.7734 32.6934,-9.02344 C31.9004,-7.31901 31.2988,-5.76497 30.8887,-4.36133 C30.6243,-3.45898 30.2826,-2.00521 29.8633,0 L27.1426,0 C27.7624,-3.73698 29.1296,-7.45573 31.2441,-11.1563 C32.4928,-13.3255 33.8053,-15.1986 35.1816,-16.7754 L24.3535,-16.7754 L24.3535,-19.25 L37.9707,-19.25 M42.3496,-4.99023 C42.5137,-3.58659 43.1654,-2.61589 44.3047,-2.07813 C44.888,-1.80469 45.5625,-1.66797 46.3281,-1.66797 C47.7865,-1.66797 48.8665,-2.13281 49.5684,-3.0625 C50.2702,-3.99219 50.6211,-5.02214 50.6211,-6.15234 C50.6211,-7.51953 50.2041,-8.57682 49.3701,-9.32422 C48.5361,-10.0716 47.5358,-10.4453 46.3691,-10.4453 C45.5215,-10.4453 44.7946,-10.2813 44.1885,-9.95313 C43.5824,-9.625 43.0651,-9.16927 42.6367,-8.58594 L40.5039,-8.70898 L41.9941,-19.25 L52.166,-19.25 L52.166,-16.8711 L43.8398,-16.8711 L43.0059,-11.4297 C43.4616,-11.776 43.8945,-12.0358 44.3047,-12.209 C45.0339,-12.5098 45.877,-12.6602 46.834,-12.6602 C48.6296,-12.6602 50.1517,-12.0814 51.4004,-10.9238 C52.6491,-9.76628 53.2734,-8.29883 53.2734,-6.52148 C53.2734,-4.67122 52.7015,-3.03971 51.5576,-1.62695 C50.4137,-0.214193 48.5885,0.492188 46.082,0.492188 C44.487,0.492188 43.0765,0.0432943 41.8506,-0.854492 C40.6247,-1.75228 39.9388,-3.13086 39.793,-4.99023 L42.3496,-4.99023"/>
</g>

<g fill="#65dd18" fill-opacity="1" stroke="none" transform="matrix(0,-0.5,0.5,0,46.341,224.603)"
font-family=".AppleSystemUIFont" font-size="13" font-weight="400" font-style="normal" 
>
<path vector-effect="none" fill-rule="evenodd" d="M4.37988,-6.47461 C4.37988,-5.27344 4.61182,-4.21631 5.07568,-3.30322 C5.53955,-2.39014 6.21338,-1.67725 7.09717,-1.16455 C7.98096,-0.651855 9.02344,-0.395508 10.2246,-0.395508 C11.4844,-0.395508 12.6978,-0.717773 13.8647,-1.3623 C15.0317,-2.00684 16.0278,-2.86865 16.853,-3.94775 C17.6782,-5.02686 18.2422,-6.17188 18.5449,-7.38281 C18.584,-7.5 18.6621,-7.55859 18.7793,-7.55859 L19.1455,-7.55859 C19.2236,-7.55859 19.2871,-7.53174 19.3359,-7.47803 C19.3848,-7.42432 19.4092,-7.36328 19.4092,-7.29492 C19.4092,-7.27539 19.3994,-7.24609 19.3799,-7.20703 C19.0381,-5.82031 18.3765,-4.51904 17.395,-3.30322 C16.4136,-2.0874 15.2393,-1.12305 13.8721,-0.410156 C12.5049,0.302734 11.0986,0.65918 9.65332,0.65918 C8.09082,0.65918 6.68945,0.307617 5.44922,-0.395508 C4.20898,-1.09863 3.24463,-2.0752 2.55615,-3.3252 C1.86768,-4.5752 1.52344,-5.98633 1.52344,-7.55859 C1.52344,-9.23828 1.89941,-10.9009 2.65137,-12.5464 C3.40332,-14.1919 4.41406,-15.6567 5.68359,-16.9409 C6.95313,-18.2251 8.40088,-19.248 10.0269,-20.0098 C11.6528,-20.7715 13.3008,-21.1523 14.9707,-21.1523 C15.6348,-21.1523 16.2695,-21.0522 16.875,-20.8521 C17.4805,-20.6519 18.042,-20.3467 18.5596,-19.9365 C19.0771,-19.5264 19.502,-19.0527 19.834,-18.5156 L22.207,-21.0938 C22.207,-21.1328 22.2559,-21.1523 22.3535,-21.1523 L22.5293,-21.1523 C22.6074,-21.1523 22.6709,-21.1182 22.7197,-21.0498 C22.7686,-20.9814 22.793,-20.9131 22.793,-20.8447 L20.7568,-12.7441 C20.7568,-12.6074 20.6787,-12.5391 20.5225,-12.5391 L19.9805,-12.5391 C19.8242,-12.5391 19.7461,-12.6514 19.7461,-12.876 C19.8242,-13.3154 19.8633,-13.8428 19.8633,-14.458 C19.8633,-15.4346 19.6973,-16.355 19.3652,-17.2192 C19.0332,-18.0835 18.5181,-18.7793 17.8198,-19.3066 C17.1216,-19.834 16.2695,-20.0977 15.2637,-20.0977 C13.6328,-20.0977 12.1387,-19.6875 10.7813,-18.8672 C9.42383,-18.0469 8.27393,-16.9702 7.33154,-15.6372 C6.38916,-14.3042 5.66162,-12.8247 5.14893,-11.1987 C4.63623,-9.57275 4.37988,-7.99805 4.37988,-6.47461 "/>
</g>

<g fill="#65dd18" fill-opacity="1" stroke="none" transform="matrix(0,-0.5,0.5,0,48.6509,213.596)"
font-family=".AppleSystemUIFont" font-size="13" font-weight="400" font-style="normal" 
>
<path vector-effect="none" fill-rule="evenodd" d="M0.922852,-1.70215 C0.922852,-1.74316 0.927979,-1.80469 0.938232,-1.88672 C0.948486,-1.96875 0.95874,-2.04907 0.968994,-2.12769 C0.979248,-2.2063 0.984375,-2.26611 0.984375,-2.30713 L3.58887,-12.7046 C3.64355,-12.9438 3.67773,-13.1318 3.69141,-13.2686 C3.69141,-13.4941 3.23682,-13.6069 2.32764,-13.6069 C2.19092,-13.6069 2.12256,-13.6992 2.12256,-13.8838 C2.12939,-13.918 2.14478,-13.9795 2.1687,-14.0684 C2.19263,-14.1572 2.22339,-14.2256 2.26099,-14.2734 C2.29858,-14.3213 2.35156,-14.3452 2.41992,-14.3452 L5.25,-14.5708 C5.4209,-14.5708 5.50635,-14.4819 5.50635,-14.3042 L2.48145,-2.2251 C2.37891,-1.99951 2.32764,-1.66455 2.32764,-1.22021 C2.32764,-0.618652 2.53271,-0.317871 2.94287,-0.317871 C3.37354,-0.317871 3.69653,-0.586182 3.91187,-1.1228 C4.1272,-1.65942 4.32031,-2.31396 4.49121,-3.08643 C4.51855,-3.16846 4.57666,-3.20947 4.66553,-3.20947 L4.91162,-3.20947 C4.96631,-3.20947 5.01245,-3.18726 5.05005,-3.14282 C5.08765,-3.09839 5.10645,-3.05225 5.10645,-3.00439 C4.94238,-2.32764 4.7937,-1.79272 4.6604,-1.39966 C4.5271,-1.00659 4.31348,-0.635742 4.01953,-0.287109 C3.72559,0.0615234 3.35303,0.23584 2.90186,0.23584 C2.34131,0.23584 1.87134,0.0546875 1.49194,-0.307617 C1.11255,-0.669922 0.922852,-1.13477 0.922852,-1.70215 "/>
</g>

<g fill="#00b8d5" fill-opacity="1" stroke="#00b8d5" stroke-opacity="1" stroke-width="1" stroke-linecap="square" stroke-linejoin="round" transform="matrix(0.5,0,0,0.5,0,0)"
font-family=".AppleSystemUIFont" font-size="13" font-weight="400" font-style="normal" 
>
<polyline fill="none" vector-effect="none" points="1358,801 1358,67 " />
<polyline fill="none" vector-effect="none" points="1358,801 1369.63,801 " />
<polyline fill="none" vector-effect="none" points="1358,709.25 1369.63,709.25 " />
<polyline fill="none" vector-effect="none" points="1358,617.5 1369.63,617.5 " />
<polyline fill="none" vector-effect="none" points="1358,525.75 1369.63,525.75 " />
<polyline fill="none" vector-effect="none" points="1358,434 1369.63,434 " />
<polyline fill="none" vector-effect="none" points="1358,342.25 1369.63,342.25 " />
<polyline fill="none" vector-effect="none" points="1358,250.5 1369.63,250.5 " />
<polyline fill="none" vector-effect="none" points="1358,158.75 1369.63,158.75 " />
<polyline fill="none" vector-effect="none" points="1358,67 1369.63,67 " />
</g>

<g fill="#00b8d5" fill-opacity="1" stroke="none" transform="matrix(0.5,0,0,0.5,689.615,404.5)"
font-family=".AppleSystemUIFont" font-size="13" font-weight="400" font-style="normal" 
>
<path vector-effect="none" fill-rule="evenodd" d="M1.16211,-9.06445 L8.02539,-9.06445 L8.02539,-6.53516 L1.16211,-6.53516 L1.16211,-9.06445 M16.8867,-19.5781 C19.4206,-19.5781 21.2526,-18.5345 22.3828,-16.4473 C23.2578,-14.834 23.6953,-12.6237 23.6953,-9.81641 C23.6953,-7.15495 23.2988,-4.95378 22.5059,-3.21289 C21.3574,-0.715495 19.4798,0.533203 16.873,0.533203 C14.5215,0.533203 12.7715,-0.48763 11.623,-2.5293 C10.666,-4.23372 10.1875,-6.52148 10.1875,-9.39258 C10.1875,-11.6165 10.4746,-13.526 11.0488,-15.1211 C12.1243,-18.0924 14.0703,-19.5781 16.8867,-19.5781 M16.8594,-1.70898 C18.1354,-1.70898 19.1517,-2.27409 19.9082,-3.4043 C20.6647,-4.53451 21.043,-6.63997 21.043,-9.7207 C21.043,-11.9447 20.7695,-13.7744 20.2227,-15.21 C19.6758,-16.6455 18.6139,-17.3633 17.0371,-17.3633 C15.5879,-17.3633 14.5283,-16.682 13.8584,-15.3193 C13.1885,-13.9567 12.8535,-11.9492 12.8535,-9.29688 C12.8535,-7.30078 13.0677,-5.69661 13.4961,-4.48438 C14.1523,-2.63411 15.2734,-1.70898 16.8594,-1.70898 M27.2676,-2.98047 L30.125,-2.98047 L30.125,0 L27.2676,0 L27.2676,-2.98047 M40.2148,-19.5781 C42.7487,-19.5781 44.5807,-18.5345 45.7109,-16.4473 C46.5859,-14.834 47.0234,-12.6237 47.0234,-9.81641 C47.0234,-7.15495 46.627,-4.95378 45.834,-3.21289 C44.6855,-0.715495 42.8079,0.533203 40.2012,0.533203 C37.8496,0.533203 36.0996,-0.48763 34.9512,-2.5293 C33.9941,-4.23372 33.5156,-6.52148 33.5156,-9.39258 C33.5156,-11.6165 33.8027,-13.526 34.377,-15.1211 C35.4525,-18.0924 37.3984,-19.5781 40.2148,-19.5781 M40.1875,-1.70898 C41.4635,-1.70898 42.4798,-2.27409 43.2363,-3.4043 C43.9928,-4.53451 44.3711,-6.63997 44.3711,-9.7207 C44.3711,-11.9447 44.0977,-13.7744 43.5508,-15.21 C43.0039,-16.6455 41.9421,-17.3633 40.3652,-17.3633 C38.916,-17.3633 37.8564,-16.682 37.1865,-15.3193 C36.5166,-13.9567 36.1816,-11.9492 36.1816,-9.29688 C36.1816,-7.30078 36.3958,-5.69661 36.8242,-4.48438 C37.4805,-2.63411 38.6016,-1.70898 40.1875,-1.70898 M51.6621,-4.99023 C51.8262,-3.58659 52.4779,-2.61589 53.6172,-2.07813 C54.2005,-1.80469 54.875,-1.66797 55.6406,-1.66797 C57.099,-1.66797 58.179,-2.13281 58.8809,-3.0625 C59.5827,-3.99219 59.9336,-5.02214 59.9336,-6.15234 C59.9336,-7.51953 59.5166,-8.57682 58.6826,-9.32422 C57.8486,-10.0716 56.8483,-10.4453 55.6816,-10.4453 C54.834,-10.4453 54.1071,-10.2813 53.501,-9.95313 C52.8949,-9.625 52.3776,-9.16927 51.9492,-8.58594 L49.8164,-8.70898 L51.3066,-19.25 L61.4785,-19.25 L61.4785,-16.8711 L53.1523,-16.8711 L52.3184,-11.4297 C52.7741,-11.776 53.207,-12.0358 53.6172,-12.209 C54.3464,-12.5098 55.1895,-12.6602 56.1465,-12.6602 C57.9421,-12.6602 59.4642,-12.0814 60.7129,-10.9238 C61.9616,-9.76628 62.5859,-8.29883 62.5859,-6.52148 C62.5859,-4.67122 62.014,-3.03971 60.8701,-1.62695 C59.7262,-0.214193 57.901,0.492188 55.3945,0.492188 C53.7995,0.492188 52.389,0.0432943 51.1631,-0.854492 C49.9372,-1.75228 49.2513,-3.13086 49.1055,-4.99023 L51.6621,-4.99023"/>
</g>

<g fill="#00b8d5" fill-opacity="1" stroke="none" transform="matrix(0.5,0,0,0.5,689.615,358.625)"
font-family=".AppleSystemUIFont" font-size="13" font-weight="400" font-style="normal" 
>
<path vector-effect="none" fill-rule="evenodd" d="M7.57422,-19.5781 C10.1081,-19.5781 11.9401,-18.5345 13.0703,-16.4473 C13.9453,-14.834 14.3828,-12.6237 14.3828,-9.81641 C14.3828,-7.15495 13.9863,-4.95378 13.1934,-3.21289 C12.0449,-0.715495 10.1673,0.533203 7.56055,0.533203 C5.20898,0.533203 3.45898,-0.48763 2.31055,-2.5293 C1.35352,-4.23372 0.875,-6.52148 0.875,-9.39258 C0.875,-11.6165 1.16211,-13.526 1.73633,-15.1211 C2.81185,-18.0924 4.75781,-19.5781 7.57422,-19.5781 M7.54688,-1.70898 C8.82292,-1.70898 9.83919,-2.27409 10.5957,-3.4043 C11.3522,-4.53451 11.7305,-6.63997 11.7305,-9.7207 C11.7305,-11.9447 11.457,-13.7744 10.9102,-15.21 C10.3633,-16.6455 9.30143,-17.3633 7.72461,-17.3633 C6.27539,-17.3633 5.21582,-16.682 4.5459,-15.3193 C3.87598,-13.9567 3.54102,-11.9492 3.54102,-9.29688 C3.54102,-7.30078 3.75521,-5.69661 4.18359,-4.48438 C4.83984,-2.63411 5.96094,-1.70898 7.54688,-1.70898 M17.9551,-2.98047 L20.8125,-2.98047 L20.8125,0 L17.9551,0 L17.9551,-2.98047 M30.9023,-19.5781 C33.4362,-19.5781 35.2682,-18.5345 36.3984,-16.4473 C37.2734,-14.834 37.7109,-12.6237 37.7109,-9.81641 C37.7109,-7.15495 37.3145,-4.95378 36.5215,-3.21289 C35.373,-0.715495 33.4954,0.533203 30.8887,0.533203 C28.5371,0.533203 26.7871,-0.48763 25.6387,-2.5293 C24.6816,-4.23372 24.2031,-6.52148 24.2031,-9.39258 C24.2031,-11.6165 24.4902,-13.526 25.0645,-15.1211 C26.14,-18.0924 28.0859,-19.5781 30.9023,-19.5781 M30.875,-1.70898 C32.151,-1.70898 33.1673,-2.27409 33.9238,-3.4043 C34.6803,-4.53451 35.0586,-6.63997 35.0586,-9.7207 C35.0586,-11.9447 34.7852,-13.7744 34.2383,-15.21 C33.6914,-16.6455 32.6296,-17.3633 31.0527,-17.3633 C29.6035,-17.3633 28.5439,-16.682 27.874,-15.3193 C27.2041,-13.9567 26.8691,-11.9492 26.8691,-9.29688 C26.8691,-7.30078 27.0833,-5.69661 27.5117,-4.48438 C28.168,-2.63411 29.2891,-1.70898 30.875,-1.70898 M46.4648,-19.5781 C48.9987,-19.5781 50.8307,-18.5345 51.9609,-16.4473 C52.8359,-14.834 53.2734,-12.6237 53.2734,-9.81641 C53.2734,-7.15495 52.877,-4.95378 52.084,-3.21289 C50.9355,-0.715495 49.0579,0.533203 46.4512,0.533203 C44.0996,0.533203 42.3496,-0.48763 41.2012,-2.5293 C40.2441,-4.23372 39.7656,-6.52148 39.7656,-9.39258 C39.7656,-11.6165 40.0527,-13.526 40.627,-15.1211 C41.7025,-18.0924 43.6484,-19.5781 46.4648,-19.5781 M46.4375,-1.70898 C47.7135,-1.70898 48.7298,-2.27409 49.4863,-3.4043 C50.2428,-4.53451 50.6211,-6.63997 50.6211,-9.7207 C50.6211,-11.9447 50.3477,-13.7744 49.8008,-15.21 C49.2539,-16.6455 48.1921,-17.3633 46.6152,-17.3633 C45.166,-17.3633 44.1064,-16.682 43.4365,-15.3193 C42.7666,-13.9567 42.4316,-11.9492 42.4316,-9.29688 C42.4316,-7.30078 42.6458,-5.69661 43.0742,-4.48438 C43.7305,-2.63411 44.8516,-1.70898 46.4375,-1.70898 "/>
</g>

<g fill="#00b8d5" fill-opacity="1" stroke="none" transform="matrix(0.5,0,0,0.5,689.615,312.75)"
font-family=".AppleSystemUIFont" font-size="13" font-weight="400" font-style="normal" 
>
<path vector-effect="none" fill-rule="evenodd" d="M7.57422,-19.5781 C10.1081,-19.5781 11.9401,-18.5345 13.0703,-16.4473 C13.9453,-14.834 14.3828,-12.6237 14.3828,-9.81641 C14.3828,-7.15495 13.9863,-4.95378 13.1934,-3.21289 C12.0449,-0.715495 10.1673,0.533203 7.56055,0.533203 C5.20898,0.533203 3.45898,-0.48763 2.31055,-2.5293 C1.35352,-4.23372 0.875,-6.52148 0.875,-9.39258 C0.875,-11.6165 1.16211,-13.526 1.73633,-15.1211 C2.81185,-18.0924 4.75781,-19.5781 7.57422,-19.5781 M7.54688,-1.70898 C8.82292,-1.70898 9.83919,-2.27409 10.5957,-3.4043 C11.3522,-4.53451 11.7305,-6.63997 11.7305,-9.7207 C11.7305,-11.9447 11.457,-13.7744 10.9102,-15.21 C10.3633,-16.6455 9.30143,-17.3633 7.72461,-17.3633 C6.27539,-17.3633 5.21582,-16.682 4.5459,-15.3193 C3.87598,-13.9567 3.54102,-11.9492 3.54102,-9.29688 C3.54102,-7.30078 3.75521,-5.69661 4.18359,-4.48438 C4.83984,-2.63411 5.96094,-1.70898 7.54688,-1.70898 M17.9551,-2.98047 L20.8125,-2.98047 L20.8125,0 L17.9551,0 L17.9551,-2.98047 M30.9023,-19.5781 C33.4362,-19.5781 35.2682,-18.5345 36.3984,-16.4473 C37.2734,-14.834 37.7109,-12.6237 37.7109,-9.81641 C37.7109,-7.15495 37.3145,-4.95378 36.5215,-3.21289 C35.373,-0.715495 33.4954,0.533203 30.8887,0.533203 C28.5371,0.533203 26.7871,-0.48763 25.6387,-2.5293 C24.6816,-4.23372 24.2031,-6.52148 24.2031,-9.39258 C24.2031,-11.6165 24.4902,-13.526 25.0645,-15.1211 C26.14,-18.0924 28.0859,-19.5781 30.9023,-19.5781 M30.875,-1.70898 C32.151,-1.70898 33.1673,-2.27409 33.9238,-3.4043 C34.6803,-4.53451 35.0586,-6.63997 35.0586,-9.7207 C35.0586,-11.9447 34.7852,-13.7744 34.2383,-15.21 C33.6914,-16.6455 32.6296,-17.3633 31.0527,-17.3633 C29.6035,-17.3633 28.5439,-16.682 27.874,-15.3193 C27.2041,-13.9567 26.8691,-11.9492 26.8691,-9.29688 C26.8691,-7.30078 27.0833,-5.69661 27.5117,-4.48438 C28.168,-2.63411 29.2891,-1.70898 30.875,-1.70898 M42.3496,-4.99023 C42.5137,-3.58659 43.1654,-2.61589 44.3047,-2.07813 C44.888,-1.80469 45.5625,-1.66797 46.3281,-1.66797 C47.7865,-1.66797 48.8665,-2.13281 49.5684,-3.0625 C50.2702,-3.99219 50.6211,-5.02214 50.6211,-6.15234 C50.6211,-7.51953 50.2041,-8.57682 49.3701,-9.32422 C48.5361,-10.0716 47.5358,-10.4453 46.3691,-10.4453 C45.5215,-10.4453 44.7946,-10.2813 44.1885,-9.95313 C43.5824,-9.625 43.0651,-9.16927 42.6367,-8.58594 L40.5039,-8.70898 L41.9941,-19.25 L52.166,-19.25 L52.166,-16.8711 L43.8398,-16.8711 L43.0059,-11.4297 C43.4616,-11.776 43.8945,-12.0358 44.3047,-12.209 C45.0339,-12.5098 45.877,-12.6602 46.834,-12.6602 C48.6296,-12.6602 50.1517,-12.0814 51.4004,-10.9238 C52.6491,-9.76628 53.2734,-8.29883 53.2734,-6.52148 C53.2734,-4.67122 52.7015,-3.03971 51.5576,-1.62695 C50.4137,-0.214193 48.5885,0.492188 46.082,0.492188 C44.487,0.492188 43.0765,0.0432943 41.8506,-0.854492 C40.6247,-1.75228 39.9388,-3.13086 39.793,-4.99023 L42.3496,-4.99023"/>
</g>

<g fill="#00b8d5" fill-opacity="1" stroke="none" transform="matrix(0.5,0,0,0.5,689.615,266.875)"
font-family=".AppleSystemUIFont" font-size="13" font-weight="400" font-style="normal" 
>
<path vector-effect="none" fill-rule="evenodd" d="M7.57422,-19.5781 C10.1081,-19.5781 11.9401,-18.5345 13.0703,-16.4473 C13.9453,-14.834 14.3828,-12.6237 14.3828,-9.81641 C14.3828,-7.15495 13.9863,-4.95378 13.1934,-3.21289 C12.0449,-0.715495 10.1673,0.533203 7.56055,0.533203 C5.20898,0.533203 3.45898,-0.48763 2.31055,-2.5293 C1.35352,-4.23372 0.875,-6.52148 0.875,-9.39258 C0.875,-11.6165 1.16211,-13.526 1.73633,-15.1211 C2.81185,-18.0924 4.75781,-19.5781 7.57422,-19.5781 M7.54688,-1.70898 C8.82292,-1.70898 9.83919,-2.27409 10.5957,-3.4043 C11.3522,-4.53451 11.7305,-6.63997 11.7305,-9.7207 C11.7305,-11.9447 11.457,-13.7744 10.9102,-15.21 C10.3633,-16.6455 9.30143,-17.3633 7.72461,-17.3633 C6.27539,-17.3633 5.21582,-16.682 4.5459,-15.3193 C3.87598,-13.9567 3.54102,-11.9492 3.54102,-9.29688 C3.54102,-7.30078 3.75521,-5.69661 4.18359,-4.48438 C4.83984,-2.63411 5.96094,-1.70898 7.54688,-1.70898 M17.9551,-2.98047 L20.8125,-2.98047 L20.8125,0 L17.9551,0 L17.9551,-2.98047 M26.0078,-13.8633 L26.0078,-15.75 C27.7852,-15.9232 29.0247,-16.2126 29.7266,-16.6182 C30.4284,-17.0238 30.9525,-17.9831 31.2988,-19.4961 L33.2402,-19.4961 L33.2402,0 L30.6152,0 L30.6152,-13.8633 L26.0078,-13.8633 M46.4648,-19.5781 C48.9987,-19.5781 50.8307,-18.5345 51.9609,-16.4473 C52.8359,-14.834 53.2734,-12.6237 53.2734,-9.81641 C53.2734,-7.15495 52.877,-4.95378 52.084,-3.21289 C50.9355,-0.715495 49.0579,0.533203 46.4512,0.533203 C44.0996,0.533203 42.3496,-0.48763 41.2012,-2.5293 C40.2441,-4.23372 39.7656,-6.52148 39.7656,-9.39258 C39.7656,-11.6165 40.0527,-13.526 40.627,-15.1211 C41.7025,-18.0924 43.6484,-19.5781 46.4648,-19.5781 M46.4375,-1.70898 C47.7135,-1.70898 48.7298,-2.27409 49.4863,-3.4043 C50.2428,-4.53451 50.6211,-6.63997 50.6211,-9.7207 C50.6211,-11.9447 50.3477,-13.7744 49.8008,-15.21 C49.2539,-16.6455 48.1921,-17.3633 46.6152,-17.3633 C45.166,-17.3633 44.1064,-16.682 43.4365,-15.3193 C42.7666,-13.9567 42.4316,-11.9492 42.4316,-9.29688 C42.4316,-7.30078 42.6458,-5.69661 43.0742,-4.48438 C43.7305,-2.63411 44.8516,-1.70898 46.4375,-1.70898 "/>
</g>

<g fill="#00b8d5" fill-opacity="1" stroke="none" transform="matrix(0.5,0,0,0.5,689.615,221)"
font-family=".AppleSystemUIFont" font-size="13" font-weight="400" font-style="normal" 
>
<path vector-effect="none" fill-rule="evenodd" d="M7.57422,-19.5781 C10.1081,-19.5781 11.9401,-18.5345 13.0703,-16.4473 C13.9453,-14.834 14.3828,-12.6237 14.3828,-9.81641 C14.3828,-7.15495 13.9863,-4.95378 13.1934,-3.21289 C12.0449,-0.715495 10.1673,0.533203 7.56055,0.533203 C5.20898,0.533203 3.45898,-0.48763 2.31055,-2.5293 C1.35352,-4.23372 0.875,-6.52148 0.875,-9.39258 C0.875,-11.6165 1.16211,-13.526 1.73633,-15.1211 C2.81185,-18.0924 4.75781,-19.5781 7.57422,-19.5781 M7.54688,-1.70898 C8.82292,-1.70898 9.83919,-2.27409 10.5957,-3.4043 C11.3522,-4.53451 11.7305,-6.63997 11.7305,-9.7207 C11.7305,-11.9447 11.457,-13.7744 10.9102,-15.21 C10.3633,-16.6455 9.30143,-17.3633 7.72461,-17.3633 C6.27539,-17.3633 5.21582,-16.682 4.5459,-15.3193 C3.87598,-13.9567 3.54102,-11.9492 3.54102,-9.29688 C3.54102,-7.30078 3.75521,-5.69661 4.18359,-4.48438 C4.83984,-2.63411 5.96094,-1.70898 7.54688,-1.70898 M17.9551,-2.98047 L20.8125,-2.98047 L20.8125,0 L17.9551,0 L17.9551,-2.98047 M26.0078,-13.8633 L26.0078,-15.75 C27.7852,-15.9232 29.0247,-16.2126 29.7266,-16.6182 C30.4284,-17.0238 30.9525,-17.9831 31.2988,-19.4961 L33.2402,-19.4961 L33.2402,0 L30.6152,0 L30.6152,-13.8633 L26.0078,-13.8633 M42.3496,-4.99023 C42.5137,-3.58659 43.1654,-2.61589 44.3047,-2.07813 C44.888,-1.80469 45.5625,-1.66797 46.3281,-1.66797 C47.7865,-1.66797 48.8665,-2.13281 49.5684,-3.0625 C50.2702,-3.99219 50.6211,-5.02214 50.6211,-6.15234 C50.6211,-7.51953 50.2041,-8.57682 49.3701,-9.32422 C48.5361,-10.0716 47.5358,-10.4453 46.3691,-10.4453 C45.5215,-10.4453 44.7946,-10.2813 44.1885,-9.95313 C43.5824,-9.625 43.0651,-9.16927 42.6367,-8.58594 L40.5039,-8.70898 L41.9941,-19.25 L52.166,-19.25 L52.166,-16.8711 L43.8398,-16.8711 L43.0059,-11.4297 C43.4616,-11.776 43.8945,-12.0358 44.3047,-12.209 C45.0339,-12.5098 45.877,-12.6602 46.834,-12.6602 C48.6296,-12.6602 50.1517,-12.0814 51.4004,-10.9238 C52.6491,-9.76628 53.2734,-8.29883 53.2734,-6.52148 C53.2734,-4.67122 52.7015,-3.03971 51.5576,-1.62695 C50.4137,-0.214193 48.5885,0.492188 46.082,0.492188 C44.487,0.492188 43.0765,0.0432943 41.8506,-0.854492 C40.6247,-1.75228 39.9388,-3.13086 39.793,-4.99023 L42.3496,-4.99023"/>
</g>

<g fill="#00b8d5" fill-opacity="1" stroke="none" transform="matrix(0.5,0,0,0.5,689.615,175.125)"
font-family=".AppleSystemUIFont" font-size="13" font-weight="400" font-style="normal" 
>
<path vector-effect="none" fill-rule="evenodd" d="M7.57422,-19.5781 C10.1081,-19.5781 11.9401,-18.5345 13.0703,-16.4473 C13.9453,-14.834 14.3828,-12.6237 14.3828,-9.81641 C14.3828,-7.15495 13.9863,-4.95378 13.1934,-3.21289 C12.0449,-0.715495 10.1673,0.533203 7.56055,0.533203 C5.20898,0.533203 3.45898,-0.48763 2.31055,-2.5293 C1.35352,-4.23372 0.875,-6.52148 0.875,-9.39258 C0.875,-11.6165 1.16211,-13.526 1.73633,-15.1211 C2.81185,-18.0924 4.75781,-19.5781 7.57422,-19.5781 M7.54688,-1.70898 C8.82292,-1.70898 9.83919,-2.27409 10.5957,-3.4043 C11.3522,-4.53451 11.7305,-6.63997 11.7305,-9.7207 C11.7305,-11.9447 11.457,-13.7744 10.9102,-15.21 C10.3633,-16.6455 9.30143,-17.3633 7.72461,-17.3633 C6.27539,-17.3633 5.21582,-16.682 4.5459,-15.3193 C3.87598,-13.9567 3.54102,-11.9492 3.54102,-9.29688 C3.54102,-7.30078 3.75521,-5.69661 4.18359,-4.48438 C4.83984,-2.63411 5.96094,-1.70898 7.54688,-1.70898 M17.9551,-2.98047 L20.8125,-2.98047 L20.8125,0 L17.9551,0 L17.9551,-2.98047 M24.2031,0 C24.2943,-1.6862 24.6429,-3.15365 25.249,-4.40234 C25.8551,-5.65104 27.0378,-6.78581 28.7969,-7.80664 L31.4219,-9.32422 C32.5977,-10.0078 33.4225,-10.5911 33.8965,-11.0742 C34.6439,-11.8307 35.0176,-12.6966 35.0176,-13.6719 C35.0176,-14.8112 34.6758,-15.7158 33.9922,-16.3857 C33.3086,-17.0557 32.3971,-17.3906 31.2578,-17.3906 C29.5716,-17.3906 28.4049,-16.7526 27.7578,-15.4766 C27.4115,-14.793 27.2201,-13.8451 27.1836,-12.6328 L24.6816,-12.6328 C24.709,-14.3372 25.0234,-15.7272 25.625,-16.8027 C26.6914,-18.6986 28.5736,-19.6465 31.2715,-19.6465 C33.5137,-19.6465 35.152,-19.0404 36.1865,-17.8281 C37.221,-16.6159 37.7383,-15.2669 37.7383,-13.7813 C37.7383,-12.2135 37.1868,-10.8737 36.084,-9.76172 C35.446,-9.11458 34.3021,-8.33073 32.6523,-7.41016 L30.7793,-6.37109 C29.8861,-5.87891 29.1842,-5.40951 28.6738,-4.96289 C27.7624,-4.16992 27.1882,-3.29036 26.9512,-2.32422 L37.6426,-2.32422 L37.6426,0 L24.2031,0 M46.4648,-19.5781 C48.9987,-19.5781 50.8307,-18.5345 51.9609,-16.4473 C52.8359,-14.834 53.2734,-12.6237 53.2734,-9.81641 C53.2734,-7.15495 52.877,-4.95378 52.084,-3.21289 C50.9355,-0.715495 49.0579,0.533203 46.4512,0.533203 C44.0996,0.533203 42.3496,-0.48763 41.2012,-2.5293 C40.2441,-4.23372 39.7656,-6.52148 39.7656,-9.39258 C39.7656,-11.6165 40.0527,-13.526 40.627,-15.1211 C41.7025,-18.0924 43.6484,-19.5781 46.4648,-19.5781 M46.4375,-1.70898 C47.7135,-1.70898 48.7298,-2.27409 49.4863,-3.4043 C50.2428,-4.53451 50.6211,-6.63997 50.6211,-9.7207 C50.6211,-11.9447 50.3477,-13.7744 49.8008,-15.21 C49.2539,-16.6455 48.1921,-17.3633 46.6152,-17.3633 C45.166,-17.3633 44.1064,-16.682 43.4365,-15.3193 C42.7666,-13.9567 42.4316,-11.9492 42.4316,-9.29688 C42.4316,-7.30078 42.6458,-5.69661 43.0742,-4.48438 C43.7305,-2.63411 44.8516,-1.70898 46.4375,-1.70898 "/>
</g>

<g fill="#00b8d5" fill-opacity="1" stroke="none" transform="matrix(0.5,0,0,0.5,689.615,129.25)"
font-family=".AppleSystemUIFont" font-size="13" font-weight="400" font-style="normal" 
>
<path vector-effect="none" fill-rule="evenodd" d="M7.57422,-19.5781 C10.1081,-19.5781 11.9401,-18.5345 13.0703,-16.4473 C13.9453,-14.834 14.3828,-12.6237 14.3828,-9.81641 C14.3828,-7.15495 13.9863,-4.95378 13.1934,-3.21289 C12.0449,-0.715495 10.1673,0.533203 7.56055,0.533203 C5.20898,0.533203 3.45898,-0.48763 2.31055,-2.5293 C1.35352,-4.23372 0.875,-6.52148 0.875,-9.39258 C0.875,-11.6165 1.16211,-13.526 1.73633,-15.1211 C2.81185,-18.0924 4.75781,-19.5781 7.57422,-19.5781 M7.54688,-1.70898 C8.82292,-1.70898 9.83919,-2.27409 10.5957,-3.4043 C11.3522,-4.53451 11.7305,-6.63997 11.7305,-9.7207 C11.7305,-11.9447 11.457,-13.7744 10.9102,-15.21 C10.3633,-16.6455 9.30143,-17.3633 7.72461,-17.3633 C6.27539,-17.3633 5.21582,-16.682 4.5459,-15.3193 C3.87598,-13.9567 3.54102,-11.9492 3.54102,-9.29688 C3.54102,-7.30078 3.75521,-5.69661 4.18359,-4.48438 C4.83984,-2.63411 5.96094,-1.70898 7.54688,-1.70898 M17.9551,-2.98047 L20.8125,-2.98047 L20.8125,0 L17.9551,0 L17.9551,-2.98047 M24.2031,0 C24.2943,-1.6862 24.6429,-3.15365 25.249,-4.40234 C25.8551,-5.65104 27.0378,-6.78581 28.7969,-7.80664 L31.4219,-9.32422 C32.5977,-10.0078 33.4225,-10.5911 33.8965,-11.0742 C34.6439,-11.8307 35.0176,-12.6966 35.0176,-13.6719 C35.0176,-14.8112 34.6758,-15.7158 33.9922,-16.3857 C33.3086,-17.0557 32.3971,-17.3906 31.2578,-17.3906 C29.5716,-17.3906 28.4049,-16.7526 27.7578,-15.4766 C27.4115,-14.793 27.2201,-13.8451 27.1836,-12.6328 L24.6816,-12.6328 C24.709,-14.3372 25.0234,-15.7272 25.625,-16.8027 C26.6914,-18.6986 28.5736,-19.6465 31.2715,-19.6465 C33.5137,-19.6465 35.152,-19.0404 36.1865,-17.8281 C37.221,-16.6159 37.7383,-15.2669 37.7383,-13.7813 C37.7383,-12.2135 37.1868,-10.8737 36.084,-9.76172 C35.446,-9.11458 34.3021,-8.33073 32.6523,-7.41016 L30.7793,-6.37109 C29.8861,-5.87891 29.1842,-5.40951 28.6738,-4.96289 C27.7624,-4.16992 27.1882,-3.29036 26.9512,-2.32422 L37.6426,-2.32422 L37.6426,0 L24.2031,0 M42.3496,-4.99023 C42.5137,-3.58659 43.1654,-2.61589 44.3047,-2.07813 C44.888,-1.80469 45.5625,-1.66797 46.3281,-1.66797 C47.7865,-1.66797 48.8665,-2.13281 49.5684,-3.0625 C50.2702,-3.99219 50.6211,-5.02214 50.6211,-6.15234 C50.6211,-7.51953 50.2041,-8.57682 49.3701,-9.32422 C48.5361,-10.0716 47.5358,-10.4453 46.3691,-10.4453 C45.5215,-10.4453 44.7946,-10.2813 44.1885,-9.95313 C43.5824,-9.625 43.0651,-9.16927 42.6367,-8.58594 L40.5039,-8.70898 L41.9941,-19.25 L52.166,-19.25 L52.166,-16.8711 L43.8398,-16.8711 L43.0059,-11.4297 C43.4616,-11.776 43.8945,-12.0358 44.3047,-12.209 C45.0339,-12.5098 45.877,-12.6602 46.834,-12.6602 C48.6296,-12.6602 50.1517,-12.0814 51.4004,-10.9238 C52.6491,-9.76628 53.2734,-8.29883 53.2734,-6.52148 C53.2734,-4.67122 52.7015,-3.03971 51.5576,-1.62695 C50.4137,-0.214193 48.5885,0.492188 46.082,0.492188 C44.487,0.492188 43.0765,0.0432943 41.8506,-0.854492 C40.6247,-1.75228 39.9388,-3.13086 39.793,-4.99023 L42.3496,-4.99023"/>
</g>

<g fill="#00b8d5" fill-opacity="1" stroke="none" transform="matrix(0.5,0,0,0.5,689.615,83.375)"
font-family=".AppleSystemUIFont" font-size="13" font-weight="400" font-style="normal" 
>
<path vector-effect="none" fill-rule="evenodd" d="M7.57422,-19.5781 C10.1081,-19.5781 11.9401,-18.5345 13.0703,-16.4473 C13.9453,-14.834 14.3828,-12.6237 14.3828,-9.81641 C14.3828,-7.15495 13.9863,-4.95378 13.1934,-3.21289 C12.0449,-0.715495 10.1673,0.533203 7.56055,0.533203 C5.20898,0.533203 3.45898,-0.48763 2.31055,-2.5293 C1.35352,-4.23372 0.875,-6.52148 0.875,-9.39258 C0.875,-11.6165 1.16211,-13.526 1.73633,-15.1211 C2.81185,-18.0924 4.75781,-19.5781 7.57422,-19.5781 M7.54688,-1.70898 C8.82292,-1.70898 9.83919,-2.27409 10.5957,-3.4043 C11.3522,-4.53451 11.7305,-6.63997 11.7305,-9.7207 C11.7305,-11.9447 11.457,-13.7744 10.9102,-15.21 C10.3633,-16.6455 9.30143,-17.3633 7.72461,-17.3633 C6.27539,-17.3633 5.21582,-16.682 4.5459,-15.3193 C3.87598,-13.9567 3.54102,-11.9492 3.54102,-9.29688 C3.54102,-7.30078 3.75521,-5.69661 4.18359,-4.48438 C4.83984,-2.63411 5.96094,-1.70898 7.54688,-1.70898 M17.9551,-2.98047 L20.8125,-2.98047 L20.8125,0 L17.9551,0 L17.9551,-2.98047 M30.6016,0.533203 C28.2865,0.533203 26.6071,-0.102539 25.5635,-1.37402 C24.5199,-2.64551 23.998,-4.19271 23.998,-6.01563 L26.5684,-6.01563 C26.6777,-4.7487 26.9147,-3.82813 27.2793,-3.25391 C27.9173,-2.22396 29.0703,-1.70898 30.7383,-1.70898 C32.0326,-1.70898 33.0716,-2.05534 33.8555,-2.74805 C34.6393,-3.44076 35.0313,-4.33398 35.0313,-5.42773 C35.0313,-6.77669 34.6188,-7.72005 33.7939,-8.25781 C32.9691,-8.79557 31.8229,-9.06445 30.3555,-9.06445 C30.1914,-9.06445 30.0251,-9.06217 29.8564,-9.05762 C29.6878,-9.05306 29.5169,-9.04622 29.3438,-9.03711 L29.3438,-11.2109 C29.599,-11.1836 29.8132,-11.1654 29.9863,-11.1563 C30.1595,-11.1471 30.3464,-11.1426 30.5469,-11.1426 C31.4674,-11.1426 32.224,-11.2884 32.8164,-11.5801 C33.8555,-12.0905 34.375,-13.002 34.375,-14.3145 C34.375,-15.2897 34.0286,-16.0417 33.3359,-16.5703 C32.6432,-17.099 31.8366,-17.3633 30.916,-17.3633 C29.2754,-17.3633 28.1406,-16.8164 27.5117,-15.7227 C27.1654,-15.1211 26.9694,-14.2643 26.9238,-13.1523 L24.4902,-13.1523 C24.4902,-14.6107 24.7819,-15.8503 25.3652,-16.8711 C26.3678,-18.694 28.1315,-19.6055 30.6563,-19.6055 C32.6523,-19.6055 34.1973,-19.1611 35.291,-18.2725 C36.3848,-17.3838 36.9316,-16.0964 36.9316,-14.4102 C36.9316,-13.207 36.6081,-12.2318 35.9609,-11.4844 C35.5599,-11.0195 35.0404,-10.6549 34.4023,-10.3906 C35.4323,-10.1081 36.2367,-9.56348 36.8154,-8.75684 C37.3942,-7.9502 37.6836,-6.96354 37.6836,-5.79688 C37.6836,-3.92839 37.0684,-2.40625 35.8379,-1.23047 C34.6074,-0.0546875 32.862,0.533203 30.6016,0.533203 M46.4648,-19.5781 C48.9987,-19.5781 50.8307,-18.5345 51.9609,-16.4473 C52.8359,-14.834 53.2734,-12.6237 53.2734,-9.81641 C53.2734,-7.15495 52.877,-4.95378 52.084,-3.21289 C50.9355,-0.715495 49.0579,0.533203 46.4512,0.533203 C44.0996,0.533203 42.3496,-0.48763 41.2012,-2.5293 C40.2441,-4.23372 39.7656,-6.52148 39.7656,-9.39258 C39.7656,-11.6165 40.0527,-13.526 40.627,-15.1211 C41.7025,-18.0924 43.6484,-19.5781 46.4648,-19.5781 M46.4375,-1.70898 C47.7135,-1.70898 48.7298,-2.27409 49.4863,-3.4043 C50.2428,-4.53451 50.6211,-6.63997 50.6211,-9.7207 C50.6211,-11.9447 50.3477,-13.7744 49.8008,-15.21 C49.2539,-16.6455 48.1921,-17.3633 46.6152,-17.3633 C45.166,-17.3633 44.1064,-16.682 43.4365,-15.3193 C42.7666,-13.9567 42.4316,-11.9492 42.4316,-9.29688 C42.4316,-7.30078 42.6458,-5.69661 43.0742,-4.48438 C43.7305,-2.63411 44.8516,-1.70898 46.4375,-1.70898 "/>
</g>

<g fill="#00b8d5" fill-opacity="1" stroke="none" transform="matrix(0.5,0,0,0.5,689.615,37.5)"
font-family=".AppleSystemUIFont" font-size="13" font-weight="400" font-style="normal" 
>
<path vector-effect="none" fill-rule="evenodd" d="M7.57422,-19.5781 C10.1081,-19.5781 11.9401,-18.5345 13.0703,-16.4473 C13.9453,-14.834 14.3828,-12.6237 14.3828,-9.81641 C14.3828,-7.15495 13.9863,-4.95378 13.1934,-3.21289 C12.0449,-0.715495 10.1673,0.533203 7.56055,0.533203 C5.20898,0.533203 3.45898,-0.48763 2.31055,-2.5293 C1.35352,-4.23372 0.875,-6.52148 0.875,-9.39258 C0.875,-11.6165 1.16211,-13.526 1.73633,-15.1211 C2.81185,-18.0924 4.75781,-19.5781 7.57422,-19.5781 M7.54688,-1.70898 C8.82292,-1.70898 9.83919,-2.27409 10.5957,-3.4043 C11.3522,-4.53451 11.7305,-6.63997 11.7305,-9.7207 C11.7305,-11.9447 11.457,-13.7744 10.9102,-15.21 C10.3633,-16.6455 9.30143,-17.3633 7.72461,-17.3633 C6.27539,-17.3633 5.21582,-16.682 4.5459,-15.3193 C3.87598,-13.9567 3.54102,-11.9492 3.54102,-9.29688 C3.54102,-7.30078 3.75521,-5.69661 4.18359,-4.48438 C4.83984,-2.63411 5.96094,-1.70898 7.54688,-1.70898 M17.9551,-2.98047 L20.8125,-2.98047 L20.8125,0 L17.9551,0 L17.9551,-2.98047 M30.6016,0.533203 C28.2865,0.533203 26.6071,-0.102539 25.5635,-1.37402 C24.5199,-2.64551 23.998,-4.19271 23.998,-6.01563 L26.5684,-6.01563 C26.6777,-4.7487 26.9147,-3.82813 27.2793,-3.25391 C27.9173,-2.22396 29.0703,-1.70898 30.7383,-1.70898 C32.0326,-1.70898 33.0716,-2.05534 33.8555,-2.74805 C34.6393,-3.44076 35.0313,-4.33398 35.0313,-5.42773 C35.0313,-6.77669 34.6188,-7.72005 33.7939,-8.25781 C32.9691,-8.79557 31.8229,-9.06445 30.3555,-9.06445 C30.1914,-9.06445 30.0251,-9.06217 29.8564,-9.05762 C29.6878,-9.05306 29.5169,-9.04622 29.3438,-9.03711 L29.3438,-11.2109 C29.599,-11.1836 29.8132,-11.1654 29.9863,-11.1563 C30.1595,-11.1471 30.3464,-11.1426 30.5469,-11.1426 C31.4674,-11.1426 32.224,-11.2884 32.8164,-11.5801 C33.8555,-12.0905 34.375,-13.002 34.375,-14.3145 C34.375,-15.2897 34.0286,-16.0417 33.3359,-16.5703 C32.6432,-17.099 31.8366,-17.3633 30.916,-17.3633 C29.2754,-17.3633 28.1406,-16.8164 27.5117,-15.7227 C27.1654,-15.1211 26.9694,-14.2643 26.9238,-13.1523 L24.4902,-13.1523 C24.4902,-14.6107 24.7819,-15.8503 25.3652,-16.8711 C26.3678,-18.694 28.1315,-19.6055 30.6563,-19.6055 C32.6523,-19.6055 34.1973,-19.1611 35.291,-18.2725 C36.3848,-17.3838 36.9316,-16.0964 36.9316,-14.4102 C36.9316,-13.207 36.6081,-12.2318 35.9609,-11.4844 C35.5599,-11.0195 35.0404,-10.6549 34.4023,-10.3906 C35.4323,-10.1081 36.2367,-9.56348 36.8154,-8.75684 C37.3942,-7.9502 37.6836,-6.96354 37.6836,-5.79688 C37.6836,-3.92839 37.0684,-2.40625 35.8379,-1.23047 C34.6074,-0.0546875 32.862,0.533203 30.6016,0.533203 M42.3496,-4.99023 C42.5137,-3.58659 43.1654,-2.61589 44.3047,-2.07813 C44.888,-1.80469 45.5625,-1.66797 46.3281,-1.66797 C47.7865,-1.66797 48.8665,-2.13281 49.5684,-3.0625 C50.2702,-3.99219 50.6211,-5.02214 50.6211,-6.15234 C50.6211,-7.51953 50.2041,-8.57682 49.3701,-9.32422 C48.5361,-10.0716 47.5358,-10.4453 46.3691,-10.4453 C45.5215,-10.4453 44.7946,-10.2813 44.1885,-9.95313 C43.5824,-9.625 43.0651,-9.16927 42.6367,-8.58594 L40.5039,-8.70898 L41.9941,-19.25 L52.166,-19.25 L52.166,-16.8711 L43.8398,-16.8711 L43.0059,-11.4297 C43.4616,-11.776 43.8945,-12.0358 44.3047,-12.209 C45.0339,-12.5098 45.877,-12.6602 46.834,-12.6602 C48.6296,-12.6602 50.1517,-12.0814 51.4004,-10.9238 C52.6491,-9.76628 53.2734,-8.29883 53.2734,-6.52148 C53.2734,-4.67122 52.7015,-3.03971 51.5576,-1.62695 C50.4137,-0.214193 48.5885,0.492188 46.082,0.492188 C44.487,0.492188 43.0765,0.0432943 41.8506,-0.854492 C40.6247,-1.75228 39.9388,-3.13086 39.793,-4.99023 L42.3496,-4.99023"/>
</g>

<g fill="#00b8d5" fill-opacity="1" stroke="none" transform="matrix(0,-0.5,0.5,0,737.551,225.694)"
font-family=".AppleSystemUIFont" font-size="13" font-weight="400" font-style="normal" 
>
<path vector-effect="none" fill-rule="evenodd" d="M4.37988,-6.47461 C4.37988,-5.27344 4.61182,-4.21631 5.07568,-3.30322 C5.53955,-2.39014 6.21338,-1.67725 7.09717,-1.16455 C7.98096,-0.651855 9.02344,-0.395508 10.2246,-0.395508 C11.4844,-0.395508 12.6978,-0.717773 13.8647,-1.3623 C15.0317,-2.00684 16.0278,-2.86865 16.853,-3.94775 C17.6782,-5.02686 18.2422,-6.17188 18.5449,-7.38281 C18.584,-7.5 18.6621,-7.55859 18.7793,-7.55859 L19.1455,-7.55859 C19.2236,-7.55859 19.2871,-7.53174 19.3359,-7.47803 C19.3848,-7.42432 19.4092,-7.36328 19.4092,-7.29492 C19.4092,-7.27539 19.3994,-7.24609 19.3799,-7.20703 C19.0381,-5.82031 18.3765,-4.51904 17.395,-3.30322 C16.4136,-2.0874 15.2393,-1.12305 13.8721,-0.410156 C12.5049,0.302734 11.0986,0.65918 9.65332,0.65918 C8.09082,0.65918 6.68945,0.307617 5.44922,-0.395508 C4.20898,-1.09863 3.24463,-2.0752 2.55615,-3.3252 C1.86768,-4.5752 1.52344,-5.98633 1.52344,-7.55859 C1.52344,-9.23828 1.89941,-10.9009 2.65137,-12.5464 C3.40332,-14.1919 4.41406,-15.6567 5.68359,-16.9409 C6.95313,-18.2251 8.40088,-19.248 10.0269,-20.0098 C11.6528,-20.7715 13.3008,-21.1523 14.9707,-21.1523 C15.6348,-21.1523 16.2695,-21.0522 16.875,-20.8521 C17.4805,-20.6519 18.042,-20.3467 18.5596,-19.9365 C19.0771,-19.5264 19.502,-19.0527 19.834,-18.5156 L22.207,-21.0938 C22.207,-21.1328 22.2559,-21.1523 22.3535,-21.1523 L22.5293,-21.1523 C22.6074,-21.1523 22.6709,-21.1182 22.7197,-21.0498 C22.7686,-20.9814 22.793,-20.9131 22.793,-20.8447 L20.7568,-12.7441 C20.7568,-12.6074 20.6787,-12.5391 20.5225,-12.5391 L19.9805,-12.5391 C19.8242,-12.5391 19.7461,-12.6514 19.7461,-12.876 C19.8242,-13.3154 19.8633,-13.8428 19.8633,-14.458 C19.8633,-15.4346 19.6973,-16.355 19.3652,-17.2192 C19.0332,-18.0835 18.5181,-18.7793 17.8198,-19.3066 C17.1216,-19.834 16.2695,-20.0977 15.2637,-20.0977 C13.6328,-20.0977 12.1387,-19.6875 10.7813,-18.8672 C9.42383,-18.0469 8.27393,-16.9702 7.33154,-15.6372 C6.38916,-14.3042 5.66162,-12.8247 5.14893,-11.1987 C4.63623,-9.57275 4.37988,-7.99805 4.37988,-6.47461 "/>
</g>

<g fill="#00b8d5" fill-opacity="1" stroke="none" transform="matrix(0,-0.5,0.5,0,739.861,214.687)"
font-family=".AppleSystemUIFont" font-size="13" font-weight="400" font-style="normal" 
>
<path vector-effect="none" fill-rule="evenodd" d="M3.65039,0.23584 C2.76855,0.23584 2.073,-0.0974121 1.56372,-0.763916 C1.05444,-1.43042 0.799805,-2.21826 0.799805,-3.12744 C0.799805,-4.02295 1.03223,-4.95264 1.49707,-5.9165 C1.96191,-6.88037 2.58911,-7.68188 3.37866,-8.32104 C4.16821,-8.96021 5.01758,-9.27979 5.92676,-9.27979 C6.33691,-9.27979 6.70776,-9.16528 7.03931,-8.93628 C7.37085,-8.70728 7.62891,-8.40137 7.81348,-8.01855 L8.99268,-12.7046 C9.04736,-12.9438 9.08154,-13.1318 9.09521,-13.2686 C9.09521,-13.4941 8.64063,-13.6069 7.73145,-13.6069 C7.58789,-13.6069 7.51611,-13.6992 7.51611,-13.8838 C7.52295,-13.918 7.53833,-13.9795 7.56226,-14.0684 C7.58618,-14.1572 7.61694,-14.2256 7.65454,-14.2734 C7.69214,-14.3213 7.74512,-14.3452 7.81348,-14.3452 L10.6436,-14.5708 C10.8145,-14.5708 10.8999,-14.4819 10.8999,-14.3042 L7.875,-2.2251 C7.7793,-1.99268 7.73145,-1.65771 7.73145,-1.22021 C7.73145,-0.618652 7.93311,-0.317871 8.33643,-0.317871 C8.77393,-0.317871 9.10718,-0.596436 9.33618,-1.15356 C9.56519,-1.71069 9.7583,-2.35498 9.91553,-3.08643 C9.94287,-3.16846 9.99756,-3.20947 10.0796,-3.20947 L10.3359,-3.20947 C10.3906,-3.20947 10.4351,-3.18555 10.4692,-3.1377 C10.5034,-3.08984 10.5205,-3.04541 10.5205,-3.00439 C10.2744,-2.02686 10.0061,-1.24243 9.71558,-0.651123 C9.42505,-0.0598145 8.95166,0.23584 8.29541,0.23584 C7.82373,0.23584 7.40674,0.0974121 7.04443,-0.179443 C6.68213,-0.456299 6.45654,-0.82373 6.36768,-1.28174 C5.46533,-0.27002 4.55957,0.23584 3.65039,0.23584 M3.6709,-0.317871 C4.17676,-0.317871 4.66724,-0.507568 5.14233,-0.886963 C5.61743,-1.26636 6.02588,-1.7124 6.36768,-2.2251 C6.38135,-2.23877 6.38818,-2.26611 6.38818,-2.30713 L7.53662,-6.93164 C7.45459,-7.42383 7.27344,-7.84766 6.99316,-8.20313 C6.71289,-8.55859 6.34033,-8.73633 5.87549,-8.73633 C5.40381,-8.73633 4.9646,-8.54321 4.55786,-8.15698 C4.15112,-7.77075 3.80762,-7.31445 3.52734,-6.78809 C3.25391,-6.22754 2.99243,-5.4585 2.74292,-4.48096 C2.49341,-3.50342 2.36865,-2.74463 2.36865,-2.20459 C2.36865,-1.71924 2.4729,-1.28345 2.6814,-0.897217 C2.88989,-0.510986 3.21973,-0.317871 3.6709,-0.317871 "/>
</g>

<g fill="none" stroke="#65dd18" stroke-opacity="1" stroke-width="2" stroke-linecap="butt" stroke-linejoin="round" transform="matrix(0.5,0,0,0.5,0,0)"
font-family=".AppleSystemUIFont" font-size="13" font-weight="400" font-style="normal" 
>
<polyline fill="none" vector-effect="none" points="236.536,801 238.613,799.165 241.52,796.596 244.427,794.027 247.335,791.458 250.242,788.889 253.15,786.32 256.057,783.751 258.965,781.182 261.872,778.613 264.78,776.044 267.688,773.475 270.595,770.906 273.503,768.337 276.41,765.768 279.318,763.199 282.225,760.63 285.133,758.061 288.04,755.492 290.948,752.923 293.855,750.354 296.763,747.785 299.67,745.216 302.577,742.647 305.485,740.078 308.393,737.509 311.3,734.94 314.207,732.371 317.115,729.802 320.022,727.233 322.93,724.664 325.837,722.095 328.745,719.526 331.652,716.957 334.56,714.388 337.467,711.819 340.375,709.25 343.283,706.681 346.19,704.112 349.098,701.543 352.005,698.974 354.913,696.405 357.82,693.836 360.728,691.267 363.635,688.698 366.543,686.129 369.45,683.56 372.357,680.991 375.265,678.422 378.172,675.853 381.08,673.284 383.987,670.715 386.895,668.146 389.802,665.577 392.71,663.008 395.617,660.439 398.525,657.87 401.432,655.301 404.34,652.732 407.247,650.163 410.155,647.594 413.063,645.025 415.97,642.456 418.878,639.887 421.785,637.318 424.693,634.749 427.6,632.18 430.508,629.611 433.415,627.042 436.323,624.473 439.23,621.904 442.138,619.335 445.045,616.766 447.953,614.197 450.86,611.628 453.767,609.059 456.675,606.49 459.582,603.921 462.49,601.352 465.397,598.783 468.305,596.214 471.212,593.645 474.12,591.076 477.027,588.507 479.935,585.938 482.842,583.369 485.75,580.8 488.658,578.231 491.565,575.662 494.473,573.093 497.38,570.524 500.288,567.955 503.195,565.386 506.103,562.817 509.01,560.248 511.918,557.679 514.825,555.11 517.732,552.541 520.64,549.972 523.547,547.403 526.455,544.834 529.362,542.265 532.27,539.696 535.177,537.127 538.085,534.558 540.992,531.989 543.9,529.42 546.807,526.851 549.715,524.282 552.622,521.713 555.53,519.144 558.438,516.575 561.345,514.006 564.253,511.437 567.16,508.868 570.068,506.299 572.975,503.73 575.883,501.161 578.79,498.592 581.698,496.023 584.605,493.454 587.513,490.885 590.42,488.316 593.328,485.747 596.235,483.178 599.143,480.609 602.05,478.04 604.958,475.471 607.865,472.902 610.773,470.333 613.68,467.764 616.588,465.195 619.495,462.626 622.402,460.057 625.31,457.488 628.218,454.919 631.125,452.35 634.032,449.781 636.94,447.212 639.848,444.643 642.755,442.074 645.662,439.505 648.57,436.936 651.477,434.367 654.385,431.798 657.292,429.229 660.2,426.66 663.107,424.091 666.015,421.522 668.922,418.953 671.83,416.384 674.737,413.815 677.645,411.246 680.552,408.677 683.46,406.108 686.367,403.539 689.275,400.97 692.182,398.401 695.09,395.832 697.997,393.263 700.905,390.694 703.813,388.125 706.72,385.556 709.628,382.987 712.535,380.418 715.443,377.849 718.35,375.28 721.258,372.711 724.165,370.142 727.073,367.573 729.98,365.004 732.888,362.435 735.795,359.866 738.703,357.297 741.61,354.728 744.518,352.159 747.425,349.59 750.333,347.021 753.24,344.452 756.148,341.883 759.055,339.314 761.963,336.745 764.87,334.176 767.777,331.607 770.685,329.038 773.592,326.469 776.5,323.9 779.408,321.331 782.315,318.762 785.223,316.193 788.13,313.624 791.037,311.055 793.945,308.486 796.852,305.917 799.76,303.348 802.667,300.779 805.575,298.21 808.482,295.641 811.39,293.072 814.297,290.503 817.205,287.934 820.112,285.365 823.02,282.796 825.927,280.227 828.835,277.658 831.742,275.089 834.65,272.52 837.557,269.951 840.465,267.382 843.372,264.813 846.28,262.244 849.188,259.675 852.095,257.106 855.003,254.537 857.91,251.968 860.818,249.399 863.725,246.83 866.633,244.261 869.54,241.692 872.448,239.123 875.355,236.554 878.263,233.985 881.17,231.416 884.078,228.847 886.985,226.278 889.893,223.709 892.8,221.14 895.708,218.571 898.615,216.002 901.523,213.433 904.43,210.864 907.338,208.295 910.245,205.726 913.152,203.157 916.06,200.588 918.967,198.019 921.875,195.45 924.783,193.422 927.69,191.437 930.598,189.497 933.505,187.601 936.412,185.751 939.32,183.948 942.227,182.192 945.135,180.485 948.042,178.826 950.95,177.217 953.857,175.659 956.765,174.152 959.672,172.696 962.58,171.293 965.487,169.943 968.395,168.646 971.303,167.404 974.21,166.216 977.117,165.083 980.025,164.005 982.932,162.984 985.84,162.019 988.747,161.111 991.655,160.26 994.563,159.467 997.47,158.731 1000.38,158.054 1003.28,157.434 1006.19,156.874 1009.1,156.372 1012.01,155.929 1014.92,155.545 1017.82,155.22 1020.73,154.955 1023.64,154.749 1026.55,154.602 1029.45,154.515 1032.36,154.488 1035.27,154.519 1038.18,154.61 1041.08,154.76 1043.99,154.97 1046.9,155.238 1049.8,155.565 1052.71,155.951 1055.62,156.395 1058.53,156.897 1061.43,157.457 1064.34,158.075 1067.25,158.75 1070.16,159.482 1073.07,160.27 1075.97,161.114 1078.88,162.014 1081.79,162.97 1084.7,163.98 1087.6,165.044 1090.51,166.162 1093.42,167.333 1096.32,168.556 1099.23,169.831 1102.14,171.158 1105.05,172.535 1107.95,173.962 1110.86,175.438 1113.77,176.963 1116.68,178.535 1119.58,180.154 1122.49,181.819 1125.4,183.53 1128.31,185.284 1131.21,187.082 1134.12,188.922 1137.03,190.804 1139.94,192.726 1142.84,194.688 1145.75,196.688 1148.66,198.725 1151.57,200.799 1154.47,202.907 1157.38,205.05 1160.29,207.225 1163.2,209.433 1166.1,211.67 1169.01,213.937 1171.92,216.231 1174.83,218.552 1177.73,220.899 1180.64,223.269 1183.55,225.661 1186.46,228.075 1189.36,230.508 1192.27,232.96 1195.18,235.428 1198.09,237.911 1200.99,240.408 1203.9,242.917 1206.81,245.436 1209.72,247.964 1212.63,250.5 1215.53,253.041 1218.44,255.585 1221.35,258.132 1224.26,260.679 1227.16,263.225 1230.07,265.767 1232.98,268.304 1235.89,270.835 1238.79,273.356 1241.7,275.867 1244.61,278.365 1247.52,280.848 1250.42,283.315 1253.33,285.763 1256.24,288.19 1259.15,290.594 1262.05,292.974 1264.96,295.327 1267.87,297.65 1270.78,299.942 1273.68,302.201 1276.59,304.423 1279.5,306.608 1282.41,308.752 1285.31,310.854 1288.22,312.911 1291.13,314.92 1294.04,316.88 1296.94,318.788 1299.85,320.641 1302.76,322.437 1305.67,324.173 1308.57,325.848 1311.48,327.458 1314.39,329 1317.3,330.473 1320.2,331.874 1323.11,333.199 1326.02,334.447 1328.93,335.614 1331.83,336.698 1334.74,337.697 1337.65,338.606 1340.55,339.424 1343.46,340.148 1346.37,340.774 1349.28,341.301 1352.18,341.724 1355.09,342.041 1358,342.25 " />
</g>

<g fill="none" stroke="#00b8d5" stroke-opacity="1" stroke-width="2" stroke-linecap="butt" stroke-linejoin="round" transform="matrix(0.5,0,0,0.5,0,0)"
font-family=".AppleSystemUIFont" font-size="13" font-weight="400" font-style="normal" 
>
<polyline fill="none" vector-effect="none" points="195,674.104 197.908,674.61 200.815,675.104 203.723,675.586 206.63,676.057 209.538,676.516 212.445,676.964 215.352,677.4 218.26,677.825 221.167,678.239 224.075,678.642 226.983,679.033 229.89,679.413 232.798,679.783 235.705,680.141 238.613,680.489 241.52,680.826 244.427,681.152 247.335,681.467 250.242,681.772 253.15,682.066 256.057,682.35 258.965,682.624 261.872,682.887 264.78,683.139 267.688,683.382 270.595,683.614 273.503,683.836 276.41,684.048 279.318,684.25 282.225,684.442 285.133,684.624 288.04,684.797 290.948,684.959 293.855,685.111 296.763,685.254 299.67,685.387 302.577,685.51 305.485,685.624 308.393,685.728 311.3,685.823 314.207,685.908 317.115,685.984 320.022,686.05 322.93,686.107 325.837,686.154 328.745,686.192 331.652,686.221 334.56,686.241 337.467,686.251 340.375,686.252 343.283,686.244 346.19,686.227 349.098,686.2 352.005,686.165 354.913,686.12 357.82,686.067 360.728,686.004 363.635,685.932 366.543,685.852 369.45,685.762 372.357,685.663 375.265,685.556 378.172,685.44 381.08,685.314 383.987,685.18 386.895,685.037 389.802,684.885 392.71,684.724 395.617,684.555 398.525,684.376 401.432,684.189 404.34,683.993 407.247,683.788 410.155,683.574 413.063,683.352 415.97,683.12 418.878,682.88 421.785,682.631 424.693,682.373 427.6,682.107 430.508,681.831 433.415,681.547 436.323,681.254 439.23,680.953 442.138,680.642 445.045,680.323 447.953,679.994 450.86,679.657 453.767,679.311 456.675,678.956 459.582,678.593 462.49,678.22 465.397,677.839 468.305,677.448 471.212,677.049 474.12,676.64 477.027,676.223 479.935,675.797 482.842,675.361 485.75,674.917 488.658,674.463 491.565,674.001 494.473,673.529 497.38,673.048 500.288,672.558 503.195,672.059 506.103,671.551 509.01,671.033 511.918,670.506 514.825,669.97 517.732,669.424 520.64,668.869 523.547,668.305 526.455,667.731 529.362,667.148 532.27,666.555 535.177,665.952 538.085,665.34 540.992,664.718 543.9,664.087 546.807,663.446 549.715,662.795 552.622,662.134 555.53,661.464 558.438,660.783 561.345,660.092 564.253,659.392 567.16,658.681 570.068,657.96 572.975,657.23 575.883,656.488 578.79,655.737 581.698,654.975 584.605,654.203 587.513,653.42 590.42,652.627 593.328,651.823 596.235,651.009 599.143,650.184 602.05,649.348 604.958,648.502 607.865,647.644 610.773,646.776 613.68,645.896 616.588,645.006 619.495,644.104 622.402,643.191 625.31,642.267 628.218,641.331 631.125,640.384 634.032,639.425 636.94,638.455 639.848,637.473 642.755,636.48 645.662,635.474 648.57,634.457 651.477,633.428 654.385,632.386 657.292,631.333 660.2,630.267 663.107,629.189 666.015,628.099 668.922,626.996 671.83,625.88 674.737,624.752 677.645,623.611 680.552,622.457 683.46,621.29 686.367,620.111 689.275,618.918 692.182,617.712 695.09,616.492 697.997,615.259 700.905,614.013 703.813,612.753 706.72,611.48 709.628,610.192 712.535,608.891 715.443,607.575 718.35,606.246 721.258,604.902 724.165,603.544 727.073,602.172 729.98,600.785 732.888,599.383 735.795,597.967 738.703,596.535 741.61,595.089 744.518,593.628 747.425,592.151 750.333,590.659 753.24,589.152 756.148,587.629 759.055,586.09 761.963,584.536 764.87,582.966 767.777,581.379 770.685,579.777 773.592,578.158 776.5,576.523 779.408,574.871 782.315,573.202 785.223,571.517 788.13,569.815 791.037,568.096 793.945,566.36 796.852,564.606 799.76,562.835 802.667,561.046 805.575,559.24 808.482,557.415 811.39,555.573 814.297,553.713 817.205,551.834 820.112,549.937 823.02,548.022 825.927,546.087 828.835,544.134 831.742,542.162 834.65,540.171 837.557,538.161 840.465,536.131 843.372,534.081 846.28,532.012 849.188,529.923 852.095,527.814 855.003,525.685 857.91,523.536 860.818,521.366 863.725,519.175 866.633,516.964 869.54,514.732 872.448,512.478 875.355,510.204 878.263,507.908 881.17,505.59 884.078,503.251 886.985,500.89 889.893,498.506 892.8,496.101 895.708,493.673 898.615,491.222 901.523,488.749 904.43,486.253 907.338,483.734 910.245,481.191 913.152,478.626 916.06,476.036 918.967,473.423 921.875,470.786 924.783,468.124 927.69,465.439 930.598,462.729 933.505,459.994 936.412,457.234 939.32,454.45 942.227,451.64 945.135,448.805 948.042,445.944 950.95,443.057 953.857,440.145 956.765,437.206 959.672,434.241 962.58,431.25 965.487,428.232 968.395,425.187 971.303,422.114 974.21,419.015 977.117,415.888 980.025,412.733 982.932,409.551 985.84,406.34 988.747,403.102 991.655,399.834 994.563,396.538 997.47,393.214 1000.38,389.86 1003.28,386.476 1006.19,383.064 1009.1,379.621 1012.01,376.149 1014.92,372.647 1017.82,369.114 1020.73,365.551 1023.64,361.957 1026.55,358.332 1029.45,354.676 1032.36,350.988 1035.27,347.269 1038.18,343.518 1041.08,339.735 1043.99,335.92 1046.9,332.072 1049.8,328.192 1052.71,324.278 1055.62,320.332 1058.53,316.352 1061.43,312.338 1064.34,308.291 1067.25,304.21 1070.16,300.094 1073.07,295.944 1075.97,291.759 1078.88,287.54 1081.79,283.285 1084.7,278.994 1087.6,274.668 1090.51,270.306 1093.42,265.908 1096.32,261.474 1099.23,257.003 1102.14,252.495 1105.05,247.95 1107.95,243.367 1110.86,238.747 1113.77,234.09 1116.68,229.394 1119.58,224.66 1122.49,219.887 1125.4,215.075 1128.31,210.225 1131.21,205.335 1134.12,200.406 1137.03,195.436 1139.94,190.427 1142.84,185.378 1145.75,180.287 1148.66,175.156 1151.57,169.984 1154.47,164.771 1157.38,159.516 1160.29,154.219 1163.2,148.88 1166.1,143.499 1169.01,138.075 1171.92,132.608 1174.83,127.098 1177.73,121.545 1180.64,115.947 1183.55,110.306 1186.46,104.621 1189.36,98.8909 1192.27,93.1162 1195.18,87.2964 1198.09,81.4313 1200.99,75.5206 1203.9,69.5641 1205.14,67 " />
</g>
</g>
</svg>
